<svg width="100" height="86" viewBox="0 0 100 86" fill="none" xmlns="http://www.w3.org/2000/svg">
<g clip-path="url(#clip0_4234_1044)">
<path d="M35.1548 50.0196V49.5583L38.0128 49.3878L41.8233 52.326H45.7344C46.0994 52.3124 46.4605 52.2723 46.8177 52.2139L54.2571 34.97C50.5996 32.0816 45.2331 31.518 45.2331 31.518H40.3691L37.5111 34.3761H36.5084H32.2967H20.0625L16.0512 34.3757V31.4677H5.72268C5.72268 31.4677 0.00653362 33.4736 0.00653362 42.6992C0.00653362 51.9248 4.92034 53.6297 4.92034 53.6297H15.2493L16.7534 50.0196H23.7728H27.9849H35.1548ZM33.6004 37.585H36.1072V39.8416H33.6004V37.585ZM33.6004 40.1421H36.1072V42.3986H33.6004V40.1421ZM33.6004 42.6992H36.1072V43.852H33.6004V42.6992ZM33.6004 44.153H36.1072V45.808H33.6004V44.153ZM27.5837 37.585H30.692V39.8416H27.5837V37.585ZM27.5837 40.1421H30.692V42.3986H27.5837V40.1421ZM27.5837 42.6992H30.692V43.852H27.5837V42.6992ZM23.8734 45.808H20.7647V44.153H23.8734V45.808ZM23.8734 43.852H20.7647V40.1421H23.8734V43.852ZM23.8734 39.8416H20.7647V37.585H23.8734V39.8416ZM27.5837 44.153H30.692V45.808H27.5837V44.153Z" fill="white"/>
<path d="M36.8093 31.0166L39.2159 27.6572L42.1243 0.561349L39.6222 0.340087L32.5977 0.283386L31.0932 26.955L32.2967 29.4622V34.3761H36.5084L36.8093 31.0166Z" fill="#B40000"/>
<path d="M20.0625 34.3761V31.0167L21.6672 27.6572V0.481225L16.9537 0.0975342L12.4411 0.340112L14.3967 27.6572L16.0512 30.6658V31.4677V34.3757L20.0625 34.3761Z" fill="#B40000"/>
<path d="M69.1745 26.5322L73.1807 35.6798H84.4493L69.1745 0.392578L54.2571 34.97L46.8177 52.2139L42.8265 61.4656H29.7571L29.7899 56.8387L27.9849 52.8274V50.0196H23.7728V52.8274L21.6672 56.8387L21.4378 61.4656H12.4411V71.5907H20.9365L20.2633 85.1828L27.2827 85.3491L29.5891 85.1828L29.6855 71.5907H38.4579H49.0069H49.2392L60.203 46.8107L65.1275 35.6798L69.1745 26.5322Z" fill="#B40000"/>
<path d="M88.9069 71.5907H99.9935L89.2672 46.8107H78.0553L88.9069 71.5907Z" fill="#B40000"/>
<path d="M99.9935 35.6797H84.4493H73.1807H65.1275L60.203 46.8106H78.0553H89.2672H99.9935V35.6797Z" fill="white"/>
<path d="M34.7267 80.2813L33.4081 77.2988H32.382L34.1862 81.513L32.544 85.349H33.6243L34.7267 82.7668L34.8133 82.5613L35.2669 81.5023L37.0715 77.2988H36.0449L34.7267 80.2813Z" fill="white"/>
<path d="M42.9407 77.2339H42.9296V80.3679C42.7135 81.0917 42.1085 81.5995 41.3736 81.5995C40.639 81.5995 40.023 81.0917 39.8175 80.3679V79.3302V77.6445V77.2339H38.8344V79.5898C38.8233 79.6764 38.8233 79.7625 38.8233 79.8384C38.8233 79.9245 38.8233 80.011 38.8344 80.0976C38.8668 80.5405 38.9964 80.9621 39.2014 81.3186C39.6661 82.0966 40.4659 82.6154 41.3736 82.6154C41.9679 82.6154 42.4867 82.3993 42.9296 82.0429V82.6154H43.8914V77.2339H43.8373H42.9407Z" fill="white"/>
<path d="M45.7297 77.2446V78.2175H48.1393L46.5832 80.9946L45.6432 82.6261H49.7602V81.6754H47.3182L49.8574 77.2446H45.7297Z" fill="white"/>
<path d="M54.2353 77.2339C52.7875 77.2339 51.6096 78.4332 51.6096 79.9245C51.6096 81.4268 52.7875 82.6154 54.2353 82.6154C55.6725 82.6154 56.8504 81.4268 56.8504 79.9245C56.8504 78.4332 55.6725 77.2339 54.2353 77.2339ZM54.2353 81.6319C53.3059 81.6319 52.5603 80.8649 52.5603 79.9245C52.5603 78.9844 53.3059 78.2175 54.2353 78.2175C55.154 78.2175 55.8997 78.9844 55.8997 79.9245C55.8997 80.8649 55.154 81.6319 54.2353 81.6319Z" fill="white"/>
<path d="M65.3884 77.8717C64.9454 77.4932 64.3835 77.2664 63.7462 77.2664C62.3197 77.2664 61.1524 78.466 61.1524 79.9356C61.1524 81.4375 62.3197 82.6261 63.7462 82.6261C64.3835 82.6261 64.9454 82.3993 65.3884 82.0212V82.6261H66.4043V77.2122H65.3884V77.8717ZM65.3884 80.173C65.2698 81.0052 64.5779 81.6426 63.7462 81.6426C62.8385 81.6426 62.0929 80.8756 62.0929 79.9356C62.0929 79.0168 62.8385 78.2499 63.7462 78.2499C64.5779 78.2499 65.2698 78.8872 65.3884 79.7194V80.173Z" fill="#B40000"/>
<path d="M72.2509 77.072H70.9544L69.0957 80.3892V74.4786H67.9936V82.6154H69.0957L70.2195 80.3892L71.4946 82.6154H72.8021L70.9544 79.4709L72.2509 77.072Z" fill="#B40000"/>
<path d="M78.627 77.8717C78.184 77.4932 77.6221 77.2664 76.9844 77.2664C75.5583 77.2664 74.3915 78.466 74.3915 79.9356C74.3915 81.4375 75.5583 82.6261 76.9844 82.6261C77.6221 82.6261 78.184 82.3993 78.627 82.0212V82.6261H79.6429V77.2122H78.627V77.8717ZM78.627 80.173C78.508 81.0052 77.8165 81.6426 76.9844 81.6426C76.0771 81.6426 75.3315 80.8756 75.3315 79.9356C75.3315 79.0168 76.0771 78.2499 76.9844 78.2499C77.8165 78.2499 78.508 78.8872 78.627 79.7194V80.173Z" fill="#B40000"/>
<path d="M83.7932 77.3205C83.2202 77.3205 82.7018 77.5366 82.2695 77.8824V74.5217H81.2322V82.6043L81.2753 82.6154H82.2584L82.2695 79.525C82.4856 78.8335 83.0688 78.3147 83.7932 78.3147C84.5277 78.3147 85.1114 78.8224 85.3168 79.5463V82.2049V82.6154H86.2782L86.3 80.292C86.3 80.2165 86.311 80.13 86.311 80.0434C86.311 79.968 86.3 79.8814 86.3 79.7949C86.1597 78.4225 85.1007 77.3205 83.7932 77.3205Z" fill="#B40000"/>
<path d="M90.5261 77.2339C89.0779 77.2339 87.9004 78.4332 87.9004 79.9245C87.9004 81.4268 89.0779 82.6154 90.5261 82.6154C91.9632 82.6154 93.1412 81.4268 93.1412 79.9245C93.1412 78.4332 91.9632 77.2339 90.5261 77.2339ZM90.5261 81.6319C89.5967 81.6319 88.8511 80.8649 88.8511 79.9245C88.8511 78.9844 89.5967 78.2175 90.5261 78.2175C91.4444 78.2175 92.19 78.9844 92.19 79.9245C92.19 80.8649 91.4444 81.6319 90.5261 81.6319Z" fill="#B40000"/>
<path d="M95.6488 77.2122H94.7301V82.6261H95.6488V79.9138C95.7353 78.9955 96.3838 78.2175 97.3238 78.2175V77.2664C96.6754 77.2664 96.1135 77.5043 95.6488 77.8824V77.2122Z" fill="#B40000"/>
<path d="M99.4533 75.0729C99.1506 75.0729 98.9132 75.3215 98.9132 75.6131C98.9132 75.9158 99.1506 76.1532 99.4533 76.1532C99.7449 76.1532 99.9935 75.9158 99.9935 75.6131C99.9935 75.3215 99.7449 75.0729 99.4533 75.0729Z" fill="#B40000"/>
<path d="M98.9345 82.6154H99.9287V77.2233H98.9345V82.6154Z" fill="#B40000"/>
</g>
<defs>
<clipPath id="clip0_4234_1044">
<rect width="100" height="85.2515" fill="white" transform="translate(0 0.0975342)"/>
</clipPath>
</defs>
</svg>
