<svg width="100" height="100" viewBox="0 0 100 100" fill="none" xmlns="http://www.w3.org/2000/svg">
<g clip-path="url(#clip0_4233_1039)">
<path d="M94.9786 31.5142C82.1756 15.7725 61.8669 27.1068 61.8669 27.1068C61.8669 27.1068 41.5583 15.7725 28.7553 31.5142C20.4161 41.7675 21.7976 56.7429 38.0202 74.0896C53.4286 90.5661 61.8669 99.0975 61.8669 99.0975C61.8669 99.0975 70.3053 90.5661 85.7137 74.0896C101.936 56.7429 103.318 41.7675 94.9786 31.5142Z" fill="#8B0000"/>
<path d="M35.4144 17.181L21.5296 0.675842L19.9836 12.8758L7.47678 8.14881L12.2038 20.6556L0.00381565 22.2016L16.5094 36.0865L35.4144 17.181Z" fill="#C57100"/>
</g>
<defs>
<clipPath id="clip0_4233_1039">
<rect width="100" height="98.4217" fill="white" transform="translate(0 0.675842)"/>
</clipPath>
</defs>
</svg>
