<svg width="100" height="116" viewBox="0 0 100 116" fill="none" xmlns="http://www.w3.org/2000/svg">
<g clip-path="url(#clip0_4230_990)">
<path d="M50.0002 0.845001C50.0002 0.845001 59.5166 10.1083 74.4354 25.0217C82.2956 32.9064 100 53.0108 100 72.4301C100 85.3801 89.5093 95.8957 76.5774 95.8957C70.8838 95.8957 65.1065 93.6073 60.9133 89.8159C59.2998 88.3522 57.9339 86.7597 56.7725 84.9112C56.313 84.1874 55.6009 83.6853 54.7146 83.6853C53.7314 83.6853 52.414 84.461 52.5427 85.5895C54.1254 97.893 60.6696 111.041 72.8522 115.611H27.1483C39.3309 111.041 45.8746 97.893 47.4578 85.5895C47.586 84.461 46.2686 83.6853 45.2854 83.6853C44.3991 83.6853 43.687 84.1874 43.2275 84.9112C42.0661 86.7597 40.7007 88.3522 39.0872 89.8159C34.894 93.6073 29.1162 95.8957 23.4225 95.8957C10.4907 95.8957 -2.86102e-06 85.3801 -2.86102e-06 72.4301C-2.86102e-06 53.0108 17.7049 32.9064 25.5651 25.0217C40.4834 10.1083 50.0002 0.845001 50.0002 0.845001ZM49.5647 63.8383C49.8578 63.6293 50.2523 63.6293 50.5391 63.8383C50.5391 63.8383 61.6773 71.9231 64.8138 74.2017C63.6163 70.5254 59.3644 57.434 59.3644 57.434C59.335 57.3508 59.3257 57.2637 59.3257 57.181C59.3257 56.9275 59.4476 56.6745 59.6609 56.5188C59.6609 56.5188 70.804 48.4286 73.9464 46.149H56.2812C55.9205 46.149 55.6092 45.9151 55.5025 45.5788C55.5025 45.5788 51.2551 32.4968 50.0002 28.8003C48.7449 32.4968 44.4975 45.5788 44.4975 45.5788C44.3908 45.9151 44.0795 46.149 43.7188 46.149H26.054C29.196 48.4286 40.3391 56.5188 40.3391 56.5188C40.5524 56.6745 40.6743 56.9275 40.6743 57.181C40.6743 57.2637 40.665 57.3508 40.6356 57.434C40.6356 57.434 36.3837 70.5254 35.1862 74.2017C38.3227 71.9231 49.4609 63.8383 49.4609 63.8383C49.7482 63.6293 50.1427 63.6293 50.4353 63.8383H49.5647Z" fill="#D70025"/>
<path fill-rule="evenodd" clip-rule="evenodd" d="M55.5025 45.5789C55.5025 45.5789 51.2551 32.4968 50.0002 28.8004C48.7449 32.4968 44.4975 45.5789 44.4975 45.5789C44.3908 45.9151 44.0795 46.149 43.7188 46.149H26.054C29.196 48.4286 40.3391 56.5188 40.3391 56.5188C40.5524 56.6745 40.6743 56.9275 40.6743 57.181C40.6743 57.2637 40.665 57.3508 40.6356 57.434C40.6356 57.434 36.3837 70.5254 35.1862 74.2017C38.3227 71.9231 49.4609 63.8383 49.4609 63.8383C49.6195 63.7228 49.8108 63.6709 50.0002 63.6831C50.1891 63.6709 50.3805 63.7228 50.5391 63.8383C50.5391 63.8383 61.6773 71.9231 64.8138 74.2017C63.6162 70.5254 59.3644 57.434 59.3644 57.434C59.335 57.3508 59.3257 57.2637 59.3257 57.181C59.3257 56.9275 59.4476 56.6745 59.6609 56.5188C59.6609 56.5188 70.804 48.4286 73.9464 46.149H56.2812C55.9205 46.149 55.6092 45.9151 55.5025 45.5789Z" fill="white"/>
</g>
<defs>
<clipPath id="clip0_4230_990">
<rect width="100" height="114.775" fill="white" transform="translate(0 0.840332)"/>
</clipPath>
</defs>
</svg>
