<svg width="100" height="101" viewBox="0 0 100 101" fill="none" xmlns="http://www.w3.org/2000/svg">
<g clip-path="url(#clip0_4236_1232)">
<path d="M96.6502 38.3934C89.5533 42.6431 83.5987 44.2898 78.4427 44.2898C77.8969 44.2898 77.3618 44.2676 76.8333 44.232V75.6614H76.8338C76.8338 75.6645 76.8333 75.6671 76.8333 75.6703V76.2751H76.8129C76.7084 80.64 75.5044 83.9298 73.1151 86.2916C68.3916 90.96 59.9173 90.8605 52.4471 90.7752C46.1911 90.7009 40.2871 90.6338 37.664 93.2271C36.7738 94.1067 36.2844 95.2769 36.176 96.7907C40.5578 98.1045 45.196 98.82 50 98.82C76.5884 98.82 98.2196 77.1889 98.2196 50.6005C98.2196 46.384 97.672 42.2943 96.6502 38.3934Z" fill="#FF0C3C"/>
<path d="M29.968 15.9414C37.4822 13.9858 44.6947 16.0943 51.6698 18.1329C59.2507 20.3485 67.0907 22.64 75.3689 19.6947C78.392 18.6187 80.4569 17.3525 82.6844 15.1889C74.0849 7.24581 62.6018 2.38092 50 2.38092C28.3613 2.38092 10.0084 16.7089 3.924 36.3751H11.1911C11.7596 29.3783 18.2107 19 29.968 15.9414Z" fill="#00B1FF"/>
<path d="M51.1702 19.8418C44.1173 17.78 37.4556 15.832 30.4169 17.664C19.6911 20.4543 13.5751 30.0787 12.9769 36.3752H25.7178H25.7507C26.0573 31.4587 29.728 26.6889 34.7147 24.8605C43.7404 21.5516 50.2582 26.8209 57.1573 32.4C58.8293 33.752 60.5129 35.1098 62.2502 36.3752H62.58V36.6147C70.8476 42.5516 80.4253 46.196 96.1444 36.6156C96.0773 36.3947 96.0058 36.1756 95.9356 35.956C95.8285 35.6205 95.7173 35.2867 95.6031 34.9543C95.3018 34.0778 94.9787 33.2112 94.6284 32.3578C92.1618 26.3418 88.5142 20.9312 83.9724 16.4169C81.5493 18.7787 79.2338 20.2089 75.9658 21.372C67.1449 24.5107 59.024 22.1369 51.1702 19.8418Z" fill="white"/>
<path d="M47.4302 36.3747H59.2924C58.1858 35.5178 57.1031 34.6454 56.0378 33.784C51.4547 30.0778 47.2933 26.7169 42.5804 25.8431V66.0485C42.5804 72.7236 39.5178 76.5516 34.1769 76.5516C30.4809 76.5516 27.8684 74.7423 26.5969 71.4423C26.0187 69.9423 25.7178 68.1342 25.7178 66.0485V38.1551H12.8573V81.3151C18.4827 88.1062 25.9364 93.3231 34.4502 96.2325C34.6564 94.4885 35.3089 93.0516 36.4124 91.9609C38.7476 89.6529 42.7933 89.0956 47.4302 88.9929V76.2751V36.3747Z" fill="#FFC600"/>
<path d="M35.3276 26.532C30.7951 28.1934 27.5036 32.6089 27.5009 37.0312H27.4982V66.0485C27.4982 67.4618 27.6462 68.9712 28.0822 70.3303C28.8733 72.7983 30.6178 74.7707 34.1769 74.7707C39.6511 74.7707 40.8004 70.0276 40.8004 66.0485V36.3747V25.6374C39.0751 25.5578 37.2658 25.8218 35.3276 26.532Z" fill="#FF4EA4"/>
<path d="M49.2107 57.9334V88.9729C50.2782 88.9712 51.3671 88.9823 52.4676 88.9952C59.9391 89.0796 67.6689 89.1712 71.864 85.0254C74.0098 82.9036 75.0533 79.8405 75.0533 75.6614V44.0476C69.9227 43.3076 65.6089 40.9503 61.684 38.1552H49.2107V56.1529H60.4253V56.1534V57.9334H49.2107Z" fill="#FF5700"/>
<path d="M36.176 96.7907C39.7711 97.8684 43.5404 98.5356 47.4302 98.7431V90.7729C43.1956 90.8671 39.5658 91.3467 37.6636 93.2271C36.7742 94.1067 36.2844 95.2764 36.176 96.7907Z" fill="#B623AF"/>
<path d="M1.78044 50.6005C1.78044 61.2196 5.23822 71.0423 11.0769 79.0174V38.1552H3.41733C2.35511 42.1276 1.78044 46.2978 1.78044 50.6005Z" fill="#BFFF21"/>
<path d="M50 98.82C49.7356 98.82 49.4738 98.8094 49.2107 98.8054V90.752C50.2684 90.7502 51.3516 90.7622 52.4471 90.7751C59.9178 90.8605 68.3916 90.96 73.1156 86.2916C75.5044 83.9298 76.7084 80.64 76.8133 76.2751H76.8338V75.6702C76.8338 75.6671 76.8338 75.6645 76.8338 75.6614V44.232C77.3622 44.2676 77.8969 44.2898 78.4427 44.2898C83.5987 44.2898 89.5533 42.6427 96.6502 38.3934C97.6716 42.2938 98.2196 46.384 98.2196 50.6005C98.2196 77.1889 76.5884 98.82 50 98.82ZM47.4302 88.9925C42.7929 89.0956 38.7476 89.6529 36.4124 91.9609C35.3084 93.0516 34.6564 94.4889 34.4502 96.2325C25.9364 93.3236 18.4827 88.1062 12.8569 81.3151V38.1556H25.7178V66.0485C25.7178 72.7231 28.8009 76.5516 34.1769 76.5516C39.5173 76.5516 42.5804 72.7231 42.5804 66.0485V25.8431C47.2933 26.7169 51.4547 30.0774 56.0382 33.784C57.1031 34.6454 58.1858 35.5182 59.2924 36.3751H47.4302V88.9925ZM47.4302 98.7431C43.5404 98.5356 39.7707 97.8685 36.176 96.7907C36.2844 95.2769 36.7742 94.1067 37.664 93.2271C39.5658 91.3471 43.1951 90.8671 47.4302 90.7729V98.7431ZM11.1911 36.3751H3.924C10.0084 16.7089 28.3613 2.38091 50 2.38091C62.6022 2.38091 74.0853 7.2458 82.6844 15.1889C80.4573 17.3529 78.392 18.6187 75.3689 19.6947C67.0907 22.6405 59.2507 20.3489 51.6698 18.1329C44.6947 16.0942 37.4822 13.9858 29.968 15.9414C18.2107 19 11.7596 29.3782 11.1911 36.3751ZM11.0769 79.0174C5.23822 71.0422 1.78044 61.2196 1.78044 50.6005C1.78044 46.2978 2.35511 42.1276 3.41733 38.1556H11.0769V79.0174ZM40.8004 25.6369V66.0485C40.8004 70.0276 39.6511 74.7711 34.1769 74.7711C28.6569 74.7711 27.4982 70.0276 27.4982 66.0485V37.0311H27.5009C27.5036 32.6089 30.7951 28.1938 35.3276 26.532C37.2658 25.8218 39.0747 25.5582 40.8004 25.6369ZM49.2107 56.1529V38.1556H61.684C65.6089 40.9507 69.9227 43.3076 75.0533 44.0476V75.6614C75.0533 79.8405 74.0098 82.904 71.864 85.0254C67.6689 89.1716 59.9391 89.0796 52.468 88.9951C51.3667 88.9822 50.2782 88.9711 49.2107 88.9729V57.9334H60.4253V56.1529H49.2107ZM96.1444 36.6156C80.4253 46.196 70.8476 42.5516 62.58 36.6147L62.2502 36.3751C60.5129 35.1098 58.8293 33.7525 57.1573 32.4C50.2582 26.8209 43.7404 21.552 34.7147 24.8609C29.728 26.6889 26.0573 31.4591 25.7507 36.3751H25.7178H12.9769C13.5751 30.0787 19.6911 20.4542 30.4169 17.664C37.4556 15.832 44.1173 17.78 51.1702 19.8418C59.024 22.1369 67.1449 24.5107 75.9658 21.372C79.2338 20.2089 81.5493 18.7787 83.9724 16.4174C89.5627 21.9734 93.7973 28.8867 96.1444 36.6156ZM50 0.600464C22.4298 0.600464 0 23.0302 0 50.6005C0 62.9631 4.52 74.2845 11.9818 83.0209L12.8569 84.1227V84.0316C22.0156 94.1969 35.2729 100.6 50 100.6C77.5702 100.6 100 78.1707 100 50.6005C100 23.0302 77.5702 0.600464 50 0.600464Z" fill="black"/>
</g>
<defs>
<clipPath id="clip0_4236_1232">
<rect width="100" height="100" fill="white" transform="translate(0 0.600464)"/>
</clipPath>
</defs>
</svg>
