<svg width="100" height="18" viewBox="0 0 100 18" fill="none" xmlns="http://www.w3.org/2000/svg">
<g clip-path="url(#clip0_4230_950)">
<path d="M70.5645 10.3172C70.2748 10.3172 70.0402 10.0826 70.0402 9.79332V1.14617C70.0402 0.85685 70.2748 0.622253 70.5645 0.622253C70.8538 0.622253 71.0884 0.85685 71.0884 1.14617V9.79332C71.0884 10.0826 70.8538 10.3172 70.5645 10.3172Z" fill="white"/>
<path d="M68.0149 1.67047H59.0888C58.7995 1.67047 58.5649 1.43549 58.5649 1.14617C58.5649 0.85685 58.7995 0.622253 59.0888 0.622253H68.0149C68.3043 0.622253 68.5392 0.85685 68.5392 1.14617C68.5392 1.43549 68.3043 1.67047 68.0149 1.67047Z" fill="white"/>
<path d="M63.5519 10.3172C63.2625 10.3172 63.0279 10.0826 63.0279 9.79332V1.14617C63.0279 0.85685 63.2625 0.622253 63.5519 0.622253C63.8412 0.622253 64.0762 0.85685 64.0762 1.14617V9.79332C64.0762 10.0826 63.8412 10.3172 63.5519 10.3172Z" fill="white"/>
<path d="M91.2572 1.67047H82.331C82.0417 1.67047 81.8071 1.43549 81.8071 1.14617C81.8071 0.85685 82.0417 0.622253 82.331 0.622253H91.2572C91.5465 0.622253 91.7811 0.85685 91.7811 1.14617C91.7811 1.43549 91.5465 1.67047 91.2572 1.67047Z" fill="white"/>
<path d="M86.7941 10.3172C86.5048 10.3172 86.2702 10.0826 86.2702 9.79332V1.14617C86.2702 0.85685 86.5048 0.622253 86.7941 0.622253C87.0834 0.622253 87.318 0.85685 87.318 1.14617V9.79332C87.318 10.0826 87.0834 10.3172 86.7941 10.3172Z" fill="white"/>
<path d="M34.8354 1.67047H29.9717C29.682 1.67047 29.4474 1.43549 29.4474 1.14617C29.4474 0.85685 29.682 0.622253 29.9717 0.622253H34.8354C35.1248 0.622253 35.3594 0.85685 35.3594 1.14617C35.3594 1.43549 35.1248 1.67047 34.8354 1.67047Z" fill="white"/>
<path d="M33.2143 10.3172H28.3502C28.0608 10.3172 27.8263 10.0826 27.8263 9.79331C27.8263 9.50361 28.0608 9.26901 28.3502 9.26901H33.2143C33.5036 9.26901 33.7382 9.50361 33.7382 9.79331C33.7382 10.0826 33.5036 10.3172 33.2143 10.3172Z" fill="white"/>
<path d="M33.2143 5.99387H29.9717C29.682 5.99387 29.4474 5.75927 29.4474 5.46995C29.4474 5.18024 29.682 4.94565 29.9717 4.94565H33.2143C33.5036 4.94565 33.7382 5.18024 33.7382 5.46995C33.7382 5.75927 33.5036 5.99387 33.2143 5.99387Z" fill="white"/>
<path d="M29.9717 5.99386C28.4906 5.99386 27.2855 4.78911 27.2855 3.30806C27.2855 1.827 28.4906 0.622253 29.9717 0.622253C30.261 0.622253 30.4956 0.85685 30.4956 1.14617C30.4956 1.43549 30.261 1.67047 29.9717 1.67047C29.0685 1.67047 28.3337 2.40488 28.3337 3.30806C28.3337 4.21085 29.0685 4.94564 29.9717 4.94564C30.261 4.94564 30.4956 5.18023 30.4956 5.46994C30.4956 5.75926 30.261 5.99386 29.9717 5.99386Z" fill="white"/>
<path d="M33.2143 10.3173C32.9246 10.3173 32.69 10.0827 32.69 9.79333C32.69 9.50363 32.9246 9.26903 33.2143 9.26903C34.1171 9.26903 34.8519 8.53463 34.8519 7.63145C34.8519 6.72866 34.1171 5.99387 33.2143 5.99387C32.9246 5.99387 32.69 5.75927 32.69 5.46995C32.69 5.18024 32.9246 4.94565 33.2143 4.94565C34.695 4.94565 35.9001 6.15039 35.9001 7.63145C35.9001 9.11251 34.695 10.3173 33.2143 10.3173Z" fill="white"/>
<path d="M79.902 1.67047H75.0379C74.7486 1.67047 74.514 1.43549 74.514 1.14617C74.514 0.85685 74.7486 0.622253 75.0379 0.622253H79.902C80.1914 0.622253 80.4259 0.85685 80.4259 1.14617C80.4259 1.43549 80.1914 1.67047 79.902 1.67047Z" fill="white"/>
<path d="M78.2805 10.3172H73.4164C73.1271 10.3172 72.8925 10.0826 72.8925 9.79331C72.8925 9.50361 73.1271 9.26901 73.4164 9.26901H78.2805C78.5698 9.26901 78.8048 9.50361 78.8048 9.79331C78.8048 10.0826 78.5698 10.3172 78.2805 10.3172Z" fill="white"/>
<path d="M78.2805 5.99387H75.0379C74.7486 5.99387 74.514 5.75927 74.514 5.46995C74.514 5.18024 74.7486 4.94565 75.0379 4.94565H78.2805C78.5698 4.94565 78.8048 5.18024 78.8048 5.46995C78.8048 5.75927 78.5698 5.99387 78.2805 5.99387Z" fill="white"/>
<path d="M75.0379 5.99386C73.5568 5.99386 72.3521 4.78911 72.3521 3.30806C72.3521 1.827 73.5568 0.622253 75.0379 0.622253C75.3272 0.622253 75.5618 0.85685 75.5618 1.14617C75.5618 1.43549 75.3272 1.67047 75.0379 1.67047C74.1347 1.67047 73.4003 2.40488 73.4003 3.30806C73.4003 4.21085 74.1347 4.94564 75.0379 4.94564C75.3272 4.94564 75.5618 5.18023 75.5618 5.46994C75.5618 5.75926 75.3272 5.99386 75.0379 5.99386Z" fill="white"/>
<path d="M78.2805 10.3173C77.9912 10.3173 77.7566 10.0827 77.7566 9.79333C77.7566 9.50363 77.9912 9.26903 78.2805 9.26903C79.1837 9.26903 79.9185 8.53463 79.9185 7.63145C79.9185 6.72866 79.1837 5.99387 78.2805 5.99387C77.9912 5.99387 77.7566 5.75927 77.7566 5.46995C77.7566 5.18024 77.9912 4.94565 78.2805 4.94565C79.7616 4.94565 80.9663 6.15039 80.9663 7.63145C80.9663 9.11251 79.7616 10.3173 78.2805 10.3173Z" fill="white"/>
<path d="M37.1768 10.3176C37.1102 10.3176 37.0425 10.3046 36.977 10.2774C36.7095 10.1672 36.5821 9.86068 36.6927 9.59317L39.9506 1.70645C40.1267 1.29887 40.6556 0.622253 41.5427 0.622253C42.4302 0.622253 42.9591 1.29887 43.1317 1.69879L46.3927 9.59317C46.5033 9.86068 46.3758 10.1672 46.1083 10.2774C45.8408 10.388 45.5343 10.2606 45.424 9.99347L42.1699 2.11594C42.1477 2.06963 41.9449 1.67047 41.5427 1.67047C41.1194 1.67047 40.9181 2.10982 40.9162 2.11441L37.6613 9.99347C37.5783 10.1955 37.3827 10.3176 37.1768 10.3176Z" fill="white"/>
<path d="M99.4761 10.3176C99.2702 10.3176 99.0746 10.1955 98.9912 9.99347L95.7375 2.11594C95.7153 2.06963 95.5121 1.67047 95.1102 1.67047C94.6869 1.67047 94.4853 2.10982 94.4834 2.11403L91.2289 9.99347C91.1183 10.2606 90.8125 10.388 90.5446 10.2774C90.2771 10.1672 90.1496 9.86068 90.2602 9.59317L93.5178 1.70645C93.6938 1.29887 94.2227 0.622253 95.1102 0.622253C95.9973 0.622253 96.5262 1.29887 96.6988 1.69879L99.9602 9.59317C100.07 9.86068 99.9434 10.1672 99.6759 10.2774C99.6104 10.3046 99.5427 10.3176 99.4761 10.3176Z" fill="white"/>
<path d="M55.7172 10.3176C54.938 10.3176 54.367 9.71563 54.1462 9.33255L50.1431 2.12283C50.1125 2.07231 49.7788 1.5415 49.3008 1.70262C49.1339 1.75888 48.9445 1.82279 48.9445 2.5503V9.79332C48.9445 10.0826 48.7099 10.3172 48.4206 10.3172C48.1309 10.3172 47.8963 10.0826 47.8963 9.79332V2.5503C47.8963 2.14541 47.8963 1.07001 48.9663 0.709509C50.008 0.358954 50.788 1.14311 51.0555 1.60694L55.0586 8.81667C55.0892 8.8668 55.4233 9.39799 55.9005 9.23687C56.0677 9.18061 56.2572 9.1167 56.2572 8.38919V1.14617C56.2572 0.856849 56.4918 0.622253 56.7811 0.622253C57.0704 0.622253 57.305 0.856849 57.305 1.14617V8.38919C57.305 8.79409 57.305 9.86948 56.2354 10.23C56.0543 10.2908 55.881 10.3176 55.7172 10.3176Z" fill="white"/>
<path d="M15.5117 17.6391C15.5109 17.6391 15.5105 17.6391 15.5101 17.6391L0.445848 17.6226C0.282817 17.6226 0.13318 17.5338 0.0547262 17.3907C-0.023345 17.248 -0.0176045 17.0738 0.070417 16.9364L1.76158 14.2889C1.77995 14.2579 2.37428 13.2985 3.75545 13.2985C3.7566 13.2985 3.75775 13.2985 3.7589 13.2985L15.2599 13.3103L5.70455 8.34899C5.1416 8.06541 4.17987 7.18175 4.54879 5.85416C4.77459 5.04245 5.31458 4.56981 5.8473 4.31493C5.53272 3.77532 5.43245 3.11975 5.57635 2.41175C5.86452 0.995756 7.22273 0.621857 7.90203 0.621857C7.90241 0.621857 7.90318 0.621857 7.90356 0.621857L22.039 0.638313C22.2021 0.638313 22.3517 0.7271 22.4298 0.87023C22.5082 1.01298 22.5025 1.18711 22.4145 1.3245L20.7233 3.97203C20.7046 4.00303 20.1106 4.96246 18.7294 4.96246C18.7283 4.96246 18.7271 4.96246 18.726 4.96246L8.15385 4.9506L17.7118 9.91309C18.2687 10.1921 19.2342 11.0769 18.8649 12.4068C18.6391 13.2181 18.0991 13.6911 17.5664 13.946C17.881 14.486 17.9816 15.1412 17.8374 15.8492C17.5492 17.2652 16.191 17.6391 15.5117 17.6391ZM1.26024 16.7313L15.5109 16.7466C15.5591 16.7462 16.7489 16.7229 16.9629 15.6712C17.1014 14.9908 16.9097 14.5174 16.6506 14.1997C16.6269 14.2017 16.6039 14.2028 16.5817 14.2036C16.5763 14.2039 16.5763 14.2032 16.5653 14.2039L3.75775 14.1906C3.75698 14.1906 3.75622 14.1906 3.75545 14.1906C2.88672 14.1906 2.52315 14.7539 2.51971 14.7592L1.26024 16.7313ZM6.47072 5.02561C6.10754 5.13812 5.59701 5.4152 5.40873 6.09335C5.14925 7.02676 6.01071 7.50284 6.10983 7.55412L6.1129 7.55565L16.4455 12.9204C16.6269 13.0122 16.793 13.1178 16.9426 13.2353C17.3062 13.1228 17.8163 12.8457 18.005 12.1676C18.2725 11.2051 17.346 10.7279 17.3065 10.708L6.96824 5.34057C6.78645 5.24872 6.62036 5.1431 6.47072 5.02561ZM6.84768 4.05699C6.84807 4.05699 6.84807 4.05699 6.84845 4.05699L18.7271 4.07038C18.7275 4.07038 18.7287 4.07038 18.7294 4.07038C19.5917 4.07038 19.9529 3.52006 19.9679 3.49671L21.2246 1.52963L7.90279 1.51432C7.85457 1.5147 6.66475 1.53804 6.45082 2.58971C6.31228 3.27015 6.50402 3.74356 6.76311 4.0612C6.78683 4.05928 6.8098 4.05814 6.83199 4.05737C6.83735 4.05699 6.84271 4.05699 6.84768 4.05699Z" fill="#B41427"/>
<path d="M29.1799 15.8063C29.1799 16.4263 29.0555 16.8871 28.8064 17.1879C28.5572 17.4887 28.2051 17.6391 27.7497 17.6391C27.6617 17.6391 27.5786 17.6337 27.5006 17.6234C27.4229 17.6131 27.3509 17.5962 27.2855 17.5733V17.1182C27.4263 17.1879 27.5836 17.2223 27.7574 17.2223C28.0769 17.2223 28.31 17.1067 28.4573 16.8752C28.6043 16.6437 28.6781 16.2874 28.6781 15.8063V12.5779H29.1799V15.8063Z" fill="#B41427"/>
<path d="M30.4994 17.5557V12.5779H33.137V13.0011H31.0011V14.827H32.9786V15.2438H31.0011V17.1354H33.2576V17.5557H30.4994Z" fill="#B41427"/>
<path d="M37.8825 17.5557L37.2863 16.0838H34.9659L34.3846 17.5557H33.8263L35.8867 12.5779H36.3923L38.4409 17.5557H37.8825ZM36.2338 13.4489C36.2162 13.4053 36.1979 13.354 36.1791 13.2962C36.16 13.2384 36.1443 13.1726 36.132 13.0983H36.1167C36.1018 13.1726 36.0846 13.2384 36.0658 13.2962C36.0467 13.354 36.0287 13.4053 36.0111 13.4489L35.1355 15.664H37.1167L36.2338 13.4489Z" fill="#B41427"/>
<path d="M42.9529 17.5557L39.9491 13.5602C39.9116 13.5093 39.8745 13.4573 39.8377 13.4037C39.8014 13.3505 39.7719 13.2985 39.7493 13.2476H39.7306C39.7356 13.2893 39.7398 13.3471 39.7436 13.4213C39.7474 13.4952 39.7493 13.5878 39.7493 13.6988V17.5557H39.2476V12.5779H39.8021L42.7566 16.5247C42.8018 16.5874 42.8427 16.6456 42.8791 16.6999C42.9154 16.7543 42.9491 16.8048 42.9793 16.8511H42.9981C42.9881 16.7746 42.9805 16.6892 42.9755 16.5939C42.9705 16.4994 42.9679 16.3938 42.9679 16.2782V12.5779H43.4734V17.5557H42.9529Z" fill="#B41427"/>
<path d="M44.6196 16.8266C44.7099 16.8894 44.8098 16.9452 44.9196 16.995C45.0287 17.0447 45.1408 17.0865 45.2553 17.1201C45.3697 17.1534 45.4849 17.1791 45.6005 17.1963C45.7164 17.2139 45.827 17.2223 45.9326 17.2223C46.3425 17.2223 46.6494 17.1496 46.8534 17.0038C47.057 16.858 47.1588 16.6486 47.1588 16.3754C47.1588 16.2434 47.1351 16.1282 47.0873 16.0302C47.0394 15.9318 46.9652 15.8396 46.8645 15.7539C46.7639 15.6685 46.6368 15.5832 46.4834 15.499C46.3299 15.4144 46.1489 15.3191 45.9403 15.2124C45.7088 15.0968 45.5105 14.9877 45.3456 14.8844C45.181 14.7814 45.0463 14.6762 44.9422 14.5687C44.8377 14.4607 44.7612 14.3448 44.7118 14.2196C44.6628 14.0949 44.6384 13.9525 44.6384 13.7925C44.6384 13.5916 44.685 13.411 44.778 13.251C44.871 13.0914 44.9969 12.9556 45.1554 12.8431C45.3138 12.7313 45.499 12.6448 45.7118 12.5847C45.9242 12.5246 46.1516 12.4944 46.393 12.4944C46.8182 12.4944 47.1741 12.5488 47.4608 12.6574V13.168C47.1412 12.9988 46.7666 12.9142 46.3364 12.9142C46.1753 12.9142 46.0237 12.9322 45.8814 12.9682C45.7394 13.0042 45.615 13.0566 45.5082 13.1263C45.4011 13.1955 45.3169 13.2816 45.2553 13.385C45.1937 13.4879 45.163 13.6077 45.163 13.7443C45.163 13.8737 45.1837 13.9854 45.225 14.0792C45.2667 14.1729 45.3333 14.2613 45.4252 14.3448C45.5166 14.4282 45.6376 14.5105 45.7872 14.5928C45.9369 14.6751 46.1202 14.7696 46.3364 14.8756C46.5626 14.987 46.76 15.0949 46.9288 15.2001C47.0972 15.3057 47.2373 15.4156 47.3494 15.53C47.4612 15.6448 47.545 15.7661 47.6005 15.8947C47.6556 16.0229 47.6835 16.1661 47.6835 16.3233C47.6835 16.5407 47.6395 16.7325 47.5515 16.8978C47.4631 17.0635 47.3402 17.2005 47.1814 17.3092C47.023 17.4179 46.8343 17.5002 46.6154 17.5556C46.3969 17.6111 46.1565 17.6391 45.8948 17.6391C45.8094 17.6391 45.7076 17.6326 45.5894 17.6199C45.4711 17.6069 45.3513 17.5889 45.2308 17.5644C45.1102 17.54 44.995 17.5113 44.8856 17.4776C44.7761 17.4443 44.6873 17.4075 44.6196 17.3681V16.8266Z" fill="#B41427"/>
<path d="M53.4214 17.5557H52.8971L51.7386 13.8656C51.7107 13.7776 51.6889 13.693 51.6724 13.6123C51.6559 13.5312 51.6468 13.4527 51.6441 13.3762H51.6292C51.6192 13.5105 51.5825 13.6712 51.5197 13.8588L50.3199 17.5557H49.7953L48.1994 12.5779H48.7578L49.9499 16.4829C49.9778 16.5687 49.9996 16.6502 50.0161 16.7279C50.0321 16.8052 50.0455 16.8798 50.0559 16.9518H50.0708C50.0857 16.8477 50.1274 16.6911 50.1952 16.4829L51.4631 12.5779H51.8592L53.0478 16.4967C53.0704 16.5756 53.0907 16.6525 53.1083 16.7279C53.1259 16.8029 53.1397 16.8764 53.1496 16.9483H53.1649C53.1699 16.902 53.1799 16.85 53.1952 16.7922C53.2101 16.7344 53.2277 16.6693 53.248 16.5978L54.4328 12.5779H54.9797L53.4214 17.5557Z" fill="#B41427"/>
<path d="M55.7788 17.5557V12.5779H58.416V13.0011H56.2805V14.827H58.2576V15.2438H56.2805V17.1354H58.5369V17.5557H55.7788Z" fill="#B41427"/>
<path d="M63.1619 17.5557L62.5656 16.0838H60.2453L59.664 17.5557H59.1056L61.1657 12.5779H61.6713L63.7202 17.5557H63.1619ZM61.5128 13.4489C61.4952 13.4053 61.4768 13.354 61.4585 13.2962C61.4393 13.2384 61.4237 13.1726 61.411 13.0983H61.3961C61.3808 13.1726 61.3639 13.2384 61.3452 13.2962C61.3261 13.354 61.3081 13.4053 61.2905 13.4489L60.4149 15.664H62.3957L61.5128 13.4489Z" fill="#B41427"/>
<path d="M67.4738 17.5557L66.6586 16.1289C66.5783 15.9877 66.5002 15.8699 66.4248 15.7749C66.349 15.68 66.2713 15.6043 66.1906 15.5476C66.1102 15.491 66.0241 15.4504 65.9323 15.4259C65.8404 15.4018 65.7379 15.3896 65.6246 15.3896H65.0287V17.5557H64.5266V12.5779H66.085C66.2889 12.5779 66.4856 12.6054 66.6755 12.6609C66.8653 12.7164 67.0348 12.7987 67.1829 12.9077C67.3314 13.0164 67.4501 13.1527 67.5396 13.3172C67.6288 13.4814 67.6736 13.6724 67.6736 13.8898C67.6736 14.0658 67.6445 14.2277 67.5867 14.3758C67.5289 14.5239 67.4466 14.6552 67.3398 14.77C67.2327 14.8844 67.1029 14.9816 66.951 15.0616C66.7987 15.1412 66.6272 15.2009 66.4359 15.2403V15.2541C66.509 15.282 66.5756 15.318 66.636 15.3616C66.6965 15.4056 66.7547 15.4592 66.8113 15.5212C66.868 15.584 66.9238 15.6559 66.9793 15.7367C67.0348 15.8178 67.0926 15.91 67.1531 16.0145L68.0624 17.5557H67.4738ZM65.0287 13.0011V14.9697H65.9265C66.1075 14.9697 66.2736 14.9452 66.4248 14.8966C66.5756 14.848 66.7046 14.7784 66.8113 14.6885C66.9181 14.5981 67.0011 14.4894 67.0605 14.362C67.1194 14.2346 67.1493 14.0914 67.1493 13.9315C67.1493 13.6421 67.0478 13.4148 66.8454 13.2495C66.6429 13.0842 66.3506 13.0011 65.9682 13.0011H65.0287Z" fill="#B41427"/>
</g>
<defs>
<clipPath id="clip0_4230_950">
<rect width="100" height="17.0302" fill="white" transform="translate(0 0.615356)"/>
</clipPath>
</defs>
</svg>
