<svg width="100" height="15" viewBox="0 0 100 15" fill="none" xmlns="http://www.w3.org/2000/svg">
<g clip-path="url(#clip0_4210_920)">
<path d="M20.2517 0.0100422H23.7405C23.9311 0.0100422 24.0854 0.164311 24.0854 0.354562V13.7621C24.0854 13.9524 23.9311 14.107 23.7405 14.107H20.2517C20.0618 14.107 19.9071 13.9524 19.9071 13.7621V0.354562C19.9071 0.164311 20.0618 0.0100422 20.2517 0.0100422ZM0.345288 0.124882H5.58926C5.77952 0.124882 6.54205 0.204887 6.98725 0.893927L13.5423 11.0458V0.469402C13.5423 0.279151 13.6966 0.124882 13.8872 0.124882H16.8754C17.0656 0.124882 17.2203 0.279151 17.2203 0.469402V13.877C17.2203 14.0676 17.0656 14.2215 16.8754 14.2215L11.768 14.2265C11.5778 14.2265 10.5438 14.2223 10.0772 13.382L3.72388 3.49429V13.877C3.72388 14.0676 3.56961 14.2215 3.37936 14.2215H0.345288C0.155036 14.2215 1.90735e-06 14.0676 1.90735e-06 13.877V0.469402C1.90735e-06 0.279151 0.155036 0.124882 0.345288 0.124882ZM83.0791 0.124882L88.3694 0.122585C88.5593 0.122585 89.3222 0.204887 89.7678 0.893927L96.3224 11.0458V0.469402C96.3224 0.279151 96.4771 0.124882 96.6677 0.124882H99.6555C99.8457 0.124882 100 0.279151 100 0.469402V13.877C100 14.0676 99.8457 14.2215 99.6555 14.2215L94.5485 14.2196C94.3575 14.2196 93.3236 14.2223 92.8573 13.382L86.504 3.49429V13.877C86.504 14.0676 86.3497 14.2215 86.1595 14.2215H83.0791C82.8888 14.2215 82.7342 14.0676 82.7342 13.877V0.469402C82.7342 0.279151 82.8888 0.124882 83.0791 0.124882ZM68.303 8.47222H74.0243L71.6889 3.28069H70.6369L68.303 8.47222ZM75.3167 11.3455H67.0099L65.8814 13.8544C65.7957 14.045 65.5713 14.1989 65.3819 14.1989H61.893C61.7024 14.1989 61.6174 14.045 61.7032 13.8544L67.7334 0.446817C67.8199 0.256183 68.0435 0.101914 68.2341 0.101914H74.0925C74.2835 0.101914 74.5067 0.256183 74.5928 0.446817L80.6234 13.8544C80.7092 14.045 80.6242 14.1989 80.4336 14.1989H76.9451C76.7549 14.1989 76.5309 14.045 76.4452 13.8544L75.3167 11.3455ZM41.8519 3.22786H31.5006C31.2461 3.22786 31.0409 3.43342 31.0409 3.68722V4.48306C31.0409 4.73265 31.2399 4.93591 31.488 4.94204C31.488 4.94472 40.0325 5.74668 40.0761 5.77922C41.5916 6.08929 42.7312 7.52211 42.7312 9.1291V10.6649C42.7312 12.6019 41.7401 14.2223 38.3849 14.2223H27.299C27.1375 14.2223 27.0069 14.0917 27.0069 13.9309V11.362C27.0069 11.2016 27.1375 11.0714 27.299 11.0714H38.1969C38.445 11.0649 38.6444 10.8605 38.6444 10.6109V9.52836C38.6444 9.2738 38.4385 9.06862 38.1843 9.06862L30.2603 8.39107C30.2393 8.38953 30.2198 8.38571 30.2002 8.37958C28.4244 8.31068 27.0069 7.03327 27.0069 5.24024V3.68148C27.0069 1.74451 28.5546 0.168521 30.4808 0.124499L41.8519 0.124882C42.0135 0.124882 42.1444 0.255034 42.1444 0.41581V2.93693C42.1444 3.09771 42.0135 3.22786 41.8519 3.22786ZM59.7723 3.22786H49.4206C49.1672 3.22786 48.9609 3.43342 48.9609 3.68722V4.48306C48.9609 4.73265 49.1603 4.93591 49.4084 4.94204C49.4084 4.94472 57.9529 5.74668 57.9969 5.77922C59.512 6.08929 60.652 7.52211 60.652 9.1291V10.6649C60.652 12.6019 59.6602 14.2223 56.3061 14.2223H45.2194C45.0582 14.2223 44.9273 14.0917 44.9273 13.9309V11.362C44.9273 11.2016 45.0582 11.0714 45.2194 11.0714H56.1173C56.3658 11.0649 56.5648 10.8605 56.5648 10.6109V9.52836C56.5648 9.2738 56.3589 9.06862 56.1051 9.06862L48.1807 8.39107C48.1605 8.38953 48.1398 8.38571 48.121 8.37958C46.3456 8.31068 44.9273 7.03327 44.9273 5.24024V3.68148C44.9273 1.74451 46.475 0.168521 48.4016 0.124499L59.7723 0.124882C59.9335 0.124882 60.0644 0.255034 60.0644 0.41581V2.93693C60.0644 3.09771 59.9335 3.22786 59.7723 3.22786Z" fill="#CF2D4C"/>
</g>
<defs>
<clipPath id="clip0_4210_920">
<rect width="100" height="14.2365" fill="white"/>
</clipPath>
</defs>
</svg>
