<svg width="100" height="26" viewBox="0 0 100 26" fill="none" xmlns="http://www.w3.org/2000/svg">
<path fill-rule="evenodd" clip-rule="evenodd" d="M94.847 15.5881V21.6536H100V10.4888H88.7815V15.5881H94.847Z" fill="#00B8FC"/>
<path fill-rule="evenodd" clip-rule="evenodd" d="M88.6205 0.236511V5.44317C84.5411 5.44317 81.3205 8.66378 81.3205 12.7432C81.3205 16.7153 84.5411 20.0433 88.6205 20.0433V25.2499C81.6962 25.2499 76.0601 19.6675 76.0601 12.7432C76.0601 5.81891 81.6962 0.236511 88.6205 0.236511Z" fill="#00B8FC"/>
<path d="M21.0413 17.5741C19.3773 17.5741 18.0891 16.2859 18.0891 14.5682C18.0891 12.9043 19.3773 11.616 21.0413 11.616C22.7053 11.616 23.9936 12.9043 23.9936 14.5682C23.9936 16.2322 22.6516 17.5741 21.0413 17.5741ZM26.409 11.5087V9.46893H22.8127C22.2222 9.20055 21.6318 9.14687 21.0413 9.14687C17.9281 9.14687 15.5126 11.5087 15.5126 14.6219C15.5126 17.7352 17.9281 20.0433 20.9877 20.0433C24.0472 20.0433 26.4627 17.6815 26.4627 14.6219C26.4627 13.5484 26.1406 12.5822 25.6039 11.8307L26.409 11.5087ZM9.07139 17.5741C7.40741 17.5741 6.11916 16.2859 6.11916 14.5682C6.11916 12.9043 7.40741 11.616 9.07139 11.616C10.7354 11.616 12.0236 12.9043 12.0236 14.5682C12.0236 16.2322 10.789 17.5741 9.07139 17.5741ZM9.07139 9.14687C5.95813 9.14687 3.59635 11.5087 3.59635 14.5682C3.59635 17.6278 6.01181 20.0433 9.07139 20.0433C12.131 20.0433 14.5464 17.6815 14.5464 14.6219C14.5464 11.5623 12.1846 9.14687 9.07139 9.14687ZM0 19.7749H2.52281V5.17478H0V19.7749ZM27.5362 19.7749H30.059V9.46893H27.5362V19.7749ZM21.0413 23.3712C19.3773 23.3712 18.0891 22.083 18.0891 20.419H15.5126C15.5126 23.5323 17.9281 25.8404 20.9877 25.8404C24.0472 25.8404 26.5164 23.4786 26.5164 20.419H23.9936C23.9399 22.1367 22.6516 23.3712 21.0413 23.3712ZM39.5598 13.5484C39.9356 12.2065 40.9018 11.455 42.2437 11.455C43.5856 11.455 44.6055 12.2065 44.8739 13.5484H39.5598ZM42.351 9.14687C39.2378 9.14687 36.9297 11.5087 36.9297 14.6219C36.9297 17.7352 39.0231 19.9359 42.351 19.9359C44.1224 19.9359 45.7864 19.2381 47.0209 18.0036L45.2496 16.2322C44.3908 17.091 43.4783 17.5741 42.4047 17.5741C40.9554 17.5741 39.9356 16.7153 39.6135 15.4807H47.6114V14.8903C47.6114 11.5087 45.4106 9.14687 42.351 9.14687ZM65.0027 9.14687C63.7144 9.14687 62.6409 9.57629 61.8894 10.4351V5.12111H59.3666V19.7212H61.8894V14.1388C61.8894 12.6359 62.8019 11.6697 64.3586 11.6697C65.8078 11.6697 66.613 12.5822 66.613 14.1388V19.7212H69.1358V13.7094C69.2431 10.8645 67.4181 9.14687 65.0027 9.14687ZM53.8916 11.6697C54.9651 11.6697 55.8239 12.2065 56.5217 13.0116L58.2931 11.2403C57.2732 9.95202 55.7703 9.20055 53.8916 9.20055C50.7783 9.20055 48.4165 11.5623 48.4165 14.6219C48.4165 17.6815 50.832 20.0433 53.8916 20.0433C55.6629 20.0433 57.2732 19.1844 58.2931 18.0036L56.5217 16.2322C55.8239 16.9837 54.9114 17.5741 53.8916 17.5741C52.2276 17.5741 51.0467 16.2859 51.0467 14.6219C50.9393 12.9579 52.2813 11.6697 53.8916 11.6697ZM35.212 6.302H32.6892V9.46893H31.3473V11.7234H32.6892V19.7212H35.212V11.7234H36.6613V9.46893H35.212V6.302ZM28.8782 4.85272C27.9656 4.85272 27.2142 5.6042 27.2142 6.62406C27.2142 7.53657 27.9656 8.28804 28.8782 8.28804C29.898 8.28804 30.6495 7.53657 30.6495 6.62406C30.5421 5.6042 29.7907 4.85272 28.8782 4.85272Z" fill="#00B8FC"/>
</svg>
