<svg width="100" height="62" viewBox="0 0 100 62" fill="none" xmlns="http://www.w3.org/2000/svg">
<g clip-path="url(#clip0_4255_3668)">
<path d="M20.9103 10.2268C20.9712 10.1845 21.0583 10.1108 21.0547 10.0566C21.0409 9.85436 20.8752 9.9268 20.753 9.91258C20.6845 9.90414 20.6192 9.86681 20.553 9.83881C20.5565 9.9388 20.5463 10.0441 20.5836 10.1286C20.6436 10.2654 20.7681 10.3259 20.9103 10.2268ZM84.713 52.2304C84.6988 52.1705 84.7606 52.0922 84.7877 52.0234C84.9072 52.0602 85.0121 52.0931 85.0459 52.2105C85.0668 52.2824 85.1014 52.3735 84.9961 52.4118C84.8295 52.4722 84.7455 52.3638 84.713 52.2304ZM88.1984 28.76C88.1984 28.369 88.2535 28.0908 88.3637 27.9255C88.4735 27.7606 88.657 27.6784 88.9134 27.6784C89.1458 27.6784 89.3138 27.7606 89.4173 27.9255C89.5218 28.0908 89.5733 28.369 89.5733 28.76V50.8866C89.5733 51.2901 89.5218 51.5772 89.4173 51.7483C89.3138 51.9194 89.1458 52.0051 88.9134 52.0051C88.657 52.0051 88.4735 51.9194 88.3637 51.7483C88.2535 51.5772 88.1984 51.2901 88.1984 50.8866V28.76ZM91.5411 32.2774C91.6526 32.2858 91.7304 32.3676 91.7508 32.496C91.7397 32.6129 91.6606 32.684 91.5437 32.6813C91.4278 32.6786 91.3416 32.6027 91.3438 32.4782C91.3456 32.3596 91.4193 32.2676 91.5411 32.2774ZM89.0236 55.1945C89.6911 55.1945 90.2777 55.1568 90.7878 55.0821C90.8554 55.0314 90.9198 55.0012 90.9709 55.0057C91.0131 55.0088 91.0474 55.0199 91.0776 55.0341C91.8904 54.883 92.4778 54.6257 92.8365 54.26C93.2755 53.812 93.5559 52.8437 93.6799 51.3603C93.5573 51.379 93.4657 51.2959 93.3808 51.2084C93.4124 51.0621 93.5071 50.9693 93.6319 50.9208C93.6599 50.9097 93.6861 50.9048 93.7119 50.9022C93.739 50.4391 93.7533 49.9347 93.7533 49.3832V30.2629C93.7533 27.6357 93.4475 26.0101 92.8365 25.3867C92.2254 24.7632 90.918 24.4517 88.9134 24.4517C86.8848 24.4517 85.5618 24.7694 84.945 25.4049C84.3273 26.0404 84.0189 27.6597 84.0189 30.2629V49.3832C84.0189 52.0234 84.3273 53.6516 84.945 54.2689C85.5618 54.8861 86.9212 55.1945 89.0236 55.1945ZM79.1999 54.2462C79.1826 54.3164 79.1106 54.3728 79.0711 54.4257C78.948 54.4097 78.8978 54.3444 78.9022 54.2538C78.9066 54.1631 78.9702 54.0929 79.0586 54.0867C79.1555 54.0804 79.2217 54.156 79.1999 54.2462ZM79.8136 24.5614H75.6524V55.0479H79.8136V24.5614ZM34.0335 27.5984C34.0113 27.526 33.9993 27.4548 33.9913 27.3842C33.9571 27.6051 33.9282 27.8415 33.9042 28.0939C34.2331 28.1752 34.1122 27.8535 34.0335 27.5984ZM34.4468 25.8639C34.4593 25.8231 34.4686 25.7817 34.4766 25.74C34.3526 25.9608 34.246 26.2377 34.1571 26.5727C34.6428 26.531 34.373 26.1061 34.4468 25.8639ZM34.1646 30.3709C34.2739 30.5189 34.3939 30.5194 34.5157 30.4012C34.6543 30.2661 34.5855 30.1754 34.4526 30.071C34.2544 29.9141 34.0389 29.8621 33.8176 29.8483C33.8171 29.9141 33.8167 29.9821 33.8162 30.0496C34.002 30.0301 34.0682 30.2394 34.1646 30.3709ZM24.1703 36.6662L24.1694 36.6657L24.1703 36.6653L24.3578 32.532C24.2796 32.5707 24.1983 32.5982 24.1085 32.5995C24.0308 32.6004 23.9526 32.5622 23.8779 32.5427C24.0094 32.2449 24.1459 31.957 24.2641 31.6619C24.2992 31.5748 24.3481 31.5463 24.4027 31.5397L24.5129 29.108H24.6231L24.6263 29.1755C24.6849 29.0564 24.768 28.9498 24.9267 28.976C25.0102 28.9898 25.0742 29.0458 25.0458 29.1506C24.9964 29.3404 24.8658 29.4377 24.6791 29.4093C24.6614 29.4066 24.648 29.3968 24.6365 29.3857L24.7089 30.9144C24.7667 30.8033 24.8911 30.8193 25.0142 30.8464C25.1466 30.8762 25.3093 30.8726 25.3435 31.0375C25.3791 31.2073 25.2604 31.285 25.1066 31.3019C24.9658 31.3175 24.848 31.3788 24.7347 31.4495L24.744 31.645C24.8791 31.7285 25.0151 31.8116 25.1293 31.9179C25.2346 32.0156 25.1755 32.2903 25.1124 32.2743C24.9849 32.2414 24.8756 32.2583 24.7751 32.2978L24.9555 36.0853C25.0031 36.0693 25.0533 36.0582 25.108 36.0542C25.0538 36.1582 25.008 36.2444 24.9667 36.3191L25.0067 37.159C25.0804 37.1474 25.1569 37.1305 25.2355 37.1088C25.1569 37.1563 25.084 37.2088 25.0115 37.2612L25.3746 44.8736H23.7979L24.0997 38.2233C23.8815 38.533 23.6824 38.865 23.4748 39.2032C23.2149 38.9281 23.1544 38.6441 23.3442 38.4913C23.7095 38.1975 23.6117 37.6771 23.9899 37.3847C24.1352 37.2719 24.1077 36.9363 24.1516 36.6937C24.1477 36.6822 24.1428 36.6719 24.1388 36.6599L24.1414 36.6622H24.1419L24.169 36.6657C24.1641 36.6684 24.1601 36.6719 24.1548 36.6737V36.6742L24.1521 36.6937C24.157 36.707 24.1619 36.7208 24.1672 36.7337L24.1703 36.6662ZM24.1414 36.6622L24.1419 36.6626H24.1423L24.1428 36.663L24.1432 36.6635L24.1436 36.6639L24.1441 36.6644L24.1445 36.6648L24.1454 36.6653L24.1459 36.6662L24.1468 36.6666L24.1472 36.667L24.1481 36.6679L24.1485 36.6684L24.1494 36.6693L24.1499 36.6697L24.1508 36.6702L24.1512 36.6706L24.1516 36.6715L24.1525 36.6719L24.153 36.6724L24.1534 36.6728L24.1539 36.6733H24.1543V36.6737H24.1548V36.6742L24.1414 36.6622ZM22.7349 39.2263C22.6949 39.1983 22.6585 39.1636 22.6154 39.1418C22.5381 39.1036 22.4576 39.1165 22.411 39.189C22.3901 39.2218 22.4101 39.2809 22.4114 39.328C22.4834 39.3165 22.5581 39.3129 22.6274 39.2912C22.6661 39.2792 22.7003 39.2516 22.7349 39.2263ZM15.4305 32.9151C15.3385 32.7066 15.2892 32.624 15.3003 32.6151C15.5074 32.4445 15.1154 32.0965 15.4869 31.9885C15.5212 31.9783 15.5945 32.0245 15.6154 32.0632C15.7709 32.3494 15.6211 32.5667 15.4305 32.9151ZM34.5326 53.0397C34.5446 52.8819 34.6703 52.8193 34.8134 52.7988C34.9356 52.781 35.0219 52.8215 35.0316 52.9712C34.997 53.1343 34.9116 53.2699 34.7179 53.2605C34.6015 53.2548 34.5237 53.1534 34.5326 53.0397ZM35.0045 48.5745C35.0374 48.5514 35.0925 48.5122 35.1476 48.4731C35.1774 48.5416 35.2161 48.6082 35.2303 48.6798C35.2334 48.6967 35.1512 48.7522 35.1103 48.7504C35.0307 48.7469 34.9534 48.714 35.0045 48.5745ZM35.5067 42.6783C35.7791 42.6699 35.8791 42.8689 35.9209 43.1049C35.8969 43.3542 35.7129 43.4373 35.5156 43.4391C35.2409 43.4418 35.2601 43.2058 35.2378 43.016C35.2134 42.8112 35.3183 42.6845 35.5067 42.6783ZM35.181 51.4692C35.8804 51.423 35.7627 51.91 36.0311 52.2656C35.4991 52.1273 35.5058 51.7318 35.181 51.4692ZM36.1942 46.7933C36.2444 46.7236 36.3288 46.7142 36.4101 46.7493C36.4759 46.7773 36.4888 46.8236 36.4501 46.8836C36.4057 46.9573 36.3426 47.0115 36.2555 46.9787C36.1724 46.9475 36.1404 46.8676 36.1942 46.7933ZM36.1311 53.7263C35.6431 53.0619 35.7382 52.7273 36.6265 52.25C36.2804 52.7615 36.5066 53.2832 36.1311 53.7263ZM36.8439 53.9151C36.8843 54.068 37.0003 54.2542 36.9501 54.3657C36.8492 54.5888 36.6341 54.4133 36.4399 54.4817C36.5186 54.1858 36.6128 53.9982 36.8439 53.9151ZM37.7775 51.3577C37.7775 51.3563 37.778 51.3554 37.778 51.3546L37.7824 51.3528C37.7922 51.3559 37.8006 51.3568 37.81 51.359C37.7997 51.3577 37.7904 51.3559 37.7806 51.3546C37.7797 51.3554 37.7789 51.3563 37.7775 51.3577ZM37.7775 51.3577C37.7615 51.6883 37.7455 52.0194 37.7291 52.35C37.5891 51.958 37.214 51.8536 36.8661 51.6554C37.2109 51.4888 37.5607 51.6203 37.7775 51.3577ZM35.2076 50.6289C35.1112 50.5004 35.1925 50.4436 35.3356 50.4018C35.6191 50.4876 35.5511 50.7973 35.6533 50.9982C35.6947 51.0786 35.556 51.2177 35.4542 51.2084C35.0374 51.1715 35.3396 50.8048 35.2076 50.6289ZM38.4174 52.1638C38.7183 52.2038 38.9307 52.3784 38.9192 52.7202C38.9343 52.8824 38.8809 53.0152 38.7187 53.0428C38.5561 53.0703 38.0637 52.6193 38.0859 52.4771C38.1153 52.2922 38.2401 52.1402 38.4174 52.1638ZM38.8934 39.2503C38.8161 39.2809 38.7321 39.2618 38.7432 39.1543C38.7472 39.1147 38.8072 39.0601 38.8498 39.0516C38.8827 39.045 38.928 39.0996 38.968 39.1267C38.9436 39.1698 38.9289 39.2361 38.8934 39.2503ZM37.8051 30.0621C37.7064 30.0914 37.6153 29.9794 37.5842 29.871C37.554 29.7639 37.5718 29.6599 37.6669 29.5821C37.7842 29.5941 37.8566 29.6652 37.8753 29.7808C37.8917 29.8839 37.9148 30.0301 37.8051 30.0621ZM36.9394 31.4672C36.8483 31.4192 36.7856 31.317 36.711 31.2393C36.7812 31.1971 36.8474 31.13 36.9225 31.1184C37.0794 31.0944 37.0967 31.2135 37.0972 31.3299C37.0692 31.4108 37.0416 31.5206 36.9394 31.4672ZM36.5728 37.7696C36.5363 37.8531 36.459 37.8882 36.3777 37.8505C36.3457 37.8358 36.3173 37.7602 36.3257 37.7202C36.3421 37.6403 36.4017 37.5865 36.4928 37.5847C36.5821 37.6189 36.6083 37.6865 36.5728 37.7696ZM34.9054 36.875C34.8565 36.6599 34.8859 36.5097 35.0205 36.3973C35.0716 36.3546 35.1312 36.38 35.1525 36.4408C35.2361 36.679 35.0876 36.767 34.9054 36.875ZM34.6557 35.8747C34.1411 35.3668 34.1411 35.3668 34.8623 34.9375C34.629 35.2837 34.7037 35.5654 34.6557 35.8747ZM34.6037 33.2226C34.6184 33.1759 34.6539 33.1266 34.6943 33.099C34.7468 33.063 34.7952 33.0893 34.8188 33.1479C34.8183 33.239 34.7721 33.3017 34.6859 33.3186C34.6246 33.3306 34.5841 33.2835 34.6037 33.2226ZM38.3641 25.628C38.4565 25.4115 38.5352 25.1262 38.8072 25.0991C38.952 25.0845 39.1325 25.3004 39.1 25.4435C39.0436 25.6924 38.8169 25.8155 38.5663 25.8404C38.4392 25.8128 38.3174 25.7382 38.3641 25.628ZM41.5362 25.3458C41.6264 25.3427 41.6997 25.4009 41.6993 25.4906C41.6984 25.5804 41.6228 25.6266 41.5339 25.6377C41.4482 25.6222 41.3651 25.5809 41.3668 25.4911C41.3691 25.404 41.4504 25.3489 41.5362 25.3458ZM41.9681 30.842C41.9708 30.8322 42.1019 30.8304 42.1165 30.8567C42.2632 31.1197 41.9837 31.2379 41.9392 31.545C41.8615 31.2264 41.9139 31.0331 41.9681 30.842ZM40.4976 41.0332C40.5509 41.0496 40.6061 41.1487 40.6118 41.214C40.6194 41.3087 40.5318 41.3416 40.4261 41.3465C40.3563 41.3389 40.2821 41.2971 40.2883 41.2038C40.2968 41.0847 40.3723 40.9945 40.4976 41.0332ZM40.6256 44.2919C40.6207 44.363 40.6261 44.4656 40.5256 44.4394C40.471 44.4252 40.4265 44.3292 40.4021 44.2612C40.3936 44.2372 40.4519 44.1621 40.4896 44.1528C40.5941 44.1279 40.6087 44.2163 40.6256 44.2919ZM41.8459 53.4667C41.9392 53.4716 42.0992 53.4636 42.0512 53.6338C42.0037 53.8036 42.0285 54.0387 41.7624 54.0658C41.5944 54.0147 41.414 53.9396 41.4251 53.7525C41.4384 53.5201 41.641 53.457 41.8459 53.4667ZM42.0841 49.913C42.1743 49.853 42.2761 49.8032 42.3827 49.8556C42.4574 49.8921 42.5058 49.9614 42.44 50.0809C42.3441 50.1818 42.2121 50.108 42.093 50.072C41.9934 50.0418 42.0028 49.9667 42.0841 49.913ZM42.0916 42.2526C42.1148 42.2166 42.177 42.2059 42.2219 42.1837C42.237 42.2321 42.2521 42.2801 42.2672 42.3286C42.2303 42.361 42.1912 42.4228 42.1579 42.4201C42.0463 42.4103 42.0437 42.3259 42.0916 42.2526ZM42.5449 45.9201C42.628 45.9197 42.7102 45.9423 42.7067 46.0374C42.7031 46.1325 42.6156 46.1556 42.536 46.1428C42.4894 46.1352 42.4183 46.1023 42.4103 46.0681C42.3867 45.9717 42.4609 45.9352 42.5449 45.9201ZM42.8471 51.3532C42.8964 51.427 42.8707 51.4985 42.776 51.5034C42.74 51.5048 42.6858 51.4554 42.6694 51.4163C42.6587 51.391 42.7 51.3434 42.7182 51.3057C42.7627 51.3203 42.8267 51.3221 42.8471 51.3532ZM43.0164 41.186C43.108 41.1958 43.1462 41.2696 43.1546 41.358C43.1115 41.3802 43.064 41.426 43.0249 41.4202C42.9382 41.4069 42.8791 41.3385 42.8907 41.2491C42.8942 41.2216 42.9751 41.1816 43.0164 41.186ZM43.4693 50.5849C43.4835 50.7137 43.4644 50.7982 43.3613 50.788C43.1675 50.7689 42.976 50.7204 42.9275 50.492C42.9093 50.4067 42.9693 50.3289 43.0591 50.3205C43.2817 50.3005 43.407 50.4276 43.4693 50.5849ZM37.3154 55.143C37.4496 54.8537 37.726 54.7279 38.0095 54.6039C38.1206 54.555 38.261 54.5866 38.3979 54.5537C38.8987 54.4351 38.6143 53.6267 39.2707 53.6449C39.7835 53.6592 40.0221 53.1726 40.3763 52.8944C40.5972 52.7202 40.69 52.5033 40.7616 52.2647C40.8651 51.9185 40.6612 51.7247 40.3114 51.8372C40.127 51.8967 39.9639 52.0256 39.7786 52.0754C39.5928 52.1251 39.4604 51.9829 39.3675 51.8403C39.232 51.6319 39.3435 51.4643 39.4977 51.3243C39.6004 51.2306 39.7039 51.1368 39.8506 51.2932C40.0315 51.4857 40.2594 51.6385 40.507 51.4221C40.7634 51.199 40.8278 50.9022 40.678 50.5822C40.6318 50.4836 40.5518 50.3951 40.7047 50.184C41.1167 50.6742 41.0953 51.3346 41.5242 51.7501C41.2784 52.0918 41.3815 52.558 41.1073 52.8944C40.8736 53.1814 40.8256 53.6169 40.303 53.6503C39.9306 53.6743 39.7164 53.9387 39.8524 54.3666C39.8981 54.5106 39.9386 54.6386 40.1061 54.6541C40.2848 54.6706 40.3479 54.5475 40.3705 54.3968C40.4287 54.0076 40.6061 54.0791 40.7976 54.2946C40.9358 54.4497 40.9909 54.7204 40.9687 54.9968C41.7366 54.8417 42.2894 54.5968 42.6236 54.26C42.6529 54.2298 42.6809 54.1955 42.7093 54.1613C42.5303 54.2093 42.4716 54.0818 42.3583 53.7569C42.3143 53.6298 42.2712 53.5027 42.2276 53.3752C42.2183 53.3761 42.2103 53.3752 42.201 53.3761L42.2107 53.3712C42.2063 53.3734 42.2027 53.3752 42.2041 53.3743C42.2094 53.3699 42.2125 53.3654 42.2174 53.3605C41.793 53.1361 41.8637 52.6793 41.6957 52.3087C42.1205 52.2491 41.9646 52.6637 42.1432 52.7802C42.4014 52.9495 42.456 53.1379 42.2174 53.3605C42.2196 53.3619 42.2214 53.3632 42.2236 53.3645H42.2232V53.365H42.2227H42.2223V53.3654H42.2214L42.221 53.3659L42.2201 53.3663L42.2192 53.3668L42.2183 53.3672L42.2174 53.3676L42.2165 53.3681L42.2156 53.3685L42.2147 53.369L42.2139 53.3694L42.2125 53.3703L42.2116 53.3708L42.2107 53.3712L37.3154 55.143ZM42.2236 53.3645C42.225 53.3681 42.2263 53.3716 42.2276 53.3752C42.5449 53.3596 42.7258 53.5872 42.9644 53.7449C43.3537 52.9224 43.5492 51.4701 43.5492 49.3832V42.5454C43.5492 41.3722 43.399 40.4923 43.1 39.9058C42.8004 39.3192 42.2961 38.8117 41.5877 38.3842L41.1966 38.1477C41.2411 38.4286 41.338 38.6961 41.5624 38.9441C41.6735 39.0672 41.7735 39.1605 41.9121 39.2365C42.3916 39.4996 42.4516 39.804 42.0557 40.1995C41.8503 40.4048 41.621 40.5501 41.7539 40.8954C41.8086 41.0367 41.6868 41.0821 41.5659 41.086C41.4811 41.0887 41.3846 41.0816 41.3517 40.9909C41.3144 40.887 41.2495 40.7456 41.2891 40.6688C41.6535 39.9662 41.0629 39.4618 40.9074 38.8765C40.8238 38.561 40.6692 38.2655 40.6376 37.922C40.6336 37.878 40.6265 37.8371 40.6176 37.798L40.0097 37.4305C39.9737 37.4456 39.9377 37.4638 39.9008 37.4878C39.4213 37.7967 38.8756 37.7478 38.3837 37.9398C38.0726 38.0615 37.8406 37.8722 37.8593 37.5665C37.8784 37.2563 38.5863 36.8621 38.7405 37.0937C39.0498 37.5585 39.3364 37.3518 39.5431 37.1488L39.0396 36.8444C38.5996 36.5631 38.3152 36.3249 38.1868 36.1293C38.0588 35.9338 37.9944 35.5672 37.9944 35.0295V28.7596C37.9944 28.3441 38.0433 28.0601 38.141 27.9072C38.2388 27.7544 38.4161 27.6784 38.673 27.6784C38.9169 27.6784 39.0942 27.7637 39.2045 27.9348C39.3142 28.1059 39.3693 28.381 39.3693 28.7596V34.9561H43.5492V31.0686C43.5048 31.094 43.4515 31.1064 43.3853 31.0971C43.2293 31.074 43.152 30.9633 43.1733 30.8113C43.1946 30.6629 43.2982 30.5696 43.4506 30.5927C43.4893 30.5989 43.5217 30.6113 43.5492 30.6282V30.2629C43.5492 27.6597 43.2404 26.0404 42.6236 25.4049C42.0059 24.7694 40.6892 24.4517 38.673 24.4517C37.4473 24.4517 36.483 24.5672 35.7764 24.7978C35.8711 24.956 35.8915 25.1414 35.7644 25.3955C35.6551 25.6142 35.9493 25.851 36.231 25.74C36.551 25.6137 36.787 25.4191 37.0652 25.8444C37.2034 26.0555 37.3807 25.7164 37.554 25.6622C37.6646 25.628 37.7851 25.5951 37.8446 25.7266C37.9193 25.891 37.8255 26.0359 37.674 26.0324C37.2554 26.0239 36.9692 26.3501 36.5857 26.4225C36.4586 26.4465 36.2546 26.4412 36.2333 26.6038C36.1168 27.5042 35.1809 27.0967 34.7903 27.6886C34.9574 27.9721 34.8885 28.4458 34.9552 28.9169C34.8512 29.0475 34.7072 28.8973 34.5806 28.9431C34.4002 29.0075 34.1406 29.0173 34.1922 29.2857C34.2513 29.5964 34.505 29.4306 34.6726 29.4026C35.1552 29.3217 35.6236 29.2626 35.9991 29.6812C36.1679 29.8697 36.5648 29.515 36.6252 29.911C36.6768 30.2483 36.319 30.2607 36.1288 30.4007C35.8791 30.5838 35.8311 30.7344 36.1742 30.8544C36.2244 30.8718 36.2688 30.906 36.3155 30.9322C35.9542 31.5308 36.6772 31.6752 36.799 32.0729C36.8279 32.1685 36.9612 32.236 36.8492 32.3551C36.3599 32.8737 36.363 33.5003 36.4461 34.1491C36.4595 34.2531 36.4217 34.3633 36.4066 34.4766C36.0466 34.3069 35.7 34.1434 35.2596 33.9354C35.5791 33.8563 35.7978 33.739 35.7951 33.4186C35.7929 33.1426 35.6258 33.0484 35.42 32.9275C35.157 32.7733 34.7517 32.6875 34.9748 32.1903C35.0734 31.9716 34.7992 31.9747 34.6615 31.8992C34.0744 31.5779 34.0766 31.569 34.6059 30.8815C34.1646 31.0962 34.0309 30.778 33.8145 30.5945V35.341C33.8145 36.5386 33.9611 37.4185 34.2544 37.9811C34.2722 38.014 34.2926 38.046 34.3108 38.0789C34.5539 38.0718 34.8054 38.0762 35.0587 38.1611C34.8241 38.21 34.6646 38.3086 34.5464 38.4317C34.8392 38.8117 35.2361 39.1565 35.7395 39.4658L38.261 41.0034C38.3379 40.9625 38.4308 40.9447 38.5303 40.9541C38.7952 40.979 38.8903 41.198 38.8689 41.4331C39.0174 41.5553 39.1236 41.6638 39.1862 41.7571C39.308 41.9406 39.3693 42.289 39.3693 42.8023V50.8866C39.3693 51.2657 39.3111 51.5465 39.1951 51.7301C39.0791 51.9132 38.9049 52.0047 38.673 52.0047C38.4281 52.0047 38.2539 51.9225 38.1504 51.7576C38.0961 51.6714 38.0566 51.5505 38.0304 51.3968C37.9673 51.3883 37.9033 51.3746 37.8397 51.3639C37.9073 51.3683 37.9633 51.3377 38.0157 51.2955C38.0015 51.1764 37.9944 51.0404 37.9944 50.8866V50.2098C37.9211 50.2978 37.8562 50.3769 37.7931 50.4542C37.7922 50.4693 37.7908 50.4849 37.79 50.5C37.7868 50.4996 37.7828 50.4982 37.7797 50.4973C37.8011 50.6204 37.8233 50.7466 37.8575 50.9435C37.5473 50.8906 37.3896 50.7462 37.4229 50.5102C37.4362 50.416 37.6495 50.4631 37.7797 50.4973C37.7788 50.4916 37.7775 50.4853 37.7766 50.4796C37.7762 50.4787 37.7753 50.4769 37.7749 50.4769C37.7806 50.4693 37.7873 50.4618 37.7931 50.4542C37.8037 50.3147 37.8326 50.1831 37.9944 50.1058V42.1788H33.8145V49.3832C33.8145 51.9989 34.1233 53.6209 34.7406 54.2506C35.2143 54.7341 36.0737 55.031 37.3154 55.143L42.2236 53.3645ZM48.8846 44.2719C49.0672 44.307 49.2432 44.3545 49.2334 44.567C49.2254 44.7416 49.0699 44.7643 48.9268 44.7607C48.7699 44.7563 48.6602 44.6763 48.6442 44.5172C48.6268 44.3434 48.7393 44.2794 48.8846 44.2719ZM49.4476 48.7575C49.4187 48.8633 49.4045 48.99 49.2423 48.9433C49.1183 48.9077 49.057 48.8167 49.0774 48.6909C49.093 48.5927 49.181 48.5691 49.2676 48.5647C49.3996 48.5589 49.4841 48.6033 49.4476 48.7575ZM49.636 40.5697C49.6707 40.5599 49.7516 40.6074 49.7649 40.6452C49.8156 40.7852 49.7023 40.8367 49.6312 40.8807C49.5392 40.9176 49.4783 40.8985 49.4756 40.8305C49.4712 40.7145 49.5138 40.6052 49.636 40.5697ZM49.984 43.4195C49.9707 43.492 49.8716 43.524 49.7823 43.5084C49.6734 43.4911 49.5574 43.4533 49.5663 43.3227C49.5756 43.1853 49.7 43.1729 49.8062 43.1929C49.9222 43.2147 50.004 43.3053 49.984 43.4195ZM50.0591 50.4218C50.108 50.2316 50.1822 50.0338 50.4151 50.0107C50.555 49.9965 50.5879 50.1192 50.591 50.2422C50.4715 50.404 50.5453 50.7226 50.2537 50.7351C50.1151 50.7409 50.0178 50.5804 50.0591 50.4218ZM50.4017 49.4001C50.4888 49.3677 50.5524 49.4086 50.5706 49.5188C50.5666 49.5894 50.5275 49.6565 50.4391 49.6601C50.3488 49.6637 50.2955 49.5988 50.308 49.5126C50.3142 49.4703 50.3608 49.4152 50.4017 49.4001ZM51.4118 32.0747C51.1194 32.4027 50.8408 32.5622 50.3555 32.492C50.6595 32.1187 50.9226 31.9219 51.4118 32.0747ZM51.1861 30.7464C51.1683 30.7607 51.1492 30.7887 51.1328 30.7873C51.0688 30.7833 51.0417 30.7424 51.0616 30.6816C51.0679 30.6629 51.0972 30.6393 51.1154 30.6402C51.179 30.642 51.2021 30.682 51.1861 30.7464ZM50.5733 26.894C51.1376 27.2767 51.4292 26.8376 51.7847 26.5554C51.8193 26.5274 51.8958 26.5225 51.9375 26.5412C51.9784 26.5594 52.0002 26.6216 52.0304 26.6647C52.0033 26.7105 51.9878 26.774 51.9478 26.7998C51.7451 26.9309 51.6545 27.0607 51.9247 27.2127C52.0917 27.3073 52.1842 27.434 52.0637 27.6162C51.9615 27.7695 51.8011 27.7042 51.6909 27.6428C51.4474 27.5077 51.1967 27.4837 50.9248 27.4793C50.699 27.4762 50.4777 27.3806 50.4559 27.102C50.4497 27.0273 50.4222 26.7914 50.5733 26.894ZM52.553 22.6203C52.5899 22.6288 52.6175 22.6781 52.6441 22.7052C52.6148 22.7368 52.585 22.7692 52.5552 22.8016C52.5232 22.7665 52.4912 22.731 52.4593 22.6959C52.4912 22.6688 52.529 22.6146 52.553 22.6203ZM52.9881 27.9259C53.0921 28.0908 53.1441 28.3685 53.1441 28.7596V50.8866C53.1441 51.1746 53.1169 51.4021 53.0641 51.5719C53.0943 51.5519 53.1325 51.5359 53.1841 51.5292C53.2712 51.5323 53.3583 51.5932 53.3565 51.7158C53.3551 51.8127 53.2623 51.8305 53.1805 51.8221C53.1054 51.8141 53.0263 51.7865 53.0072 51.7127C53.001 51.7243 52.9947 51.7372 52.9881 51.7483C52.8841 51.9194 52.7161 52.0051 52.4841 52.0051C52.2273 52.0051 52.0442 51.9194 51.934 51.7483C51.8242 51.5772 51.7691 51.2901 51.7691 50.8866V36.9781C51.7558 36.9812 51.7429 36.9852 51.7287 36.9861C51.686 36.9879 51.6127 36.9479 51.6025 36.9123C51.5718 36.8084 51.6496 36.7737 51.738 36.7604C51.7473 36.7648 51.758 36.7693 51.7691 36.7737V28.7596C51.7691 28.3685 51.8242 28.0908 51.934 27.9259C52.0442 27.7606 52.2273 27.6784 52.4841 27.6784C52.7161 27.6784 52.8841 27.7606 52.9881 27.9259ZM53.4414 25.5115C53.4329 25.4173 53.5156 25.2836 53.6582 25.3116C53.844 25.3484 53.8364 25.5155 53.8111 25.644C53.7582 25.9075 53.5525 26.0604 53.2894 26.1928C53.4031 25.9817 53.4631 25.7635 53.4414 25.5115ZM54.2724 29.4564C54.2804 29.4982 54.2444 29.5679 54.207 29.5955C53.9795 29.763 53.9062 29.4164 53.7138 29.439C53.6755 29.4435 53.6302 29.3853 53.544 29.3253C53.6733 29.2266 53.7591 29.2608 53.8115 29.3102C53.9471 29.4364 54.2115 29.1404 54.2724 29.4564ZM54.3044 24.8823C54.3919 24.8774 54.4408 24.9472 54.4528 25.0351C54.4648 25.1187 54.4457 25.2102 54.3599 25.2138C54.2995 25.2165 54.2084 25.1565 54.1799 25.1C54.1235 24.9894 54.1684 24.8898 54.3044 24.8823ZM54.4621 47.7439C54.4892 47.5706 54.6083 47.4328 54.7936 47.4773C54.9892 47.5239 54.9825 47.7199 54.9772 47.8812C54.9714 48.0536 54.8483 48.0994 54.6976 48.099C54.4826 48.0719 54.435 47.9172 54.4621 47.7439ZM55.2451 48.7793C55.2389 48.9695 55.0776 49.0402 54.8856 49.0517C54.7092 49.0437 54.5821 48.9624 54.5972 48.7567C54.611 48.5749 54.7239 48.4389 54.8994 48.4225C55.1349 48.4003 55.2518 48.5709 55.2451 48.7793ZM55.3629 42.5565C55.4078 42.5343 55.4695 42.5312 55.5207 42.5392C55.5944 42.5508 55.6104 42.6019 55.5731 42.6659C55.5055 42.7312 55.4273 42.7458 55.3531 42.689C55.302 42.6499 55.3069 42.5845 55.3629 42.5565ZM55.7651 54.376C55.7495 54.4613 55.6717 54.4737 55.598 54.4697C55.5309 54.4662 55.4278 54.4697 55.4647 54.3537C55.4767 54.3169 55.5415 54.2835 55.5869 54.2746C55.6629 54.2595 55.7415 54.268 55.7651 54.376ZM55.8517 28.3374C55.8726 28.3001 55.9255 28.281 55.9642 28.2539C56.0268 28.2694 56.0597 28.3139 56.029 28.3681C56.0077 28.4063 55.9539 28.4467 55.9126 28.4489C55.8526 28.4516 55.8206 28.3925 55.8517 28.3374ZM54.9163 50.6071C54.8283 50.5729 54.683 50.5978 54.6892 50.4498C54.6932 50.3653 54.7923 50.3178 54.8714 50.3365C54.9398 50.3533 55.0265 50.404 55.0518 50.4627C55.0963 50.5649 55.0034 50.5929 54.9163 50.6071ZM54.5768 52.1127C54.4901 52.098 54.431 52.0509 54.4381 51.9594C54.4466 51.8518 54.4763 51.7336 54.6185 51.7847C54.6705 51.8038 54.7092 51.9047 54.7225 51.9745C54.7412 52.0736 54.6612 52.1038 54.5768 52.1127ZM53.7595 31.4046C53.6196 31.4526 53.5916 31.3002 53.5493 31.2068C53.5036 31.1055 53.4845 30.9993 53.6036 30.9246C53.7422 30.9166 53.7915 31.0157 53.8231 31.1215C53.8537 31.2246 53.8813 31.3628 53.7595 31.4046ZM52.6628 53.4783C52.6406 53.4912 52.5548 53.4436 52.5392 53.4067C52.4606 53.2228 52.5646 53.1086 52.7103 53.0121C52.7801 53.1806 52.8894 53.3508 52.6628 53.4783ZM51.2305 46.5298C51.2687 46.5636 51.3301 46.5929 51.3438 46.6369C51.3625 46.6951 51.3061 46.7431 51.2443 46.7205C51.2007 46.7049 51.1541 46.6538 51.1403 46.6085C51.1185 46.5369 51.1603 46.5067 51.2305 46.5298ZM50.8626 50.9022C50.8328 50.9146 50.7368 50.86 50.7306 50.8262C50.675 50.5098 51.0661 50.5044 51.135 50.2654C51.1456 50.2271 51.2203 50.2076 51.307 50.1534C51.3376 50.2378 51.3567 50.2636 51.3541 50.2867C51.3189 50.5938 51.1345 50.7871 50.8626 50.9022ZM52.5943 55.195C54.5248 55.195 55.7962 54.883 56.4072 54.2595C57.0182 53.6365 57.324 52.0109 57.324 49.3832V37.051C57.2218 36.9657 57.2244 36.7915 57.1809 36.6586C57.1342 36.5151 57.1484 36.388 57.2809 36.3191C57.296 36.32 57.3093 36.3231 57.324 36.3244V30.2629C57.324 28.82 57.2311 27.681 57.0467 26.8429C56.5587 26.8016 56.0735 26.7305 55.5891 26.6416C55.4642 26.619 55.2873 26.555 55.3709 26.3608C55.3753 26.3488 55.382 26.339 55.3882 26.3288C55.4336 26.2514 55.5073 26.2097 55.5855 26.2061C55.6326 26.2043 55.6811 26.2154 55.7251 26.243C56.1179 26.4839 56.5441 26.531 56.9751 26.5474C56.8303 26.0133 56.6414 25.6257 56.4072 25.3867C56.2077 25.1831 55.933 25.0138 55.5855 24.8765V22.1675H49.3281V24.8921C48.9846 25.0303 48.713 25.2009 48.5153 25.4049C48.3215 25.6044 48.158 25.9013 48.0251 26.2946C48.2318 26.4252 48.4064 26.603 48.5575 26.7572C48.9797 27.1864 49.5076 27.2793 50.0098 27.4775C49.2503 27.8144 48.5029 27.5228 47.9425 26.5687C47.7074 27.426 47.5896 28.6565 47.5896 30.2629V43.1227C47.6194 43.1058 47.6536 43.0907 47.6967 43.0791C47.7763 43.0574 47.9043 43.0618 47.9096 43.1409C47.9229 43.3515 47.7763 43.4804 47.5896 43.6573V46.1214C47.6221 46.1077 47.6621 46.1014 47.7114 46.1063C47.9091 46.217 48.1202 46.3538 48.0825 46.6014C48.0549 46.7822 47.8443 46.8191 47.6696 46.7929C47.6399 46.7885 47.6136 46.7818 47.5896 46.7738V49.3832C47.5896 52.0234 47.898 53.6516 48.5153 54.2689C49.1321 54.8861 50.4919 55.195 52.5943 55.195ZM64.1391 40.3346C64.0578 40.3248 63.9725 40.2817 63.9721 40.1862C63.9716 40.0511 64.0649 40.0106 64.1858 40.0173C64.2725 40.0306 64.3538 40.0702 64.3529 40.1626C64.3516 40.291 64.26 40.3493 64.1391 40.3346ZM65.7274 27.7517H66.0207C66.4606 27.7517 66.7539 27.8339 66.9006 27.9988C67.0472 28.1641 67.1205 28.6072 67.1205 29.328V37.211C67.1205 37.602 67.0348 37.8953 66.8637 38.0909C66.6926 38.2864 66.4357 38.3842 66.094 38.3842C66.0082 38.3842 65.9411 38.3811 65.8923 38.3753C65.8434 38.3691 65.7883 38.3535 65.7274 38.3291V27.7517ZM70.7912 49.8876C70.7645 50.3831 70.7645 50.3831 69.6851 51.2541C69.79 50.6106 70.4846 50.488 70.7912 49.8876ZM70.8276 51.8136C70.8379 51.7323 70.8663 51.6447 70.9707 51.6661C71.0027 51.6723 71.0196 51.7536 71.0432 51.8003C71.0436 51.8865 71.0223 51.9785 70.9299 51.9851C70.8214 51.9927 70.8183 51.8936 70.8276 51.8136ZM70.7721 54.1844C70.6908 54.1427 70.7165 54.04 70.7734 53.9676C70.8183 53.9102 70.8659 53.8551 70.9121 53.7991C70.9116 53.7965 70.9107 53.7943 70.9099 53.792L70.9085 53.7934C70.8992 53.7876 70.893 53.7791 70.885 53.7725C70.6472 53.76 70.5366 53.6201 70.5388 53.3116C70.7814 53.3952 70.7499 53.6583 70.885 53.7725C70.9005 53.7734 70.9152 53.7751 70.9316 53.7751C70.9254 53.7831 70.9187 53.7911 70.9121 53.7991C70.937 53.8747 70.9792 53.9507 70.9774 54.0258C70.9752 54.1462 70.9139 54.2578 70.7721 54.1844ZM65.1483 54.8675C65.2666 54.8786 65.3328 54.9488 65.3563 55.0479H65.7274V41.9406H66.0207C66.4113 41.9406 66.6926 42.0259 66.8637 42.197C67.0348 42.3681 67.1205 42.6494 67.1205 43.0405V55.0479H71.2818V48.0567C71.1965 47.9581 71.2076 47.8661 71.2818 47.8025V44.3057C71.2818 42.9245 71.1409 41.9344 70.8605 41.3358C70.5788 40.7368 70.0962 40.2542 69.4118 39.8875C70.0842 39.484 70.5637 38.9432 70.8512 38.2651C71.1383 37.5865 71.2818 36.6119 71.2818 35.341V30.6847C71.2818 27.9717 71.0005 26.2728 70.4384 25.5884C69.8762 24.9041 68.7577 24.5614 67.0837 24.5614H63.5343C63.5783 24.593 63.5979 24.6423 63.5899 24.701C63.573 24.8205 63.5014 24.9089 63.369 24.8867C63.3326 24.8805 63.2899 24.8054 63.281 24.7561C63.2628 24.657 63.3037 24.597 63.3739 24.5614H61.5661V29.8639C61.6319 29.8377 61.6972 29.823 61.7519 29.8261C61.9763 29.8394 61.9034 30.0114 61.9354 30.2038C61.999 30.4856 61.819 30.5985 61.5661 30.6376V34.6415C61.6248 34.6446 61.6652 34.6886 61.659 34.7633C61.6563 34.7917 61.6061 34.8308 61.5661 34.8433V55.0479H64.943C64.9595 54.9434 65.0355 54.8563 65.1483 54.8675ZM28.5027 52.3309C28.4964 52.4846 28.392 52.5593 28.2587 52.5944C28.1774 52.6162 28.0907 52.5735 28.096 52.4851C28.1058 52.3264 28.1356 52.1571 28.3529 52.1611C28.4453 52.1629 28.476 52.2496 28.5027 52.3309ZM27.9338 33.0306C27.8934 33.0208 27.8396 32.9582 27.8396 32.9191C27.8392 32.8817 27.9001 32.844 27.9325 32.8075C27.9832 32.8404 28.0512 32.8595 28.0609 32.8951C28.0876 32.9915 28.0338 33.0537 27.9338 33.0306ZM27.9072 34.4624C27.5277 34.5073 27.5286 34.0247 27.2362 33.9327C27.5157 34.0278 27.9138 33.9207 27.9841 34.3438C27.9898 34.3798 27.9383 34.4589 27.9072 34.4624ZM27.0011 34.861C26.7589 34.8677 26.6664 34.7171 26.6549 34.506C26.6478 34.3735 26.7509 34.3016 26.8655 34.3309C27.03 34.3735 27.2788 34.3082 27.3095 34.5753C27.3335 34.7859 27.1891 34.8562 27.0011 34.861ZM27.217 44.954C27.2042 44.9678 27.1584 44.9678 27.1371 44.9567C26.9033 44.8331 26.8358 44.6501 26.9904 44.3079C27.03 44.3963 27.0731 44.4461 27.0624 44.4772C26.9909 44.6803 27.4352 44.7118 27.217 44.954ZM25.931 36.464C26.2776 35.9516 26.7464 35.7138 26.8584 35.2152C27.0166 35.6423 26.7131 36.0093 26.9811 36.5519C26.6149 36.2911 26.3354 36.2938 25.931 36.464ZM26.5642 31.253C26.6362 31.2104 26.7478 31.2313 26.7642 31.313C26.8118 31.5477 26.7242 31.7245 26.4776 31.8152C26.3656 31.5952 26.3212 31.3975 26.5642 31.253ZM26.9931 28.6192C27.1162 28.6183 27.1864 28.7231 27.1659 28.8436C27.1419 28.9853 27.062 29.0929 26.9046 29.1026C26.7802 29.0858 26.6793 29.0222 26.6762 28.9049C26.6709 28.7054 26.8189 28.6205 26.9931 28.6192ZM27.3664 31.6272C27.3628 31.7499 27.2584 31.7943 27.1571 31.8294C27.1162 31.8103 27.0402 31.7925 27.0397 31.7716C27.0353 31.6557 27.1153 31.5806 27.2082 31.5343C27.2881 31.4943 27.3686 31.5303 27.3664 31.6272ZM27.5317 32.5529C27.5281 32.696 27.4783 32.8271 27.3255 32.8813C27.197 32.9275 27.0517 32.9439 26.9393 33.0142C26.8095 33.0955 26.7211 33.2252 26.9629 33.291C27.0531 33.3159 27.2233 33.2408 27.1939 33.4074C27.1642 33.5776 26.9735 33.6376 26.8464 33.7216C26.6976 33.7545 26.6416 33.671 26.5949 33.5608C26.4869 33.3048 26.6567 32.4907 26.8629 32.3094C26.9886 32.1996 27.1157 32.2263 27.2397 32.3147C27.3428 32.388 27.537 32.3587 27.5317 32.5529ZM25.6292 40.0177C25.5221 39.9889 25.451 39.9075 25.4639 39.7871C25.4733 39.6987 25.5364 39.6445 25.6235 39.6569C25.7501 39.6747 25.7866 39.772 25.787 39.8866C25.7657 39.9689 25.7208 40.0422 25.6292 40.0177ZM23.9419 46.2023C23.8535 46.1756 23.7646 46.0854 23.7193 46.0001C23.6735 45.913 23.7579 45.8557 23.845 45.8557C23.969 45.8552 24.0286 45.9295 24.0254 46.0614C24.0054 46.1103 24.0699 46.2414 23.9419 46.2023ZM23.1838 44.0755C23.0909 44.279 22.9447 44.0937 22.8234 44.1003C22.6558 44.1088 22.6038 43.9737 22.5696 43.8373C22.5616 43.8408 22.5532 43.8439 22.5447 43.8475H22.5452V43.847H22.5456L22.5461 43.8462L22.5465 43.8457L22.547 43.8453L22.5474 43.8448L22.5478 43.8439L22.5487 43.8435L22.5492 43.8426L22.5501 43.8417L22.5505 43.8413L22.5514 43.8404L22.5523 43.8395L22.5527 43.8386L22.5536 43.8377L22.5545 43.8368L22.555 43.8359L22.5558 43.835L22.5567 43.8342L22.5576 43.8333L22.5581 43.8324L22.559 43.8319L22.5594 43.831L22.5603 43.8302L22.5607 43.8293L22.5612 43.8288L22.5621 43.8279L22.5625 43.8275L22.563 43.827L23.1838 44.0755ZM22.5447 43.8475V43.8479C22.5421 43.8417 22.539 43.8355 22.5363 43.8293C22.4656 43.8426 22.3945 43.8555 22.3239 43.8706C22.2279 43.8915 22.0892 43.9924 22.0564 43.8368C22.0164 43.6488 22.1906 43.6253 22.3265 43.6288C22.4461 43.6315 22.4963 43.7306 22.5363 43.8293C22.5465 43.8275 22.5563 43.8253 22.5661 43.8235C22.5674 43.8279 22.5687 43.8328 22.5696 43.8373C22.6638 43.7973 22.7598 43.7608 22.85 43.7133C23.0087 43.6293 23.1193 43.6791 23.1762 43.8346C23.2024 43.9075 23.2144 44.0092 23.1838 44.0755L22.5447 43.8475ZM22.8336 44.9478C22.8514 44.8811 22.9149 44.8491 22.958 44.8927C23.0327 44.9682 23.1233 45.0553 23.07 45.178C23.0558 45.2118 22.9838 45.2202 22.938 45.2402C22.846 45.1629 22.8025 45.066 22.8336 44.9478ZM22.7034 53.6129C22.8243 53.4161 22.7505 53.0628 23.0998 53.0503C23.1207 53.0495 23.1602 53.0792 23.1615 53.097C23.1847 53.4072 22.8954 53.4707 22.7034 53.6129ZM22.0559 54.1258C21.9559 54.1502 21.8399 54.168 21.7728 54.0467C21.7684 53.9418 21.8439 53.9067 21.9213 53.9133C22.0319 53.9227 22.1972 53.7871 22.2346 54.0036C22.2399 54.0351 22.1243 54.1093 22.0559 54.1258ZM22.1279 49.8143C22.2106 49.8547 22.263 49.9285 22.2163 50.0063C22.1586 50.1027 22.0524 50.1583 21.935 50.1432C21.9137 50.1405 21.8826 50.0418 21.8928 49.9956C21.9186 49.8774 21.9928 49.801 22.1279 49.8143ZM21.5795 40.6212C21.3502 40.6234 21.3582 40.4212 21.3276 40.2564C21.504 40.2146 21.6702 40.3861 21.8453 40.2964C21.8484 40.2839 21.851 40.271 21.8542 40.2586C21.8586 40.2582 21.8622 40.2573 21.8662 40.2564C21.6337 39.6542 22.0346 39.1401 22.1381 38.5886C22.1763 38.3824 22.5047 38.2286 22.7669 38.3313C22.9869 38.4179 22.9705 38.645 22.9029 38.8441C22.8603 38.9699 22.8029 39.0912 22.7496 39.2156C22.7532 39.2134 22.7563 39.2107 22.7598 39.2085C22.8167 39.8635 22.4714 40.1719 21.8662 40.2564C21.8697 40.2648 21.8715 40.2733 21.875 40.2817C21.8653 40.2888 21.855 40.2915 21.8453 40.2964C21.8097 40.4488 21.7826 40.6194 21.5795 40.6212ZM21.8737 40.2804L21.8733 40.2799L21.8728 40.279L21.8702 40.2764L21.8693 40.2755L21.8684 40.2746L21.8675 40.2733L21.8666 40.2724L21.8657 40.2715L21.8648 40.2702L21.8635 40.2693L21.8626 40.2679L21.8617 40.267L21.8608 40.2662L21.8599 40.2653L21.859 40.2639L21.8582 40.263L21.8573 40.2622L21.8568 40.2617L21.8559 40.2608L21.8555 40.2604L21.855 40.2599L21.8546 40.2595L21.8542 40.259V40.2586L21.8737 40.2804ZM21.1694 38.5713C21.1622 38.5499 21.2236 38.5055 21.2529 38.4722C21.3729 38.4722 21.4626 38.5246 21.5018 38.6379C21.5222 38.6979 21.4818 38.7477 21.4195 38.7406C21.3102 38.7272 21.2067 38.6859 21.1694 38.5713ZM21.0916 35.4245C21.1685 35.1557 21.476 35.0761 21.839 35.2268C21.8368 35.2214 21.8333 35.217 21.8315 35.2117L21.8408 35.2201C21.8359 35.2157 21.8319 35.2117 21.8319 35.2117C21.8462 35.2037 21.8586 35.1966 21.8724 35.189C21.9186 35.0775 21.9653 34.9659 22.0124 34.8544C21.9999 34.8628 21.9901 34.8726 21.9773 34.8802C21.9777 34.8664 21.9781 34.8539 21.9781 34.841C21.7546 34.7851 21.5129 34.7602 21.396 34.5055C21.9795 34.3158 21.9937 34.3131 21.9781 34.841C21.9901 34.8437 22.0026 34.8464 22.0141 34.8495C22.0137 34.8513 22.0128 34.853 22.0124 34.8544C22.3381 34.6309 22.4376 34.2549 22.5914 33.8398C22.7265 34.6971 22.7265 34.7117 21.8724 35.189C21.8662 35.2032 21.8604 35.2179 21.8542 35.2321L21.8537 35.2317L21.8533 35.2312L21.8528 35.2308L21.8524 35.2303L21.8515 35.2299L21.851 35.229L21.8502 35.2281L21.8493 35.2272L21.8484 35.2263L21.8475 35.2254L21.8462 35.2246L21.8453 35.2237L21.8444 35.2228L21.843 35.2219L21.8422 35.221L21.8408 35.2201L21.0916 35.4245ZM21.8542 35.2321C21.8493 35.2299 21.8439 35.229 21.839 35.2268C21.8866 35.3357 22.0639 35.4041 21.9461 35.5636C21.8093 35.7489 22.0412 36.2062 21.5591 36.128C21.3071 36.0871 21.0338 35.6254 21.0916 35.4245L21.8542 35.2321ZM22.3799 33.2137C22.5203 33.7843 21.9617 33.7323 21.8182 33.9972C21.8195 33.6239 22.0479 33.4239 22.3799 33.2137ZM22.2048 30.558C22.3314 30.5349 22.3936 30.6149 22.4225 30.7278C22.4243 30.8122 22.3972 30.8975 22.3065 30.8926C22.1834 30.8855 22.1528 30.7704 22.1395 30.6696C22.1346 30.6345 22.1754 30.5634 22.2048 30.558ZM22.1035 29.0355C21.7959 28.8778 22.1035 28.5343 22.1012 28.2734C22.099 28.0081 22.283 27.9432 22.495 28.1077C22.6207 28.2059 22.7269 28.2125 22.846 28.1281C22.8429 28.117 22.8434 28.1077 22.8394 28.0965L22.8403 28.0974L22.8407 28.0979L22.8411 28.0983L22.842 28.0992L22.8425 28.0997L22.8434 28.1005L22.8438 28.101L22.8447 28.1019L22.8456 28.1028L22.8465 28.1037L22.8478 28.1045L22.8487 28.1059L22.8496 28.1068L22.8509 28.1077L22.8518 28.1085L22.8527 28.1099L22.8536 28.1108L22.8549 28.1117L22.8558 28.1125L22.8567 28.1134L22.8576 28.1143L22.8585 28.1152L22.8589 28.1157L22.8598 28.1165L22.8603 28.117L22.8607 28.1174L22.8611 28.1179L22.8616 28.1183C22.8563 28.1228 22.8514 28.1241 22.846 28.1281C22.8909 28.2907 22.8434 28.4245 22.7127 28.5414C22.5127 28.7205 22.5261 29.2515 22.1035 29.0355ZM22.8403 28.0974C22.8523 28.0979 22.8625 28.097 22.874 28.0974C22.9705 27.9357 23.0025 27.7099 23.318 27.6748C23.2726 27.9775 23.1349 28.1032 22.874 28.0974C22.8696 28.1041 22.866 28.1117 22.8616 28.1183L22.8403 28.0974ZM21.8213 26.7847C21.8435 26.5558 22.0528 26.6003 22.1994 26.5638C22.3221 26.5336 22.4421 26.5856 22.4296 26.7127C22.4079 26.9309 22.195 26.8874 22.051 26.9322C21.9475 26.9211 21.8057 26.9469 21.8213 26.7847ZM22.6016 27.3166C22.6305 27.4091 22.5594 27.4713 22.4847 27.5024C22.451 27.5166 22.3634 27.4873 22.355 27.4606C22.3261 27.3713 22.3799 27.3086 22.463 27.2722C22.5114 27.286 22.5936 27.29 22.6016 27.3166ZM22.7163 29.4573C22.7967 29.2351 22.9802 29.4622 23.1016 29.5448C23.1398 29.571 23.1478 29.6412 23.2038 29.7701C22.9136 29.7421 22.6461 29.6501 22.7163 29.4573ZM22.6696 38.1042C22.4154 38.0949 22.1492 37.6678 22.2648 37.4341C22.3257 37.3119 22.4505 37.3101 22.5465 37.3603C22.7874 37.4861 22.6763 37.8047 22.8585 37.9789C22.8887 38.0078 22.7585 38.0855 22.6696 38.1042ZM22.9998 40.9327C22.9549 40.9305 22.8927 40.9443 22.87 40.9207C22.8443 40.8932 22.8536 40.8323 22.8474 40.7861C22.8936 40.7874 22.9585 40.771 22.9798 40.7941C23.006 40.823 22.9949 40.8852 22.9998 40.9327ZM22.9936 31.7348C22.8331 31.8641 22.6594 31.8294 22.3888 31.7152C22.6292 31.5286 22.7803 31.4033 22.9767 31.5241C23.0469 31.5677 23.0558 31.6841 22.9936 31.7348ZM23.6077 36.4209C23.5566 36.5017 23.4793 36.5311 23.4002 36.484C23.3673 36.4644 23.3397 36.3804 23.3553 36.3457C23.3931 36.2604 23.4757 36.2435 23.5615 36.2818C23.6224 36.3093 23.6357 36.36 23.6077 36.4209ZM23.6433 35.5107C23.6713 35.5281 23.6833 35.6218 23.6633 35.6583C23.5099 35.9369 23.2478 35.8094 23.01 35.88C23.0273 35.7929 23.0269 35.7467 23.0385 35.7432C23.2482 35.6823 23.3464 35.3245 23.6433 35.5107ZM23.7024 28.4081C23.7886 28.4303 23.8801 28.4832 23.8632 28.6147C23.8512 28.7049 23.7766 28.7565 23.6962 28.7147C23.6317 28.6818 23.5659 28.6112 23.5446 28.5436C23.5175 28.4561 23.5717 28.3916 23.7024 28.4081ZM23.9046 27.657C24.0099 27.6513 24.1165 27.6562 24.1468 27.7917C24.1396 27.8846 24.0779 27.9379 23.9974 27.9495C23.8846 27.9659 23.7828 27.9237 23.7601 27.801C23.7433 27.7055 23.8192 27.6619 23.9046 27.657ZM23.8166 33.8123C23.7579 33.8358 23.6926 33.8816 23.6255 33.8838C23.5686 33.8856 23.5491 33.8172 23.5926 33.775C23.6264 33.7416 23.6779 33.7199 23.7255 33.7092C23.7864 33.695 23.8188 33.7305 23.8166 33.8123ZM23.7179 30.398C23.7428 30.2741 23.8495 30.2238 23.969 30.2532C24.0819 30.2812 24.1503 30.3652 24.1659 30.49C24.1365 30.6669 24.0046 30.5642 23.9166 30.5709C23.7975 30.5807 23.6882 30.5465 23.7179 30.398ZM25.188 30.2092C25.2382 30.1692 25.2795 30.1803 25.3057 30.2363C25.2853 30.2758 25.2644 30.3154 25.2435 30.3549C25.2124 30.3269 25.1777 30.3016 25.1529 30.2687C25.1475 30.2616 25.1702 30.2234 25.188 30.2092ZM28.0689 31.1188C28.0663 31.0282 28.0929 30.9464 28.1409 30.8744L28.0818 30.095C28.0121 30.1594 27.9267 30.2114 27.8196 30.2483C27.9023 30.0763 27.8632 29.8079 28.0512 29.6861L27.6663 24.5619H21.4698L21.3804 25.7493C21.4738 25.8946 21.5315 26.059 21.504 26.2412C21.4822 26.3852 21.4147 26.4603 21.3244 26.4963L21.1258 29.1404C21.2489 29.0698 21.3622 29.0884 21.4875 29.304C21.6742 29.6248 22.1919 29.5008 22.3723 29.9501C21.9417 30.003 21.5373 29.9203 21.0734 29.835L21.0236 30.5007C21.0543 30.4914 21.0854 30.4834 21.1071 30.4745C21.216 30.4989 21.3169 30.5296 21.2596 30.6322C21.2285 30.6873 21.1191 30.7207 21.044 30.7224C21.0316 30.7229 21.0196 30.7211 21.0071 30.7184L20.9094 32.0183C20.9249 32.0201 20.9396 32.0236 20.9552 32.0245C21.3653 32.0476 21.3302 32.2538 21.1391 32.5031C21.076 32.5853 20.9916 32.6778 20.8645 32.6444C20.8636 32.644 20.8632 32.644 20.8623 32.6435L20.6885 34.9544C20.7458 34.9504 20.8027 34.949 20.8605 34.9481C20.8636 34.9406 20.8672 34.9326 20.8707 34.9259C20.8703 34.9255 20.8694 34.9241 20.8694 34.9237C20.8761 34.9095 20.8863 34.897 20.8956 34.8846C20.9049 34.7273 20.8321 34.5491 21.0089 34.4367C21.0343 34.4207 21.1267 34.4504 21.1351 34.4762C21.2093 34.7006 20.9925 34.7566 20.8956 34.8846C20.8943 34.9059 20.8916 34.9273 20.8867 34.9473C20.8778 34.9477 20.8689 34.9477 20.8605 34.9481C20.8294 35.0126 20.8058 35.0841 20.7578 35.1317C20.7307 35.1579 20.701 35.1774 20.6712 35.189L19.1785 55.0479H21.8684C21.9035 54.9661 21.9537 54.8821 21.9653 54.7928C22.0226 54.9048 22.1799 54.9572 22.2514 55.0479H23.3766L23.633 48.1003H25.4844L25.6141 51.1635C25.615 51.1635 25.6164 51.163 25.6177 51.163C25.7177 51.1652 25.7701 51.2395 25.7461 51.3323C25.7381 51.3626 25.6719 51.3772 25.6239 51.3963L25.6852 52.8477C25.751 52.8148 25.815 52.7704 25.8843 52.7606C25.9701 52.7486 26.0461 52.7895 26.0465 52.9104C26.0199 52.9948 25.9421 53.0201 25.8599 52.9872C25.7959 52.9619 25.7426 52.9095 25.6857 52.8659L25.7777 55.0479H26.1763C25.7901 54.436 25.7999 54.4075 25.9825 53.9094C26.1341 54.2764 26.2749 54.6297 26.2558 55.0479H29.9576L28.2018 31.6908C28.0378 31.5761 28.0752 31.3233 28.0689 31.1188ZM14.7355 26.7869C14.5431 26.7607 14.4355 26.6447 14.4551 26.4448C14.464 26.3568 14.5288 26.303 14.6355 26.3021C14.7875 26.3719 14.911 26.4861 14.9186 26.6683C14.9226 26.7536 14.8181 26.7985 14.7355 26.7869ZM14.5053 29.3275C14.3058 29.3524 14.2102 29.2102 14.1591 29.0524C14.1333 28.9742 14.2084 28.8876 14.2933 28.8836C14.4782 28.8747 14.5951 28.9764 14.6457 29.1431C14.6377 29.244 14.5888 29.3173 14.5053 29.3275ZM9.95652 40.9981C9.77565 41.0167 9.7361 40.8661 9.7201 40.7274C9.71121 40.6452 9.75388 40.5528 9.84942 40.5515C10.0183 40.5497 10.0872 40.6634 10.1112 40.8359C10.0623 40.8901 10.0143 40.9923 9.95652 40.9981ZM9.25972 30.139C9.15839 29.9945 9.2135 29.8812 9.31926 29.7772C9.37215 29.7257 9.44769 29.7355 9.4468 29.8012C9.44458 29.9368 9.38592 30.0594 9.25972 30.139ZM7.33107 28.9324C7.2373 28.9351 7.19242 28.8716 7.1782 28.7889C7.15731 28.6711 7.19908 28.576 7.32262 28.5485C7.43061 28.5245 7.45105 28.6129 7.46083 28.6911C7.4746 28.7978 7.48394 28.908 7.33107 28.9324ZM12.6766 52.0736C12.8415 52.0403 12.8233 52.1905 12.8028 52.294C12.7859 52.382 12.873 52.5451 12.6855 52.5317C12.578 52.5237 12.4771 52.458 12.4793 52.2802C12.5318 52.222 12.5926 52.0905 12.6766 52.0736ZM15.6505 29.8137C15.4785 29.6697 15.3536 29.4333 15.1368 29.2146C15.5572 29.0115 15.7056 29.4502 15.9722 29.5577C15.9642 29.1973 15.9496 28.8573 15.9278 28.5405C15.9109 28.54 15.8922 28.5356 15.8736 28.5223C15.8336 28.4934 15.7869 28.4467 15.7834 28.4045C15.7802 28.3712 15.8385 28.3325 15.8691 28.2965C15.8851 28.3014 15.8976 28.3094 15.9104 28.3174C15.7882 26.8167 15.5069 25.8377 15.0648 25.3867C14.4533 24.7632 13.1455 24.4517 11.1417 24.4517C9.11262 24.4517 7.78968 24.7694 7.17286 25.4049C6.55516 26.0404 6.24676 27.6597 6.24676 30.2629V49.3832C6.24676 52.0234 6.55516 53.6516 7.17286 54.2689C7.78968 54.8861 9.14906 55.1945 11.2515 55.1945C13.1823 55.1945 14.4533 54.883 15.0648 54.26C15.6754 53.6365 15.9811 52.0109 15.9811 49.3832V42.1788H11.8016V50.8866C11.8016 51.2901 11.7496 51.5772 11.6456 51.7483C11.5417 51.9194 11.3737 52.0051 11.1417 52.0051C10.8848 52.0051 10.7013 51.9194 10.5916 51.7483C10.4813 51.5772 10.4267 51.2901 10.4267 50.8866V28.76C10.4267 28.369 10.4813 28.0908 10.5916 27.9259C10.7013 27.7606 10.8848 27.6779 11.1417 27.6779C11.3737 27.6779 11.5417 27.7606 11.6456 27.9259C11.7496 28.0908 11.8016 28.369 11.8016 28.76V34.9561H15.9811V30.2629C15.9811 30.1034 15.9802 29.9483 15.9775 29.7963C15.8758 29.8781 15.7727 29.9163 15.6505 29.8137ZM19.0287 8.29856C19.0083 8.24834 18.9834 8.19946 18.9696 8.14746C18.9652 8.13058 18.9741 8.10969 18.9821 8.08836H18.2666C18.1191 8.21057 17.964 8.21857 17.7973 8.08836H16.7757C16.7566 8.10436 16.7388 8.1208 16.7192 8.13769C16.709 8.11991 16.6997 8.1048 16.6899 8.08836H16.2122C16.2775 8.14658 16.3304 8.22568 16.3695 8.31411C16.4419 8.47765 16.4126 8.68562 16.4277 8.8616C16.7121 8.97181 16.8454 8.67984 17.0694 8.68029C17.2218 8.68073 17.3049 8.67318 17.2667 8.9047C17.2232 9.17089 17.4271 9.2811 17.6098 9.12601C17.7542 9.00291 17.8418 8.81138 17.9889 8.69273C18.2657 8.4692 18.4848 8.57674 18.4399 8.96647C18.4088 9.234 18.5457 9.20289 18.651 9.17489C19.0509 9.06868 19.1972 8.70695 19.0287 8.29856ZM20.2468 11.0484C20.3126 11.096 20.3441 11.1542 20.3597 11.2169H22.4012C21.6315 10.6871 20.7427 10.5512 19.8242 10.5463C19.4687 10.5441 19.6029 10.9102 19.4487 11.1449C19.7544 11.2018 19.9851 10.8587 20.2468 11.0484ZM29.1435 15.9101H28.5947C28.6093 15.9283 28.624 15.9465 28.6386 15.9643C28.8177 16.186 28.9759 16.0216 29.1435 15.9101ZM18.9518 9.3962C18.8621 9.38642 18.7848 9.42331 18.7928 9.52907C18.799 9.61573 18.8501 9.6895 18.9434 9.69527C19.0318 9.7006 19.1016 9.65883 19.1109 9.55707C19.0985 9.46286 19.0403 9.40598 18.9518 9.3962ZM14.4444 15.9834C14.4742 15.9594 14.5035 15.9349 14.5333 15.9101H14.4617C14.4608 15.9221 14.4591 15.9341 14.4564 15.9456C14.4604 15.9514 14.4648 15.9554 14.4688 15.9612L14.4444 15.9834ZM17.8689 10.0681C17.6693 9.8637 18.271 9.71127 17.8729 9.53796C17.6849 9.45575 17.5769 9.58417 17.5622 9.70905C17.5089 10.1623 17.1698 10.4263 16.9259 10.7543C16.8406 10.8685 16.7446 10.9889 16.9205 11.1022C17.0623 11.1933 17.2072 11.1715 17.2645 11.0111C17.42 10.5783 17.6267 10.6983 17.8831 10.9165C18.0097 11.024 18.2435 10.8893 18.1977 10.8254C18.0306 10.5929 18.1555 10.4698 18.3039 10.3099C18.3035 10.001 17.9969 10.2001 17.8689 10.0681ZM14.7306 10.856C15.1585 11.0578 15.4323 10.8689 15.7091 10.7836C15.4318 10.8609 15.123 10.6134 14.7306 10.856ZM13.6254 11.2169C13.6223 11.0644 14.46 10.8285 13.6378 10.7556C13.6378 10.7614 13.6361 10.7654 13.6365 10.7716L13.6352 10.7703C13.6227 10.7711 13.6103 10.7716 13.5978 10.772C13.6054 10.7654 13.613 10.7605 13.6201 10.7538C13.6267 10.7543 13.6316 10.7547 13.6378 10.7551C13.6325 10.5974 13.7134 10.4916 13.8685 10.4898C14.0911 10.4872 14.3155 10.5107 14.5368 10.5418C14.8999 10.5925 15.1403 10.4881 15.1776 10.0872L15.1532 8.73939C15.0879 8.30433 15.4318 8.22123 15.6998 8.08836H14.703C14.7182 8.13991 14.7275 8.19501 14.7248 8.25723C14.7155 8.46698 14.6146 8.54653 14.432 8.58785C14.1404 8.65407 13.9103 8.53675 13.8369 8.27767C13.82 8.21857 13.808 8.15413 13.8014 8.08836H13.3783C13.385 8.10436 13.3899 8.12036 13.3881 8.13235C13.3748 8.21812 13.3054 8.25989 13.2157 8.25678C13.1908 8.2159 13.1419 8.17235 13.1459 8.13413C13.1477 8.1168 13.1539 8.10214 13.1601 8.08836H4.36965C3.7604 8.08836 3.25335 7.65286 3.14181 7.07693C3.13647 7.07915 3.13159 7.0836 3.12625 7.08493C2.97427 7.13159 2.94139 7.0116 2.94139 6.89784C2.94183 6.8103 2.9916 6.72853 3.09426 6.76319C3.1027 6.76586 3.11025 6.77075 3.11825 6.7743V4.64701C3.11825 3.95554 3.67863 3.39516 4.36965 3.39516H5.87169C5.87214 3.38983 5.87125 3.38494 5.87258 3.37961C5.88991 3.29029 5.96279 3.22541 6.05033 3.25074C6.11699 3.26985 6.13699 3.33028 6.14055 3.39516H95.6304C96.3214 3.39516 96.8817 3.95554 96.8817 4.64701V6.83696C96.8817 7.52799 96.3214 8.08836 95.6304 8.08836H49.6894C49.6858 8.09325 49.6849 8.09814 49.6805 8.10347C49.6525 8.13991 49.5756 8.17235 49.5356 8.15991C49.4801 8.14258 49.4347 8.11769 49.3956 8.08836H38.577C38.5596 8.25101 38.4157 8.39899 38.1193 8.68073C38.4125 8.76517 38.6503 8.62829 38.8969 8.51053C39.1316 8.39854 39.3129 8.43321 39.4435 8.69762C39.6288 9.07313 39.3542 9.01536 39.1471 9.07935C39.0587 9.1069 38.872 9.26777 39.0974 9.38642C39.6008 9.65261 39.2871 10.0072 39.1805 10.3014C39.1089 10.5001 38.8769 10.5232 38.6756 10.4005C38.4916 10.2885 38.4712 10.1765 38.6263 10.0046C38.7681 9.84814 38.8236 9.6375 38.6072 9.49885C38.4183 9.37753 38.2317 9.42997 38.1161 9.64017C38.0615 9.73971 38.0846 9.97702 37.8766 9.81437C37.7562 9.72016 37.6015 9.51752 37.8051 9.39886C38.1584 9.19267 38.0019 9.02291 37.846 8.80072C37.698 8.59096 37.7002 8.41765 37.9775 8.26301C38.057 8.21812 38.109 8.15768 38.1459 8.08836H37.0927C36.9665 8.35188 36.7532 8.58785 36.6452 8.85227C36.5803 9.01047 36.4128 9.226 36.2266 9.35531C36.1204 9.42908 36.0084 9.56284 35.956 9.29665C35.8733 8.87537 35.4209 8.91492 35.2272 8.95136C34.9285 9.00736 34.8903 9.37265 35.025 9.69394C34.6135 9.73393 34.5197 8.96825 34.0455 9.34643C34.0464 9.35398 34.0473 9.36198 34.0482 9.36953C34.162 9.39487 34.3171 9.34732 34.3375 9.53218C34.3411 9.56284 34.2753 9.63084 34.2424 9.63039C34.0629 9.62817 34.062 9.49308 34.0482 9.36953C34.0398 9.36776 34.0309 9.36642 34.0224 9.36331L34.0451 9.3402C33.1892 9.72194 33.0768 9.90591 33.159 10.8591C33.171 10.9942 33.1345 11.0751 33.0283 11.128C32.9243 11.18 32.811 11.1858 32.7137 11.1107C32.6204 11.0382 32.5475 10.92 32.6297 10.8267C33.083 10.313 32.6719 10.3303 32.3155 10.2774C32.0396 10.2365 31.7689 10.177 31.4872 10.2157C31.4019 10.2277 31.3219 10.1841 31.3165 10.089C31.3134 10.0423 31.3601 9.95124 31.3841 9.95124C31.9542 9.9548 31.4885 9.54329 31.6183 9.37353C31.6067 9.3842 31.5947 9.39264 31.5814 9.39975C31.4134 9.52996 31.2765 9.72949 30.9868 9.66861C31.061 9.27532 31.3979 9.49841 31.5814 9.39975C31.5943 9.38998 31.6067 9.37931 31.6201 9.37042C31.6201 9.37042 31.6192 9.37176 31.6192 9.37265C31.8756 9.55307 32.0529 9.35043 32.1875 9.206C32.4995 8.87182 32.9692 8.76828 33.2674 8.42432C33.2847 8.40432 33.3163 8.39677 33.3354 8.37721C33.6189 8.08747 34.0895 8.5443 34.2557 8.2439C34.2895 8.18213 34.3277 8.1328 34.3673 8.08836H19.4247C19.4767 8.12258 19.5282 8.15946 19.5829 8.18879C19.7775 8.29234 20.0206 8.13235 20.2188 8.25812C20.2321 8.38166 20.1544 8.40965 20.0695 8.4221C19.9859 8.43498 19.9046 8.44476 19.8393 8.57986C20.0437 8.91981 20.5299 8.83138 20.7796 9.11357C20.7796 9.11179 20.7805 9.1109 20.7805 9.10912L20.7823 9.11134C20.7885 9.11534 20.7947 9.11934 20.801 9.12334C20.8414 9.09179 20.8872 9.06424 20.9192 9.02513C21.0276 8.89315 21.1414 8.76339 21.3164 8.91137C21.3684 8.95536 21.4102 9.06913 21.3907 9.12912C21.3204 9.34376 21.1538 9.30643 20.9947 9.238C20.9272 9.20867 20.8658 9.16467 20.801 9.12334C20.7992 9.12512 20.797 9.12645 20.7947 9.12779V9.12734H20.7943C20.7898 9.12201 20.7841 9.11846 20.7796 9.11357C20.7392 9.37665 20.5788 9.48063 20.3868 9.28688C20.1268 9.02424 19.9006 9.07046 19.6424 9.24777C19.4802 9.35931 19.4433 9.51396 19.5011 9.68994C19.5611 9.87347 19.6864 9.95702 19.8882 9.91747C20.1086 9.87392 20.3312 9.84325 20.5521 9.80859C20.5525 9.81215 20.5521 9.81615 20.5525 9.8197C20.7921 9.64328 21.0747 9.76682 21.3333 9.71749C21.5533 9.67572 21.6004 9.76637 21.6053 9.98901C21.6115 10.2739 22.0004 10.5032 22.0883 10.4592C22.7518 10.1277 22.4834 10.7747 22.6238 10.9569C22.6643 11.0098 22.6389 11.1133 22.6136 11.2169H22.8194C22.8994 11.1706 22.9851 11.1204 23.082 11.064C23.0629 11.1342 23.0367 11.1822 23.0056 11.2169H33.922C34.0549 10.9698 34.1451 10.7178 34.0424 10.4005C34.3308 10.6729 34.5455 10.9547 34.9383 11.0204C34.8432 11.1524 34.7152 11.1866 34.5935 11.2169H57.7079C57.6533 11.1795 57.6453 11.1018 57.6635 11.0204C57.6924 10.8925 57.7159 10.7303 57.8741 10.7151C57.9648 10.7063 57.9946 10.7543 58.003 10.7729L58.0026 10.7489C58.0048 10.7849 58.0083 10.7849 58.003 10.7729C58.0106 11.0351 57.9879 11.1684 57.8932 11.2169H59.1811C59.1958 11.1991 59.2118 11.1822 59.2277 11.1689C59.2797 11.1267 59.3224 11.1502 59.3393 11.2169H95.6304C96.3214 11.2169 96.8817 11.7772 96.8817 12.4683V14.6587C96.8817 15.3497 96.3214 15.9101 95.6304 15.9101H31.5103C31.4014 16.0167 31.2921 16.1176 31.1246 16.0736C31.0632 16.0576 31.0575 15.994 31.1055 15.9469C31.1192 15.9336 31.133 15.9212 31.1472 15.9101H30.246C30.2758 15.9278 30.3002 15.9803 30.3269 16.0145C30.3202 16.0874 30.2842 16.1127 30.2251 16.0794C30.2047 16.0683 30.1936 16.0376 30.1816 16.014C30.1585 15.9669 30.1633 15.9265 30.19 15.9101H29.3999C29.4381 16.0523 29.3248 16.1531 29.2688 16.2767C29.1852 16.4598 28.9662 16.5469 29.1488 16.8966C29.291 17.1699 28.8093 16.905 28.6302 17.0113C28.6302 17.0121 28.6302 17.0135 28.6298 17.0144H28.6293H28.6289H28.628H28.6275H28.6271H28.6266H28.6262H28.6258H28.6253H28.6249H28.6244H28.624H28.6235C28.6258 17.013 28.6284 17.0126 28.6302 17.0113C28.6324 16.9584 28.6466 16.8682 28.6329 16.8633C28.1169 16.6922 27.9454 16.3398 27.9138 15.9101H27.5788C27.5908 15.9229 27.6023 15.9376 27.6117 15.9558C27.5952 16.0003 27.5908 16.0678 27.5597 16.0847C27.4823 16.1256 27.4006 16.0963 27.369 16.0149C27.3597 15.9905 27.3744 15.9412 27.3961 15.9101H16.1944C16.254 16.1065 16.3846 16.1131 16.8072 16.1385C16.9152 16.1447 17.0214 16.1856 17.173 16.2202C16.9161 16.6833 16.5073 16.3509 16.2117 16.4624C16.1429 16.2531 15.954 16.102 15.85 15.9101H14.9448C14.6977 16.2647 14.4409 16.5686 14.064 16.8317C13.9822 16.3873 14.1729 16.1611 14.4466 15.9763C14.4506 15.9665 14.4542 15.9563 14.4564 15.9456C14.4471 15.9327 14.4369 15.9225 14.4271 15.9101H13.6667C13.7436 15.9114 13.7934 15.9509 13.7783 16.0625C13.768 16.138 13.6921 16.2265 13.6174 16.1922C13.4552 16.1189 13.5156 16.0158 13.5867 15.9198C13.585 15.9203 13.5832 15.9203 13.581 15.9212C13.5663 15.9172 13.5516 15.9136 13.5374 15.9101H13.4512C13.369 15.9185 13.2881 15.9292 13.2134 15.9576C13.061 16.0167 12.993 15.9865 12.9633 15.9101H8.07675C7.99054 16.022 7.867 16.1229 7.73413 16.2389C7.69369 16.1029 7.69502 15.9972 7.71946 15.9101H4.36965C3.67863 15.9101 3.11825 15.3497 3.11825 14.6587V12.4683C3.11825 11.7772 3.67863 11.2169 4.36965 11.2169H11.9141C12.1029 11.0947 12.2522 10.8151 12.5286 11.0342C12.5291 11.0329 12.53 11.0316 12.5304 11.0302L12.5358 11.0356L12.5313 11.0307C12.5438 11.0302 12.5558 11.0302 12.5682 11.0293C12.5629 11.0373 12.5575 11.044 12.5522 11.052C12.5442 11.0449 12.5366 11.0404 12.5286 11.0342C12.4989 11.0951 12.4687 11.1555 12.4384 11.2169H13.6254ZM13.6352 10.7703L13.6201 10.7538L13.6356 10.7703H13.6352ZM20.7823 9.11134L20.7827 9.11179V9.11223L20.7832 9.11268L20.7836 9.11312L20.7841 9.11357L20.7845 9.11401L20.785 9.1149L20.7854 9.11579L20.7863 9.11623L20.7867 9.11712L20.7872 9.11801L20.7881 9.1189L20.7885 9.11979L20.7894 9.12068L20.7898 9.12112L20.7903 9.12201L20.7912 9.1229L20.7916 9.12379L20.7921 9.12423L20.7925 9.12512L20.793 9.12557L20.7934 9.12645L20.7938 9.1269L20.7943 9.12734L20.7823 9.11134ZM28.6298 17.0144H28.6315C28.6324 17.0184 28.632 17.021 28.6329 17.025C28.6831 17.085 28.7333 17.1463 28.7862 17.2055C29.3012 17.7854 29.3021 17.7876 28.6284 18.1809C28.3356 18.352 28.3907 18.496 28.6369 18.6631C28.9111 18.8488 28.7715 18.9879 28.5844 19.0386H47.1204C47.1319 19.0217 47.1448 19.0043 47.1546 18.9875C47.1755 19.0043 47.2066 19.0217 47.227 19.0386H60.4765C60.4925 18.9443 60.5285 18.8537 60.6431 18.8333C60.652 18.8319 60.6778 18.9261 60.6965 18.979C60.6951 18.9981 60.6947 19.0186 60.6938 19.0386H95.6304C96.3214 19.0386 96.8817 19.5989 96.8817 20.2904V56.9254C96.8817 57.6164 96.3214 58.1768 95.6304 58.1768H71.8817C71.6271 58.3066 71.3582 58.4208 71.0352 58.455C71.1041 58.3372 71.1818 58.2479 71.2636 58.1768H54.0075C54.0084 58.1777 54.0097 58.1777 54.0111 58.1786C54.1115 58.2573 54.2924 58.2381 54.3092 58.4261C54.1733 58.5683 54.0773 58.3599 53.9471 58.3786C53.8453 58.3937 53.7187 58.3461 53.8026 58.1959C53.8075 58.187 53.8146 58.1835 53.8204 58.1768H52.8965C52.8628 58.1924 52.8219 58.1924 52.7779 58.1768H48.1193C48.1562 58.2693 48.1549 58.3817 48.0891 58.4759C47.9047 58.7403 47.7194 58.491 47.4883 58.4768C47.5603 58.3799 47.6065 58.2684 47.6567 58.1768H45.5597C45.5552 58.1835 45.5517 58.1902 45.5472 58.1973C45.5406 58.1906 45.5379 58.1835 45.5321 58.1768H38.6925C38.577 58.3195 38.3739 58.4106 38.2743 58.3435C37.8304 58.0426 37.5033 58.331 37.0123 58.5803C37.0407 58.4275 37.0532 58.2897 37.0749 58.1768H34.525C34.4899 58.4088 34.3526 58.5719 34.1051 58.5972C33.9753 58.5781 33.8478 58.5243 33.8642 58.4012C33.8758 58.3159 33.9029 58.2404 33.9433 58.1768H28.5533C28.5529 58.1799 28.5547 58.1826 28.5542 58.1862C28.5475 58.2741 28.4862 58.3395 28.3987 58.3412C28.3071 58.3435 28.2609 58.2737 28.2507 58.1848C28.2507 58.1817 28.2525 58.1795 28.2529 58.1768H26.6731C26.4909 58.3564 26.2727 58.523 26.0372 58.339C25.9901 58.3021 25.9154 58.2457 25.8554 58.1768H24.2201C24.261 58.207 24.301 58.2395 24.3432 58.2728C24.2881 58.3164 24.2521 58.367 24.209 58.3741C24.1117 58.3906 24.057 58.3248 24.0632 58.2346C24.0641 58.2181 24.0801 58.1964 24.0974 58.1768H4.36965C3.67863 58.1768 3.11825 57.6164 3.11825 56.9254V24.6059C3.1147 24.6036 3.10937 24.6028 3.10626 24.601C2.75252 24.3601 2.59476 23.9522 2.30369 23.6549C2.11927 23.4669 2.2668 23.2625 2.32502 23.0661C2.31835 23.0541 2.31124 23.0425 2.30369 23.0305C2.30991 23.0278 2.31658 23.0247 2.3228 23.0221C2.17748 22.9523 2.00995 22.8812 2.19703 22.6906C2.29702 22.5888 2.46278 22.5439 2.54144 22.7017C2.64409 22.9083 2.46189 22.959 2.3228 23.0221C2.32724 23.0243 2.33168 23.0265 2.33613 23.0287C2.33346 23.0412 2.32902 23.0536 2.32502 23.0661C2.41834 23.2194 2.50677 23.3762 2.60987 23.5224C2.82051 23.8211 2.94272 23.9455 3.11825 23.9042V23.2047C3.08448 23.1149 3.08981 22.9963 3.11825 22.8101V21.0108C3.06937 21.1072 3.03026 21.2427 2.97072 21.4392C2.87251 21.764 2.68942 21.5071 2.54144 21.4525C2.54188 21.4565 2.54144 21.4605 2.54233 21.4645C2.54321 21.4658 2.54455 21.468 2.54499 21.4685C2.54321 21.4725 2.54144 21.4769 2.53966 21.4809C2.55566 21.5511 2.5761 21.6209 2.57699 21.6911C2.57832 21.7653 2.55166 21.84 2.5321 21.9129C2.53122 21.9169 2.47833 21.9182 2.46189 21.9049C2.38368 21.8422 2.39345 21.7707 2.44145 21.6907C2.481 21.6249 2.50944 21.5529 2.53966 21.4809C2.53699 21.4703 2.53433 21.4596 2.53255 21.4489C2.53522 21.4498 2.53833 21.4516 2.54144 21.4525C2.48189 21.069 2.75697 20.7428 2.61209 20.2917C2.43701 19.7465 2.75208 19.5252 3.25513 19.7229C3.46221 19.3172 3.88305 19.0386 4.36965 19.0386H17.8173C17.8231 18.9986 17.8289 18.9577 17.8338 18.9155C17.8635 18.9586 17.8898 18.999 17.9138 19.0386H27.0193C26.9366 18.8279 26.6976 18.7537 26.3927 18.719C26.2421 18.7022 26.1141 18.6288 26.1141 18.4666C26.1145 18.2947 26.2718 18.2449 26.4065 18.2191C26.618 18.1787 26.7731 18.1658 26.9806 18.3813C27.3739 18.7897 27.6019 18.6733 27.7037 18.0978C27.7605 17.7769 28.0325 17.5063 27.9156 17.1432C27.8894 17.061 27.9472 16.9633 28.0436 16.9659C28.12 16.9686 28.2178 17.0095 28.2654 17.0668C28.396 17.2246 28.2831 17.3152 28.1512 17.3894C28.1512 17.3899 28.1516 17.3899 28.1516 17.3899C28.4609 17.4676 28.7004 17.4512 28.6329 17.025C28.6298 17.0215 28.6266 17.0179 28.6235 17.0144H28.6298ZM12.5358 11.0356L12.5366 11.0364L12.5375 11.0373L12.5384 11.0382L12.5393 11.0391L12.5406 11.0404L12.5415 11.0413L12.5424 11.0422L12.5433 11.0435L12.5446 11.0444L12.5455 11.0453L12.5464 11.0462L12.5473 11.0471L12.5482 11.048L12.5491 11.0489L12.5495 11.0493L12.5504 11.0502L12.5509 11.0507L12.5513 11.0511L12.5518 11.0515L12.5522 11.052L12.5358 11.0356ZM13.5978 10.772C13.3028 11.0449 12.9299 11.0129 12.5682 11.0293C12.8304 10.6352 13.2361 10.7889 13.5978 10.772ZM28.6964 17.8209C28.5164 17.6814 28.3351 17.5414 28.1538 17.401C28.2685 17.944 28.2716 17.944 28.6964 17.8209ZM16.2135 10.1894C16.1109 10.141 16.1673 10.0668 16.1989 9.98724C16.3646 9.56818 16.1122 9.24288 16.0069 8.84471C15.7802 9.02602 15.8522 9.20467 15.8242 9.36287C15.742 9.83081 15.9407 10.3125 15.7442 10.7725C15.7456 10.7725 15.7469 10.7716 15.7487 10.7716C15.7936 11.0369 15.9096 11.1906 16.2051 11.0613C16.0407 10.7703 16.8526 10.489 16.2135 10.1894ZM99.0077 53.3481C98.9597 53.3428 98.9091 53.3063 98.8722 53.2703C98.8264 53.2259 98.8531 53.1846 98.9326 53.1903C98.9806 53.1939 99.0273 53.2237 99.0744 53.2419C99.0948 53.3054 99.0713 53.3552 99.0077 53.3481ZM14.3026 9.70905C14.308 9.49219 14.4795 9.45708 14.6519 9.44508C14.9168 9.49041 14.8266 9.67927 14.8172 9.83659C14.8066 10.0068 14.8084 10.1903 14.5573 10.157C14.2849 10.1206 14.2982 9.8988 14.3026 9.70905ZM13.3099 9.77971C13.4836 9.69394 13.5876 9.49885 13.9231 9.46419C13.936 9.86858 13.9356 10.2001 13.445 10.1761C13.3077 10.1694 13.1068 10.3885 13.0228 10.1179C12.9513 9.88814 13.1708 9.8477 13.3099 9.77971ZM12.9761 8.75139C12.9428 8.76428 12.8904 8.72739 12.8459 8.71228C12.8748 8.67362 12.9037 8.63496 12.9326 8.59585C12.9784 8.61007 13.0241 8.62429 13.0699 8.63896C13.0392 8.67806 13.0157 8.73628 12.9761 8.75139ZM10.6813 10.896C10.6893 10.8667 10.764 10.8565 10.808 10.8378C10.8991 10.9098 10.9506 11.0031 10.9128 11.1155C10.9022 11.148 10.8075 11.1898 10.7871 11.1755C10.6929 11.1107 10.6493 11.008 10.6813 10.896ZM23.4344 17.7654C23.5602 17.7192 23.6397 17.7783 23.669 17.9063C23.677 18.0445 23.5962 18.1027 23.4748 18.0907C23.4042 18.0836 23.2949 18.0516 23.2775 18.0036C23.2327 17.8809 23.3304 17.8045 23.4344 17.7654ZM22.1586 18.4697C22.151 18.3831 22.2079 18.3258 22.291 18.3311C22.4016 18.3382 22.487 18.4129 22.5176 18.5182C22.547 18.6182 22.4661 18.6506 22.3861 18.6519C22.2701 18.6533 22.1906 18.5951 22.1586 18.4697ZM19.2038 16.3624C19.2527 16.3753 19.2834 16.3749 19.3016 16.3896C19.5158 16.5633 19.5607 16.7757 19.4251 17.0157C19.4096 17.0437 19.306 17.061 19.2816 17.0393C19.0492 16.8366 19.0118 16.6109 19.2038 16.3624ZM17.4054 17.4921C17.6973 17.8698 17.824 18.0342 17.9657 18.2187C17.5436 18.3898 17.3503 19.1541 16.6832 18.6035C16.8094 18.1653 17.5427 18.2724 17.4054 17.4921ZM15.4909 18.2533C15.4878 18.2555 15.4847 18.2573 15.4869 18.2555C15.4896 18.2515 15.4923 18.2475 15.4949 18.2435C15.4687 17.9325 15.4425 17.6218 15.4163 17.3081C15.6283 17.2361 15.8038 17.2886 16.0242 17.4388C15.8487 17.7063 15.6736 17.9738 15.4949 18.2435C15.4954 18.2458 15.4954 18.248 15.4954 18.2507H15.4949L15.4945 18.2511L15.4936 18.2515L15.4927 18.2524L15.4918 18.2529L15.4909 18.2533ZM15.4954 18.2507C15.4954 18.2511 15.4954 18.2511 15.4954 18.252C15.566 18.2147 15.6345 18.1689 15.7091 18.1471C16.3682 17.9556 16.3686 17.9574 16.761 17.4436C16.8752 17.7125 16.8041 17.9285 16.6424 18.0578C16.4526 18.2093 16.4006 18.4257 16.2735 18.6031C15.85 18.1316 15.6278 18.8208 15.2252 18.7795C15.1719 18.5271 15.534 18.472 15.4954 18.252C15.4914 18.2538 15.4874 18.2564 15.4834 18.2587L15.4954 18.2507ZM14.8204 18.4035C14.8252 18.4395 14.779 18.4822 14.755 18.5217C14.7155 18.4968 14.6546 18.4795 14.6422 18.4449C14.6159 18.3724 14.6284 18.2889 14.7319 18.2964C14.7661 18.2995 14.815 18.3631 14.8204 18.4035ZM14.4555 17.9574C14.2351 17.9956 14.0742 17.8396 14.0973 17.621C14.1187 17.4165 14.2982 17.4654 14.4062 17.5547C14.5528 17.6765 14.7146 17.3948 14.8448 17.5903C14.8244 17.8298 14.635 17.9263 14.4555 17.9574ZM7.92521 18.5817C7.87944 18.6342 7.83634 18.7302 7.77945 18.7395C7.68569 18.7546 7.66169 18.6524 7.67325 18.5768C7.68613 18.4924 7.74924 18.4284 7.83989 18.4453C7.87189 18.4511 7.891 18.5235 7.92521 18.5817ZM7.823 16.7557C7.75501 16.7424 7.67991 16.7077 7.63369 16.658C7.59681 16.6184 7.64036 16.5518 7.69769 16.5629C7.76879 16.5766 7.83411 16.6206 7.88877 16.6455C7.91366 16.7206 7.88611 16.7686 7.823 16.7557ZM6.89334 16.0825C6.89601 16.0385 6.93556 15.9967 6.95867 15.9541C6.98933 15.9887 7.03555 16.0194 7.04577 16.0589C7.05688 16.1016 7.04799 16.1851 7.02444 16.1954C6.92534 16.2367 6.88845 16.1651 6.89334 16.0825ZM6.93423 17.2499C6.9089 17.2868 6.84313 17.3108 6.79291 17.3143C6.72492 17.3188 6.69426 17.2686 6.71647 17.2019C6.73736 17.1406 6.78669 17.1232 6.85024 17.1459C6.92001 17.1588 6.96489 17.205 6.93423 17.2499ZM5.57839 16.2429C5.62461 16.1434 5.70593 16.1678 5.77437 16.1722C5.84903 16.1767 5.94368 16.19 5.93435 16.2896C5.92591 16.3851 5.83658 16.4113 5.75882 16.3784C5.69082 16.3496 5.63661 16.2882 5.57839 16.2429ZM3.97593 18.4622C3.99859 18.3671 4.09769 18.3702 4.1719 18.4009C4.27767 18.4444 4.34432 18.5195 4.30211 18.6306C4.24656 18.7186 4.18301 18.7733 4.09902 18.7284C3.99903 18.6742 3.95015 18.5688 3.97593 18.4622ZM3.64885 18.8053C3.6693 18.9648 3.5382 18.9839 3.42622 18.9666C3.352 18.955 3.2338 18.9026 3.22535 18.8528C3.19513 18.6808 3.35689 18.7257 3.42311 18.6937C3.53465 18.6999 3.63686 18.7142 3.64885 18.8053ZM3.31379 18.1111C3.26846 18.0876 3.18891 18.0698 3.18313 18.0387C3.16536 17.9431 3.23157 17.8796 3.32223 17.8711C3.36667 17.8671 3.45466 17.9076 3.45599 17.932C3.46177 18.0222 3.40489 18.0853 3.31379 18.1111ZM29.8074 18.7715C29.7696 18.8599 29.7883 18.9777 29.6759 19.0297C29.6563 18.9843 29.6314 18.9403 29.6176 18.8932C29.5861 18.7844 29.5932 18.6844 29.7274 18.6582C29.7461 18.6546 29.7798 18.7306 29.8074 18.7715ZM31.7774 17.1886C31.7738 17.3503 31.692 17.4414 31.5285 17.4339C31.4094 17.4281 31.3219 17.3645 31.3383 17.2312C31.3534 17.1135 31.4312 17.0339 31.549 17.0157C31.676 16.9957 31.7503 17.065 31.7774 17.1886ZM52.533 17.7561C52.533 17.8414 52.5024 17.9289 52.4068 17.9165C52.2868 17.9014 52.2517 17.7832 52.2188 17.6845C52.182 17.5743 52.2571 17.553 52.3442 17.5516C52.4677 17.5645 52.5326 17.6325 52.533 17.7561ZM57.3075 16.1651C57.3031 16.1678 57.2982 16.1696 57.2938 16.1718C57.136 16.2647 56.9974 16.4113 56.7227 16.3611C56.8712 16.09 57.1302 16.2545 57.2938 16.1718C57.2991 16.1687 57.3049 16.1647 57.3107 16.1616C57.3111 16.1629 57.3111 16.1642 57.3115 16.1656C57.5195 16.3669 57.6999 16.0332 57.9417 16.1483C57.9155 16.3896 57.7675 16.5229 57.5364 16.5251C57.308 16.5273 57.3471 16.3122 57.3115 16.1656C57.3107 16.1647 57.3098 16.1647 57.3093 16.1638L57.3102 16.162L57.3075 16.1651ZM64.1782 17.333C64.1711 17.4539 64.0903 17.5347 63.9649 17.5103C63.8485 17.4876 63.7739 17.3979 63.7867 17.2734C63.7992 17.1499 63.8881 17.0944 64.0089 17.0904C64.1387 17.1197 64.1849 17.2192 64.1782 17.333ZM65.2861 18.4124C65.1572 18.6262 65.107 18.9128 64.8639 18.9132C64.6257 18.9137 64.6226 18.6626 64.6293 18.468C64.6377 18.2191 64.7755 18.1276 65.0115 18.18C65.1506 18.2111 65.2523 18.2867 65.2861 18.4124ZM73.1167 17.6427C73.0869 17.8143 73.0558 17.9876 72.8163 17.9511C72.6821 17.9311 72.6199 17.8365 72.6505 17.7129C72.6905 17.5534 72.735 17.3677 72.9594 17.3917C73.0918 17.4059 73.1282 17.5187 73.1167 17.6427ZM84.657 17.7365C84.6615 17.8236 84.6299 17.8991 84.5495 17.9303C84.4575 17.9654 84.3909 17.9089 84.3735 17.8236C84.3522 17.7169 84.3602 17.5965 84.4993 17.5819C84.585 17.5721 84.6397 17.6485 84.657 17.7365ZM23.1198 9.40064C22.8003 9.45663 22.5598 9.79393 22.1874 9.66105C22.4683 9.46863 22.7043 9.11623 23.1198 9.40064ZM25.3337 10.3387C25.3106 10.4094 25.2368 10.4205 25.1622 10.393C25.1191 10.377 25.0604 10.3312 25.0569 10.2943C25.0484 10.2014 25.1191 10.1552 25.2049 10.1654C25.284 10.1748 25.3475 10.2197 25.3337 10.3387ZM37.1292 9.61306C37.0852 9.79393 37.1012 10.0143 36.8647 10.0797C36.8345 10.0881 36.7616 10.0272 36.7452 9.98413C36.6248 9.66994 36.8945 9.64639 37.0465 9.52507C37.094 9.57395 37.1327 9.59884 37.1292 9.61306ZM48.9326 8.87404C48.9446 8.99314 48.8428 9.07579 48.7259 9.0869C48.5251 9.10601 48.2678 8.84071 48.3189 8.67495C48.3447 8.59097 48.4198 8.5563 48.5113 8.55097C48.6668 8.63585 48.9077 8.62963 48.9326 8.87404ZM56.269 10.3494C56.2401 10.4916 56.1779 10.6107 55.9966 10.5805C55.8779 10.5383 55.8144 10.4512 55.8446 10.3312C55.8815 10.1823 56.0068 10.0992 56.1477 10.1037C56.2917 10.1081 56.2899 10.2436 56.269 10.3494ZM60.4818 10.5405C60.4689 10.5921 60.3387 10.6654 60.2925 10.648C60.0081 10.5418 59.9832 10.301 59.9797 9.96724C60.3303 10.1077 60.5636 10.2148 60.4818 10.5405ZM62.606 10.8489C62.5509 10.9436 62.5029 11.0507 62.3754 11.0604C62.3669 11.0613 62.3305 10.9622 62.3429 10.9205C62.3762 10.8142 62.434 10.7196 62.5669 10.7138C62.6242 10.7431 62.6407 10.7902 62.606 10.8489ZM91.2233 60.5259C91.1091 60.5263 91.0345 60.4397 91.0078 60.3241C91.042 60.2117 91.1229 60.1259 91.2305 60.1201C91.3455 60.1139 91.4402 60.2077 91.4358 60.3223C91.4318 60.4334 91.338 60.525 91.2233 60.5259ZM57.6062 60.0726C57.4457 59.802 57.3164 59.6024 57.2089 59.3922C57.172 59.3202 57.2124 59.2154 57.3053 59.2011C57.372 59.1914 57.4755 59.2167 57.5146 59.2651C57.6813 59.4713 57.6791 59.7144 57.6062 60.0726ZM54.7039 59.1531C54.6879 59.2678 54.6034 59.3425 54.487 59.3553C54.327 59.3727 54.227 59.2776 54.2075 59.134C54.1813 58.9461 54.3408 58.9416 54.467 58.9181C54.6314 58.9127 54.7265 58.9852 54.7039 59.1531ZM52.2775 60.9347C52.2082 61.0547 52.0726 61.0534 51.9958 60.9654C51.77 60.7067 51.5643 60.4303 51.2758 60.0664C51.8127 60.1384 51.9518 60.589 52.2997 60.7143C52.3184 60.7214 52.313 60.8738 52.2775 60.9347ZM45.4361 60.8854C45.3241 60.9743 45.205 61.02 45.0793 60.92C45.0091 60.864 45.0033 60.7814 45.0651 60.7214C45.1562 60.6334 45.2628 60.689 45.357 60.7263C45.4206 60.7516 45.5254 60.7765 45.4361 60.8854ZM43.903 59.8255C43.3022 60.2575 43.383 59.7162 43.2937 59.3816C43.6977 59.6149 44.2025 59.3402 44.6736 59.7109C44.3416 59.8775 44.099 59.6846 43.903 59.8255ZM39.1871 60.6059C39.0658 60.5845 38.9978 60.4974 39.0169 60.3757C39.0316 60.2792 39.1356 60.2641 39.2076 60.3001C39.2733 60.3326 39.3547 60.4001 39.3649 60.4628C39.3804 60.5583 39.2818 60.5907 39.1871 60.6059ZM37.8833 59.0141C37.7109 59.0029 37.6633 58.867 37.6895 58.7216C37.7131 58.5905 37.8251 58.5643 37.9411 58.5937C38.0548 58.6225 38.129 58.6936 38.1219 58.823C38.0788 58.9327 38.0006 59.0216 37.8833 59.0141ZM37.997 59.6469C37.8286 59.6989 37.7882 59.5482 37.726 59.4416C37.7175 59.4478 37.7091 59.4536 37.7006 59.4593C37.6975 59.4527 37.6944 59.446 37.6913 59.4389C37.646 59.4447 37.6006 59.4487 37.5589 59.4629C37.4411 59.5033 37.3393 59.4909 37.2594 59.3904C37.2158 59.3362 37.222 59.2794 37.2816 59.2442C37.4144 59.1651 37.5424 59.1371 37.63 59.3096C37.6513 59.3522 37.6709 59.3958 37.6913 59.4389C37.7006 59.4376 37.7104 59.4367 37.7197 59.4349C37.7197 59.4349 37.7211 59.4336 37.7211 59.4331C37.7229 59.4358 37.7242 59.4389 37.726 59.4416C37.8273 59.3682 37.9335 59.2985 38.0362 59.4416C38.0815 59.5042 38.0833 59.6206 37.997 59.6469ZM36.2893 60.3219C36.155 60.3303 36.0168 60.2837 35.8826 60.2619C35.8004 60.3037 35.7235 60.3343 35.6551 60.3792C35.4974 60.481 35.3898 60.4414 35.3511 60.2637C35.3232 60.1339 35.3978 60.0486 35.5289 60.0401C35.7804 60.0241 36.0155 59.9655 36.2497 59.8651C36.3915 59.8037 36.523 59.9055 36.5452 60.0646C36.5701 60.2428 36.4283 60.3134 36.2893 60.3219ZM34.1322 59.5251C34.1415 59.4722 34.2344 59.4122 34.2993 59.3958C34.373 59.3776 34.4455 59.4224 34.4686 59.5104C34.4619 59.5998 34.4113 59.6637 34.3291 59.6811C34.21 59.7064 34.1086 59.662 34.1322 59.5251ZM34.5268 60.8089C34.3766 60.7494 34.2117 60.8974 34.0682 60.7601C34.1473 60.5428 34.2646 60.3614 34.5277 60.4063C34.6597 60.429 34.7828 60.5343 34.7703 60.6885C34.7597 60.8236 34.6299 60.8503 34.5268 60.8089ZM32.3457 60.589C32.2209 60.6516 32.12 60.581 32.1178 60.4552C32.1151 60.3214 32.1547 60.1824 32.2955 60.1104C32.3924 60.1001 32.4533 60.1495 32.4733 60.237C32.5062 60.3788 32.4871 60.5174 32.3457 60.589ZM31.5067 60.669C31.3254 60.6196 31.4001 60.4783 31.5525 60.4041C31.6223 60.3699 31.6814 60.3126 31.8289 60.205C31.7525 60.4681 31.7805 60.7436 31.5067 60.669ZM29.5408 58.8807C29.5292 58.8523 29.5928 58.7603 29.5994 58.7625C29.7438 58.8105 29.9069 58.8323 30.0238 59.0625C29.7856 59.0452 29.6154 59.0638 29.5408 58.8807ZM28.8515 60.1455C28.8115 60.2926 28.6995 60.3734 28.5409 60.3757C28.4182 60.3774 28.328 60.3183 28.2649 60.2179C28.1725 60.069 28.2107 59.9126 28.364 59.8815C28.7129 59.8117 28.4249 59.3869 28.7493 59.2811C28.9493 59.5544 28.9328 59.8477 28.8515 60.1455ZM28.0796 61.2489C28.0338 61.2076 27.9983 61.1853 28.001 61.176C28.0645 60.9894 27.9232 60.721 28.2111 60.6267C28.2494 60.6139 28.3409 60.6485 28.3494 60.6778C28.4271 60.9516 28.2689 61.1058 28.0796 61.2489ZM27.5921 58.6874C27.533 58.6603 27.4997 58.567 27.4703 58.4972C27.4646 58.4839 27.5295 58.4399 27.5619 58.4106C27.6499 58.4239 27.6983 58.4794 27.7005 58.563C27.7023 58.6314 27.7005 58.7381 27.5921 58.6874ZM25.9985 59.1794C26.0399 59.4967 26.1901 59.7393 26.4842 59.9322C25.8163 60.0459 25.7555 59.9486 25.9985 59.1794ZM17.4507 61.0178C17.4174 60.9805 17.3818 60.9209 17.3885 60.8778C17.3983 60.8112 17.4663 60.7952 17.5165 60.8472C17.5502 60.8823 17.5591 60.9423 17.5791 60.9911C17.552 61.06 17.5027 61.0751 17.4507 61.0178ZM14.6617 59.7366C14.6386 59.7393 14.5786 59.6078 14.5737 59.5358C14.5662 59.4264 14.6048 59.3149 14.7399 59.3073C14.8248 59.3025 14.8879 59.3553 14.8892 59.4784C14.8599 59.5829 14.819 59.7184 14.6617 59.7366ZM2.65698 25.252C2.56988 25.2094 2.52099 25.0867 2.45567 24.9996C2.49833 24.972 2.53877 24.9267 2.58499 24.9196C2.71919 24.8987 2.7974 24.9521 2.77296 25.1063C2.74363 25.1636 2.7503 25.2973 2.65698 25.252ZM1.7722 21.8435C1.76598 21.844 1.76109 21.844 1.75531 21.8449C1.68776 21.952 1.62777 22.0657 1.54467 22.1591C1.47401 22.2382 1.35892 22.3093 1.27093 22.1875C1.23626 22.1395 1.24826 22.028 1.28026 21.9671C1.35625 21.8235 1.43891 21.6542 1.60955 21.6231C1.75131 21.5974 1.7522 21.74 1.75398 21.8458L1.75487 21.8449C1.75487 21.8449 1.75487 21.8449 1.75442 21.8449L1.77087 21.8191C1.77087 21.8271 1.77175 21.8351 1.7722 21.8435ZM1.7722 21.8435C2.21881 21.8004 2.22725 22.0342 2.08994 22.4617C1.85752 22.2617 1.77753 22.072 1.7722 21.8435ZM0.391925 25.3204C0.281717 25.3564 0.243055 25.272 0.232389 25.1911C0.206615 24.9978 0.465694 24.7587 0.655892 24.7992C0.742993 24.8178 0.786543 24.8889 0.800319 24.9823C0.769656 25.216 0.572792 25.2609 0.391925 25.3204ZM2.74941 19.0679C2.78674 19.0692 2.82274 19.1225 2.85873 19.1537C2.83207 19.1905 2.81118 19.2519 2.77785 19.2599C2.69608 19.2785 2.6192 19.2479 2.63742 19.1457C2.64365 19.1119 2.71119 19.0666 2.74941 19.0679ZM5.59261 1.10078C5.46685 1.46518 5.54062 1.80869 5.50507 2.1531C5.48507 2.3464 5.53351 2.5966 5.35931 2.69036C5.20644 2.77302 5.07446 3.06409 4.89003 2.913C4.73139 2.78324 4.78427 2.55971 5.0118 2.44284C5.194 2.34952 5.24199 2.26553 5.0589 2.07666C4.46031 1.45851 4.5003 1.38697 5.59261 1.10078ZM11.9341 2.90856C11.8825 2.91967 11.8314 2.93744 11.779 2.941C11.5114 2.95966 11.5839 2.75747 11.5528 2.49972C11.7403 2.6597 11.8905 2.73613 11.9341 2.90856ZM16.5024 1.40785C16.4908 1.44296 16.4308 1.46163 16.3922 1.48784C16.33 1.46696 16.3144 1.42519 16.3526 1.36742C16.3651 1.34786 16.3899 1.32786 16.4117 1.32431C16.4757 1.31409 16.5215 1.35053 16.5024 1.40785ZM16.2304 0.504855C16.3962 0.511077 16.545 0.562626 16.633 0.717718C16.6072 0.766601 16.5904 0.843924 16.5588 0.85059C16.3744 0.887919 16.2486 0.790153 16.1726 0.633284C16.1584 0.604843 16.2113 0.504411 16.2304 0.504855ZM17.672 0.462638C17.8507 0.416866 18.0417 0.316434 18.2373 0.607509C18.0377 0.667502 17.9098 0.707497 17.7813 0.743492C17.6898 0.769267 17.616 0.733271 17.5809 0.649726C17.5436 0.562626 17.5814 0.486191 17.672 0.462638ZM19.498 0.378649C20.0428 1.17455 20.0335 1.49318 19.3536 2.33352C19.3376 1.56739 19.2154 0.984796 19.498 0.378649ZM20.3197 1.84691C20.381 1.88068 20.4143 1.96601 20.4503 2.01445C20.4188 2.13132 20.3566 2.2082 20.2686 2.16732C20.213 2.14154 20.1677 2.03933 20.1646 1.96912C20.1615 1.89224 20.2086 1.78647 20.3197 1.84691ZM21.1969 1.55406C21.2373 1.58028 21.2773 1.6065 21.3178 1.63316C21.3013 1.67982 21.2844 1.72648 21.268 1.77314C21.2258 1.7447 21.1631 1.72382 21.1476 1.68471C21.1351 1.65227 21.1782 1.5985 21.1969 1.55406ZM33.918 0.657281C34.0629 0.631062 34.1402 0.784821 34.1629 0.924803C34.1891 1.08345 34.0904 1.17455 33.97 1.2421C33.8376 1.24076 33.7593 1.17011 33.7438 1.05323C33.7211 0.888808 33.7189 0.693276 33.918 0.657281ZM50.4937 3.05387C50.5342 3.08143 50.5964 3.10098 50.611 3.13875C50.6586 3.2574 50.5857 3.33384 50.4915 3.39383C50.4493 3.37161 50.3693 3.33473 50.3715 3.32851C50.4057 3.23474 50.4511 3.14453 50.4937 3.05387ZM63.5956 1.64782C63.6876 1.6616 63.729 1.72915 63.6779 1.8118C63.6316 1.88646 63.5468 1.9149 63.4672 1.86913C63.4317 1.84869 63.4206 1.78603 63.3983 1.74292C63.4397 1.65982 63.5157 1.63538 63.5956 1.64782ZM72.1848 0.723495C72.2772 0.729716 72.3568 0.769711 72.3497 0.867921C72.3377 1.02879 72.2364 1.11634 72.0728 1.10567C71.9866 1.09989 71.8968 1.0519 71.9 0.959466C71.9057 0.787931 72.0355 0.736827 72.1848 0.723495ZM77.9508 2.54194C77.965 2.46417 78.005 2.38773 78.1139 2.42817C78.2694 2.49616 78.2663 2.63037 78.2454 2.76413C78.2321 2.84679 78.1778 2.92944 78.0859 2.88278C77.9534 2.81524 77.9263 2.67881 77.9508 2.54194ZM98.7424 0.266663H1.2576C0.56657 0.266663 0.00619507 0.827038 0.00619507 1.51806V21.7476C0.0470789 21.7689 0.0719647 21.8111 0.0759642 21.8729C0.0661876 21.9253 0.0417462 21.9653 0.00619507 21.9929V22.2431C0.0310809 22.2315 0.0572998 22.2231 0.0844076 22.2191C0.22128 22.1991 0.359929 22.2057 0.39948 22.3813C0.403479 22.5483 0.307935 22.6448 0.16262 22.6532C0.107071 22.6563 0.052856 22.6448 0.00619507 22.6208V26.2786C0.016416 26.3137 0.0155272 26.3408 0.00619507 26.3612V60.037C0.00619507 60.7285 0.56657 61.2889 1.2576 61.2889H25.2697C25.2915 61.2547 25.3106 61.2204 25.3355 61.1871C25.3666 60.8783 25.2222 60.6001 25.0986 60.2219C25.4022 60.5268 25.4022 60.5268 25.3373 61.1916C25.3373 61.192 25.3368 61.1911 25.3364 61.1898L25.3373 61.1924C25.4435 61.2311 25.527 61.2613 25.5919 61.2889H30.7215C30.7482 61.2147 30.7037 61.1658 30.5877 61.1285C30.4655 61.0894 30.1736 61.2618 30.3504 60.9227C30.4375 60.7561 30.6131 60.5561 30.8153 60.7658C30.9761 60.9325 31.149 61.0818 31.2872 61.2889H33.0163C33.0279 61.0716 33.2185 61.0476 33.2954 61.0338C33.5714 61.0125 33.6754 61.0925 33.6558 61.2564C33.6545 61.2671 33.6527 61.2782 33.6514 61.2889H35.3774C35.4454 61.0974 35.5965 60.9463 35.7533 60.8223C35.904 60.7027 36.1306 60.7707 36.2817 60.9205C36.3364 60.9743 36.3581 61.0614 36.3959 61.1351C36.3826 61.1889 36.3652 61.2396 36.3452 61.2889H56.2046C56.1877 61.2609 56.169 61.2364 56.1459 61.2164C55.8975 61.004 56.2228 60.9156 56.3174 60.7849C56.3614 60.7245 56.445 60.6925 56.4943 60.6583C56.6441 60.6601 56.7383 60.7298 56.7423 60.8445C56.7458 60.9458 56.6663 61.048 56.6614 61.1525C56.6592 61.1956 56.6774 61.2418 56.7014 61.2889H98.7424C99.4334 61.2889 99.9938 60.7285 99.9938 60.037V1.51806C99.9938 0.827038 99.4334 0.266663 98.7424 0.266663ZM25.3364 61.1898L25.3359 61.188L25.3355 61.1871L25.3364 61.1898ZM13.5943 15.9101C13.5916 15.9132 13.5894 15.9167 13.5867 15.9198C13.613 15.9141 13.6378 15.9105 13.6605 15.9101H13.5943ZM13.6605 15.9101H13.6618H13.6627H13.6641H13.6605Z" fill="white"/>
</g>
<defs>
<clipPath id="clip0_4255_3668">
<rect width="100" height="61.0222" fill="white" transform="translate(0 0.266663)"/>
</clipPath>
</defs>
</svg>
