<svg width="31" height="18" viewBox="0 0 31 18" fill="none" xmlns="http://www.w3.org/2000/svg">
<g clip-path="url(#clip0_4145_44)">
<path d="M26.6785 17.2451C26.4959 17.2451 26.3127 17.1734 26.1735 17.0296L15.2499 5.7727L4.32659 17.0296C4.04752 17.3172 3.5953 17.3172 3.31623 17.0296C3.03717 16.742 3.03717 16.276 3.31623 15.9884L15.2499 3.69067L27.1835 15.9884C27.4626 16.276 27.4626 16.742 27.1835 17.0296C27.0443 17.1734 26.8611 17.2451 26.6785 17.2451Z" fill="#8C008C"/>
<path d="M26.6785 14.3094C26.4959 14.3094 26.3127 14.2373 26.1735 14.0938L15.2499 2.83691L4.32659 14.0938C4.04752 14.3811 3.5953 14.3811 3.31623 14.0938C3.03717 13.8063 3.03717 13.3402 3.31623 13.0527L15.2499 0.754883L27.1835 13.0527C27.4626 13.3402 27.4626 13.8063 27.1835 14.0938C27.0443 14.2373 26.8611 14.3094 26.6785 14.3094Z" fill="#14AA37"/>
<path d="M23.8213 17.2451C23.6387 17.2451 23.4555 17.1734 23.3163 17.0296L12.3927 5.7727L1.4694 17.0296C1.19034 17.3172 0.738114 17.3172 0.459048 17.0296C0.180317 16.742 0.180317 16.276 0.459048 15.9884L12.3927 3.69067L24.3263 15.9884C24.6054 16.276 24.6054 16.742 24.3263 17.0296C24.1871 17.1734 24.0042 17.2451 23.8213 17.2451Z" fill="#00D4FF"/>
<path d="M29.5359 17.2451C29.353 17.2451 29.1701 17.1734 29.0309 17.0296L18.1073 5.7727L7.18367 17.0296C6.90494 17.3172 6.45239 17.3172 6.17366 17.0296C5.89459 16.742 5.89459 16.276 6.17366 15.9884L18.1073 3.69067L30.0409 15.9884C30.3196 16.276 30.3196 16.742 30.0409 17.0296C29.9014 17.1734 29.7185 17.2451 29.5359 17.2451Z" fill="#FF245C"/>
</g>
<defs>
<clipPath id="clip0_4145_44">
<rect width="30" height="16.5" fill="white" transform="translate(0.25 0.75)"/>
</clipPath>
</defs>
</svg>
