<svg width="50" height="50" viewBox="0 0 50 50" fill="none" xmlns="http://www.w3.org/2000/svg">
<g clip-path="url(#clip0_4066_184)">
<path d="M26.0002 11.8153C29.9194 11.8153 33.4602 13.4073 36.0302 15.9701C38.593 18.54 40.1849 22.088 40.1849 26.0001C40.1849 29.9192 38.593 33.4601 36.0302 36.03C33.4602 38.5929 29.9194 40.1848 26.0002 40.1848C22.081 40.1848 18.5402 38.5929 15.9702 36.03C13.4074 33.4601 11.8154 29.9192 11.8154 26.0001C11.8154 22.088 13.4074 18.54 15.9702 15.9701C18.5402 13.4073 22.081 11.8153 26.0002 11.8153ZM35.2592 16.7411C32.8891 14.3781 29.6124 12.9075 26.0002 12.9075C22.388 12.9075 19.1113 14.3781 16.7412 16.7411C14.3783 19.1111 12.9077 22.3878 12.9077 26.0001C12.9077 29.6123 14.3783 32.889 16.7412 35.2591C19.1113 37.622 22.388 39.0926 26.0002 39.0926C29.6124 39.0926 32.8891 37.622 35.2592 35.2591C37.6221 32.889 39.0927 29.6123 39.0927 26.0001C39.0927 22.3878 37.6221 19.1111 35.2592 16.7411Z" fill="#FF245C"/>
<path d="M25.9999 11.8153C28.1273 11.8153 30.0191 13.4572 31.3612 16.1129C32.6461 18.6543 33.4457 22.1523 33.4457 26.0001C33.4457 29.8479 32.6461 33.3459 31.3612 35.8873C30.0191 38.5429 28.1273 40.1848 25.9999 40.1848C23.8726 40.1848 21.9808 38.5429 20.6387 35.8873C19.3537 33.3459 18.5542 29.8479 18.5542 26.0001C18.5542 22.1523 19.3537 18.6543 20.6387 16.1129C21.9808 13.4572 23.8726 11.8153 25.9999 11.8153ZM30.3903 16.6054C29.2409 14.321 27.6847 12.9075 25.9999 12.9075C24.3152 12.9075 22.7589 14.321 21.6096 16.6054C20.396 18.9969 19.6464 22.3165 19.6464 26.0001C19.6464 29.6837 20.396 33.0032 21.6096 35.3947C22.7589 37.6791 24.3152 39.0926 25.9999 39.0926C27.6847 39.0926 29.2409 37.6791 30.3903 35.3947C31.6039 33.0032 32.3535 29.6837 32.3535 26.0001C32.3535 22.3165 31.6039 18.9969 30.3903 16.6054Z" fill="#FF245C"/>
<path d="M12.3652 25.4575H39.6354V26.5426H12.3652V25.4575Z" fill="#FF245C"/>
<path d="M26.5426 12.365V39.6351H25.4575V12.365H26.5426Z" fill="#FF245C"/>
<path d="M35.4089 16.1557C34.1096 17.3051 32.6248 18.1974 31.0328 18.8042C29.4337 19.411 27.7276 19.7251 26 19.7251C24.2724 19.7251 22.5805 19.411 20.9886 18.8114C19.3966 18.2117 17.9117 17.3265 16.6196 16.1843L17.3406 15.3633C18.54 16.4199 19.9035 17.2408 21.3669 17.7905C22.8375 18.3473 24.4009 18.64 26 18.64C27.6062 18.64 29.1767 18.3473 30.6473 17.7834C32.1179 17.2266 33.4886 16.4056 34.6879 15.3419L35.4089 16.1557Z" fill="#FF245C"/>
<path d="M16.5913 35.8444C17.8906 34.6951 19.3754 33.8027 20.9674 33.1959C22.5665 32.5891 24.2726 32.275 26.0002 32.275C27.7278 32.275 29.4197 32.5891 31.0116 33.1888C32.6036 33.7884 34.0885 34.6737 35.3806 35.8159L34.6596 36.6368C33.4602 35.5803 32.0967 34.7593 30.6261 34.2096C29.1627 33.6528 27.5993 33.3601 26.0002 33.3601C24.394 33.3601 22.8235 33.6528 21.3529 34.2168C19.8823 34.7736 18.5116 35.5946 17.3123 36.6582L16.5913 35.8444Z" fill="#FF245C"/>
<path d="M12.8716 33.974H23.0443V30.6331H16.7265V27.6205H21.5309V24.2724H16.7265V21.3669H22.7374V18.026H12.8716V33.974Z" fill="#00D4FF"/>
<path d="M25.8213 33.974H29.6762V26.5497C29.6762 25.5431 29.5049 23.8227 29.5049 23.8227H29.5477C29.5477 23.8227 30.2545 25.5003 30.8684 26.5497L35.2516 33.974H39.128V18.026H35.273V25.4789C35.273 26.4783 35.4515 28.1988 35.4515 28.1988H35.4087C35.4087 28.1988 34.7019 26.5211 34.088 25.4789L29.7191 18.026H25.8213V33.974Z" fill="#00D4FF"/>
<path d="M47.1593 36.8438C47.1593 39.6065 46.0386 42.2193 44.0111 44.1967C41.9766 46.1671 39.2995 47.2593 36.4512 47.2593H15.5488C12.7005 47.2593 10.0163 46.1671 7.98886 44.1967C5.96145 42.2193 4.84066 39.6065 4.84066 36.8438V15.1562C4.84066 12.3935 5.96145 9.7807 7.98886 7.80326C10.0163 5.82581 12.7005 4.74072 15.5488 4.74072H36.4512C39.2995 4.74072 41.9766 5.82581 44.0111 7.80326C46.0386 9.7807 47.1593 12.3935 47.1593 15.1562V36.8438ZM36.4512 1H15.5488C7.54626 1 1 7.36779 1 15.1562V36.8438C1 44.6322 7.54626 51 15.5488 51H36.4512C44.4537 51 51 44.6322 51 36.8438V15.1562C51 7.36779 44.4537 1 36.4512 1Z" fill="#00D4FF"/>
</g>
<defs>
<clipPath id="clip0_4066_184">
<rect width="50" height="50" fill="white"/>
</clipPath>
</defs>
</svg>
