<svg width="50" height="50" viewBox="0 0 50 50" fill="none" xmlns="http://www.w3.org/2000/svg">
<g clip-path="url(#clip0_4066_37)">
<path d="M33.6569 11.3713H38.2855L28.1998 22.9142L40.0855 38.6285H30.7712L23.4855 29.0856L15.1426 38.6285H10.5141L21.3141 26.2856L9.91406 11.3713H19.4569L26.0569 20.0856L33.6569 11.3713ZM32.0283 35.8571H34.5998L18.0569 13.9713H15.3141L32.0283 35.8571Z" fill="#00D4FF"/>
<path d="M46.1429 35.8286C46.1429 38.6 45.0286 41.2 43 43.2C40.9714 45.1714 38.2857 46.2571 35.4571 46.2571H14.5429C11.7143 46.2571 9.02857 45.1714 7 43.2C4.97143 41.2 3.82857 38.6 3.82857 35.8286V14.1429C3.82857 11.4 4.97143 8.77143 7 6.8C9.02857 4.82857 11.7143 3.74286 14.5429 3.74286H35.4571C38.2857 3.74286 40.9714 4.82857 43 6.8C45.0286 8.77143 46.1429 11.4 46.1429 14.1429V35.8286ZM35.4571 0H14.5429C6.54286 0 0 6.37143 0 14.1429V35.8286C0 43.6286 6.54286 50 14.5429 50H35.4571C43.4571 50 50 43.6286 50 35.8286V14.1429C50 6.37143 43.4571 0 35.4571 0Z" fill="#FF245C"/>
</g>
<defs>
<clipPath id="clip0_4066_37">
<rect width="50" height="50" fill="white"/>
</clipPath>
</defs>
</svg>
