<svg width="50" height="50" viewBox="0 0 50 50" fill="none" xmlns="http://www.w3.org/2000/svg">
<g clip-path="url(#clip0_4066_8)">
<path d="M46.1568 35.8425C46.1568 38.608 45.0387 41.2216 43.0091 43.1942C40.9794 45.1693 38.297 46.2588 35.4532 46.2588H14.5468C11.703 46.2588 9.02056 45.1693 6.99093 43.1942C4.96131 41.2216 3.84323 38.608 3.84323 35.8425V14.1575C3.84323 11.3896 4.96131 8.77843 6.99093 6.8034C9.02056 4.82837 11.703 3.74116 14.5468 3.74116H35.4532C38.297 3.74116 40.9794 4.82837 43.0091 6.8034C45.0387 8.77843 46.1568 11.3896 46.1568 14.1575V35.8425ZM35.4532 0H14.5468C6.54465 0 0 6.37136 0 14.1575V35.8425C0 43.6286 6.54465 50 14.5468 50H35.4532C43.453 50 50 43.6286 50 35.8425V14.1575C50 6.37136 43.453 0 35.4532 0Z" fill="#FF245C"/>
<path fill-rule="evenodd" clip-rule="evenodd" d="M11.7744 29.1506C12.0498 30.2711 12.4605 31.3441 13.0088 32.3719C13.5596 33.4045 14.2551 34.3113 15.0978 35.0947C15.9358 35.8733 16.9209 36.5309 18.0509 37.0626C19.1737 37.5872 20.4009 37.9813 21.7303 38.2424C23.0573 38.5059 24.4863 38.6365 26.0198 38.6365C27.6055 38.6365 29.0725 38.4798 30.4209 38.1665C31.774 37.8555 33.0084 37.3855 34.1146 36.7588C35.0902 36.2104 35.94 35.5576 36.6641 34.8004C37.3881 34.0407 37.9863 33.1767 38.4563 32.2058L38.6367 31.8378H35.2872H35.1638L35.0878 31.9375C34.1502 33.1434 32.911 34.0455 31.3704 34.6484C30.5989 34.9523 29.7467 35.1825 28.8209 35.3345C27.8928 35.4888 26.8839 35.5647 25.799 35.5647C24.6691 35.5647 23.6056 35.4745 22.6134 35.2917C21.6211 35.1113 20.6906 34.8407 19.8241 34.4799C18.9624 34.1214 18.198 33.6562 17.531 33.0888C16.8639 32.5191 16.2918 31.8449 15.8171 31.0663C14.8628 29.502 14.3857 27.7667 14.3857 25.8581C14.3857 24.8659 14.4949 23.895 14.7085 22.9454C14.9245 22.0007 15.2474 21.0701 15.6794 20.1562C16.1067 19.247 16.6384 18.4423 17.2722 17.7396C17.9084 17.037 18.6491 16.4364 19.4918 15.9332C21.1843 14.9338 23.2543 14.4353 25.6993 14.4353C27.1426 14.4353 28.4197 14.6228 29.5331 14.9955C30.6393 15.3682 31.5912 15.9237 32.384 16.6643C33.1745 17.4073 33.768 18.2381 34.162 19.1568C34.5561 20.0731 34.7555 21.0844 34.7555 22.1882C34.7555 22.803 34.6843 23.4083 34.5442 24.0018C34.4018 24.5976 34.1905 25.184 33.9104 25.7584C33.6279 26.3329 33.3027 26.8504 32.9348 27.3085C32.5692 27.7643 32.1609 28.1608 31.7099 28.4978C31.3752 28.7542 31.0713 28.9465 30.8031 29.0747C30.5514 29.191 30.3354 29.2503 30.1503 29.2503C30.1123 29.2503 30.0791 29.2456 30.0506 29.2314C30.0197 29.2171 29.9912 29.1934 29.9651 29.1625L29.9556 29.1554C29.9295 29.1293 29.9105 29.0913 29.8963 29.0414C29.8773 28.9821 29.8678 28.9061 29.8678 28.8159C29.8678 28.7328 29.882 28.5975 29.9129 28.41C29.9437 28.2106 29.9912 27.9542 30.0553 27.6433L32.206 17.3931H28.0494L27.7859 18.5823C26.9622 17.5616 25.7943 17.0512 24.2869 17.0512C23.0952 17.0512 22.008 17.3361 21.0253 17.9034C20.0496 18.4684 19.1832 19.3159 18.4235 20.4387C17.804 21.3597 17.3387 22.3259 17.0277 23.3419C16.7168 24.3603 16.5625 25.4237 16.5625 26.5347C16.5625 27.4415 16.693 28.2628 16.9565 28.9963C17.22 29.7346 17.6164 30.3827 18.1458 30.9405C18.6728 31.4936 19.271 31.9114 19.938 32.1891C20.6003 32.4669 21.3315 32.6069 22.1267 32.6069C22.865 32.6069 23.5653 32.4693 24.2204 32.1939C24.764 31.966 25.2768 31.6432 25.7587 31.2277C25.8133 31.3607 25.8797 31.4841 25.9533 31.5981C26.1005 31.8212 26.2833 32.0111 26.5041 32.163C26.7225 32.315 26.9931 32.4265 27.3112 32.5001C27.6174 32.5713 27.9711 32.6069 28.3699 32.6069C29.8251 32.6069 31.152 32.296 32.3484 31.674C33.5425 31.0545 34.6036 30.1287 35.5317 28.8919C36.27 27.9162 36.8255 26.8813 37.1934 25.7869C37.5637 24.6926 37.7489 23.5413 37.7489 22.3306C37.7489 21.3217 37.6278 20.3485 37.3833 19.4132C37.1388 18.4755 36.7733 17.5806 36.289 16.726C35.8 15.8667 35.2018 15.1071 34.4944 14.4424C33.787 13.7825 32.9728 13.2175 32.047 12.7522C31.1283 12.2893 30.1408 11.9404 29.0915 11.7101C28.0447 11.4798 26.9314 11.3635 25.7563 11.3635C24.3747 11.3635 23.0644 11.5083 21.83 11.7932C20.5956 12.0804 19.4372 12.5125 18.3547 13.0869C17.2699 13.6614 16.299 14.383 15.4444 15.2447C14.5898 16.1041 13.8539 17.1082 13.232 18.2524C12.61 19.3966 12.1424 20.5859 11.8314 21.8203C11.5204 23.0546 11.3638 24.3365 11.3638 25.6587C11.3638 26.867 11.5015 28.0302 11.7744 29.1506ZM20.9184 29.153C20.4057 28.5501 20.1493 27.6266 20.1493 26.3875C20.1493 25.9388 20.1944 25.4522 20.2799 24.9323C20.3677 24.4172 20.4983 23.8689 20.6692 23.292C20.8449 22.7033 21.0632 22.1811 21.3244 21.7253C21.5879 21.2671 21.8988 20.8731 22.2525 20.5455C22.6086 20.2179 22.9837 19.971 23.3754 19.8049C23.7694 19.6387 24.1825 19.5532 24.6121 19.5532C25.0133 19.5532 25.3836 19.6316 25.7207 19.7883C26.0578 19.9426 26.3593 20.1752 26.6251 20.4814C26.891 20.79 27.088 21.1627 27.2186 21.5971C27.3468 22.0244 27.4085 22.511 27.4085 23.057C27.4085 23.5413 27.3634 24.0445 27.2732 24.5644C27.1854 25.0795 27.05 25.6136 26.8696 26.1644C26.6892 26.7198 26.4898 27.2088 26.2738 27.6314C26.0554 28.0611 25.8157 28.4242 25.5593 28.721C25.3789 28.9299 25.1985 29.115 25.0157 29.2693C24.8305 29.426 24.643 29.5566 24.4531 29.6563C24.2086 29.7963 23.9522 29.9008 23.6887 29.9696C23.4228 30.0408 23.1475 30.0764 22.865 30.0764C22.4804 30.0764 22.1243 29.9981 21.7968 29.8414C21.4715 29.6871 21.1796 29.4569 20.9184 29.153Z" fill="#00D4FF"/>
</g>
<defs>
<clipPath id="clip0_4066_8">
<rect width="50" height="50" fill="white"/>
</clipPath>
</defs>
</svg>
