<svg width="60" height="60" viewBox="0 0 60 60" fill="none" xmlns="http://www.w3.org/2000/svg">
<g clip-path="url(#clip0_4066_31)">
<path d="M46.1651 35.8473C46.1651 38.6048 45.0511 41.2162 43.0058 43.2067C40.9788 45.179 38.2944 46.2564 35.4638 46.2564H14.5544C11.7056 46.2564 9.02118 45.179 6.99416 43.2067C4.96713 41.2162 3.83492 38.6048 3.83492 35.8473V14.1527C3.83492 11.3952 4.96713 8.78378 6.99416 6.81154C9.02118 4.82104 11.7056 3.74361 14.5544 3.74361H35.4638C38.2944 3.74361 40.9788 4.82104 43.0058 6.81154C45.0511 8.78378 46.1651 11.3952 46.1651 14.1527V35.8473ZM35.4638 0H14.5544C6.53762 0 0 6.37326 0 14.1527V35.8473C0 43.6267 6.53762 50 14.5544 50H35.4638C43.4624 50 50 43.6267 50 35.8473V14.1527C50 6.37326 43.4624 0 35.4638 0Z" fill="white"/>
<path fill-rule="evenodd" clip-rule="evenodd" d="M14.938 11.3586V38.6413L38.5684 25L14.938 11.3586Z" fill="white"/>
</g>
<defs>
<clipPath id="clip0_4066_31">
<rect width="60" height="60" fill="white"/>
</clipPath>
</defs>
</svg>
