<svg width="50" height="50" viewBox="0 0 50 50" fill="none" xmlns="http://www.w3.org/2000/svg">
<g clip-path="url(#clip0_4066_171)">
<path d="M24.9998 10.8196C28.9133 10.8196 32.4584 12.408 35.029 14.9709C37.5919 17.5415 39.1803 21.0866 39.1803 25.0001C39.1803 28.9135 37.5919 32.4586 35.029 35.0292C32.4584 37.5921 28.9133 39.1805 24.9998 39.1805C21.0864 39.1805 17.5413 37.5921 14.9707 35.0292C12.4077 32.4586 10.8193 28.9135 10.8193 25.0001C10.8193 21.0866 12.4077 17.5415 14.9707 14.9709C17.5413 12.408 21.0864 10.8196 24.9998 10.8196ZM34.254 15.7459C31.8905 13.3748 28.614 11.9092 24.9998 11.9092C21.3856 11.9092 18.1091 13.3748 15.7457 15.7459C13.3746 18.1093 11.909 21.3859 11.909 25.0001C11.909 28.6142 13.3746 31.8908 15.7457 34.2542C18.1091 36.6253 21.3856 38.0909 24.9998 38.0909C28.614 38.0909 31.8905 36.6253 34.254 34.2542C36.625 31.8908 38.0907 28.6142 38.0907 25.0001C38.0907 21.3859 36.625 18.1093 34.254 15.7459Z" fill="#FF245C"/>
<path d="M24.9999 10.8196C27.1254 10.8196 29.0207 12.4617 30.3636 15.109C31.645 17.6566 32.4431 21.148 32.4431 25.0001C32.4431 28.8521 31.645 32.3435 30.3636 34.8834C29.0207 37.5384 27.1254 39.1805 24.9999 39.1805C22.8743 39.1805 20.979 37.5384 19.6361 34.8834C18.3547 32.3435 17.5566 28.8521 17.5566 25.0001C17.5566 21.148 18.3547 17.6566 19.6361 15.109C20.979 12.4617 22.8743 10.8196 24.9999 10.8196ZM29.3891 15.6001C28.238 13.3211 26.6803 11.9092 24.9999 11.9092C23.3194 11.9092 21.7617 13.3211 20.6107 15.6001C19.3983 17.9942 18.6463 21.3168 18.6463 25.0001C18.6463 28.6833 19.3983 32.0059 20.6107 34.4C21.7617 36.679 23.3194 38.0909 24.9999 38.0909C26.6803 38.0909 28.238 36.679 29.3891 34.4C30.6015 32.0059 31.3534 28.6833 31.3534 25.0001C31.3534 21.3168 30.6015 17.9942 29.3891 15.6001Z" fill="#FF245C"/>
<path d="M11.3643 24.4552H38.6356V25.5448H11.3643V24.4552Z" fill="#FF245C"/>
<path d="M25.5447 11.3644V38.6357H24.4551V11.3644H25.5447Z" fill="#FF245C"/>
<path d="M34.4076 15.1551C33.1108 16.3061 31.6221 17.1962 30.0261 17.8024C28.43 18.4086 26.7265 18.7309 25 18.7309C23.2734 18.7309 21.5776 18.4086 19.9892 17.8101C18.3932 17.2115 16.9122 16.3214 15.623 15.1781L16.3367 14.3647C17.5337 15.416 18.9073 16.237 20.3729 16.7895C21.8385 17.342 23.4039 17.6336 25 17.6336C26.6037 17.6336 28.1768 17.342 29.6501 16.7818C31.1157 16.2293 32.4892 15.4006 33.6863 14.3417L34.4076 15.1551Z" fill="#FF245C"/>
<path d="M15.5923 34.8451C16.8891 33.6941 18.3777 32.7963 19.9661 32.1978C21.5622 31.5916 23.2657 31.2693 24.9999 31.2693C26.7264 31.2693 28.4222 31.5839 30.0106 32.1901C31.6067 32.7886 33.0877 33.6787 34.3768 34.8144L33.6555 35.6355C32.4585 34.5765 31.0926 33.7631 29.627 33.203C28.1613 32.6505 26.596 32.3589 24.9999 32.3589C23.3962 32.3589 21.8231 32.6582 20.3498 33.2107C18.8765 33.7708 17.5106 34.5996 16.3136 35.6585L15.5923 34.8451Z" fill="#FF245C"/>
<path d="M46.1556 35.8425C46.1556 38.605 45.0353 41.2216 43.0095 43.1937C40.9761 45.1734 38.298 46.2554 35.4512 46.2554H14.5488C11.702 46.2554 9.01627 45.1734 6.99049 43.1937C4.95703 41.2216 3.84438 38.605 3.84438 35.8425V14.1575C3.84438 11.3874 4.95703 8.77839 6.99049 6.80632C9.01627 4.82658 11.702 3.74463 14.5488 3.74463H35.4512C38.298 3.74463 40.9761 4.82658 43.0095 6.80632C45.0353 8.77839 46.1556 11.3874 46.1556 14.1575V35.8425ZM35.4512 0H14.5488C6.54543 0 0 6.36894 0 14.1575V35.8425C0 43.6311 6.54543 50 14.5488 50H35.4512C43.4546 50 50 43.6311 50 35.8425V14.1575C50 6.36894 43.4546 0 35.4512 0Z" fill="#00D4FF"/>
<path d="M11.3643 32.9804H17.1577C20.2884 32.9804 23.1506 31.7066 23.1506 28.2228C23.1506 26.8186 22.4907 25.1918 20.6798 24.6317V24.5856C21.8692 23.895 22.5137 22.5368 22.5137 21.194C22.5137 18.4546 20.3115 17.0197 17.1577 17.0197H11.3643V32.9804ZM15.2163 23.2044V20.3729H17.1347C18.1706 20.3729 18.5926 20.9945 18.5926 21.7311C18.5926 22.4908 18.1706 23.2044 17.2037 23.2044H15.2163ZM15.2163 29.6271V26.3275H17.5567C18.677 26.3275 19.2065 27.0642 19.2065 27.9543C19.2065 28.8521 18.654 29.6271 17.5337 29.6271H15.2163Z" fill="#00D4FF"/>
<path d="M25.8823 32.9804H29.7344V27.6013H31.5453L34.3384 32.9804H38.6355L35.5739 27.4018C35.1979 26.7265 34.9753 26.4426 34.9753 26.4426V26.3966C36.5407 25.5909 37.3387 23.7416 37.3387 22.0457C37.3387 19.7207 36.2107 18.0939 34.4305 17.4033C33.7476 17.1348 32.9726 17.0197 31.3688 17.0197H25.8823V32.9804ZM29.7344 24.2557V20.3729H31.0312C32.9726 20.3729 33.4176 21.0866 33.4176 22.2913C33.4176 23.5574 32.6426 24.2557 31.4072 24.2557H29.7344Z" fill="#00D4FF"/>
</g>
<defs>
<clipPath id="clip0_4066_171">
<rect width="50" height="50" fill="white"/>
</clipPath>
</defs>
</svg>
