<svg width="100" height="55" viewBox="0 0 100 55" fill="none" xmlns="http://www.w3.org/2000/svg">
<g clip-path="url(#clip0_4144_25)">
<path d="M88.0958 54.9837C87.4872 54.9837 86.8764 54.7446 86.4124 54.2653L50.0004 16.7422L13.5894 54.2653C12.6592 55.2239 11.1518 55.2239 10.2216 54.2653C9.29137 53.3067 9.29137 51.7533 10.2216 50.7947L50.0004 9.80212L89.7791 50.7947C90.7094 51.7533 90.7094 53.3067 89.7791 54.2653C89.3151 54.7446 88.7043 54.9837 88.0958 54.9837Z" fill="#8C008C"/>
<path d="M88.0958 45.1978C87.4872 45.1978 86.8764 44.9576 86.4124 44.4794L50.0004 6.95632L13.5894 44.4794C12.6592 45.4369 11.1518 45.4369 10.2216 44.4794C9.29137 43.5208 9.29137 41.9674 10.2216 41.0088L50.0004 0.0162354L89.7791 41.0088C90.7094 41.9674 90.7094 43.5208 89.7791 44.4794C89.3151 44.9576 88.7043 45.1978 88.0958 45.1978Z" fill="#14AA37"/>
<path d="M78.5715 54.9837C77.9629 54.9837 77.3521 54.7446 76.8881 54.2653L40.4761 16.7422L4.06517 54.2653C3.13494 55.2239 1.62754 55.2239 0.697314 54.2653C-0.231787 53.3067 -0.231787 51.7533 0.697314 50.7947L40.4761 9.80212L80.2548 50.7947C81.1851 51.7533 81.1851 53.3067 80.2548 54.2653C79.7908 54.7446 79.1812 54.9837 78.5715 54.9837Z" fill="#00D4FF"/>
<path d="M97.6197 54.9837C97.01 54.9837 96.4003 54.7446 95.9363 54.2653L59.5243 16.7422L23.1123 54.2653C22.1831 55.2239 20.6746 55.2239 19.7455 54.2653C18.8153 53.3067 18.8153 51.7533 19.7455 50.7947L59.5243 9.80212L99.303 50.7947C100.232 51.7533 100.232 53.3067 99.303 54.2653C98.8379 54.7446 98.2282 54.9837 97.6197 54.9837Z" fill="#FF245C"/>
</g>
<defs>
<clipPath id="clip0_4144_25">
<rect width="100" height="55" fill="white"/>
</clipPath>
</defs>
</svg>
