<svg width="50" height="50" viewBox="0 0 50 50" fill="none" xmlns="http://www.w3.org/2000/svg">
<g clip-path="url(#clip0_4066_21)">
<path d="M25.4525 44.631C21.3033 44.631 17.438 43.3974 14.2105 41.2782L6.36035 43.7733L8.91117 36.2434C6.46617 32.9017 5.02089 28.7942 5.02089 24.3553C5.02089 13.1746 14.1882 4.07964 25.4525 4.07964C36.7224 4.07964 45.8869 13.1746 45.8869 24.3553C45.8869 35.5361 36.7224 44.631 25.4525 44.631ZM25.4525 0C11.8964 0 0.907825 10.905 0.907825 24.3553C0.907825 28.9557 2.19437 33.2609 4.43052 36.9312L0 50L13.5895 45.6837C17.1067 47.6107 21.1501 48.7135 25.4525 48.7135C39.0114 48.7135 50 37.8056 50 24.3553C50 10.905 39.0114 0 25.4525 0Z" fill="#00D4FF"/>
<path d="M38.1733 30.6265C38.0257 30.3647 37.6135 30.1921 36.9953 29.8607C36.3799 29.5293 33.3473 27.917 32.7792 27.6914C32.2111 27.463 31.7962 27.3461 31.3534 27.9504C30.9107 28.5519 29.652 29.8997 29.2704 30.2979C28.8889 30.6989 28.5213 30.7351 27.9031 30.4009C27.2877 30.0723 25.2883 29.3427 22.9658 27.1484C21.1613 25.4413 19.9778 23.3695 19.6352 22.7373C19.2899 22.1052 19.6325 21.7822 19.9583 21.487C20.2507 21.2197 20.6127 20.7852 20.9413 20.4372C21.2699 20.0891 21.3841 19.8356 21.6096 19.4291C21.8352 19.0253 21.7433 18.6605 21.5985 18.3458C21.4537 18.0311 20.3119 14.9401 19.8357 13.6842C19.3596 12.4255 18.8277 12.612 18.4601 12.5981C18.0925 12.587 17.6776 12.5201 17.2571 12.5034C16.8394 12.4895 16.1515 12.6176 15.5528 13.2163C14.9541 13.8123 13.2749 15.2464 13.1579 18.2929C13.041 21.3338 15.1824 24.3581 15.4804 24.7786C15.7784 25.2046 19.5656 31.7989 25.8591 34.514C32.1526 37.2236 32.1861 36.3965 33.3417 36.3352C34.4946 36.2767 37.1151 34.9763 37.6943 33.5533C38.2735 32.1303 38.3181 30.8911 38.1733 30.6265Z" fill="#FF245C"/>
</g>
<defs>
<clipPath id="clip0_4066_21">
<rect width="50" height="50" fill="white"/>
</clipPath>
</defs>
</svg>
