<svg width="17" height="30" viewBox="0 0 17 30" fill="none" xmlns="http://www.w3.org/2000/svg">
<g clip-path="url(#clip0_4145_38)">
<path d="M0.00510237 26.4286C0.00510237 26.246 0.0768247 26.0628 0.220616 25.9236L11.4775 15L0.220616 4.07671C-0.0669663 3.79764 -0.0669663 3.34542 0.220616 3.06636C0.508198 2.78729 0.974219 2.78729 1.2618 3.06636L13.5596 15L1.2618 26.9336C0.974219 27.2127 0.508198 27.2127 0.220616 26.9336C0.0768247 26.7944 0.00510237 26.6112 0.00510237 26.4286Z" fill="#8C008C"/>
<path d="M2.94065 26.4286C2.94065 26.246 3.01272 26.0628 3.15616 25.9236L14.4131 15L3.15616 4.07671C2.86892 3.79764 2.86892 3.34542 3.15616 3.06636C3.44374 2.78729 3.90976 2.78729 4.19735 3.06636L16.4951 15L4.19735 26.9336C3.90976 27.2127 3.44374 27.2127 3.15616 26.9336C3.01272 26.7944 2.94065 26.6112 2.94065 26.4286Z" fill="#14AA37"/>
<path d="M0.00510237 23.5714C0.00510237 23.3888 0.0768247 23.2056 0.220616 23.0664L11.4775 12.1428L0.220616 1.21953C-0.0669663 0.940459 -0.0669663 0.488236 0.220616 0.20917C0.508198 -0.0695605 0.974219 -0.0695605 1.2618 0.20917L13.5596 12.1428L1.2618 24.0764C0.974219 24.3555 0.508198 24.3555 0.220616 24.0764C0.0768247 23.9372 0.00510237 23.7543 0.00510237 23.5714Z" fill="#00D4FF"/>
<path d="M0.00510237 29.2859C0.00510237 29.103 0.0768247 28.9201 0.220616 28.7809L11.4775 17.8573L0.220616 6.93367C-0.0669663 6.65494 -0.0669663 6.20239 0.220616 5.92366C0.508198 5.64459 0.974219 5.64459 1.2618 5.92366L13.5596 17.8573L1.2618 29.7909C0.974219 30.0696 0.508198 30.0696 0.220616 29.7909C0.0768247 29.6514 0.00510237 29.4685 0.00510237 29.2859Z" fill="#FF245C"/>
</g>
<defs>
<clipPath id="clip0_4145_38">
<rect width="30" height="16.5" fill="white" transform="matrix(0 1 -1 0 16.5 0)"/>
</clipPath>
</defs>
</svg>
