<svg width="50" height="50" viewBox="0 0 50 50" fill="none" xmlns="http://www.w3.org/2000/svg">
<g clip-path="url(#clip0_4066_13)">
<path d="M46.1592 35.8548C46.1592 38.6183 45.0351 41.2178 43.0211 43.185C40.9836 45.1756 38.2904 46.2529 35.4567 46.2529H14.5433C11.7096 46.2529 9.01639 45.1756 7.00234 43.185C4.96487 41.2178 3.84075 38.6183 3.84075 35.8548V14.1686C3.84075 11.3817 4.96487 8.7822 7.00234 6.81499C9.01639 4.82436 11.7096 3.74707 14.5433 3.74707H35.4567C38.2904 3.74707 40.9836 4.82436 43.0211 6.81499C45.0351 8.7822 46.1592 11.3817 46.1592 14.1686V35.8548ZM35.4567 0H14.5433C6.53396 0 0 6.37002 0 14.1686V35.8548C0 43.63 6.53396 50 14.5433 50H35.4567C43.466 50 50 43.63 50 35.8548V14.1686C50 6.37002 43.466 0 35.4567 0Z" fill="#00D4FF"/>
<path fill-rule="evenodd" clip-rule="evenodd" d="M12.1543 20.4216V38.6418H17.6578V20.4216H12.1543Z" fill="#FF245C"/>
<path fill-rule="evenodd" clip-rule="evenodd" d="M29.9296 24.9414C32.7633 24.9414 32.7868 27.6581 32.7868 29.7892V38.6417H38.2903V28.6417C38.2903 23.7471 37.2598 19.9766 31.6861 19.9766C29.0163 19.9766 27.213 21.4754 26.4636 22.904H26.3933V20.4215H21.1006V38.6417H26.6275V29.6253C26.6275 27.2599 27.0491 24.9414 29.9296 24.9414Z" fill="#FF245C"/>
<path fill-rule="evenodd" clip-rule="evenodd" d="M11.7095 14.6371C11.7095 16.4638 13.138 17.9392 14.8945 17.9392C16.6743 17.9392 18.1029 16.4638 18.1029 14.6371C18.1029 12.8338 16.6743 11.3584 14.8945 11.3584C13.138 11.3584 11.7095 12.8338 11.7095 14.6371Z" fill="#FF245C"/>
</g>
<defs>
<clipPath id="clip0_4066_13">
<rect width="50" height="50" fill="white"/>
</clipPath>
</defs>
</svg>
