<svg width="60" height="60" viewBox="0 0 60 60" fill="none" xmlns="http://www.w3.org/2000/svg">
<g clip-path="url(#clip0_4066_42)">
<path d="M39.0626 7.95068C37.2675 7.95068 35.814 9.40422 35.814 11.1993C35.814 12.9944 37.2675 14.4479 39.0626 14.4479C40.8577 14.4479 42.3112 12.9944 42.3112 11.1993C42.3112 9.40422 40.8577 7.95068 39.0626 7.95068Z" fill="white"/>
<path d="M25.0121 33.8205C20.0399 33.8205 16.005 29.7855 16.005 24.8133C16.005 19.8411 20.0399 15.8141 25.0121 15.8141C29.9843 15.8141 34.0113 19.8411 34.0113 24.8133C34.0113 29.7855 29.9843 33.8205 25.0121 33.8205ZM25.0757 11.0564C17.4823 11.0564 11.3267 17.2121 11.3267 24.8054C11.3267 32.3987 17.4823 38.5544 25.0757 38.5544C32.669 38.5544 38.8247 32.3987 38.8247 24.8054C38.8247 17.2121 32.669 11.0564 25.0757 11.0564Z" fill="white"/>
<path d="M46.1557 35.838C46.1557 38.61 45.0357 41.2153 43.0103 43.193C40.977 45.1708 38.2923 46.2589 35.4488 46.2589H14.5433C11.6998 46.2589 9.02303 45.1708 6.98967 43.193C4.96426 41.2153 3.84432 38.61 3.84432 35.838V14.1541C3.84432 11.39 4.96426 8.77681 6.98967 6.80699C9.02303 4.82923 11.6998 3.74106 14.5433 3.74106H35.4488C38.2923 3.74106 40.977 4.82923 43.0103 6.80699C45.0357 8.77681 46.1557 11.39 46.1557 14.1541V35.838ZM35.4488 0H14.5433C6.54488 0 0 6.37013 0 14.1541V35.838C0 43.6299 6.54488 50 14.5433 50H35.4488C43.4551 50 50 43.6299 50 35.838V14.1541C50 6.37013 43.4551 0 35.4488 0Z" fill="white"/>
</g>
<defs>
<clipPath id="clip0_4066_42">
<rect width="60" height="60" fill="white"/>
</clipPath>
</defs>
</svg>
