<svg width="50" height="50" viewBox="0 0 50 50" fill="none" xmlns="http://www.w3.org/2000/svg">
<g clip-path="url(#clip0_4066_26)">
<path d="M46.1609 35.8491C46.1609 38.6137 45.0472 41.2212 43.0163 43.1997C40.9853 45.1782 38.2993 46.2657 35.456 46.2657H14.544C11.7007 46.2657 9.01468 45.1782 6.99686 43.1997C4.96593 41.2212 3.8391 38.6137 3.8391 35.8491V14.164C3.8391 11.3863 4.96593 8.77883 6.99686 6.80031C9.01468 4.83491 11.7007 3.74738 14.544 3.74738H35.456C38.2993 3.74738 40.9853 4.83491 43.0163 6.80031C45.0472 8.77883 46.1609 11.3863 46.1609 14.164V35.8491ZM35.456 0H14.544C6.55136 0 0 6.36793 0 14.164V35.8491C0 43.6321 6.55136 50 14.544 50H35.456C43.4617 50 50 43.6321 50 35.8491V14.164C50 6.36793 43.4617 0 35.456 0Z" fill="#00D4FF"/>
<path fill-rule="evenodd" clip-rule="evenodd" d="M27.6466 31.8266C27.6466 37.8015 27.6466 43.7632 27.6466 49.725C27.6466 49.8167 27.6335 49.9084 27.6335 50.0001H34.9318C34.9318 49.8691 34.9318 49.725 34.9318 49.5808C34.9318 43.6846 34.9318 37.7884 34.9318 31.8921V31.6039H35.1807H40.579C40.959 31.6039 40.9459 31.6039 40.9852 31.2239C41.1031 30.2281 41.2211 29.2323 41.3521 28.2365C41.4962 27.0441 41.6535 25.8649 41.8107 24.6725C41.8369 24.3974 41.8369 24.3974 41.5617 24.3974H35.1938H34.9449C34.9318 24.3319 34.9318 24.2926 34.9318 24.2402C34.9318 22.7333 34.9187 21.2134 34.9318 19.7066C34.9449 19.2873 34.9842 18.868 35.0628 18.475C35.2593 17.466 35.8489 16.7978 36.8317 16.5751C37.3427 16.4571 37.8668 16.4047 38.3909 16.3916C39.5439 16.3523 40.697 16.3785 41.85 16.3785C42.0334 16.3785 42.0858 16.3261 42.0858 16.1296C42.0727 15.042 42.0727 13.9545 42.0727 12.867C42.0727 11.9367 42.0727 11.0195 42.0858 10.0892C42.0858 9.93198 42.0334 9.86646 41.8762 9.86646C41.5879 9.85336 41.3128 9.80095 41.0245 9.78785C39.5177 9.73544 37.9978 9.65682 36.4779 9.64372C35.1545 9.61751 33.8704 9.86646 32.6519 10.3906C30.8044 11.1767 29.4548 12.487 28.6031 14.3214C27.9611 15.6841 27.6859 17.1254 27.6597 18.6191C27.6335 20.4666 27.6466 22.3272 27.6466 24.1877V24.3974H27.3846C25.5371 24.3974 23.6896 24.3974 21.829 24.3974C21.6456 24.3974 21.5801 24.4498 21.5801 24.6463C21.5932 26.8869 21.5801 29.1144 21.5801 31.3418C21.5801 31.6039 21.5801 31.6039 21.8421 31.6039H27.3977H27.6466V31.8266Z" fill="#FF245C"/>
</g>
<defs>
<clipPath id="clip0_4066_26">
<rect width="50" height="50" fill="white"/>
</clipPath>
</defs>
</svg>
