<svg width="17" height="31" viewBox="0 0 17 31" fill="none" xmlns="http://www.w3.org/2000/svg">
<style>
#c1{animation: oculta 900ms infinite ease-in-out;}#c2{animation: oculta 800ms infinite 250ms ease-in-out;}#c3{animation: oculta 700ms infinite 500ms ease-in-out;}#c4{animation: oculta 600ms infinite 750ms ease-in-out;}@keyframes oculta {0%, 100% {opacity: 1;}25%, 70% {opacity: 0.3;}}
</style>
<g clip-path="url(#clip0_4144_25)">
<path id="c1" d="M16.4949 4.07152C16.4949 4.25409 16.4232 4.43733 16.2794 4.57652L5.02245 15.5001L16.2794 26.4234C16.567 26.7025 16.567 27.1547 16.2794 27.4338C15.9918 27.7128 15.5258 27.7128 15.2382 27.4338L2.94043 15.5001L15.2382 3.56651C15.5258 3.28744 15.9918 3.28744 16.2794 3.56651C16.4232 3.7057 16.4949 3.88895 16.4949 4.07152Z" fill="#8C008C"/>
<path id="c2" d="M13.5594 4.07152C13.5594 4.25409 13.4873 4.43733 13.3438 4.57652L2.08691 15.5001L13.3438 26.4234C13.6311 26.7025 13.6311 27.1547 13.3438 27.4338C13.0563 27.7128 12.5902 27.7128 12.3027 27.4338L0.00488281 15.5001L12.3027 3.56651C12.5902 3.28744 13.0563 3.28744 13.3438 3.56651C13.4873 3.7057 13.5594 3.88895 13.5594 4.07152Z" fill="#14AA37"/>
<path id="c3" d="M16.4949 6.92871C16.4949 7.11128 16.4232 7.29452 16.2794 7.43372L5.02245 18.3573L16.2794 29.2806C16.567 29.5597 16.567 30.0119 16.2794 30.291C15.9918 30.5697 15.5258 30.5697 15.2382 30.291L2.94043 18.3573L15.2382 6.4237C15.5258 6.14463 15.9918 6.14463 16.2794 6.4237C16.4232 6.56289 16.4949 6.7458 16.4949 6.92871Z" fill="#00D4FF"/>
<path id="c4" d="M16.4949 1.21422C16.4949 1.39713 16.4232 1.58004 16.2794 1.71923L5.02245 12.6428L16.2794 23.5664C16.567 23.8452 16.567 24.2977 16.2794 24.5765C15.9918 24.8555 15.5258 24.8555 15.2382 24.5765L2.94043 12.6428L15.2382 0.709214C15.5258 0.430483 15.9918 0.430483 16.2794 0.709214C16.4232 0.848747 16.4949 1.03165 16.4949 1.21422Z" fill="#FF245C"/>
</g>
<defs>
<clipPath id="clip0_4144_25">
<rect width="30" height="16.5" fill="white" transform="matrix(0 1 -1 0 16.5 0.5)"/>
</clipPath>
</defs>
</svg>
