<svg width="22" height="22" viewBox="0 0 22 22" fill="none" xmlns="http://www.w3.org/2000/svg">
<style>
#c1{animation: oculta 900ms infinite ease-in-out;}#c2{animation: oculta 800ms infinite 250ms ease-in-out;}#c3{animation: oculta 700ms infinite 500ms ease-in-out;}#c4{animation: oculta 600ms infinite 750ms ease-in-out;}@keyframes oculta {0%, 100% {opacity: 1;}25%, 70% {opacity: 0.3;}}
</style>
<path id="c1" fill-rule="evenodd" clip-rule="evenodd" d="M17.3988 3.27281C17.2949 3.00896 17.3799 2.72524 16.9851 2.13972C16.7055 1.72046 16.3466 1.4277 15.9102 1.26506C15.1678 0.98676 14.4046 1.03555 13.6112 1.53252C13.3731 1.33193 13.3316 0.784359 12.5268 0.321727C12.1943 0.130169 11.8354 0.0253544 11.4765 0.0054757C10.6282 -0.0469317 9.7838 0.359678 9.28885 1.16386C9.09616 1.4765 9.06783 1.72408 8.98281 1.82347C8.68244 1.7548 8.54454 1.4512 7.53575 1.46023C7.03324 1.46385 6.5553 1.61384 6.06602 2.08912C5.50117 2.63488 5.36704 2.90776 5.31415 3.51858C5.26692 4.03543 5.2877 5.07273 5.28203 5.67994C5.27825 6.16967 5.34437 6.02691 4.98355 6.39195C4.51694 6.86723 4.02577 7.34432 3.57993 7.83406C2.82807 8.66354 2.56359 10.0008 2.58248 10.7345C2.60326 11.5749 2.84318 12.6989 3.67817 13.6061C4.57739 14.5802 5.81098 15.509 6.76688 16.4433C7.78889 17.4427 8.24228 18.236 9.48343 18.742C10.5886 19.1938 11.3102 19.1505 12.4229 19.1649C13.2787 19.1595 14.1174 19.1396 14.9713 19.1197C15.8838 19.0962 17.4007 18.5505 18.2622 17.8891C19.305 17.0867 20.0493 16.1831 20.5216 15.0916C21.1639 13.6043 21.0921 12.2471 21.0977 10.7689C21.1015 9.30689 21.0656 7.8937 21.0845 6.4281L21.0297 4.99864C20.9919 4.49625 20.8465 4.03 20.3459 3.54388C19.934 3.14269 19.2691 2.91318 18.8667 2.90776C18.3377 2.90053 18.0052 2.95656 17.3988 3.27281ZM5.26314 7.54311C4.98922 7.77804 4.46593 8.35633 4.25435 8.64005C3.57427 9.55989 3.47037 10.9008 3.87275 11.9544C4.20712 12.8218 4.95332 13.4471 5.68064 14.1464C6.59686 15.0283 7.40162 15.894 8.3254 16.6747C8.87136 17.1355 9.42676 17.6487 10.156 17.8891C11.0268 18.18 12.0243 18.1637 12.9537 18.1403C13.955 18.1131 14.739 18.2053 15.7515 17.9487C17.021 17.6306 18.2263 16.7939 18.9933 15.7006C19.4561 15.0374 19.8471 14.1392 19.9378 13.4886C20.1815 11.7429 20.0209 8.25694 20.0077 6.34135C19.9983 5.9998 20.0172 4.94262 19.8868 4.66793C19.5864 4.03362 18.538 3.54027 17.7521 4.3571C17.1004 5.03478 17.6482 5.66006 17.1344 5.99438C16.9511 6.11184 16.749 6.11184 16.5657 5.98896C16.3579 5.84619 16.3712 5.64199 16.3693 5.47031C16.3674 5.27694 16.3542 5.10707 16.3523 4.9119C16.3428 4.40047 16.4241 3.13546 16.1331 2.71801C15.5645 1.90299 14.4367 1.9572 13.9418 2.6638C13.7358 2.95656 13.6792 3.4481 13.6981 3.76255C13.7075 3.91254 13.6848 5.47392 13.6546 5.6962C13.6414 5.79921 13.6036 5.89499 13.4884 5.97812C13.1238 6.24377 12.7365 5.91306 12.6609 5.75041C12.6307 5.69078 12.6798 2.765 12.608 2.15779C12.4852 1.12772 11.3612 0.825923 10.7756 1.13856C10.5923 1.23795 10.3675 1.43855 10.2296 1.61746C9.99916 1.91564 10.0539 2.37465 10.0369 2.73428C10.0275 2.91861 10.0351 3.10836 10.0294 3.29088C10.0218 3.66677 10.0162 4.01374 10.0086 4.38963C10.0029 4.74383 10.0275 5.11249 9.98594 5.48838C9.96516 5.66006 9.99538 5.86788 9.74791 6.00884C9.57033 6.11184 9.35497 6.10462 9.18117 5.98534C8.90347 5.79559 8.96015 5.09261 8.95637 4.87756L8.92803 3.77881C8.87891 3.33787 8.86758 3.08306 8.33107 2.6909C7.62076 2.16864 6.49296 2.68006 6.37205 3.46437C6.31349 3.8511 6.32482 6.23473 6.31727 6.76061C6.30782 7.32987 6.32294 8.40874 6.28326 8.97437C6.27382 9.1063 6.30027 9.39002 6.20392 9.51471C5.96211 9.83097 5.3387 9.76591 5.30092 9.21834C5.27825 8.85872 5.29525 7.67323 5.26314 7.54311Z" fill="#14AA37"/>
<path id="c1" fill-rule="evenodd" clip-rule="evenodd" d="M17.5372 5.15397C17.4333 4.88831 17.5164 4.60459 17.1254 4.01907C16.8439 3.59981 16.485 3.30706 16.0486 3.14441C15.3062 2.86611 14.543 2.9131 13.7495 3.41368C13.5115 3.21128 13.4699 2.66371 12.6652 2.20108C11.5468 1.55773 10.1319 1.90109 9.42722 3.04321C9.23453 3.35585 9.2062 3.60343 9.12119 3.70282C8.82082 3.63415 8.68291 3.33236 7.67412 3.33958C7.16973 3.3432 6.69367 3.495 6.20439 3.96847C5.63954 4.51423 5.5073 4.78892 5.45252 5.39793C5.40529 5.91658 5.42607 6.95028 5.4204 7.55929C5.41662 8.05083 5.48274 7.90626 5.12192 8.27311C4.65342 8.74659 4.16414 9.22548 3.71831 9.71341C2.96455 10.5429 2.70007 11.882 2.72085 12.6139C2.74163 13.4542 2.98155 14.5801 3.81654 15.4855C4.71576 16.4595 5.95125 17.3884 6.90525 18.3227C7.92726 19.3239 8.38065 20.1154 9.6218 20.6214C10.7269 21.0732 11.4486 21.0298 12.5613 21.0461C13.417 21.0388 14.2577 21.019 15.1116 20.9973C16.0221 20.9756 17.5391 20.4298 18.4005 19.7684C19.4433 18.9678 20.1876 18.0625 20.6599 16.9709C21.3022 15.4837 21.2304 14.1265 21.2342 12.6482C21.2399 11.188 21.204 9.77305 21.2229 8.30925L21.1681 6.8798C21.1303 6.37379 20.9849 5.90936 20.4842 5.42323C20.0724 5.02385 19.4074 4.79253 19.0051 4.78711C18.4761 4.77988 18.1436 4.83591 17.5372 5.15397ZM5.40151 9.42427C5.1257 9.65739 4.6043 10.2357 4.39461 10.5212C3.71264 11.4411 3.60874 12.7801 4.01301 13.8355C4.34549 14.7012 5.0917 15.3264 5.81901 16.0258C6.73523 16.9077 7.53999 17.7751 8.46566 18.5558C9.00973 19.013 9.56513 19.5281 10.2943 19.7702C11.1652 20.0594 12.1627 20.0431 13.0921 20.0196C14.0933 19.9925 14.8773 20.0829 15.8899 19.8299C17.1594 19.51 18.3646 18.6733 19.1316 17.5799C19.5945 16.9185 19.9855 16.0186 20.0762 15.368C20.3199 13.6223 20.1593 10.1363 20.1461 8.22251C20.1366 7.87915 20.1555 6.82378 20.0252 6.54909C19.7248 5.91297 18.6763 5.41781 17.8905 6.23645C17.2387 6.91413 17.7866 7.5376 17.2727 7.87373C17.0895 7.993 16.8874 7.9912 16.7041 7.86831C16.4963 7.72735 16.5095 7.52314 16.5076 7.35146C16.5058 7.1581 16.4925 6.98642 16.4906 6.79305C16.4812 6.27982 16.5624 5.01481 16.2715 4.59917C15.7029 3.78414 14.5751 3.83836 14.0801 4.54134C13.8723 4.83591 13.8194 5.32745 13.8383 5.6419C13.8459 5.79189 13.8232 7.35327 13.7949 7.57736C13.7798 7.67856 13.7401 7.77434 13.6267 7.85747C13.2621 8.12312 12.8749 7.79241 12.7993 7.63157C12.7691 7.57013 12.8163 4.64435 12.7445 4.03714C12.6236 3.00707 11.4996 2.70527 10.914 3.01791C10.7288 3.1173 10.5078 3.3179 10.368 3.495C10.1375 3.79318 10.1904 4.254 10.1753 4.61363C10.1659 4.79796 10.1734 4.98771 10.1678 5.17204C10.1602 5.54431 10.1545 5.8949 10.1489 6.26898C10.1394 6.62318 10.1678 6.99184 10.1224 7.36773C10.1035 7.54121 10.1338 7.74542 9.88628 7.89C9.71059 7.9912 9.49334 7.98397 9.31954 7.8647C9.04184 7.67675 9.09852 6.97196 9.09474 6.75691L9.0664 5.65997C9.01728 5.21722 9.00406 4.96241 8.46944 4.56845C7.75913 4.04799 6.63133 4.55941 6.51231 5.34552C6.45186 5.73045 6.46509 8.11589 6.45564 8.63996C6.44619 9.20922 6.46131 10.2881 6.42164 10.8537C6.41219 10.9856 6.43864 11.2694 6.34229 11.3941C6.10049 11.7121 5.47708 11.6471 5.43929 11.0977C5.41474 10.7381 5.43363 9.55258 5.40151 9.42427Z" fill="#8C008C"/>
<path id="c1" fill-rule="evenodd" clip-rule="evenodd" d="M15.7348 6.11063C15.6309 5.84498 15.7159 5.56125 15.3229 4.97574C15.0415 4.55648 14.6825 4.26372 14.248 4.09927C13.5056 3.82277 12.7405 3.86976 11.9471 4.36853C11.7091 4.16794 11.6694 3.62037 10.8646 3.15774C10.5 2.94811 10.1052 2.84329 9.71227 2.83607C8.89994 2.82161 8.10085 3.22822 7.62479 3.99987C7.43399 4.31251 7.40565 4.56009 7.32064 4.65948C7.01838 4.59081 6.88048 4.28902 5.87169 4.29625C5.36918 4.29986 4.89312 4.44985 4.40384 4.92513C3.83899 5.47089 3.70487 5.74558 3.65008 6.35459C3.60286 6.87325 3.62364 7.90694 3.61797 8.51595C3.61419 9.00749 3.68031 8.86292 3.31949 9.22797C2.85288 9.70325 2.3617 10.1821 1.91776 10.6701C1.164 11.4996 0.899526 12.8387 0.918418 13.5706C0.941087 14.4091 1.17912 15.5367 2.016 16.4421C2.91522 17.4162 4.14881 18.3451 5.10282 19.2793C6.12672 20.2805 6.58011 21.072 7.81937 21.578C8.9245 22.0298 9.64803 21.9865 10.7588 22.0009C11.6165 21.9955 12.4553 21.9756 13.3091 21.9539C14.2197 21.9323 15.7367 21.3865 16.6 20.7233C17.6409 19.9245 18.3871 19.0191 18.8575 17.9276C19.4998 16.4403 19.4299 15.0831 19.4337 13.6049C19.4374 12.1447 19.4016 10.7297 19.4223 9.26592L19.3657 7.83646C19.3279 7.33046 19.1824 6.86602 18.6837 6.37989C18.27 5.98051 17.6069 5.7492 17.2045 5.74378C16.6756 5.73655 16.3412 5.79076 15.7348 6.11063ZM3.59908 10.3791C3.32515 10.6141 2.80376 11.1923 2.59218 11.4779C1.9102 12.3977 1.8063 13.7368 2.21057 14.7904C2.54495 15.6578 3.29115 16.2831 4.01657 16.9825C4.93468 17.8625 5.73945 18.7318 6.66323 19.5107C7.20729 19.9697 7.76458 20.4829 8.49378 20.7269C9.36278 21.016 10.3621 20.9998 11.2897 20.9763C12.2909 20.9492 13.0749 21.0395 14.0875 20.7847C15.357 20.4648 16.5641 19.6299 17.3292 18.5366C17.792 17.8734 18.1831 16.9752 18.2737 16.3247C18.5174 14.5789 18.3588 11.0929 18.3436 9.17917C18.3342 8.83581 18.3531 7.78044 18.2246 7.50394C17.9224 6.86963 16.8758 6.37447 16.0899 7.1913C15.4382 7.87079 15.986 8.49426 15.4722 8.82859C15.2889 8.94966 15.0849 8.94786 14.9036 8.82497C14.6939 8.68401 14.7071 8.4798 14.7052 8.30632C14.7052 8.11476 14.692 7.94308 14.6882 7.74791C14.6806 7.23648 14.7619 5.97148 14.4691 5.55583C13.9004 4.739 12.7726 4.79321 12.2777 5.498C12.0718 5.79257 12.017 6.28411 12.0359 6.59856C12.0453 6.74855 12.0208 8.30993 11.9905 8.53402C11.9792 8.63522 11.9395 8.731 11.8243 8.81413C11.4616 9.07978 11.0743 8.74907 10.9969 8.58823C10.9685 8.52679 11.0158 5.60101 10.944 4.99381C10.8231 3.96373 9.69904 3.66194 9.11153 3.97457C8.92828 4.07216 8.70536 4.27456 8.56746 4.45166C8.3351 4.74984 8.38988 5.21067 8.37288 5.57029C8.36343 5.75462 8.37099 5.94437 8.36721 6.1287C8.35777 6.50097 8.35399 6.84975 8.34454 7.22564C8.33888 7.57984 8.36343 7.9485 8.32187 8.32258C8.30109 8.49607 8.33321 8.70208 8.08573 8.84666C7.90816 8.94786 7.6928 8.94063 7.51711 8.82136C7.23941 8.63161 7.29608 7.92862 7.2923 7.71357L7.26397 6.61663C7.21674 6.17388 7.20352 5.91907 6.6689 5.52511C5.9567 5.00465 4.82889 5.51607 4.70988 6.30219C4.65132 6.68711 4.66265 9.07255 4.65321 9.59663C4.64376 10.1659 4.65887 11.2447 4.62109 11.8104C4.61164 11.9423 4.6362 12.226 4.54175 12.3507C4.29994 12.6688 3.67464 12.6019 3.63686 12.0544C3.61419 11.6929 3.63308 10.5074 3.59908 10.3791Z" fill="#00D4FF"/>
<path id="c1" fill-rule="evenodd" clip-rule="evenodd" d="M19.2181 6.10704C19.1123 5.8432 19.1973 5.56128 18.8044 4.97396C18.5248 4.5565 18.1659 4.26194 17.7295 4.09929C16.9871 3.82099 16.2239 3.86979 15.4285 4.36675C15.1924 4.16797 15.1508 3.61859 14.348 3.15596C13.9985 2.95537 13.6188 2.85055 13.2428 2.83609C12.4135 2.80537 11.5917 3.21198 11.1081 3.9999C10.9173 4.31073 10.8871 4.55831 10.804 4.6577C10.5017 4.59084 10.3638 4.28543 9.35313 4.29447C8.85252 4.29808 8.37646 4.44807 7.88529 4.92336C7.32044 5.46912 7.18631 5.742 7.13153 6.35281C7.08619 6.86966 7.10697 7.90696 7.1013 8.51417C7.09752 9.00391 7.16364 8.86114 6.80282 9.22619C6.33432 9.70147 5.84504 10.1804 5.39921 10.6701C4.64545 11.4978 4.38097 12.8351 4.39986 13.5688C4.42253 14.4091 4.66245 15.5331 5.49744 16.4403C6.39666 17.4144 7.63026 18.3451 8.58426 19.2776C9.60816 20.2787 10.0634 21.0703 11.3008 21.5763C12.4078 22.0281 13.1314 21.9847 14.2403 21.9991C15.0979 21.9937 15.9386 21.9756 16.7906 21.954C17.703 21.9305 19.22 21.3865 20.0833 20.7233C21.1242 19.9227 21.8704 19.0173 22.3408 17.9258C22.9831 16.4403 22.9113 15.0832 22.917 13.6031C22.9208 12.1429 22.8849 10.7279 22.9038 9.26414L22.849 7.83468C22.8112 7.33048 22.6658 6.86424 22.1651 6.37811C21.7533 5.97873 21.0883 5.74742 20.6878 5.742C20.157 5.73477 19.8245 5.79079 19.2181 6.10704ZM7.08241 10.3791C6.8066 10.6141 6.2852 11.1906 6.07551 11.4761C5.39165 12.3959 5.28775 13.735 5.69391 14.7886C6.02639 15.656 6.7726 16.2813 7.49991 16.9807C8.41613 17.8626 9.22089 18.73 10.1466 19.5089C10.6906 19.9697 11.2479 20.4829 11.9752 20.7251C12.8461 21.0142 13.8436 20.998 14.773 20.9745C15.7724 20.9492 16.5582 21.0395 17.5708 20.7847C18.8403 20.4649 20.0455 19.6282 20.8106 18.5348C21.2754 17.8716 21.6664 16.9734 21.7571 16.3229C22.0008 14.5772 21.8402 11.0912 21.827 9.17559C21.8175 8.83403 21.8364 7.77866 21.7061 7.50216C21.4057 6.86966 20.3572 6.3745 19.5733 7.19133C18.9196 7.86901 19.4694 8.49429 18.9555 8.82861C18.7723 8.94788 18.5683 8.94608 18.385 8.82319C18.1772 8.68223 18.1904 8.47622 18.1885 8.30454C18.1867 8.11298 18.1734 7.94311 18.1696 7.74613C18.164 7.2347 18.2433 5.9715 17.9524 5.55224C17.3838 4.73903 16.256 4.79324 15.761 5.49803C15.5551 5.7926 15.5003 6.28233 15.5173 6.59678C15.5268 6.74858 15.5041 8.30815 15.4739 8.53224C15.4607 8.63344 15.4229 8.72922 15.3076 8.81416C14.943 9.078 14.5558 8.74729 14.4802 8.58645C14.4519 8.52501 14.4991 5.60104 14.4273 4.99383C14.3045 3.96195 13.1824 3.66016 12.5949 3.97279C12.4097 4.07219 12.1868 4.27278 12.0508 4.45169C11.8184 4.74987 11.8713 5.20889 11.8562 5.56851C11.8468 5.75284 11.8524 5.9444 11.8487 6.12511C11.8411 6.501 11.8373 6.84797 11.8279 7.22386C11.8203 7.57806 11.8468 7.94672 11.8052 8.32261C11.7844 8.49429 11.8147 8.70211 11.5672 8.84307C11.3915 8.94608 11.1742 8.93885 11.0004 8.81958C10.7209 8.62983 10.7794 7.92684 10.7756 7.7136L10.7473 6.61304C10.6982 6.1739 10.6869 5.91729 10.1503 5.52514C9.44003 5.00287 8.31034 5.51429 8.19132 6.30041C8.13465 6.68533 8.1441 9.07077 8.13654 9.59485C8.12709 10.1641 8.14221 11.243 8.10254 11.8086C8.09309 11.9405 8.11765 12.2243 8.02319 12.3489C7.78139 12.667 7.15798 12.6001 7.12019 12.0526C7.09752 11.6929 7.11453 10.5075 7.08241 10.3791Z" fill="#FF245C"/>
</svg>
