<svg width="22" height="22" viewBox="0 0 22 22" fill="none" xmlns="http://www.w3.org/2000/svg">
<g clip-path="url(#clip0_4145_44)">
<path d="M19.3282 3.16539C19.1991 3.29449 19.0188 3.37334 18.8187 3.37009L3.13473 3.1344L3.37066 18.8182C3.37669 19.2189 3.05692 19.5386 2.65623 19.5326C2.25555 19.5266 1.92603 19.1971 1.92001 18.7964L1.66252 1.66219L18.7967 1.91967C19.1974 1.92569 19.5269 2.25522 19.5329 2.6559C19.5362 2.856 19.4573 3.03629 19.3282 3.16539Z" fill="#8C008C"/>
<path d="M17.2521 1.08958C17.123 1.21868 16.9424 1.29729 16.7426 1.29429L1.05856 1.0586L1.29449 16.7424C1.30027 17.1428 0.9805 17.4626 0.580064 17.4568C0.179383 17.4508 -0.150144 17.1213 -0.156166 16.7206L-0.413652 -0.413618L16.7205 -0.156132C17.1212 -0.150111 17.4507 0.179416 17.4568 0.580098C17.4598 0.779955 17.3812 0.960488 17.2521 1.08958Z" fill="#14AA37"/>
<path d="M17.3075 5.18583C17.1784 5.31493 16.9982 5.39379 16.7981 5.39054L1.11405 5.15485L1.34998 20.8386C1.356 21.2393 1.03623 21.5591 0.635548 21.553C0.235105 21.5468 -0.0944217 21.2173 -0.100681 20.8168L-0.358169 3.68263L16.776 3.94012C17.1767 3.94614 17.5062 4.27567 17.5122 4.67635C17.5155 4.87645 17.4369 5.0565 17.3075 5.18583Z" fill="#00D4FF"/>
<path d="M21.3487 1.14501C21.2194 1.27434 21.0394 1.35296 20.8393 1.34971L5.15524 1.11402L5.39094 16.798C5.39719 17.1985 5.07719 17.5185 4.67674 17.5122C4.27606 17.5062 3.94654 17.1767 3.94051 16.776L3.68303 -0.358198L20.8172 -0.100709C21.2177 -0.0944503 21.5472 0.235077 21.5534 0.63552C21.5565 0.835861 21.4778 1.01591 21.3487 1.14501Z" fill="#FF245C"/>
</g>
<defs>
<clipPath id="clip0_4145_44">
<rect width="22" height="22" fill="white"/>
</clipPath>
</defs>
</svg>
