<svg width="50" height="50" viewBox="0 0 50 50" fill="none" xmlns="http://www.w3.org/2000/svg">
<g clip-path="url(#clip0_4066_158)">
<path d="M25.0002 10.8108C28.9082 10.8108 32.4692 12.3995 35.0258 14.9744C37.6007 17.531 39.1894 21.092 39.1894 25C39.1894 28.9079 37.6007 32.4689 35.0258 35.0255C32.4692 37.6004 28.9082 39.1892 25.0002 39.1892C21.0923 39.1892 17.5313 37.6004 14.9747 35.0255C12.3998 32.4689 10.811 28.9079 10.811 25C10.811 21.092 12.3998 17.531 14.9747 14.9744C17.5313 12.3995 21.0923 10.8108 25.0002 10.8108ZM34.2588 15.7414C31.8848 13.3674 28.616 11.9065 25.0002 11.9065C21.3844 11.9065 18.1156 13.3674 15.7416 15.7414C13.3676 18.1154 11.9067 21.3842 11.9067 25C11.9067 28.6158 13.3676 31.8846 15.7416 34.2586C18.1156 36.6326 21.3844 38.0935 25.0002 38.0935C28.616 38.0935 31.8848 36.6326 34.2588 34.2586C36.6328 31.8846 38.0937 28.6158 38.0937 25C38.0937 21.3842 36.6328 18.1154 34.2588 15.7414Z" fill="#FF245C"/>
<path d="M25 10.8108C27.1183 10.8108 29.0175 12.4543 30.3689 15.1205C31.6472 17.6589 32.4507 21.1468 32.4507 25C32.4507 28.8532 31.6472 32.3411 30.3689 34.8795C29.0175 37.5456 27.1183 39.1892 25 39.1892C22.8634 39.1892 20.9825 37.5456 19.6311 34.8795C18.3528 32.3411 17.5493 28.8532 17.5493 25C17.5493 21.1468 18.3528 17.6589 19.6311 15.1205C20.9825 12.4543 22.8634 10.8108 25 10.8108ZM29.3828 15.5953C28.2323 13.3126 26.6801 11.9065 25 11.9065C23.32 11.9065 21.7677 13.3126 20.599 15.5953C19.3937 17.9876 18.645 21.3112 18.645 25C18.645 28.6888 19.3937 31.9941 20.599 34.4047C21.7677 36.6691 23.32 38.0935 25 38.0935C26.6801 38.0935 28.2323 36.6691 29.3828 34.4047C30.6063 31.9941 31.355 28.6888 31.355 25C31.355 21.3112 30.6063 17.9876 29.3828 15.5953Z" fill="#FF245C"/>
<path d="M11.3589 24.4521H38.6416V25.5478H11.3589V24.4521Z" fill="#FF245C"/>
<path d="M25.5478 11.3586V38.6413H24.4521V11.3586H25.5478Z" fill="#FF245C"/>
<path d="M34.4049 15.157C33.1083 16.3074 31.6291 17.2023 30.0221 17.8049C28.4333 18.4075 26.735 18.718 25.0002 18.718C23.2836 18.718 21.5853 18.4075 19.9783 17.8049C18.3895 17.2023 16.9103 16.3257 15.6138 15.1752L16.3442 14.3717C17.5312 15.4126 18.9008 16.2344 20.3618 16.8005C21.8409 17.3484 23.4114 17.6405 25.0002 17.6405C26.6072 17.6405 28.1777 17.3484 29.6386 16.7822C31.1178 16.2344 32.4874 15.3944 33.6927 14.3352L34.4049 15.157Z" fill="#FF245C"/>
<path d="M15.5957 34.8429C16.8923 33.6925 18.3715 32.7976 19.9785 32.195C21.5672 31.5924 23.2655 31.2637 25.0004 31.2637C26.717 31.2637 28.4153 31.5924 30.004 32.195C31.611 32.7976 33.0902 33.6742 34.3868 34.8247L33.6563 35.6282C32.4693 34.5873 31.0997 33.7655 29.6205 33.1994C28.1596 32.6515 26.5891 32.3594 25.0004 32.3594C23.3934 32.3594 21.8229 32.6515 20.362 33.2177C18.8828 33.7655 17.5132 34.5873 16.3079 35.6647L15.5957 34.8429Z" fill="#FF245C"/>
<path d="M46.1468 35.8473C46.1468 38.6048 45.0329 41.2162 43.0058 43.1885C40.9788 45.1607 38.2944 46.2564 35.4456 46.2564H14.5544C11.7056 46.2564 9.02118 45.1607 6.99416 43.1885C4.96713 41.2162 3.83492 38.6048 3.83492 35.8473V14.1527C3.83492 11.3952 4.96713 8.78378 6.99416 6.81154C9.02118 4.82104 11.7056 3.74361 14.5544 3.74361H35.4456C38.2944 3.74361 40.9788 4.82104 43.0058 6.81154C45.0329 8.78378 46.1468 11.3952 46.1468 14.1527V35.8473ZM35.4456 0H14.5544C6.53762 0 0 6.37326 0 14.1527V35.8473C0 43.6267 6.53762 50 14.5544 50H35.4456C43.4624 50 50 43.6267 50 35.8473V14.1527C50 6.37326 43.4624 0 35.4456 0Z" fill="#00D4FF"/>
<path d="M11.4683 28.068C11.4683 31.5194 14.0797 33.236 16.7276 33.236C19.3755 33.236 22.0234 31.5742 22.0234 28.068V17.0198H13.9336V20.3616H18.152V27.9767C18.152 29.1454 17.5859 29.675 16.7641 29.675C16.3258 29.675 15.8875 29.5106 15.6319 29.0906C15.431 28.7984 15.3214 28.3602 15.3214 27.7575V26.8992H11.4683V28.068Z" fill="#00D4FF"/>
<path d="M25.5112 32.9803H29.3644V28.0497H32.0671C35.1168 28.0497 37.1986 25.7305 37.1986 22.5165C37.1986 19.3025 35.1168 17.0198 32.0671 17.0198H25.5112V32.9803ZM29.3644 24.6896V20.3616H31.3366C32.615 20.3616 33.2724 21.2382 33.2724 22.5165C33.2724 23.7765 32.615 24.6896 31.2636 24.6896H29.3644Z" fill="#00D4FF"/>
</g>
<defs>
<clipPath id="clip0_4066_158">
<rect width="50" height="50" fill="white"/>
</clipPath>
</defs>
</svg>
