<?xml version="1.0" encoding="UTF-8"?>
<!DOCTYPE svg PUBLIC "-//W3C//DTD SVG 1.1//EN" "http://www.w3.org/Graphics/SVG/1.1/DTD/svg11.dtd">
<!-- Creator: CorelDRAW -->
<svg xmlns="http://www.w3.org/2000/svg" xml:space="preserve" width="200px" height="130px" version="1.1" style="shape-rendering:geometricPrecision; text-rendering:geometricPrecision; image-rendering:optimizeQuality; fill-rule:evenodd; clip-rule:evenodd"
viewBox="0 0 199.33 129.57"
 xmlns:xlink="http://www.w3.org/1999/xlink"
 xmlns:xodm="http://www.corel.com/coreldraw/odm/2003">
 <defs>
  <style type="text/css">
   <![CDATA[
    .fil4 {fill:none}
    .fil0 {fill:#14AA37}
    .fil1 {fill:#8C008C}
    .fil3 {fill:#FF245C}
    .fil2 {fill:#00D4FF}
   ]]>
  </style>
 </defs>
 <g id="Camada_x0020_1">
  <metadata id="CorelCorpID_0Corel-Layer"/>
  <g id="icon-grab-glitch-anim">
   <g id="icon-grab-glitch">
    <path id="c4" class="fil0" d="M126.36 26.77c-0.57,-1.38 -0.11,-2.85 -2.23,-5.89 -1.51,-2.18 -3.44,-3.71 -5.79,-4.56 -3.99,-1.44 -8.11,-1.19 -12.38,1.4 -1.28,-1.04 -1.5,-3.89 -5.82,-6.3 -6.03,-3.35 -13.65,-1.57 -17.44,4.38 -1.03,1.62 -1.19,2.91 -1.64,3.43 -1.62,-0.35 -2.37,-1.93 -7.8,-1.89 -2.7,0.02 -5.27,0.8 -7.91,3.27 -3.03,2.84 -3.75,4.26 -4.05,7.43 -0.24,2.7 -0.14,8.08 -0.17,11.24 -0.02,2.56 0.34,1.81 -1.6,3.71 -2.52,2.47 -5.16,4.96 -7.55,7.5 -4.06,4.31 -5.48,11.27 -5.38,15.08 0.12,4.37 1.41,10.22 5.91,14.93 4.83,5.07 11.48,9.9 16.61,14.76 5.51,5.2 7.95,9.32 14.62,11.95 5.96,2.35 9.85,2.13 15.83,2.2 4.61,-0.03 9.13,-0.13 13.72,-0.24 4.91,-0.12 13.07,-2.95 17.71,-6.4 5.61,-4.16 9.62,-8.87 12.16,-14.54 3.46,-7.73 3.07,-14.79 3.1,-22.48 0.02,-7.6 -0.17,-14.95 -0.07,-22.57l-0.29 -7.43c-0.21,-2.62 -0.99,-5.04 -3.68,-7.57 -2.22,-2.08 -5.8,-3.28 -7.96,-3.31 -2.85,-0.04 -4.64,0.25 -7.9,1.9zm-65.33 22.21c-1.48,1.22 -4.28,4.22 -5.42,5.71 -3.67,4.78 -4.23,11.75 -2.05,17.23 1.79,4.51 5.81,7.76 9.72,11.39 4.93,4.59 9.26,9.1 14.24,13.15 2.94,2.39 5.93,5.06 9.85,6.32 4.69,1.51 10.05,1.42 15.06,1.3 5.38,-0.13 9.61,0.34 15.06,-0.99 6.83,-1.66 13.32,-6.01 17.44,-11.7 2.5,-3.44 4.6,-8.11 5.09,-11.5 1.31,-9.08 0.45,-27.21 0.38,-37.16 -0.06,-1.78 0.05,-7.27 -0.66,-8.71 -1.61,-3.29 -7.25,-5.86 -11.48,-1.62 -3.51,3.53 -0.56,6.78 -3.33,8.52 -0.98,0.62 -2.08,0.61 -3.06,-0.03 -1.12,-0.73 -1.05,-1.8 -1.06,-2.69 -0.01,-1.01 -0.08,-1.89 -0.09,-2.91 -0.04,-2.66 0.39,-9.23 -1.18,-11.4 -3.06,-4.24 -9.13,-3.96 -11.79,-0.29 -1.12,1.53 -1.41,4.08 -1.31,5.71 0.05,0.79 -0.08,8.9 -0.24,10.06 -0.07,0.54 -0.28,1.03 -0.9,1.47 -1.96,1.38 -4.04,-0.34 -4.45,-1.18 -0.15,-0.32 0.1,-15.53 -0.29,-18.69 -0.66,-5.36 -6.7,-6.93 -9.86,-5.3 -0.99,0.51 -2.19,1.56 -2.93,2.48 -1.24,1.56 -0.96,3.95 -1.05,5.81 -0.04,0.97 -0.01,1.96 -0.03,2.91 -0.04,1.94 -0.07,3.75 -0.11,5.71 -0.04,1.84 0.1,3.76 -0.13,5.71 -0.11,0.89 0.05,1.97 -1.27,2.71 -0.96,0.53 -2.12,0.49 -3.06,-0.12 -1.5,-0.99 -1.19,-4.65 -1.21,-5.77l-0.16 -5.71c-0.25,-2.29 -0.32,-3.62 -3.2,-5.66 -3.83,-2.71 -9.9,-0.05 -10.54,4.03 -0.32,2.01 -0.26,14.41 -0.3,17.13 -0.06,2.97 0.03,8.58 -0.19,11.52 -0.05,0.68 0.09,2.16 -0.42,2.81 -1.31,1.65 -4.66,1.31 -4.86,-1.54 -0.13,-1.88 -0.03,-8.04 -0.21,-8.71z"/>
    <path id="c3" class="fil1" d="M126.36 36.69c-0.57,-1.38 -0.11,-2.85 -2.23,-5.9 -1.51,-2.17 -3.44,-3.7 -5.79,-4.55 -3.99,-1.45 -8.1,-1.2 -12.38,1.4 -1.27,-1.05 -1.5,-3.9 -5.82,-6.3 -6.03,-3.35 -13.65,-1.57 -17.44,4.38 -1.03,1.62 -1.18,2.91 -1.64,3.43 -1.62,-0.36 -2.36,-1.94 -7.8,-1.89 -2.7,0.02 -5.26,0.8 -7.91,3.27 -3.03,2.83 -3.75,4.26 -4.04,7.43 -0.25,2.69 -0.15,8.08 -0.17,11.24 -0.03,2.55 0.33,1.81 -1.61,3.71 -2.52,2.47 -5.16,4.95 -7.55,7.5 -4.06,4.31 -5.48,11.26 -5.38,15.08 0.12,4.36 1.41,10.21 5.91,14.93 4.84,5.07 11.48,9.9 16.62,14.75 5.5,5.21 7.94,9.33 14.62,11.96 5.95,2.34 9.84,2.12 15.82,2.2 4.61,-0.03 9.13,-0.13 13.72,-0.24 4.91,-0.12 13.07,-2.95 17.72,-6.4 5.6,-4.16 9.62,-8.87 12.15,-14.55 3.46,-7.73 3.08,-14.78 3.1,-22.47 0.02,-7.6 -0.17,-14.96 -0.07,-22.57l-0.29 -7.44c-0.21,-2.62 -0.99,-5.04 -3.68,-7.57 -2.22,-2.08 -5.8,-3.28 -7.96,-3.31 -2.85,-0.03 -4.64,0.25 -7.9,1.91zm-65.33 22.2c-1.48,1.22 -4.28,4.23 -5.42,5.71 -3.67,4.79 -4.23,11.75 -2.05,17.23 1.79,4.51 5.81,7.76 9.72,11.4 4.94,4.58 9.27,9.09 14.24,13.15 2.94,2.39 5.93,5.06 9.85,6.32 4.69,1.51 10.06,1.42 15.06,1.3 5.38,-0.14 9.61,0.33 15.06,-0.99 6.83,-1.67 13.32,-6.01 17.44,-11.7 2.5,-3.44 4.6,-8.12 5.09,-11.5 1.31,-9.08 0.45,-27.21 0.38,-37.17 -0.06,-1.77 0.05,-7.27 -0.65,-8.7 -1.62,-3.3 -7.26,-5.87 -11.49,-1.62 -3.51,3.53 -0.56,6.77 -3.33,8.51 -0.98,0.62 -2.08,0.62 -3.06,-0.02 -1.12,-0.74 -1.05,-1.8 -1.06,-2.7 -0.01,-1 -0.08,-1.89 -0.09,-2.9 -0.04,-2.66 0.39,-9.24 -1.18,-11.41 -3.06,-4.24 -9.13,-3.95 -11.79,-0.29 -1.12,1.53 -1.41,4.09 -1.31,5.72 0.05,0.78 -0.08,8.9 -0.24,10.06 -0.07,0.53 -0.28,1.03 -0.89,1.46 -1.96,1.38 -4.05,-0.33 -4.46,-1.18 -0.15,-0.31 0.1,-15.53 -0.29,-18.68 -0.65,-5.36 -6.7,-6.93 -9.86,-5.3 -0.99,0.51 -2.19,1.56 -2.93,2.48 -1.24,1.55 -0.96,3.94 -1.04,5.81 -0.05,0.96 -0.02,1.95 -0.04,2.9 -0.04,1.95 -0.07,3.76 -0.11,5.71 -0.04,1.84 0.1,3.76 -0.13,5.71 -0.11,0.9 0.06,1.97 -1.27,2.72 -0.96,0.53 -2.12,0.49 -3.06,-0.13 -1.49,-0.99 -1.19,-4.64 -1.21,-5.76l-0.15 -5.71c-0.26,-2.3 -0.33,-3.62 -3.21,-5.67 -3.83,-2.71 -9.9,-0.05 -10.54,4.04 -0.32,2 -0.26,14.4 -0.3,17.13 -0.05,2.96 0.03,8.57 -0.18,11.51 -0.05,0.69 0.08,2.16 -0.43,2.82 -1.3,1.64 -4.66,1.3 -4.86,-1.55 -0.13,-1.87 -0.03,-8.04 -0.21,-8.71z"/>
    <path id="c2" class="fil2" d="M119.79 37.17c-0.57,-1.37 -0.11,-2.84 -2.23,-5.89 -1.51,-2.18 -3.44,-3.7 -5.79,-4.55 -3.99,-1.45 -8.11,-1.2 -12.38,1.39 -1.28,-1.04 -1.5,-3.89 -5.82,-6.29 -6.03,-3.35 -13.65,-1.57 -17.44,4.38 -1.03,1.62 -1.19,2.91 -1.64,3.43 -1.62,-0.36 -2.37,-1.94 -7.8,-1.9 -2.7,0.03 -5.27,0.81 -7.91,3.28 -3.03,2.83 -3.75,4.26 -4.05,7.43 -0.24,2.69 -0.14,8.08 -0.16,11.24 -0.03,2.55 0.33,1.8 -1.61,3.71 -2.52,2.46 -5.16,4.95 -7.55,7.5 -4.06,4.31 -5.48,11.26 -5.38,15.07 0.12,4.37 1.41,10.22 5.91,14.94 4.83,5.06 11.48,9.9 16.61,14.75 5.51,5.21 7.95,9.33 14.62,11.96 5.96,2.34 9.85,2.12 15.83,2.2 4.61,-0.03 9.13,-0.13 13.72,-0.24 4.91,-0.12 13.07,-2.96 17.71,-6.4 5.61,-4.17 9.62,-8.87 12.16,-14.55 3.46,-7.73 3.07,-14.79 3.1,-22.47 0.02,-7.6 -0.17,-14.96 -0.07,-22.57l-0.29 -7.44c-0.21,-2.62 -0.99,-5.04 -3.68,-7.57 -2.22,-2.08 -5.8,-3.28 -7.96,-3.31 -2.85,-0.04 -4.64,0.25 -7.9,1.9zm-65.33 22.21c-1.48,1.22 -4.28,4.23 -5.42,5.71 -3.67,4.78 -4.23,11.75 -2.05,17.23 1.79,4.51 5.81,7.76 9.72,11.4 4.93,4.58 9.26,9.09 14.24,13.15 2.94,2.39 5.93,5.06 9.85,6.32 4.69,1.5 10.05,1.42 15.06,1.29 5.38,-0.13 9.61,0.34 15.06,-0.99 6.83,-1.66 13.32,-6 17.44,-11.69 2.5,-3.44 4.6,-8.12 5.09,-11.5 1.31,-9.08 0.45,-27.21 0.38,-37.17 -0.06,-1.78 0.05,-7.27 -0.66,-8.7 -1.61,-3.3 -7.25,-5.87 -11.48,-1.62 -3.51,3.52 -0.56,6.77 -3.33,8.51 -0.98,0.62 -2.08,0.62 -3.06,-0.03 -1.12,-0.73 -1.05,-1.8 -1.06,-2.69 -0.01,-1 -0.08,-1.89 -0.09,-2.9 -0.04,-2.66 0.39,-9.24 -1.18,-11.41 -3.06,-4.24 -9.13,-3.96 -11.79,-0.29 -1.12,1.53 -1.41,4.08 -1.31,5.72 0.05,0.78 -0.08,8.9 -0.24,10.06 -0.07,0.53 -0.28,1.03 -0.9,1.46 -1.96,1.38 -4.04,-0.34 -4.45,-1.18 -0.15,-0.31 0.1,-15.53 -0.29,-18.68 -0.66,-5.36 -6.7,-6.94 -9.86,-5.31 -0.99,0.52 -2.19,1.56 -2.93,2.49 -1.24,1.55 -0.96,3.94 -1.05,5.81 -0.04,0.96 -0.01,1.95 -0.03,2.9 -0.04,1.95 -0.07,3.76 -0.11,5.71 -0.04,1.84 0.1,3.76 -0.13,5.71 -0.11,0.9 0.05,1.97 -1.27,2.71 -0.96,0.54 -2.12,0.5 -3.06,-0.12 -1.5,-0.99 -1.19,-4.65 -1.21,-5.76l-0.16 -5.71c-0.25,-2.3 -0.32,-3.63 -3.2,-5.67 -3.83,-2.71 -9.9,-0.05 -10.54,4.03 -0.32,2.01 -0.26,14.41 -0.3,17.14 -0.06,2.96 0.03,8.57 -0.19,11.51 -0.05,0.69 0.09,2.16 -0.42,2.81 -1.31,1.65 -4.66,1.31 -4.86,-1.54 -0.13,-1.87 -0.03,-8.04 -0.21,-8.71z"/>
    <path id="c1" class="fil3" d="M139.4 35.52c-0.56,-1.37 -0.11,-2.85 -2.22,-5.89 -1.51,-2.18 -3.44,-3.71 -5.79,-4.56 -3.99,-1.44 -8.11,-1.19 -12.38,1.4 -1.28,-1.04 -1.5,-3.89 -5.83,-6.3 -6.02,-3.34 -13.64,-1.56 -17.43,4.38 -1.03,1.63 -1.19,2.91 -1.64,3.43 -1.62,-0.35 -2.37,-1.93 -7.8,-1.89 -2.7,0.02 -5.27,0.81 -7.91,3.27 -3.03,2.84 -3.75,4.26 -4.05,7.43 -0.25,2.7 -0.14,8.08 -0.17,11.25 -0.02,2.55 0.34,1.8 -1.6,3.7 -2.52,2.47 -5.16,4.96 -7.56,7.5 -4.05,4.31 -5.48,11.27 -5.37,15.08 0.12,4.37 1.41,10.22 5.91,14.93 4.83,5.07 11.48,9.9 16.61,14.76 5.51,5.2 7.95,9.32 14.62,11.95 5.96,2.35 9.85,2.13 15.83,2.2 4.61,-0.03 9.13,-0.13 13.72,-0.24 4.91,-0.11 13.07,-2.95 17.71,-6.39 5.61,-4.17 9.62,-8.87 12.16,-14.55 3.46,-7.73 3.07,-14.79 3.1,-22.48 0.02,-7.6 -0.17,-14.95 -0.07,-22.57l-0.3 -7.43c-0.2,-2.62 -0.98,-5.04 -3.67,-7.57 -2.22,-2.08 -5.8,-3.28 -7.96,-3.31 -2.85,-0.04 -4.64,0.25 -7.91,1.9zm-65.32 22.21c-1.48,1.22 -4.28,4.23 -5.42,5.71 -3.67,4.78 -4.23,11.75 -2.05,17.23 1.79,4.51 5.8,7.76 9.72,11.39 4.93,4.59 9.26,9.1 14.24,13.15 2.94,2.39 5.93,5.06 9.85,6.33 4.69,1.5 10.05,1.42 15.06,1.29 5.38,-0.13 9.61,0.34 15.05,-0.99 6.84,-1.66 13.33,-6.01 17.45,-11.69 2.5,-3.45 4.6,-8.12 5.09,-11.51 1.31,-9.07 0.45,-27.21 0.38,-37.16 -0.06,-1.78 0.05,-7.27 -0.66,-8.7 -1.61,-3.3 -7.25,-5.87 -11.48,-1.63 -3.51,3.53 -0.56,6.78 -3.33,8.52 -0.98,0.62 -2.08,0.61 -3.06,-0.03 -1.12,-0.73 -1.05,-1.8 -1.06,-2.69 -0.01,-1 -0.08,-1.89 -0.1,-2.9 -0.04,-2.67 0.39,-9.24 -1.17,-11.41 -3.06,-4.24 -9.13,-3.96 -11.8,-0.29 -1.11,1.53 -1.4,4.08 -1.3,5.71 0.05,0.79 -0.08,8.9 -0.24,10.07 -0.07,0.53 -0.28,1.02 -0.9,1.46 -1.96,1.38 -4.04,-0.34 -4.45,-1.18 -0.16,-0.32 0.1,-15.53 -0.29,-18.69 -0.66,-5.36 -6.7,-6.93 -9.86,-5.3 -0.99,0.51 -2.19,1.56 -2.93,2.49 -1.24,1.55 -0.96,3.94 -1.05,5.81 -0.04,0.96 -0.01,1.95 -0.03,2.9 -0.04,1.94 -0.07,3.75 -0.11,5.71 -0.04,1.84 0.1,3.76 -0.13,5.71 -0.11,0.9 0.05,1.97 -1.28,2.71 -0.95,0.53 -2.11,0.49 -3.05,-0.12 -1.5,-0.99 -1.19,-4.65 -1.21,-5.76l-0.16 -5.72c-0.25,-2.29 -0.32,-3.62 -3.2,-5.66 -3.83,-2.71 -9.9,-0.05 -10.54,4.03 -0.32,2.01 -0.26,14.41 -0.31,17.14 -0.05,2.96 0.03,8.57 -0.18,11.51 -0.05,0.68 0.09,2.16 -0.42,2.81 -1.31,1.65 -4.66,1.31 -4.86,-1.54 -0.13,-1.88 -0.03,-8.04 -0.21,-8.71z"/>
   </g>
   <rect class="fil4" width="199.33" height="129.57"/>
  </g>
 </g>
</svg>
