<?xml version="1.0" encoding="UTF-8"?>
<!DOCTYPE svg PUBLIC "-//W3C//DTD SVG 1.1//EN" "http://www.w3.org/Graphics/SVG/1.1/DTD/svg11.dtd">
<!-- Creator: CorelDRAW -->
<svg xmlns="http://www.w3.org/2000/svg" xml:space="preserve" width="22px" height="28px" version="1.1" style="shape-rendering:geometricPrecision; text-rendering:geometricPrecision; image-rendering:optimizeQuality; fill-rule:evenodd; clip-rule:evenodd"
viewBox="0 0 21.36 27.19"
 xmlns:xlink="http://www.w3.org/1999/xlink"
 xmlns:xodm="http://www.corel.com/coreldraw/odm/2003">
 <defs>
  <style type="text/css">
   <![CDATA[
    .fil2 {fill:none}
    .fil0 {fill:#14AA37}
    .fil1 {fill:#8C008C}
    .fil4 {fill:#FF245C}
    .fil3 {fill:#00D4FF}
   ]]>
  </style>
 </defs>
 <g id="Camada_x0020_1">
  <metadata id="CorelCorpID_0Corel-Layer"/>
  <g id="icon-pointer">
   <path id="c1" class="fil0" d="M16 9.15c-0.1,-0.27 -0.02,-0.55 -0.4,-1.15 -0.27,-0.42 -0.62,-0.72 -1.05,-0.89 -0.72,-0.28 -1.46,-0.23 -2.23,0.27 -0.23,-0.2 -0.27,-0.76 -1.05,-1.22 -0.34,-0.21 -0.71,-0.32 -1.07,-0.33 -0.5,-0.02 -1,0.13 -1.41,0.44l0.01 -3.97c0.01,-1.4 -1.11,-2.31 -2.38,-2.3 -0.49,0.01 -0.95,0.16 -1.43,0.64 -0.54,0.55 -0.67,0.83 -0.73,1.45 -0.04,0.53 -0.02,8.89 -0.03,9.5 0,0.5 0.06,0.36 -0.29,0.73 -0.45,0.48 -0.93,0.96 -1.36,1.46 -0.73,0.84 -0.99,2.2 -0.97,2.94 0.02,0.86 0.26,2 1.07,2.92 0.87,0.99 2.07,1.93 2.99,2.88 1,1.01 1.44,1.82 2.64,2.33 1.08,0.46 1.78,0.41 2.86,0.43 0.83,-0.01 1.64,-0.03 2.47,-0.05 0.89,-0.02 2.36,-0.57 3.2,-1.25 1.01,-0.81 1.73,-1.73 2.19,-2.84 0.62,-1.5 0.55,-2.88 0.56,-4.38 0,-1.48 -0.03,-2.92 -0.01,-4.41l-0.06 -1.45c-0.03,-0.51 -0.17,-0.98 -0.66,-1.47 -0.4,-0.41 -1.05,-0.64 -1.44,-0.65 -0.51,-0.01 -0.83,0.05 -1.42,0.37zm-11.78 4.33c-0.27,0.24 -0.78,0.83 -0.98,1.12 -0.66,0.93 -0.77,2.29 -0.37,3.36 0.32,0.88 1.04,1.52 1.75,2.23 0.89,0.89 1.67,1.77 2.57,2.56 0.53,0.47 1.07,0.99 1.78,1.24 0.84,0.29 1.81,0.27 2.71,0.25 0.97,-0.03 1.74,0.06 2.72,-0.19 1.23,-0.33 2.4,-1.18 3.15,-2.29 0.45,-0.67 0.83,-1.58 0.91,-2.24 0.24,-1.77 0.08,-5.31 0.07,-7.26 -0.01,-0.34 0.01,-1.41 -0.12,-1.69 -0.29,-0.65 -1.31,-1.15 -2.07,-0.32 -0.63,0.69 -0.1,1.32 -0.6,1.66 -0.18,0.12 -0.37,0.12 -0.55,0 -0.2,-0.15 -0.19,-0.36 -0.19,-0.53 0,-0.19 -0.02,-0.37 -0.02,-0.57 -0.01,-0.52 0.07,-1.8 -0.21,-2.22 -0.55,-0.83 -1.65,-0.77 -2.13,-0.06 -0.2,0.3 -0.25,0.8 -0.23,1.12 0,0.15 -0.02,1.73 -0.05,1.96 -0.01,0.1 -0.05,0.2 -0.16,0.29 -0.35,0.27 -0.73,-0.07 -0.8,-0.23 -0.03,-0.07 0.02,-3.03 -0.05,-3.65 -0.12,-1.05 -1.21,-1.35 -1.78,-1.04 -0.18,0.1 -0.4,0.31 -0.53,0.49 -0.23,0.3 -0.17,0.77 -0.19,1.13 -0.01,0.19 0,0.38 -0.01,0.57 0,0.38 -0.01,0.73 -0.02,1.11 0,0.36 0.02,0.74 -0.02,1.12 -0.02,0.17 0.01,0.38 -0.23,0.53 -0.17,0.1 -0.38,0.09 -0.55,-0.03 -0.27,-0.19 -0.21,-0.9 -0.22,-1.12l-0.03 -8.42c-0.04,-0.45 -0.06,-0.71 -0.58,-1.11 -0.68,-0.53 -1.78,-0.01 -1.9,0.79 -0.05,0.39 -0.04,10.12 -0.05,10.65 -0.01,0.58 0,1.67 -0.03,2.25 -0.01,0.13 0.01,0.42 -0.08,0.55 -0.24,0.32 -0.84,0.25 -0.88,-0.31 -0.02,-0.36 0,-1.56 -0.03,-1.7z"/>
   <path id="c1_0" class="fil1" d="M16.13 11.06c-0.1,-0.27 -0.02,-0.56 -0.4,-1.15 -0.27,-0.43 -0.62,-0.73 -1.04,-0.89 -0.72,-0.28 -1.47,-0.23 -2.24,0.27 -0.23,-0.2 -0.27,-0.76 -1.05,-1.23 -0.34,-0.2 -0.7,-0.31 -1.07,-0.32 -0.5,-0.02 -0.99,0.13 -1.41,0.43l0.02 -3.98c0,-1.39 -1.12,-2.31 -2.38,-2.3 -0.49,0.01 -0.95,0.16 -1.43,0.64 -0.55,0.56 -0.68,0.83 -0.73,1.45 -0.05,0.53 -0.03,8.9 -0.03,9.52 -0.01,0.5 0.06,0.35 -0.29,0.72 -0.46,0.48 -0.93,0.97 -1.36,1.47 -0.74,0.84 -0.99,2.2 -0.97,2.94 0.02,0.85 0.25,1.99 1.06,2.91 0.87,0.99 2.07,1.94 3,2.88 0.99,1.02 1.43,1.82 2.64,2.34 1.07,0.46 1.77,0.41 2.85,0.43 0.83,-0.01 1.65,-0.03 2.48,-0.05 0.88,-0.02 2.35,-0.58 3.19,-1.25 1.01,-0.81 1.74,-1.73 2.19,-2.84 0.63,-1.51 0.56,-2.88 0.56,-4.38 0.01,-1.49 -0.03,-2.92 -0.01,-4.41l-0.05 -1.45c-0.04,-0.51 -0.18,-0.98 -0.67,-1.48 -0.4,-0.4 -1.04,-0.64 -1.43,-0.64 -0.52,-0.01 -0.84,0.05 -1.43,0.37zm-11.78 4.33c-0.27,0.24 -0.77,0.83 -0.98,1.12 -0.66,0.93 -0.76,2.29 -0.37,3.36 0.32,0.88 1.05,1.51 1.76,2.22 0.89,0.9 1.67,1.78 2.56,2.57 0.53,0.47 1.07,0.99 1.78,1.23 0.85,0.3 1.81,0.28 2.72,0.26 0.97,-0.03 1.73,0.06 2.71,-0.2 1.24,-0.32 2.41,-1.17 3.15,-2.28 0.45,-0.67 0.83,-1.58 0.92,-2.24 0.23,-1.78 0.08,-5.31 0.07,-7.26 -0.01,-0.34 0,-1.42 -0.12,-1.7 -0.29,-0.64 -1.31,-1.14 -2.07,-0.31 -0.64,0.68 -0.1,1.32 -0.6,1.66 -0.18,0.12 -0.38,0.12 -0.56,-0.01 -0.2,-0.14 -0.19,-0.35 -0.19,-0.52 0,-0.2 -0.01,-0.37 -0.01,-0.57 -0.01,-0.52 0.07,-1.8 -0.22,-2.23 -0.55,-0.82 -1.64,-0.77 -2.12,-0.05 -0.2,0.3 -0.26,0.8 -0.24,1.11 0.01,0.16 -0.01,1.74 -0.04,1.97 -0.02,0.1 -0.05,0.2 -0.16,0.28 -0.36,0.27 -0.73,-0.06 -0.81,-0.23 -0.03,-0.06 0.02,-3.03 -0.05,-3.64 -0.12,-1.05 -1.21,-1.36 -1.78,-1.04 -0.18,0.1 -0.39,0.31 -0.53,0.49 -0.22,0.3 -0.17,0.77 -0.19,1.13 0,0.19 0,0.38 0,0.57 -0.01,0.38 -0.01,0.73 -0.02,1.11 -0.01,0.36 0.02,0.73 -0.03,1.11 -0.01,0.18 0.01,0.39 -0.23,0.53 -0.17,0.11 -0.38,0.1 -0.55,-0.02 -0.27,-0.19 -0.21,-0.91 -0.22,-1.12l-0.02 -8.44c-0.05,-0.45 -0.06,-0.71 -0.58,-1.11 -0.69,-0.53 -1.79,-0.01 -1.9,0.79 -0.06,0.39 -0.05,10.14 -0.06,10.67 -0.01,0.58 0.01,1.67 -0.03,2.24 -0.01,0.14 0.02,0.43 -0.08,0.55 -0.23,0.32 -0.84,0.26 -0.87,-0.3 -0.03,-0.36 -0.01,-1.57 -0.04,-1.7z"/>
   <path id="c1_1" class="fil2" d="M8.67 9.22c-0.48,0 -0.94,0.15 -1.42,0.63 -0.55,0.56 -0.68,0.84 -0.73,1.46m3.51 0.26c-0.05,-0.45 -0.06,-0.71 -0.58,-1.11 -0.69,-0.52 -1.79,-0.01 -1.9,0.79"/>
   <path id="c1_2" class="fil3" d="M14.39 11.06c-0.1,-0.27 -0.02,-0.56 -0.4,-1.15 -0.28,-0.43 -0.62,-0.73 -1.05,-0.89 -0.72,-0.28 -1.46,-0.24 -2.23,0.27 -0.23,-0.2 -0.27,-0.76 -1.05,-1.23 -0.34,-0.2 -0.71,-0.31 -1.07,-0.32 -0.5,-0.02 -1,0.13 -1.41,0.43l0.01 -3.98c0.01,-1.39 -1.11,-2.31 -2.38,-2.3 -0.49,0.01 -0.95,0.16 -1.43,0.64 -0.54,0.56 -0.67,0.83 -0.73,1.45 -0.04,0.53 -0.02,8.9 -0.03,9.52 0,0.5 0.06,0.35 -0.29,0.72 -0.45,0.48 -0.93,0.97 -1.36,1.47 -0.73,0.84 -0.99,2.19 -0.97,2.94 0.02,0.85 0.26,1.99 1.07,2.91 0.87,0.99 2.07,1.94 2.99,2.88 1,1.02 1.44,1.82 2.64,2.34 1.08,0.45 1.78,0.41 2.86,0.43 0.83,-0.01 1.64,-0.03 2.47,-0.05 0.89,-0.02 2.36,-0.58 3.2,-1.25 1.01,-0.81 1.73,-1.73 2.19,-2.84 0.62,-1.51 0.55,-2.88 0.56,-4.39 0,-1.48 -0.03,-2.91 -0.01,-4.4l-0.06 -1.45c-0.03,-0.51 -0.18,-0.99 -0.66,-1.48 -0.4,-0.4 -1.05,-0.64 -1.44,-0.64 -0.51,-0.01 -0.83,0.04 -1.42,0.37zm-11.79 4.33c-0.26,0.24 -0.77,0.83 -0.97,1.12 -0.67,0.93 -0.77,2.29 -0.37,3.36 0.32,0.88 1.04,1.51 1.75,2.22 0.89,0.9 1.67,1.78 2.57,2.57 0.53,0.46 1.07,0.99 1.77,1.23 0.85,0.3 1.82,0.28 2.72,0.25 0.97,-0.02 1.73,0.07 2.72,-0.19 1.23,-0.32 2.4,-1.17 3.14,-2.28 0.45,-0.67 0.83,-1.59 0.92,-2.25 0.24,-1.77 0.08,-5.31 0.07,-7.25 -0.01,-0.35 0.01,-1.42 -0.12,-1.7 -0.29,-0.64 -1.31,-1.14 -2.07,-0.31 -0.63,0.68 -0.1,1.32 -0.6,1.66 -0.18,0.12 -0.37,0.12 -0.55,-0.01 -0.2,-0.14 -0.19,-0.35 -0.19,-0.52 0,-0.2 -0.02,-0.37 -0.02,-0.57 -0.01,-0.52 0.07,-1.8 -0.21,-2.23 -0.55,-0.82 -1.65,-0.77 -2.13,-0.05 -0.2,0.3 -0.25,0.79 -0.24,1.11 0.01,0.16 -0.01,1.74 -0.04,1.97 -0.01,0.1 -0.05,0.2 -0.16,0.28 -0.35,0.27 -0.73,-0.06 -0.8,-0.23 -0.03,-0.06 0.02,-3.03 -0.05,-3.64 -0.12,-1.05 -1.21,-1.36 -1.78,-1.04 -0.18,0.1 -0.4,0.3 -0.53,0.49 -0.23,0.3 -0.18,0.76 -0.19,1.13 -0.01,0.19 0,0.38 -0.01,0.56 0,0.39 -0.01,0.74 -0.02,1.12 0,0.36 0.02,0.73 -0.02,1.11 -0.02,0.18 0.01,0.39 -0.23,0.53 -0.17,0.11 -0.38,0.1 -0.55,-0.02 -0.27,-0.19 -0.22,-0.91 -0.22,-1.12l-0.03 -8.44c-0.04,-0.45 -0.06,-0.71 -0.58,-1.11 -0.69,-0.53 -1.78,-0.01 -1.9,0.79 -0.05,0.39 -0.04,10.13 -0.05,10.67 -0.01,0.57 0,1.67 -0.04,2.24 0,0.14 0.02,0.42 -0.07,0.55 -0.24,0.32 -0.84,0.26 -0.88,-0.3 -0.02,-0.37 0,-1.57 -0.04,-1.7z"/>
   <path id="c1_3" class="fil4" d="M17.76 11.06c-0.1,-0.27 -0.02,-0.56 -0.4,-1.15 -0.27,-0.43 -0.62,-0.73 -1.04,-0.89 -0.72,-0.28 -1.46,-0.24 -2.23,0.27 -0.23,-0.2 -0.27,-0.76 -1.05,-1.23 -0.34,-0.2 -0.71,-0.31 -1.08,-0.32 -0.5,-0.02 -0.99,0.13 -1.41,0.43l0.02 -3.98c0,-1.39 -1.12,-2.31 -2.38,-2.3 -0.49,0.01 -0.95,0.16 -1.43,0.64 -0.55,0.56 -0.68,0.83 -0.73,1.45 -0.04,0.53 -0.02,8.9 -0.03,9.52 0,0.5 0.06,0.35 -0.29,0.72 -0.45,0.48 -0.93,0.97 -1.36,1.47 -0.73,0.84 -0.99,2.19 -0.97,2.94 0.02,0.85 0.25,1.99 1.06,2.91 0.88,0.99 2.07,1.94 3,2.88 0.99,1.02 1.44,1.82 2.64,2.34 1.07,0.45 1.77,0.41 2.85,0.43 0.83,-0.01 1.65,-0.03 2.48,-0.05 0.88,-0.02 2.36,-0.58 3.19,-1.25 1.01,-0.81 1.74,-1.73 2.2,-2.84 0.62,-1.51 0.55,-2.88 0.55,-4.39 0.01,-1.48 -0.03,-2.91 -0.01,-4.4l-0.05 -1.45c-0.04,-0.51 -0.18,-0.99 -0.66,-1.48 -0.41,-0.4 -1.05,-0.64 -1.44,-0.64 -0.51,-0.01 -0.84,0.04 -1.43,0.37zm-11.78 4.33c-0.26,0.24 -0.77,0.83 -0.98,1.12 -0.66,0.93 -0.76,2.29 -0.37,3.36 0.33,0.88 1.05,1.51 1.76,2.22 0.89,0.9 1.67,1.78 2.57,2.57 0.53,0.46 1.07,0.99 1.77,1.23 0.85,0.3 1.82,0.28 2.72,0.25 0.97,-0.02 1.73,0.07 2.71,-0.19 1.24,-0.32 2.41,-1.17 3.15,-2.28 0.45,-0.67 0.83,-1.59 0.92,-2.25 0.24,-1.77 0.08,-5.31 0.07,-7.25 -0.01,-0.35 0.01,-1.42 -0.12,-1.7 -0.29,-0.64 -1.31,-1.14 -2.07,-0.31 -0.64,0.68 -0.1,1.32 -0.6,1.66 -0.18,0.12 -0.38,0.12 -0.55,-0.01 -0.21,-0.14 -0.19,-0.35 -0.2,-0.52 0,-0.2 -0.01,-0.37 -0.01,-0.57 -0.01,-0.52 0.07,-1.8 -0.22,-2.23 -0.55,-0.82 -1.64,-0.77 -2.12,-0.05 -0.2,0.3 -0.26,0.79 -0.24,1.11 0.01,0.16 -0.01,1.74 -0.04,1.97 -0.01,0.1 -0.05,0.2 -0.16,0.28 -0.36,0.27 -0.73,-0.06 -0.81,-0.23 -0.02,-0.06 0.02,-3.03 -0.05,-3.64 -0.12,-1.05 -1.21,-1.36 -1.78,-1.04 -0.18,0.1 -0.39,0.3 -0.52,0.49 -0.23,0.3 -0.18,0.76 -0.19,1.13 -0.01,0.19 -0.01,0.38 -0.01,0.56 -0.01,0.39 -0.01,0.74 -0.02,1.12 -0.01,0.36 0.02,0.73 -0.02,1.11 -0.02,0.18 0.01,0.39 -0.23,0.53 -0.17,0.11 -0.38,0.1 -0.55,-0.02 -0.27,-0.19 -0.22,-0.91 -0.22,-1.12l-0.03 -8.44c-0.05,-0.45 -0.06,-0.71 -0.58,-1.11 -0.69,-0.53 -1.79,-0.01 -1.9,0.79 -0.06,0.39 -0.05,10.13 -0.05,10.67 -0.01,0.57 0,1.67 -0.04,2.24 -0.01,0.14 0.02,0.42 -0.08,0.55 -0.23,0.32 -0.84,0.26 -0.87,-0.3 -0.02,-0.37 -0.01,-1.57 -0.04,-1.7z"/>
  </g>
 </g>
</svg>
