<svg width="100" height="54" viewBox="0 0 100 54" fill="none" xmlns="http://www.w3.org/2000/svg">
<g clip-path="url(#clip0_4199_681)">
<path d="M45.5281 25.1212H80.1176C80.318 24.5946 80.4966 24.0589 80.6497 23.5104H44.9941C45.1472 24.0589 45.3258 24.5946 45.5281 25.1212Z" fill="url(#paint0_linear_4199_681)"/>
<path d="M49.6921 31.5592H75.9522C76.457 31.0508 76.9326 30.5132 77.3772 29.9501H48.2671C48.7117 30.5132 49.1873 31.0508 49.6921 31.5592Z" fill="url(#paint1_linear_4199_681)"/>
<path d="M47.1354 28.3411H78.5087C78.8367 27.82 79.1374 27.2842 79.4107 26.7303H46.2334C46.5067 27.2842 46.8092 27.82 47.1354 28.3411Z" fill="url(#paint2_linear_4199_681)"/>
<path d="M81.3333 18.512C81.3333 8.2875 73.0458 0 62.8231 0C52.5985 0 44.311 8.2875 44.311 18.512C44.311 18.5685 44.3129 18.625 44.3129 18.6815H81.3314C81.3314 18.625 81.3333 18.5685 81.3333 18.512Z" fill="url(#paint3_linear_4199_681)"/>
<path d="M44.3965 20.2924C44.4475 20.8354 44.524 21.3729 44.6224 21.9014H81.0215C81.1199 21.3729 81.1964 20.8354 81.2474 20.2924H44.3965Z" fill="url(#paint4_linear_4199_681)"/>
<path d="M62.823 37.0222C64.4885 37.0222 66.1012 36.8017 67.6373 36.3881H58.0068C59.543 36.8017 61.1575 37.0222 62.823 37.0222Z" fill="url(#paint5_linear_4199_681)"/>
<path d="M53.9817 34.7791H71.6628C72.5284 34.3071 73.352 33.7677 74.1265 33.17H51.5181C52.2925 33.7677 53.1162 34.3071 53.9817 34.7791Z" fill="url(#paint6_linear_4199_681)"/>
<path d="M26.4769 39.9671H25.4966V40.9471H26.4769V39.9671Z" fill="#234E70"/>
<path d="M20.5962 43.8873H19.6162V44.8676H20.5962V43.8873Z" fill="#234E70"/>
<path d="M23.5366 41.9271H22.5566V42.9073H23.5366V41.9271Z" fill="#234E70"/>
<path d="M83.324 51.7284H84.304V50.7484H83.324H82.3438V51.7284H83.324Z" fill="#234E70"/>
<path d="M82.3438 49.7681H83.324V48.7881H82.3438V49.7681Z" fill="#234E70"/>
<path d="M81.3638 50.7484H82.3438V49.7681H81.3638V50.7484Z" fill="#234E70"/>
<path d="M80.3838 51.7284H79.4038V52.7084H80.3838H81.3641H82.3441V51.7284H81.3641H80.3838Z" fill="#234E70"/>
<path d="M79.4035 51.7284V50.7484H78.4235H77.4429V49.7681H76.4629V48.7881H75.4829H74.5029V49.7681H75.4829V50.7484H76.4629V51.7284H77.4429V52.7084H78.4235V51.7284H79.4035Z" fill="#234E70"/>
<path d="M74.503 45.8476H73.5225V46.8279H74.503H75.483V47.8079H76.463V48.7881H77.443H78.4235V49.7681H79.4035H80.3835V48.7881V47.8079H79.4035H78.4235V46.8279H77.443H76.463V45.8476H75.483H74.503Z" fill="#234E70"/>
<path d="M73.5225 47.8079V48.7881H74.503V47.8079H73.5225Z" fill="#234E70"/>
<path d="M72.5425 45.8476H73.5225V44.8676H72.5425V45.8476Z" fill="#234E70"/>
<path d="M72.5425 47.8079H71.5625V48.7881H72.5425V47.8079Z" fill="#234E70"/>
<path d="M71.5625 46.8279V45.8476H70.5825V46.8279H71.5625Z" fill="#234E70"/>
<path d="M68.6226 42.9073V43.8873V44.8676H69.6026V45.8476H70.5828V44.8676H71.5628H72.5428V43.8873H71.5628H70.5828V42.9073H69.6026H68.6226Z" fill="#234E70"/>
<path d="M62.7417 38.9871V39.9671H63.7217V40.947H64.702H65.682V41.927H66.6622V42.9073H67.6422H68.6225V41.927H67.6422V40.947H66.6622V39.9671H65.682H64.702V38.9871H63.7217H62.7417Z" fill="#234E70"/>
<path d="M61.7612 38.0065V38.9871H62.7415V38.0065H61.7612Z" fill="#234E70"/>
<path d="M60.7812 37.0266V38.0065H61.7612V37.0266H60.7812Z" fill="#234E70"/>
<path d="M50.98 38.0065H51.9602V37.0266H50.98V38.0065Z" fill="#234E70"/>
<path d="M49.9998 35.0665H49.0195V36.0465H49.9998V35.0665Z" fill="#234E70"/>
<path d="M48.0396 37.0266V38.0065H49.0195V37.0266H48.0396Z" fill="#234E70"/>
<path d="M46.0796 42.9073H47.0596V41.9271H46.0796V42.9073Z" fill="#234E70"/>
<path d="M46.0794 45.8476V44.8676H45.0991V45.8476H46.0794Z" fill="#234E70"/>
<path d="M46.0794 40.9471V39.9671H45.0991V40.9471H46.0794Z" fill="#234E70"/>
<path d="M45.0991 33.106V34.086H46.0794V35.0666H47.0594V34.086H48.0397H49.0196V33.106H48.0397H47.0594V32.126H46.0794V31.1461H45.0991V32.126V33.106Z" fill="#234E70"/>
<path d="M45.0992 52.7084H46.0795H47.0595H48.0398H49.0198H50H50.98H51.9603H52.9403H53.9203H54.9008H55.8808H56.8608H57.8408V51.7284H58.8211H59.8014H60.7814H61.7613V50.7484H62.7416H63.7216V51.7284H64.7019V50.7484V49.7681V48.7881H65.6819V49.7681H66.6621H67.6421V50.7484H68.6224H69.6024V51.7284H70.5827H71.5627H72.5427H73.5226H74.5032V50.7484H73.5226H72.5427V49.7681H71.5627H70.5827V48.7881H69.6024V47.8079H68.6224V46.8279H67.6421V45.8476H66.6621V44.8676H65.6819V43.8874V42.9074H64.7019V41.9271H63.7216H62.7416V40.9471H61.7613V39.9671H60.7814V38.9871H59.8014H58.8211V38.0066H57.8408V37.0266H56.8608V36.0466V35.0666V34.086H55.8808H54.9008H53.9203V33.106H52.9403V32.126H51.9603V31.1461H50.98V32.126V33.106V34.086H51.9603V35.0666V36.0466V37.0266H52.9403V38.0066V38.9871H53.9203V39.9671V40.9471H54.9008V41.9271V42.9074H55.8808V43.8874V44.8676H56.8608V45.8476H57.8408V46.8279V47.8079H56.8608V46.8279H55.8808V45.8476V44.8676H54.9008V43.8874V42.9074H53.9203V41.9271H52.9403V40.9471V39.9671H51.9603V40.9471V41.9271V42.9074V43.8874V44.8676V45.8476V46.8279H50.98V47.8079H50V46.8279V45.8476V44.8676V43.8874H50.98V42.9074V41.9271V40.9471H50V41.9271V42.9074H49.0198V43.8874V44.8676H48.0398V45.8476H47.0595V46.8279H46.0795V47.8079V48.7881H45.0992V47.8079H44.1193V48.7881V49.7681H43.139V50.7484V51.7284H42.159H41.179V52.7084H40.1987V53.6889H41.179H42.159H43.139H44.1193V52.7084H45.0992ZM49.0198 49.7681H50V50.7484H49.0198V49.7681Z" fill="#234E70"/>
<path d="M45.0991 45.8476H44.1191V46.8279H45.0991V45.8476Z" fill="#234E70"/>
<path d="M44.1191 38.9871V39.9671H45.0991V38.9871V38.0065H44.1191V38.9871Z" fill="#234E70"/>
<path d="M44.1191 36.0465H45.0991V35.0665H44.1191V36.0465Z" fill="#234E70"/>
<path d="M43.1387 43.8873H44.1189V42.9073H43.1387V43.8873Z" fill="#234E70"/>
<path d="M44.1189 33.106V32.126H43.1387V33.106V34.086H44.1189V33.106Z" fill="#234E70"/>
<path d="M42.1587 48.7881V49.7681H43.1387V48.7881H42.1587Z" fill="#234E70"/>
<path d="M43.1387 44.8676H42.1587V45.8476H43.1387V44.8676Z" fill="#234E70"/>
<path d="M42.1587 41.9271V42.9073H43.1387V41.9271H42.1587Z" fill="#234E70"/>
<path d="M43.1387 35.0665V34.086H42.1587V35.0665V36.0465V37.0265H43.1387V36.0465V35.0665Z" fill="#234E70"/>
<path d="M41.1787 43.8873H42.1587V42.9073H41.1787V43.8873Z" fill="#234E70"/>
<path d="M41.1787 40.9471V41.9271H42.1587V40.9471H41.1787Z" fill="#234E70"/>
<path d="M40.1987 33.106V34.086H41.179V33.106H40.1987Z" fill="#234E70"/>
<path d="M39.2183 43.8873V44.8676H40.1985V43.8873V42.9073H39.2183V43.8873Z" fill="#234E70"/>
<path d="M40.1985 39.9671H41.1788V38.9871H42.1588V38.0065V37.0266H41.1788V38.0065H40.1985H39.2183V38.9871V39.9671H40.1985Z" fill="#234E70"/>
<path d="M40.1985 36.0466H39.2183V37.0266H40.1985V36.0466Z" fill="#234E70"/>
<path d="M39.2184 51.7284H40.1987V50.7484V49.7681H41.1789V48.7881H42.1589V47.8079V46.8279V45.8476H41.1789V46.8279H40.1987V47.8079H39.2184V48.7881V49.7681H38.2384V50.7484V51.7284H37.2584V50.7484V49.7681H38.2384V48.7881V47.8079V46.8279H37.2584V47.8079V48.7881H36.2784V49.7681V50.7484H35.2979H34.3179V51.7284V52.7084H33.3379V53.6889H34.3179H35.2979V52.7084H36.2784V53.6889H37.2584H38.2384H39.2184V52.7084V51.7284Z" fill="#234E70"/>
<path d="M39.2183 45.8476H38.2383V46.8279H39.2183V45.8476Z" fill="#234E70"/>
<path d="M37.2583 34.086V33.106H36.2783V34.086V35.0666H37.2583V34.086Z" fill="#234E70"/>
<path d="M37.2583 31.1461H36.2783V32.126H37.2583V31.1461Z" fill="#234E70"/>
<path d="M35.2979 37.0266V38.0065H36.2784V37.0266H35.2979Z" fill="#234E70"/>
<path d="M33.3379 40.9471H34.3179V39.9671H33.3379V40.9471Z" fill="#234E70"/>
<path d="M33.3379 35.0666H34.3179V34.086V33.106V32.126H33.3379V33.106H32.3579V34.086H33.3379V35.0666Z" fill="#234E70"/>
<path d="M33.3379 36.0466H32.3579V37.0266H33.3379V36.0466Z" fill="#234E70"/>
<path d="M32.3577 38.0065V37.0266H31.3774V38.0065H32.3577Z" fill="#234E70"/>
<path d="M32.3577 34.086H31.3774V35.0665H32.3577V34.086Z" fill="#234E70"/>
<path d="M31.3777 38.0065H30.3975V38.9871H31.3777V38.0065Z" fill="#234E70"/>
<path d="M31.3777 35.0665H30.3975V36.0465H31.3777V35.0665Z" fill="#234E70"/>
<path d="M30.3975 39.9671H29.4175V40.9471H30.3975V39.9671Z" fill="#234E70"/>
<path d="M29.4175 42.9073V41.9271H28.4375V42.9073H29.4175Z" fill="#234E70"/>
<path d="M28.4375 38.9871V39.9671H29.4175V38.9871H28.4375Z" fill="#234E70"/>
<path d="M27.457 43.8873V42.9073H26.4771V43.8873H27.457Z" fill="#234E70"/>
<path d="M27.457 40.9471H26.4771V41.9271H27.457V40.9471Z" fill="#234E70"/>
<path d="M26.4769 44.8676V43.8873H25.4966V44.8676H26.4769Z" fill="#234E70"/>
<path d="M24.5169 45.8476H25.4969V44.8676H24.5169V43.8873V42.9073H23.5366V43.8873H22.5566V44.8676H23.5366V45.8476H22.5566V46.8279V47.8079H23.5366H24.5169V46.8279V45.8476Z" fill="#234E70"/>
<path d="M21.5765 49.7681V48.7881H22.5568V47.8079H21.5765H20.5962V48.7881H19.6162V49.7681H18.6362V50.7484H19.6162H20.5962V49.7681H21.5765Z" fill="#234E70"/>
<path d="M20.5962 45.8476H19.6162V46.8279H20.5962V45.8476Z" fill="#234E70"/>
<path d="M19.6162 47.8079V46.8279H18.6362H17.6562V47.8079H18.6362H19.6162Z" fill="#234E70"/>
<path d="M17.6558 47.8079H16.6753V48.7881H17.6558V47.8079Z" fill="#234E70"/>
<path d="M15.6953 52.7084H16.6753V51.7284H15.6953H14.7153H13.7354V52.7084V53.6889H14.7153V52.7084H15.6953Z" fill="#234E70"/>
<path d="M14.7153 50.7484H15.6953V49.7681H16.6753V48.7881H15.6953H14.7153V49.7681H13.7354V50.7484H14.7153Z" fill="#234E70"/>
<path d="M12.7552 50.7484H11.7749V51.7284H12.7552H13.7354V50.7484H12.7552Z" fill="#234E70"/>
<path d="M13.7356 47.8079H12.7554V48.7881H13.7356V47.8079Z" fill="#234E70"/>
<path d="M11.7747 52.7084V51.7284H10.7947H9.81476H8.83448V52.7084H7.85449V53.6889H8.83448H9.81476H10.7947V52.7084H11.7747Z" fill="#234E70"/>
<path d="M3.93409 51.7284H2.9541V52.7084H3.93409V51.7284Z" fill="#234E70"/>
<path d="M0.993664 52.7084H0.0136719V53.6889H0.993664H1.97394V52.7084H0.993664Z" fill="#234E70"/>
<path d="M50.98 30.1658V29.1855H50V30.1658H50.98Z" fill="#E9F3F8"/>
<path d="M46.0794 24.2853V25.2652H45.0991V26.2452V27.2255V28.2055H46.0794V29.1855V30.1658H47.0594V31.146H48.0397V30.1658H49.0196V29.1855V28.2055H49.9999V27.2255V26.2452H49.0196V25.2652V24.2853V23.305H48.0397V22.3247H47.0594H46.0794V23.305V24.2853Z" fill="#E9F3F8"/>
<path d="M37.2583 29.1855H36.2783V30.1658H37.2583V29.1855Z" fill="#E9F3F8"/>
<path d="M36.2784 30.1658H35.2979V31.146H36.2784V30.1658Z" fill="#E9F3F8"/>
<path d="M35.2979 31.1461H34.3179V32.126H35.2979V31.1461Z" fill="#E9F3F8"/>
<path d="M99.0061 52.7084H98.0262V51.7284H97.0462H96.0656H95.0856H94.1056H93.1256V50.7484H92.1451H91.1651H90.1851H89.2051V49.7681H88.2248H87.2446H86.2646H85.2846V48.7881H84.3043H83.3243V49.7681H82.344V50.7484H83.3243H84.3043V51.7284H83.3243H82.344V52.7084H81.3641H80.3838V53.6889H81.3641H82.344H83.3243H84.3043H85.2846H86.2646H87.2446H88.2248H89.2051H90.1851H91.1651H92.1451H93.1256H94.1056H95.0856H96.0656H97.0462H98.0262H99.0061H99.9861V52.7084H99.0061Z" fill="#1F4B66"/>
<path d="M80.3834 49.7681H79.4034H78.4234V48.7881H77.4429H76.4629V49.7681H77.4429V50.7484H78.4234H79.4034V51.7284H80.3834H81.3637H82.3437V50.7484H81.3637V49.7681H82.3437V48.7881H83.324V47.8079H82.3437H81.3637H80.3834V48.7881V49.7681Z" fill="#1F4B66"/>
<path d="M79.4036 52.7084H78.4236H77.4431H76.4631V51.7284H75.4831H74.5031H73.5225H72.5425H71.5625H70.5826H69.6023V50.7484H68.6223H67.642V49.7681H66.662H65.6818V48.7881H64.7018V49.7681V50.7484V51.7284H63.7215V50.7484H62.7415H61.7612V51.7284H60.7812H59.8012H58.821H57.8407V52.7084H56.8607H55.8807H54.9007H53.9202H52.9402H51.9602H50.9799H49.9999H49.0197H48.0397H47.0594H46.0794H45.0991H44.1191V53.6889H45.0991H46.0794H47.0594H48.0397H49.0197H49.9999H50.9799H51.9602H52.9402H53.9202H54.9007H55.8807H56.8607H57.8407H58.821H59.8012H60.7812H61.7612H62.7415H63.7215H64.7018H65.6818H66.662H67.642H68.6223H69.6023H70.5826H71.5625H72.5425H73.5225H74.5031H75.4831H76.4631H77.4431H78.4236H79.4036H80.3836V52.7084H79.4036Z" fill="#224D68"/>
<path d="M78.4238 51.7284V52.7084H79.4038V51.7284H78.4238Z" fill="#1F4B66"/>
<path d="M79.4038 47.8079H80.3838V46.8279H79.4038H78.4238V47.8079H79.4038Z" fill="#1F4B66"/>
<path d="M76.4629 51.7284V52.7084H77.4429V51.7284H76.4629Z" fill="#1F4B66"/>
<path d="M77.4429 46.8279H78.4234V45.8476H77.4429H76.4629V46.8279H77.4429Z" fill="#1F4B66"/>
<path d="M74.503 45.8476H75.483H76.463V44.8676H75.483H74.503H73.5225V45.8476H74.503Z" fill="#1F4B66"/>
<path d="M73.5225 44.8676V43.8873H72.5425V44.8676H73.5225Z" fill="#1F4B66"/>
<path d="M71.5625 43.8873H72.5425V42.9073H71.5625H70.5825V43.8873H71.5625Z" fill="#1F4B66"/>
<path d="M69.6026 42.9073H70.5828V41.9271H69.6026H68.6226V42.9073H69.6026Z" fill="#1F4B66"/>
<path d="M68.6224 41.9271V40.9471H67.6421V41.9271H68.6224Z" fill="#1F4B66"/>
<path d="M67.6421 40.9471V39.9671H66.6621V40.9471H67.6421Z" fill="#1F4B66"/>
<path d="M65.6817 39.9671H66.6619V38.9871H65.6817H64.7017V39.9671H65.6817Z" fill="#1F4B66"/>
<path d="M55.8809 46.8279H56.8609V47.8079H57.8408V46.8279V45.8476H56.8609V44.8676H55.8809V45.8476V46.8279Z" fill="#31617F"/>
<path d="M55.8809 32.126V31.1461H54.9009V32.126V33.106H55.8809V34.086H56.8609V35.0666V36.0466V37.0266H57.8409V38.0066H58.8211V38.9871H59.8014H60.7814V39.9671H61.7614V40.9471H62.7417V41.9271H63.7216H64.7019V42.9074H65.6819V43.8874V44.8676H66.6622V45.8476H67.6422V46.8279H68.6224V47.8079H69.6024V48.7881H70.5827V49.7681H71.5627H72.5427V50.7484H73.5227H74.5032V51.7284H75.4832H76.4632V50.7484H75.4832V49.7681H74.5032V48.7881H73.5227V47.8079H74.5032V48.7881H75.4832H76.4632V47.8079H75.4832V46.8279H74.5032H73.5227V45.8476H72.5427V44.8676H71.5627H70.5827V45.8476H71.5627V46.8279H70.5827V45.8476H69.6024V44.8676H68.6224V43.8874V42.9074H67.6422H66.6622V41.9271H65.6819V40.9471H64.7019H63.7216V39.9671H62.7417V38.9871H61.7614V38.0066H60.7814V37.0266H61.7614V38.0066H62.7417V38.9871H63.7216H64.7019V38.0066H63.7216V37.0266H62.7417V36.0466H61.7614V35.0666H60.7814H59.8014V34.086H58.8211V33.106H57.8409V32.126H56.8609H55.8809ZM71.5627 47.8079H72.5427V48.7881H71.5627V47.8079Z" fill="#1F4B66"/>
<path d="M55.8809 32.126H56.8609H57.8408V31.1461H56.8609H55.8809V32.126Z" fill="#D4E3E8"/>
<path d="M56.8609 31.146V30.1658H55.8809V31.146H56.8609Z" fill="#DAE8EE"/>
<path d="M54.9009 44.8676H55.8809V43.8873V42.9073H54.9009V43.8873V44.8676Z" fill="#31617F"/>
<path d="M54.901 33.106V32.126H53.9204H52.9404V33.106H53.9204V34.086H54.901H55.881V33.106H54.901Z" fill="#D4E3E8"/>
<path d="M54.9009 31.146H55.8809V30.1658H54.9009V31.146Z" fill="#D4E3E8"/>
<path d="M55.8809 30.1658V29.1855H54.9009V30.1658H55.8809Z" fill="#DAE8EE"/>
<path d="M53.9204 30.1658V31.146H54.901V30.1658H53.9204Z" fill="#1F4B66"/>
<path d="M53.9204 30.1658H54.901V29.1855H53.9204V30.1658Z" fill="#D4E3E8"/>
<path d="M54.901 29.1855V28.2055H53.9204V29.1855H54.901Z" fill="#DAE8EE"/>
<path d="M52.9404 29.1855V30.1658H53.9204V29.1855H52.9404Z" fill="#1F4B66"/>
<path d="M52.9404 29.1855H53.9204V28.2055H52.9404V29.1855Z" fill="#D4E3E8"/>
<path d="M51.9604 31.1461V32.126H52.9404V31.1461H51.9604Z" fill="#D4E3E8"/>
<path d="M50.98 43.8873H50V44.8676V45.8476V46.8279V47.8079H50.98V46.8279H51.9603V45.8476V44.8676V43.8873V42.9073H50.98V43.8873Z" fill="#31617F"/>
<path d="M50.98 40.9471V41.9271V42.9074H51.9602V41.9271V40.9471V39.9671H50.98V40.9471Z" fill="#224D68"/>
<path d="M49.9999 30.1658V29.1855V28.2055H49.0196V29.1855V30.1658H48.0397V31.146H47.0594V30.1658H46.0794V29.1855V28.2055H45.0991V29.1855V30.1658V31.146H46.0794V32.126H47.0594V33.106H48.0397H49.0196H49.9999V32.126H49.0196V31.146H49.9999H50.9799V30.1658H49.9999Z" fill="#D4E3E8"/>
<path d="M49.9998 49.7681H49.0195V50.7484H49.9998V49.7681Z" fill="#31617F"/>
<path d="M49.9998 38.9871V38.0066V37.0266V36.0466H49.0195V37.0266V38.0066V38.9871V39.9671V40.9471V41.9271V42.9074H49.9998V41.9271V40.9471V39.9671V38.9871Z" fill="#224D68"/>
<path d="M49.0195 31.1461V32.126H49.9997V33.106H49.0195V34.086H48.0395H47.0592V35.0666H46.0792V34.086H45.0989V35.0666V36.0466V37.0266V38.0066V38.9871V39.9671H46.0792V40.9471H45.0989V39.9671H44.119V40.9471V41.9271V42.9074V43.8873H43.1387V44.8676V45.8476H42.1587V46.8279V47.8079V48.7881H43.1387V47.8079V46.8279H44.119V45.8476V44.8676H45.0989V43.8873H46.0792V44.8676V45.8476H45.0989V46.8279V47.8079V48.7881H46.0792V47.8079V46.8279H47.0592V45.8476V44.8676H48.0395V43.8873H49.0195V42.9074V41.9271V40.9471V39.9671V38.9871V38.0066H48.0395V37.0266H49.0195V36.0466V35.0666H49.9997V36.0466V37.0266V38.0066V38.9871V39.9671V40.9471H50.9797V39.9671H51.96H52.94V40.9471V41.9271H53.92V42.9074H54.9005V41.9271V40.9471H53.92V39.9671V38.9871H52.94V38.0066V37.0266H51.96V38.0066H50.9797V37.0266H51.96V36.0466V35.0666V34.086H50.9797V33.106V32.126V31.1461H49.9997H49.0195ZM47.0592 42.9074H46.0792V41.9271H47.0592V42.9074Z" fill="#31617F"/>
<path d="M48.0396 44.8676H49.0195V43.8873H48.0396V44.8676Z" fill="#224D68"/>
<path d="M49.0195 23.305V24.2853V25.2652V26.2452H49.9998V27.2255V28.2055V29.1855H50.9798V30.1658V31.146H51.9601H52.9401V32.126H53.9201H54.9006V31.146H53.9201V30.1658H52.9401V29.1855V28.2055H53.9201V27.2255H52.9401V26.2452H51.9601V25.2652H50.9798V24.2853V23.305H49.9998V22.3247H49.0195H48.0396V23.305H49.0195Z" fill="#DAE8EE"/>
<path d="M47.0596 45.8476H48.0398V44.8676H47.0596V45.8476Z" fill="#224D68"/>
<path d="M46.0794 43.8873H45.0991V44.8676H46.0794V43.8873Z" fill="#224D68"/>
<path d="M44.1189 46.8279H43.1387V47.8079V48.7881V49.7681H44.1189V48.7881V47.8079H45.0989V46.8279H44.1189Z" fill="#224D68"/>
<path d="M45.0991 44.8676H44.1191V45.8476H45.0991V44.8676Z" fill="#224D68"/>
<path d="M44.1191 37.0266V38.0066H45.0991V37.0266V36.0466H44.1191V37.0266Z" fill="#224D68"/>
<path d="M44.1191 35.0665H45.0991V34.086H44.1191V35.0665Z" fill="#42748D"/>
<path d="M44.1191 24.2853V25.2653H45.0991V24.2853H44.1191Z" fill="#D4E3E8"/>
<path d="M43.1387 40.9471V41.9271V42.9074H44.1189V41.9271V40.9471V39.9671H43.1387V40.9471Z" fill="#224D68"/>
<path d="M44.1189 37.0265V36.0465V35.0665H43.1387V36.0465V37.0265V38.0065V38.9871H44.1189V38.0065V37.0265Z" fill="#42748D"/>
<path d="M44.1189 35.0665V34.086H43.1387V35.0665H44.1189Z" fill="#31617F"/>
<path d="M42.1587 50.7484H43.1387V49.7681H42.1587V50.7484Z" fill="#224D68"/>
<path d="M43.1387 44.8676V43.8873V42.9073H42.1587V43.8873H41.1787V44.8676V45.8476H42.1587V44.8676H43.1387Z" fill="#224D68"/>
<path d="M42.1587 33.106V34.086H43.1387V33.106V32.126H44.119V33.106V34.086H45.0989V33.106V32.126V31.146V30.1658V29.1855H44.119V30.1658V31.146H43.1387V30.1658H42.1587V31.146V32.126V33.106Z" fill="#31617F"/>
<path d="M42.159 49.7681V48.7881H41.179V49.7681H40.1987V50.7484V51.7284H41.179H42.159H43.139V50.7484H42.159V49.7681Z" fill="#31617F"/>
<path d="M42.159 35.0665V34.086H41.179V35.0665V36.0465H40.1987V37.0265V38.0065H41.179V37.0265H42.159V36.0465V35.0665Z" fill="#31617F"/>
<path d="M41.1787 34.086H42.1587V33.106V32.126V31.1461H41.1787V32.126V33.106V34.086Z" fill="#42748D"/>
<path d="M40.1987 52.7084H41.179V51.7284H40.1987V52.7084Z" fill="#224D68"/>
<path d="M40.1987 46.8279H41.179V45.8476H40.1987V46.8279Z" fill="#224D68"/>
<path d="M41.1788 43.8873V42.9073H42.1588V41.9271H41.1788V40.9471H42.1588V41.9271H43.1388V40.9471V39.9671H44.1191V38.9871H43.1388V38.0065V37.0266H42.1588V38.0065V38.9871H41.1788V39.9671H40.1986V40.9471V41.9271V42.9073V43.8873V44.8676H39.2183H38.2383H37.2583V45.8476V46.8279H38.2383V45.8476H39.2183V46.8279H38.2383V47.8079V48.7881V49.7681H39.2183V48.7881V47.8079H40.1986V46.8279V45.8476H41.1788V44.8676V43.8873Z" fill="#31617F"/>
<path d="M41.1788 36.0465V35.0665V34.086H40.1985V35.0665H39.2183V36.0465H40.1985H41.1788Z" fill="#42748D"/>
<path d="M41.179 26.2452H40.1987V27.2255H41.179V26.2452Z" fill="#D4E3E8"/>
<path d="M40.1985 51.7284H39.2183V52.7084V53.6889H40.1985V52.7084V51.7284Z" fill="#31617F"/>
<path d="M40.1985 37.0266H39.2183V38.0065H40.1985V37.0266Z" fill="#224D68"/>
<path d="M40.1985 34.086V33.106H41.1788V32.126H40.1985H39.2183V33.106V34.086V35.0666H40.1985V34.086Z" fill="#31617F"/>
<path d="M40.1985 31.146V30.1658H39.2183V31.146V32.126H40.1985V31.146Z" fill="#42748D"/>
<path d="M39.2183 44.8676V43.8873V42.9074H40.1986V41.9271V40.9471V39.9671H39.2183V40.9471V41.9271H38.2383V42.9074V43.8873H37.2583V44.8676H38.2383H39.2183Z" fill="#42748D"/>
<path d="M39.2183 38.9871H38.2383V39.9671V40.947H39.2183V39.9671V38.9871Z" fill="#224D68"/>
<path d="M39.2183 33.106V32.126H38.2383V33.106H37.2583V34.086V35.0666V36.0466V37.0266H38.2383V36.0466V35.0666H39.2183V34.086V33.106Z" fill="#42748D"/>
<path d="M37.2583 50.7484V51.7284H38.2383V50.7484V49.7681H37.2583V50.7484Z" fill="#31617F"/>
<path d="M38.2383 42.9073V41.9271H37.2583V42.9073V43.8873H38.2383V42.9073Z" fill="#224D68"/>
<path d="M38.2383 28.2055H39.2183V27.2255H40.1986V26.2452H41.1788V27.2255H40.1986V28.2055H41.1788V29.1855H42.1588V28.2055H43.1388V27.2255V26.2452H44.1191V27.2255V28.2055V29.1855H45.0991V28.2055V27.2255V26.2452V25.2652H44.1191V24.2853H45.0991V25.2652H46.0793V24.2853V23.305V22.3247H45.0991H44.1191H43.1388H42.1588H41.1788V23.305H40.1986V24.2853V25.2652H39.2183V26.2452H38.2383V27.2255H37.2583V28.2055V29.1855H38.2383V28.2055Z" fill="#FCFEFF"/>
<path d="M36.2783 47.8079H37.2583V46.8279H36.2783V47.8079Z" fill="#42748D"/>
<path d="M36.2783 38.0065H37.2583V37.0266H36.2783V38.0065Z" fill="#42748D"/>
<path d="M37.2583 35.0665H36.2783V36.0465V37.0265H37.2583V36.0465V35.0665Z" fill="#31617F"/>
<path d="M37.2583 31.146V32.126H36.2783V33.106H37.2583H38.2383V32.126H39.2183V31.146V30.1658H40.1986V31.146V32.126H41.1788V31.146H42.1588V30.1658H43.1388V31.146H44.1191V30.1658V29.1855V28.2055V27.2255V26.2452H43.1388V27.2255V28.2055H42.1588V29.1855H41.1788V28.2055H40.1986V27.2255H39.2183V28.2055H38.2383V29.1855H37.2583V30.1658H36.2783V31.146H37.2583Z" fill="#D4E3E8"/>
<path d="M35.2979 52.7084V53.6889H36.2784V52.7084H35.2979Z" fill="#31617F"/>
<path d="M35.2979 47.8079V48.7881V49.7681V50.7484H36.2784V49.7681V48.7881H37.2584V47.8079H36.2784H35.2979Z" fill="#31617F"/>
<path d="M35.2979 37.0265H36.2784V36.0465V35.0665H35.2979V36.0465V37.0265Z" fill="#224D68"/>
<path d="M36.2784 32.126V31.1461H35.2979V32.126H36.2784Z" fill="#D4E3E8"/>
<path d="M34.3179 37.0266V38.0065H33.3379V38.9871V39.9671H34.3179H35.2979V38.9871V38.0065V37.0266H34.3179Z" fill="#224D68"/>
<path d="M34.3179 37.0265H35.2979V36.0465V35.0665H34.3179V36.0465V37.0265Z" fill="#31617F"/>
<path d="M35.2979 34.086V33.106H34.3179V34.086V35.0666H35.2979V34.086Z" fill="#42748D"/>
<path d="M35.2979 33.106V34.086V35.0666H36.2784V34.086V33.106V32.126H35.2979H34.3179V33.106H35.2979Z" fill="#31617F"/>
<path d="M34.3177 52.7084V51.7284V50.7484H35.2977V49.7681V48.7881V47.8079H36.2782V46.8279H37.2582V45.8476V44.8676V43.8873H36.2782V44.8676V45.8476H35.2977V46.8279H34.3177V47.8079V48.7881V49.7681H33.3377V50.7484H32.3577V51.7284H31.3774V52.7084V53.6889H32.3577H33.3377V52.7084H34.3177Z" fill="#224D68"/>
<path d="M33.3379 41.9271H34.3179V40.9471H33.3379V41.9271Z" fill="#31617F"/>
<path d="M33.3379 38.0065H34.3179V37.0266H33.3379V38.0065Z" fill="#31617F"/>
<path d="M34.3179 37.0265V36.0465V35.0665H33.3379V36.0465V37.0265H34.3179Z" fill="#42748D"/>
<path d="M33.3379 39.9671H32.3579V40.9471V41.9271V42.9074H33.3379V41.9271V40.9471V39.9671Z" fill="#224D68"/>
<path d="M32.3579 39.9671H33.3379V38.9871H32.3579V39.9671Z" fill="#31617F"/>
<path d="M32.358 40.9471H31.3778V41.9271H30.3975V42.9073H29.4175V43.8873H28.4375V44.8676V45.8476H29.4175V44.8676H30.3975V43.8873H31.3778V42.9073H32.358V41.9271V40.9471Z" fill="#31617F"/>
<path d="M31.3774 37.0265H32.3577V36.0465H33.3377V35.0665V34.086H32.3577V35.0665H31.3774V36.0465V37.0265Z" fill="#31617F"/>
<path d="M31.3778 51.7283H32.358V50.7484H33.338V49.7681H34.318V48.7881V47.8078V46.8278H35.298V45.8476H36.2786V44.8676V43.8873H37.2585V42.9073V41.927H38.2385H39.2185V40.947H38.2385V39.967V38.9871H39.2185V38.0065V37.0265V36.0465V35.0665H38.2385V36.0465V37.0265H37.2585V38.0065H36.2786V38.9871V39.967V40.947H35.298V41.927V42.9073H34.318V43.8873V44.8676H33.338V45.8476H32.358V46.8278H33.338V47.8078H32.358V48.7881H31.3778V49.7681V50.7484H30.3975H29.4175V51.7283H28.4375V52.7083V53.6889H29.4175H30.3975H31.3778V52.7083V51.7283Z" fill="#31617F"/>
<path d="M31.3777 47.8079V46.8279H30.3975V47.8079H31.3777Z" fill="#31617F"/>
<path d="M31.3777 37.0266H30.3975V38.0065H31.3777V37.0266Z" fill="#31617F"/>
<path d="M29.4175 42.9073H30.3975V41.9271H31.3777V40.9471H32.358V39.9671V38.9871H33.338V38.0065V37.0266H32.358V38.0065H31.3777V38.9871H30.3975H29.4175V39.9671H30.3975V40.9471H29.4175V41.9271V42.9073Z" fill="#42748D"/>
<path d="M30.3975 38.0066V37.0266H31.3778V36.0466H30.3975H29.4175V37.0266H28.4375V38.0066H29.4175H30.3975Z" fill="#42748D"/>
<path d="M29.4175 40.9471H28.4375V41.9271H29.4175V40.9471Z" fill="#31617F"/>
<path d="M28.4374 51.7284H29.4174V50.7484H30.3974H31.3777V49.7681V48.7881H32.3579V47.8078H33.3379V46.8279H32.3579V45.8476H33.3379V44.8676H34.3179V43.8873V42.9073H35.2979V41.9271V40.9471H36.2785V39.9671V38.9871V38.0065H35.2979V38.9871V39.9671H34.3179V40.9471V41.9271H33.3379V42.9073H32.3579V43.8873V44.8676H31.3777V45.8476H30.3974V46.8279H31.3777V47.8078H30.3974V46.8279H29.4174V47.8078H28.4374V48.7881H27.4571V49.7681H26.4772V50.7484H25.4969V51.7284H24.5169V52.7084H23.5366V53.6889H24.5169H25.4969H26.4772H27.4571H28.4374V52.7084V51.7284Z" fill="#42748D"/>
<path d="M28.4371 43.8873H29.4171V42.9073H28.4371H27.4569V43.8873H26.4769V44.8676H25.4966V45.8476H24.5166V46.8279V47.8079H25.4966V46.8279H26.4769V45.8476H27.4569H28.4371V44.8676V43.8873Z" fill="#42748D"/>
<path d="M28.4373 42.9073V41.9271H27.457H26.4771V42.9073H27.457H28.4373Z" fill="#31617F"/>
<path d="M28.4373 39.9671V38.9871H29.4173H30.3973V38.0065H29.4173H28.4373H27.457V38.9871H26.4771V39.9671H27.457H28.4373Z" fill="#31617F"/>
<path d="M27.457 40.9471V41.9271H28.4373V40.9471H29.4173V39.9671H28.4373H27.457H26.4771V40.9471H27.457Z" fill="#42748D"/>
<path d="M26.4769 42.9073H25.4966V43.8873H26.4769V42.9073Z" fill="#31617F"/>
<path d="M26.4769 41.9271V40.9471H25.4966H24.5166V41.9271H25.4966H26.4769Z" fill="#31617F"/>
<path d="M25.4966 44.8676V43.8873H24.5166V44.8676H25.4966Z" fill="#31617F"/>
<path d="M24.5166 43.8873H25.4966V42.9073H26.4769V41.9271H25.4966H24.5166V42.9073V43.8873Z" fill="#42748D"/>
<path d="M24.5169 42.9073V41.9271H23.5366V42.9073H24.5169Z" fill="#31617F"/>
<path d="M22.5566 52.7084V53.6889H23.5366V52.7084H22.5566Z" fill="#31617F"/>
<path d="M23.5367 52.7084H24.517V51.7284H25.497V50.7484H26.4773V49.7681H27.4573V48.7881H28.4375V47.8079H29.4175V46.8279H30.3975V45.8476H31.3778V44.8676H32.3581V43.8873V42.9073H31.3778V43.8873H30.3975V44.8676H29.4175V45.8476H28.4375V46.8279H27.4573V47.8079H26.4773V48.7881H25.497V49.7681H24.517V50.7484H23.5367V51.7284H22.5567H21.5765V52.7084H20.5962V53.6889H21.5765H22.5567V52.7084H23.5367Z" fill="#224D68"/>
<path d="M22.5567 47.8079V48.7881H21.5765V49.7681H20.5962V50.7484H21.5765H22.5567V49.7681H23.5367V48.7881H24.517V47.8079H23.5367H22.5567Z" fill="#42748D"/>
<path d="M23.5364 43.8873V42.9073H22.5564H21.5762V43.8873H22.5564H23.5364Z" fill="#31617F"/>
<path d="M22.5564 46.8279H21.5762V47.8079H22.5564V46.8279Z" fill="#31617F"/>
<path d="M21.5765 52.7084V51.7284H22.5568H23.5368V50.7484H24.517V49.7681H25.497V48.7881H26.4773V47.8079H27.4573V46.8279H28.4376V45.8476H27.4573H26.4773V46.8279H25.497V47.8079H24.517V48.7881H23.5368V49.7681H22.5568V50.7484H21.5765H20.5962V51.7284H19.6162H18.6362V52.7084H17.6562V53.6889H18.6362H19.6162H20.5962V52.7084H21.5765Z" fill="#31617F"/>
<path d="M21.5765 44.8676H20.5962V45.8476H21.5765V44.8676Z" fill="#31617F"/>
<path d="M21.5765 44.8676V45.8476H20.5962V46.8279H19.6162V47.8079H20.5962H21.5765V46.8279H22.5567V45.8476H23.5367V44.8676H22.5567V43.8873H21.5765H20.5962V44.8676H21.5765Z" fill="#42748D"/>
<path d="M20.5962 48.7881V47.8079H19.6162V48.7881H20.5962Z" fill="#31617F"/>
<path d="M20.5962 45.8476V44.8676H19.6162H18.6362V45.8476H19.6162H20.5962Z" fill="#42748D"/>
<path d="M18.6362 49.7681H19.6162V48.7881H18.6362V49.7681Z" fill="#31617F"/>
<path d="M19.6162 46.8279V45.8476H18.6362V46.8279H19.6162Z" fill="#31617F"/>
<path d="M18.6359 52.7084V51.7284H19.6159H20.5958V50.7484H19.6159H18.6359H17.6559V51.7284H16.6753V52.7084H15.6953H14.7153V53.6889H15.6953H16.6753H17.6559V52.7084H18.6359Z" fill="#42748D"/>
<path d="M17.6562 49.7681V50.7484H18.6362V49.7681H17.6562Z" fill="#31617F"/>
<path d="M18.6358 49.7681V48.7881H19.6158V47.8079H18.6358H17.6558V48.7881H16.6753V49.7681V50.7484H17.6558V49.7681H18.6358Z" fill="#42748D"/>
<path d="M18.6362 46.8279V45.8476H17.6562V46.8279H18.6362Z" fill="#42748D"/>
<path d="M16.6753 49.7681H15.6953V50.7484H14.7153H13.7354V51.7284H14.7153H15.6953H16.6753H17.6559V50.7484H16.6753V49.7681Z" fill="#31617F"/>
<path d="M15.6953 48.7881H16.6753V47.8079H17.6559V46.8279V45.8476H16.6753V46.8279H15.6953V47.8079V48.7881Z" fill="#31617F"/>
<path d="M14.7153 48.7881H13.7354V49.7681H14.7153V48.7881Z" fill="#31617F"/>
<path d="M14.7153 48.7881H15.6953V47.8079V46.8279H14.7153V47.8079H13.7354V48.7881H14.7153Z" fill="#42748D"/>
<path d="M12.7552 52.7084V51.7284H11.7749V52.7084H10.7949V53.6889H11.7749H12.7552H13.7355V52.7084H12.7552Z" fill="#31617F"/>
<path d="M12.7554 52.7084H13.7356V51.7284H12.7554V52.7084Z" fill="#42748D"/>
<path d="M13.7354 50.7484V49.7681H12.7552H11.7749V50.7484H12.7552H13.7354Z" fill="#31617F"/>
<path d="M10.7949 50.7484H9.81494V51.7284H10.7949H11.7749V50.7484H10.7949Z" fill="#31617F"/>
<path d="M8.8349 52.7084V51.7284H7.85491H6.87464V52.7084H5.89465H4.91438H3.93438H2.95439H1.97412V53.6889H2.95439H3.93438H4.91438H5.89465H6.87464H7.85491V52.7084H8.8349Z" fill="#31617F"/>
<path d="M4.91407 52.7084H5.89435H6.87434V51.7284H7.85461H8.8346H9.81487V50.7484H10.7949H11.7749V49.7681H12.7551H13.7354V48.7881H12.7551H11.7749H10.7949V49.7681H9.81487H8.8346V50.7484H7.85461H6.87434H5.89435V51.7284H4.91407H3.93408V52.7084H4.91407Z" fill="#42748D"/>
</g>
<defs>
<linearGradient id="paint0_linear_4199_681" x1="62.7997" y1="0.199979" x2="62.7997" y2="37.2889" gradientUnits="userSpaceOnUse">
<stop stop-color="#FFDB00"/>
<stop offset="1" stop-color="#FF663B"/>
</linearGradient>
<linearGradient id="paint1_linear_4199_681" x1="62.7999" y1="-0.155572" x2="62.7999" y2="37.2889" gradientUnits="userSpaceOnUse">
<stop stop-color="#FFDB00"/>
<stop offset="1" stop-color="#FF663B"/>
</linearGradient>
<linearGradient id="paint2_linear_4199_681" x1="62.8443" y1="37.2" x2="62.8443" y2="0.0222352" gradientUnits="userSpaceOnUse">
<stop stop-color="#FF663B"/>
<stop offset="1" stop-color="#FFDB00"/>
</linearGradient>
<linearGradient id="paint3_linear_4199_681" x1="62.8221" y1="-2.62468e-09" x2="62.8221" y2="37" gradientUnits="userSpaceOnUse">
<stop stop-color="#FFDB00"/>
<stop offset="1" stop-color="#FF663B"/>
</linearGradient>
<linearGradient id="paint4_linear_4199_681" x1="62.8442" y1="0.200021" x2="62.8442" y2="37.1111" gradientUnits="userSpaceOnUse">
<stop stop-color="#FFDB00"/>
<stop offset="1" stop-color="#FF663B"/>
</linearGradient>
<linearGradient id="paint5_linear_4199_681" x1="62.8443" y1="-0.155581" x2="62.8221" y2="37.0222" gradientUnits="userSpaceOnUse">
<stop stop-color="#FFDB00"/>
<stop offset="1" stop-color="#FF663B"/>
</linearGradient>
<linearGradient id="paint6_linear_4199_681" x1="62.8445" y1="-0.155541" x2="62.8445" y2="37.2889" gradientUnits="userSpaceOnUse">
<stop stop-color="#FFDB00"/>
<stop offset="1" stop-color="#FF663B"/>
</linearGradient>
<clipPath id="clip0_4199_681">
<rect width="100" height="53.6889" fill="white"/>
</clipPath>
</defs>
</svg>
