<?xml version="1.0" encoding="UTF-8"?>
<!DOCTYPE svg PUBLIC "-//W3C//DTD SVG 1.1//EN" "http://www.w3.org/Graphics/SVG/1.1/DTD/svg11.dtd">
<!-- Creator: CorelDRAW -->
<svg xmlns="http://www.w3.org/2000/svg" xml:space="preserve" width="833px" height="833px" version="1.1" style="shape-rendering:geometricPrecision; text-rendering:geometricPrecision; image-rendering:optimizeQuality; fill-rule:evenodd; clip-rule:evenodd"
viewBox="0 0 203.17 203.17"
 xmlns:xlink="http://www.w3.org/1999/xlink"
 xmlns:xodm="http://www.corel.com/coreldraw/odm/2003">
 <defs>
  <style type="text/css">
   <![CDATA[
    .fil2 {fill:url(#id0);fill-rule:nonzero}
    .fil6 {fill:url(#id1);fill-rule:nonzero}
    .fil1 {fill:url(#id2);fill-rule:nonzero}
    .fil0 {fill:url(#id3);fill-rule:nonzero}
    .fil4 {fill:url(#id4);fill-rule:nonzero}
    .fil5 {fill:url(#id5);fill-rule:nonzero}
    .fil3 {fill:url(#id6);fill-rule:nonzero}
   ]]>
  </style>
  <linearGradient id="id0" gradientUnits="userSpaceOnUse" x1="101.59" y1="179.32" x2="101.59" y2="17.98">
   <stop offset="0" style="stop-opacity:1; stop-color:#FF663B"/>
   <stop offset="1" style="stop-opacity:1; stop-color:#FFDB00"/>
  </linearGradient>
  <linearGradient id="id1" gradientUnits="userSpaceOnUse" xlink:href="#id0" x1="101.59" y1="179.32" x2="101.59" y2="17.99">
  </linearGradient>
  <linearGradient id="id2" gradientUnits="userSpaceOnUse" xlink:href="#id0" x1="101.59" y1="179.32" x2="101.59" y2="17.99">
  </linearGradient>
  <linearGradient id="id3" gradientUnits="userSpaceOnUse" xlink:href="#id0" x1="101.59" y1="179.32" x2="101.59" y2="17.99">
  </linearGradient>
  <linearGradient id="id4" gradientUnits="userSpaceOnUse" xlink:href="#id0" x1="101.59" y1="179.32" x2="101.59" y2="17.99">
  </linearGradient>
  <linearGradient id="id5" gradientUnits="userSpaceOnUse" xlink:href="#id0" x1="101.59" y1="179.32" x2="101.59" y2="17.97">
  </linearGradient>
  <linearGradient id="id6" gradientUnits="userSpaceOnUse" xlink:href="#id0" x1="101.59" y1="179.32" x2="101.59" y2="17.98">
  </linearGradient>
 </defs>
 <g id="Camada_x0020_1">
  <metadata id="CorelCorpID_0Corel-Layer"/>
  <g id="img-sol">
   <path class="fil0" d="M6.68 137.86l189.82 0c1.1,-2.89 2.08,-5.83 2.92,-8.84l-195.67 0c0.84,3.01 1.82,5.95 2.93,8.84z"/>
   <path class="fil1" d="M29.53 173.19l144.11 0c2.77,-2.79 5.38,-5.74 7.82,-8.83l-159.75 0c2.44,3.09 5.05,6.04 7.82,8.83z"/>
   <path class="fil2" d="M15.5 155.53l172.17 0c1.8,-2.86 3.45,-5.8 4.95,-8.84l-182.07 0c1.5,3.04 3.16,5.98 4.95,8.84z"/>
   <path class="fil3" d="M203.17 101.59c0,-56.11 -45.48,-101.59 -101.58,-101.59 -56.11,0 -101.59,45.48 -101.59,101.59 0,0.31 0.01,0.62 0.01,0.93l203.15 0c0,-0.31 0.01,-0.62 0.01,-0.93z"/>
   <path class="fil4" d="M0.47 111.36c0.28,2.98 0.7,5.93 1.24,8.83l199.75 0c0.54,-2.9 0.96,-5.85 1.24,-8.83l-202.23 0z"/>
   <path class="fil5" d="M101.59 203.17c9.14,0 17.99,-1.21 26.42,-3.48l-52.85 0c8.43,2.27 17.29,3.48 26.43,3.48z"/>
   <path class="fil6" d="M53.07 190.86l97.03 0c4.75,-2.59 9.27,-5.55 13.52,-8.83l-124.07 0c4.25,3.28 8.77,6.24 13.52,8.83z"/>
  </g>
 </g>
</svg>
