<svg width="100" height="54" viewBox="0 0 100 54" fill="none" xmlns="http://www.w3.org/2000/svg">
<g clip-path="url(#clip0_4199_681)">
<path d="M45.5272 25.1062H80.096C80.2964 24.5799 80.4748 24.0444 80.6278 23.4963H44.9937C45.1466 24.0444 45.3251 24.5799 45.5272 25.1062Z" fill="url(#paint0_linear_4199_681)"/>
<path d="M49.6888 31.5403H75.9332C76.4376 31.0322 76.9129 30.4949 77.3573 29.9322H48.2646C48.709 30.4949 49.1843 31.0322 49.6888 31.5403Z" fill="url(#paint1_linear_4199_681)"/>
<path d="M47.1339 28.3241H78.4884C78.8162 27.8033 79.1167 27.2679 79.3898 26.7142H46.2324C46.5056 27.2679 46.8079 27.8033 47.1339 28.3241Z" fill="url(#paint2_linear_4199_681)"/>
<path d="M81.311 18.5009C81.311 8.28252 73.0285 0 62.8119 0C52.5936 0 44.311 8.28252 44.311 18.5009C44.311 18.5574 44.3129 18.6138 44.3129 18.6703H81.3092C81.3092 18.6138 81.311 18.5574 81.311 18.5009Z" fill="url(#paint3_linear_4199_681)"/>
<path d="M44.3965 20.2802C44.4475 20.8228 44.524 21.3601 44.6223 21.8882H80.9995C81.0978 21.3601 81.1743 20.8228 81.2253 20.2802H44.3965Z" fill="url(#paint4_linear_4199_681)"/>
<path d="M62.8118 37C64.4763 37 66.088 36.7796 67.6232 36.3662H57.9985C59.5338 36.7796 61.1473 37 62.8118 37Z" fill="url(#paint5_linear_4199_681)"/>
<path d="M53.9758 34.7582H71.6463C72.5114 34.2865 73.3345 33.7475 74.1085 33.1501H51.5137C52.2877 33.7475 53.1108 34.2865 53.9758 34.7582Z" fill="url(#paint6_linear_4199_681)"/>
<path d="M26.47 40.3424H25.4897V41.3224H26.47V40.3424Z" fill="#234E70"/>
<path d="M20.5879 44.2626H19.6079V45.2429H20.5879V44.2626Z" fill="#234E70"/>
<path d="M23.5293 42.3024H22.5493V43.2826H23.5293V42.3024Z" fill="#234E70"/>
<path d="M83.3333 52.1037H84.3133V51.1237H83.3333H82.353V52.1037H83.3333Z" fill="#234E70"/>
<path d="M82.353 50.1434H83.3333V49.1635H82.353V50.1434Z" fill="#234E70"/>
<path d="M81.3726 51.1237H82.3526V50.1434H81.3726V51.1237Z" fill="#234E70"/>
<path d="M80.3921 52.1037H79.4121V53.0837H80.3921H81.3724H82.3524V52.1037H81.3724H80.3921Z" fill="#234E70"/>
<path d="M79.4116 52.1037V51.1237H78.4314H77.4506V50.1434H76.4703V49.1635H75.49H74.5098V50.1434H75.49V51.1237H76.4703V52.1037H77.4506V53.0837H78.4314V52.1037H79.4116Z" fill="#234E70"/>
<path d="M74.5101 46.2229H73.5293V47.2032H74.5101H75.4904V48.1832H76.4706V49.1634H77.4509H78.4317V50.1434H79.412H80.3923V49.1634V48.1832H79.412H78.4317V47.2032H77.4509H76.4706V46.2229H75.4904H74.5101Z" fill="#234E70"/>
<path d="M73.5293 48.1832V49.1634H74.5098V48.1832H73.5293Z" fill="#234E70"/>
<path d="M72.5488 46.2229H73.5288V45.2429H72.5488V46.2229Z" fill="#234E70"/>
<path d="M72.5488 48.1832H71.5688V49.1634H72.5488V48.1832Z" fill="#234E70"/>
<path d="M71.5684 47.2032V46.2229H70.5884V47.2032H71.5684Z" fill="#234E70"/>
<path d="M68.6279 43.2827V44.2626V45.2429H69.6082V46.2229H70.5887V45.2429H71.569H72.5493V44.2626H71.569H70.5887V43.2827H69.6082H68.6279Z" fill="#234E70"/>
<path d="M62.7456 39.3624V40.3424H63.7259V41.3224H64.7064H65.6867V42.3023H66.6672V43.2826H67.6475H68.628V42.3023H67.6475V41.3224H66.6672V40.3424H65.6867H64.7064V39.3624H63.7259H62.7456Z" fill="#234E70"/>
<path d="M61.7646 38.3818V39.3624H62.7449V38.3818H61.7646Z" fill="#234E70"/>
<path d="M60.7842 37.4019V38.3818H61.7642V37.4019H60.7842Z" fill="#234E70"/>
<path d="M50.9805 38.3818H51.9607V37.4019H50.9805V38.3818Z" fill="#234E70"/>
<path d="M49.9998 35.4418H49.0195V36.4218H49.9998V35.4418Z" fill="#234E70"/>
<path d="M48.0391 37.4019V38.3818H49.0191V37.4019H48.0391Z" fill="#234E70"/>
<path d="M46.0786 43.2826H47.0586V42.3024H46.0786V43.2826Z" fill="#234E70"/>
<path d="M46.0784 46.2229V45.2429H45.0981V46.2229H46.0784Z" fill="#234E70"/>
<path d="M46.0784 41.3224V40.3424H45.0981V41.3224H46.0784Z" fill="#234E70"/>
<path d="M45.0981 33.4813V34.4613H46.0787V35.4419H47.059V34.4613H48.0395H49.0198V33.4813H48.0395H47.059V32.5014H46.0787V31.5214H45.0981V32.5014V33.4813Z" fill="#234E70"/>
<path d="M45.0982 53.0837H46.0787H47.059H48.0395H49.0198H50.0003H50.9806H51.9611H52.9414H53.9217H54.9025H55.8827H56.863H57.8433V52.1037H58.8238H59.8044H60.7846H61.7649V51.1237H62.7454H63.7257V52.1037H64.7062V51.1237V50.1434V49.1635H65.6865V50.1434H66.667H67.6473V51.1237H68.6278H69.6081V52.1037H70.5886H71.5689H72.5492H73.5294H74.5103V51.1237H73.5294H72.5492V50.1434H71.5689H70.5886V49.1635H69.6081V48.1832H68.6278V47.2032H67.6473V46.2229H66.667V45.2429H65.6865V44.2627V43.2827H64.7062V42.3024H63.7257H62.7454V41.3224H61.7649V40.3424H60.7846V39.3624H59.8044H58.8238V38.3819H57.8433V37.4019H56.863V36.4219V35.4419V34.4613H55.8827H54.9025H53.9217V33.4813H52.9414V32.5014H51.9611V31.5214H50.9806V32.5014V33.4813V34.4613H51.9611V35.4419V36.4219V37.4019H52.9414V38.3819V39.3624H53.9217V40.3424V41.3224H54.9025V42.3024V43.2827H55.8827V44.2627V45.2429H56.863V46.2229H57.8433V47.2032V48.1832H56.863V47.2032H55.8827V46.2229V45.2429H54.9025V44.2627V43.2827H53.9217V42.3024H52.9414V41.3224V40.3424H51.9611V41.3224V42.3024V43.2827V44.2627V45.2429V46.2229V47.2032H50.9806V48.1832H50.0003V47.2032V46.2229V45.2429V44.2627H50.9806V43.2827V42.3024V41.3224H50.0003V42.3024V43.2827H49.0198V44.2627V45.2429H48.0395V46.2229H47.059V47.2032H46.0787V48.1832V49.1635H45.0982V48.1832H44.1179V49.1635V50.1434H43.1374V51.1237V52.1037H42.1571H41.1768V53.0837H40.1963V54.0643H41.1768H42.1571H43.1374H44.1179V53.0837H45.0982ZM49.0198 50.1434H50.0003V51.1237H49.0198V50.1434Z" fill="#234E70"/>
<path d="M45.0977 46.2229H44.1177V47.2032H45.0977V46.2229Z" fill="#234E70"/>
<path d="M44.1177 39.3624V40.3424H45.0977V39.3624V38.3818H44.1177V39.3624Z" fill="#234E70"/>
<path d="M44.1177 36.4218H45.0977V35.4418H44.1177V36.4218Z" fill="#234E70"/>
<path d="M43.1367 44.2626H44.117V43.2827H43.1367V44.2626Z" fill="#234E70"/>
<path d="M44.117 33.4813V32.5013H43.1367V33.4813V34.4613H44.117V33.4813Z" fill="#234E70"/>
<path d="M42.1567 49.1635V50.1434H43.1367V49.1635H42.1567Z" fill="#234E70"/>
<path d="M43.1367 45.2429H42.1567V46.2229H43.1367V45.2429Z" fill="#234E70"/>
<path d="M42.1567 42.3024V43.2826H43.1367V42.3024H42.1567Z" fill="#234E70"/>
<path d="M43.1367 35.4419V34.4613H42.1567V35.4419V36.4218V37.4018H43.1367V36.4218V35.4419Z" fill="#234E70"/>
<path d="M41.1763 44.2626H42.1563V43.2827H41.1763V44.2626Z" fill="#234E70"/>
<path d="M41.1763 41.3224V42.3024H42.1563V41.3224H41.1763Z" fill="#234E70"/>
<path d="M40.1963 33.4813V34.4613H41.1766V33.4813H40.1963Z" fill="#234E70"/>
<path d="M39.2153 44.2626V45.2429H40.1956V44.2626V43.2827H39.2153V44.2626Z" fill="#234E70"/>
<path d="M40.1956 40.3424H41.1759V39.3624H42.1559V38.3818V37.4019H41.1759V38.3818H40.1956H39.2153V39.3624V40.3424H40.1956Z" fill="#234E70"/>
<path d="M40.1956 36.4219H39.2153V37.4019H40.1956V36.4219Z" fill="#234E70"/>
<path d="M39.2156 52.1037H40.1962V51.1237V50.1434H41.1767V49.1634H42.157V48.1832V47.2032V46.2229H41.1767V47.2032H40.1962V48.1832H39.2156V49.1634V50.1434H38.2354V51.1237V52.1037H37.2551V51.1237V50.1434H38.2354V49.1634V48.1832V47.2032H37.2551V48.1832V49.1634H36.2748V50.1434V51.1237H35.294H34.3138V52.1037V53.0837H33.3335V54.0642H34.3138H35.294V53.0837H36.2748V54.0642H37.2551H38.2354H39.2156V53.0837V52.1037Z" fill="#234E70"/>
<path d="M39.2153 46.2229H38.2354V47.2032H39.2153V46.2229Z" fill="#234E70"/>
<path d="M37.2549 34.4613V33.4813H36.2749V34.4613V35.4419H37.2549V34.4613Z" fill="#234E70"/>
<path d="M37.2549 31.5214H36.2749V32.5014H37.2549V31.5214Z" fill="#234E70"/>
<path d="M35.2939 37.4019V38.3818H36.2745V37.4019H35.2939Z" fill="#234E70"/>
<path d="M33.3335 41.3224H34.3135V40.3424H33.3335V41.3224Z" fill="#234E70"/>
<path d="M33.333 35.4419H34.313V34.4613V33.4813V32.5013H33.333V33.4813H32.353V34.4613H33.333V35.4419Z" fill="#234E70"/>
<path d="M33.333 36.4219H32.353V37.4019H33.333V36.4219Z" fill="#234E70"/>
<path d="M32.3528 38.3818V37.4019H31.3726V38.3818H32.3528Z" fill="#234E70"/>
<path d="M32.3528 34.4613H31.3726V35.4419H32.3528V34.4613Z" fill="#234E70"/>
<path d="M31.3724 38.3818H30.3921V39.3624H31.3724V38.3818Z" fill="#234E70"/>
<path d="M31.3724 35.4418H30.3921V36.4218H31.3724V35.4418Z" fill="#234E70"/>
<path d="M30.3921 40.3424H29.4121V41.3224H30.3921V40.3424Z" fill="#234E70"/>
<path d="M29.4116 43.2826V42.3024H28.4316V43.2826H29.4116Z" fill="#234E70"/>
<path d="M28.4316 39.3624V40.3424H29.4116V39.3624H28.4316Z" fill="#234E70"/>
<path d="M27.4507 44.2626V43.2827H26.4707V44.2626H27.4507Z" fill="#234E70"/>
<path d="M27.4507 41.3224H26.4707V42.3024H27.4507V41.3224Z" fill="#234E70"/>
<path d="M26.47 45.2429V44.2626H25.4897V45.2429H26.47Z" fill="#234E70"/>
<path d="M24.5096 46.2229H25.4896V45.2429H24.5096V44.2626V43.2827H23.5293V44.2626H22.5493V45.2429H23.5293V46.2229H22.5493V47.2032V48.1832H23.5293H24.5096V47.2032V46.2229Z" fill="#234E70"/>
<path d="M21.569 50.1434V49.1634H22.5495V48.1832H21.569H20.5885V49.1634H19.6082V50.1434H18.6279V51.1237H19.6082H20.5885V50.1434H21.569Z" fill="#234E70"/>
<path d="M20.5879 46.2229H19.6079V47.2032H20.5879V46.2229Z" fill="#234E70"/>
<path d="M19.6074 48.1832V47.2032H18.6275H17.6475V48.1832H18.6275H19.6074Z" fill="#234E70"/>
<path d="M17.6466 48.1832H16.666V49.1634H17.6466V48.1832Z" fill="#234E70"/>
<path d="M15.6856 53.0837H16.6656V52.1037H15.6856H14.7056H13.7256V53.0837V54.0642H14.7056V53.0837H15.6856Z" fill="#234E70"/>
<path d="M14.7056 51.1237H15.6856V50.1434H16.6656V49.1635H15.6856H14.7056V50.1434H13.7256V51.1237H14.7056Z" fill="#234E70"/>
<path d="M12.7449 51.1237H11.7646V52.1037H12.7449H13.7252V51.1237H12.7449Z" fill="#234E70"/>
<path d="M13.7254 48.1832H12.7451V49.1634H13.7254V48.1832Z" fill="#234E70"/>
<path d="M11.7641 53.0837V52.1037H10.7838H9.80358H8.82304V53.0837H7.84277V54.0642H8.82304H9.80358H10.7838V53.0837H11.7641Z" fill="#234E70"/>
<path d="M3.9214 52.1037H2.94141V53.0837H3.9214V52.1037Z" fill="#234E70"/>
<path d="M0.979992 53.0837H0V54.0642H0.979992H1.96026V53.0837H0.979992Z" fill="#234E70"/>
<path d="M50.98 30.5411V29.5608H50V30.5411H50.98Z" fill="#E9F3F8"/>
<path d="M46.0787 24.6606V25.6405H45.0981V26.6205V27.6008V28.5808H46.0787V29.5608V30.5411H47.059V31.5213H48.0395V30.5411H49.0198V29.5608V28.5808H50.0003V27.6008V26.6205H49.0198V25.6405V24.6606V23.6803H48.0395V22.7H47.059H46.0787V23.6803V24.6606Z" fill="#E9F3F8"/>
<path d="M37.2549 29.5608H36.2749V30.5411H37.2549V29.5608Z" fill="#E9F3F8"/>
<path d="M36.2745 30.5411H35.2939V31.5213H36.2745V30.5411Z" fill="#E9F3F8"/>
<path d="M35.2935 31.5214H34.3135V32.5014H35.2935V31.5214Z" fill="#E9F3F8"/>
<path d="M99.0201 53.0837H98.0398V52.1037H97.0596H96.0787H95.0985H94.1182H93.138V51.1237H92.1571H91.1769H90.1966H89.2163V50.1434H88.2358H87.2553H86.275H85.2947V49.1635H84.3142H83.3339V50.1434H82.3534V51.1237H83.3339H84.3142V52.1037H83.3339H82.3534V53.0837H81.3731H80.3926V54.0643H81.3731H82.3534H83.3339H84.3142H85.2947H86.275H87.2553H88.2358H89.2163H90.1966H91.1769H92.1571H93.138H94.1182H95.0985H96.0787H97.0596H98.0398H99.0201H100V53.0837H99.0201Z" fill="#1F4B66"/>
<path d="M80.3918 50.1434H79.4116H78.4313V49.1634H77.4505H76.4702V50.1434H77.4505V51.1237H78.4313H79.4116V52.1037H80.3918H81.3724H82.3526V51.1237H81.3724V50.1434H82.3526V49.1634H83.3332V48.1832H82.3526H81.3724H80.3918V49.1634V50.1434Z" fill="#1F4B66"/>
<path d="M79.4119 53.0837H78.4316H77.4508H76.4706V52.1037H75.4903H74.51H73.5292H72.5489H71.5687H70.5884H69.6079V51.1237H68.6276H67.6471V50.1434H66.6668H65.6863V49.1635H64.706V50.1434V51.1237V52.1037H63.7255V51.1237H62.7452H61.7646V52.1037H60.7844H59.8041H58.8236H57.843V53.0837H56.8628H55.8825H54.9022H53.9214H52.9412H51.9609H50.9804H50.0001H49.0195H48.0393H47.0587H46.0785H45.0979H44.1177V54.0643H45.0979H46.0785H47.0587H48.0393H49.0195H50.0001H50.9804H51.9609H52.9412H53.9214H54.9022H55.8825H56.8628H57.843H58.8236H59.8041H60.7844H61.7646H62.7452H63.7255H64.706H65.6863H66.6668H67.6471H68.6276H69.6079H70.5884H71.5687H72.5489H73.5292H74.51H75.4903H76.4706H77.4508H78.4316H79.4119H80.3922V53.0837H79.4119Z" fill="#224D68"/>
<path d="M78.4316 52.1037V53.0837H79.4116V52.1037H78.4316Z" fill="#1F4B66"/>
<path d="M79.4116 48.1832H80.3916V47.2032H79.4116H78.4316V48.1832H79.4116Z" fill="#1F4B66"/>
<path d="M76.4702 52.1037V53.0837H77.4502V52.1037H76.4702Z" fill="#1F4B66"/>
<path d="M77.4502 47.2032H78.4308V46.2229H77.4502H76.4702V47.2032H77.4502Z" fill="#1F4B66"/>
<path d="M74.5098 46.2229H75.4898H76.4698V45.2429H75.4898H74.5098H73.5293V46.2229H74.5098Z" fill="#1F4B66"/>
<path d="M73.5288 45.2429V44.2626H72.5488V45.2429H73.5288Z" fill="#1F4B66"/>
<path d="M71.5684 44.2626H72.5484V43.2827H71.5684H70.5884V44.2626H71.5684Z" fill="#1F4B66"/>
<path d="M69.6079 43.2826H70.5882V42.3024H69.6079H68.6279V43.2826H69.6079Z" fill="#1F4B66"/>
<path d="M68.6272 42.3024V41.3224H67.647V42.3024H68.6272Z" fill="#1F4B66"/>
<path d="M67.647 41.3224V40.3424H66.667V41.3224H67.647Z" fill="#1F4B66"/>
<path d="M65.686 40.3424H66.6663V39.3624H65.686H64.7061V40.3424H65.686Z" fill="#1F4B66"/>
<path d="M55.8828 47.2032H56.8628V48.1832H57.8428V47.2032V46.2229H56.8628V45.2429H55.8828V46.2229V47.2032Z" fill="#31617F"/>
<path d="M55.8826 32.5014V31.5214H54.9023V32.5014V33.4813H55.8826V34.4613H56.8629V35.4419V36.4219V37.4019H57.8431V38.3819H58.8237V39.3624H59.8042H60.7845V40.3424H61.7647V41.3224H62.7453V42.3024H63.7256H64.7061V43.2827H65.6864V44.2627V45.2429H66.6669V46.2229H67.6472V47.2032H68.6277V48.1832H69.608V49.1635H70.5885V50.1434H71.5688H72.549V51.1237H73.5293H74.5101V52.1037H75.4904H76.4707V51.1237H75.4904V50.1434H74.5101V49.1635H73.5293V48.1832H74.5101V49.1635H75.4904H76.4707V48.1832H75.4904V47.2032H74.5101H73.5293V46.2229H72.549V45.2429H71.5688H70.5885V46.2229H71.5688V47.2032H70.5885V46.2229H69.608V45.2429H68.6277V44.2627V43.2827H67.6472H66.6669V42.3024H65.6864V41.3224H64.7061H63.7256V40.3424H62.7453V39.3624H61.7647V38.3819H60.7845V37.4019H61.7647V38.3819H62.7453V39.3624H63.7256H64.7061V38.3819H63.7256V37.4019H62.7453V36.4219H61.7647V35.4419H60.7845H59.8042V34.4613H58.8237V33.4813H57.8431V32.5014H56.8629H55.8826ZM71.5688 48.1832H72.549V49.1635H71.5688V48.1832Z" fill="#1F4B66"/>
<path d="M55.8828 32.5014H56.8628H57.8428V31.5214H56.8628H55.8828V32.5014Z" fill="#D4E3E8"/>
<path d="M56.8628 31.5213V30.5411H55.8828V31.5213H56.8628Z" fill="#DAE8EE"/>
<path d="M54.9023 45.2429H55.8823V44.2626V43.2827H54.9023V44.2626V45.2429Z" fill="#31617F"/>
<path d="M54.9019 33.4813V32.5013H53.9214H52.9414V33.4813H53.9214V34.4613H54.9019H55.8819V33.4813H54.9019Z" fill="#D4E3E8"/>
<path d="M54.9023 31.5213H55.8823V30.5411H54.9023V31.5213Z" fill="#D4E3E8"/>
<path d="M55.8823 30.5411V29.5608H54.9023V30.5411H55.8823Z" fill="#DAE8EE"/>
<path d="M53.9219 30.5411V31.5213H54.9024V30.5411H53.9219Z" fill="#1F4B66"/>
<path d="M53.9219 30.5411H54.9024V29.5608H53.9219V30.5411Z" fill="#D4E3E8"/>
<path d="M54.9024 29.5608V28.5808H53.9219V29.5608H54.9024Z" fill="#DAE8EE"/>
<path d="M52.9414 29.5608V30.5411H53.9214V29.5608H52.9414Z" fill="#1F4B66"/>
<path d="M52.9414 29.5608H53.9214V28.5808H52.9414V29.5608Z" fill="#D4E3E8"/>
<path d="M51.9609 31.5214V32.5014H52.9409V31.5214H51.9609Z" fill="#D4E3E8"/>
<path d="M50.98 44.2626H50V45.2429V46.2229V47.2032V48.1832H50.98V47.2032H51.9603V46.2229V45.2429V44.2626V43.2827H50.98V44.2626Z" fill="#31617F"/>
<path d="M50.9805 41.3224V42.3024V43.2827H51.9607V42.3024V41.3224V40.3424H50.9805V41.3224Z" fill="#224D68"/>
<path d="M50.0003 30.5411V29.5608V28.5808H49.0198V29.5608V30.5411H48.0395V31.5213H47.059V30.5411H46.0787V29.5608V28.5808H45.0981V29.5608V30.5411V31.5213H46.0787V32.5013H47.059V33.4813H48.0395H49.0198H50.0003V32.5013H49.0198V31.5213H50.0003H50.9806V30.5411H50.0003Z" fill="#D4E3E8"/>
<path d="M49.9998 50.1434H49.0195V51.1237H49.9998V50.1434Z" fill="#31617F"/>
<path d="M49.9998 39.3624V38.3819V37.4019V36.4219H49.0195V37.4019V38.3819V39.3624V40.3424V41.3224V42.3024V43.2827H49.9998V42.3024V41.3224V40.3424V39.3624Z" fill="#224D68"/>
<path d="M49.0194 31.5214V32.5014H50V33.4813H49.0194V34.4613H48.0392H47.0586V35.4419H46.0784V34.4613H45.0978V35.4419V36.4219V37.4019V38.3819V39.3624V40.3424H46.0784V41.3224H45.0978V40.3424H44.1175V41.3224V42.3024V43.2827V44.2627H43.137V45.2429V46.2229H42.1567V47.2032V48.1832V49.1635H43.137V48.1832V47.2032H44.1175V46.2229V45.2429H45.0978V44.2627H46.0784V45.2429V46.2229H45.0978V47.2032V48.1832V49.1635H46.0784V48.1832V47.2032H47.0586V46.2229V45.2429H48.0392V44.2627H49.0194V43.2827V42.3024V41.3224V40.3424V39.3624V38.3819H48.0392V37.4019H49.0194V36.4219V35.4419H50V36.4219V37.4019V38.3819V39.3624V40.3424V41.3224H50.9802V40.3424H51.9608H52.941V41.3224V42.3024H53.9213V43.2827H54.9021V42.3024V41.3224H53.9213V40.3424V39.3624H52.941V38.3819V37.4019H51.9608V38.3819H50.9802V37.4019H51.9608V36.4219V35.4419V34.4613H50.9802V33.4813V32.5014V31.5214H50H49.0194ZM47.0586 43.2827H46.0784V42.3024H47.0586V43.2827Z" fill="#31617F"/>
<path d="M48.0391 45.2429H49.0191V44.2626H48.0391V45.2429Z" fill="#224D68"/>
<path d="M49.0193 23.6803V24.6606V25.6405V26.6205H49.9999V27.6008V28.5808V29.5608H50.9801V30.5411V31.5213H51.9607H52.9409V32.5013H53.9212H54.902V31.5213H53.9212V30.5411H52.9409V29.5608V28.5808H53.9212V27.6008H52.9409V26.6205H51.9607V25.6405H50.9801V24.6606V23.6803H49.9999V22.7H49.0193H48.0391V23.6803H49.0193Z" fill="#DAE8EE"/>
<path d="M47.0591 46.2229H48.0394V45.2429H47.0591V46.2229Z" fill="#224D68"/>
<path d="M46.0784 44.2626H45.0981V45.2429H46.0784V44.2626Z" fill="#224D68"/>
<path d="M44.117 47.2032H43.1367V48.1832V49.1634V50.1434H44.117V49.1634V48.1832H45.097V47.2032H44.117Z" fill="#224D68"/>
<path d="M45.0977 45.2429H44.1177V46.2229H45.0977V45.2429Z" fill="#224D68"/>
<path d="M44.1177 37.4019V38.3819H45.0977V37.4019V36.4219H44.1177V37.4019Z" fill="#224D68"/>
<path d="M44.1177 35.4419H45.0977V34.4613H44.1177V35.4419Z" fill="#42748D"/>
<path d="M44.1177 24.6606V25.6406H45.0977V24.6606H44.1177Z" fill="#D4E3E8"/>
<path d="M43.1367 41.3224V42.3024V43.2827H44.117V42.3024V41.3224V40.3424H43.1367V41.3224Z" fill="#224D68"/>
<path d="M44.117 37.4018V36.4218V35.4418H43.1367V36.4218V37.4018V38.3818V39.3624H44.117V38.3818V37.4018Z" fill="#42748D"/>
<path d="M44.117 35.4419V34.4613H43.1367V35.4419H44.117Z" fill="#31617F"/>
<path d="M42.1567 51.1237H43.1367V50.1434H42.1567V51.1237Z" fill="#224D68"/>
<path d="M43.1363 45.2429V44.2626V43.2827H42.1563V44.2626H41.1763V45.2429V46.2229H42.1563V45.2429H43.1363Z" fill="#224D68"/>
<path d="M42.1567 33.4813V34.4613H43.1367V33.4813V32.5013H44.117V33.4813V34.4613H45.097V33.4813V32.5013V31.5213V30.5411V29.5608H44.117V30.5411V31.5213H43.1367V30.5411H42.1567V31.5213V32.5013V33.4813Z" fill="#31617F"/>
<path d="M42.1566 50.1434V49.1635H41.1766V50.1434H40.1963V51.1237V52.1037H41.1766H42.1566H43.1365V51.1237H42.1566V50.1434Z" fill="#31617F"/>
<path d="M42.1566 35.4419V34.4613H41.1766V35.4419V36.4218H40.1963V37.4018V38.3818H41.1766V37.4018H42.1566V36.4218V35.4419Z" fill="#31617F"/>
<path d="M41.1763 34.4613H42.1563V33.4813V32.5014V31.5214H41.1763V32.5014V33.4813V34.4613Z" fill="#42748D"/>
<path d="M40.1963 53.0837H41.1766V52.1037H40.1963V53.0837Z" fill="#224D68"/>
<path d="M40.1963 47.2032H41.1766V46.2229H40.1963V47.2032Z" fill="#224D68"/>
<path d="M41.1765 44.2626V43.2826H42.1568V42.3024H41.1765V41.3224H42.1568V42.3024H43.137V41.3224V40.3424H44.1176V39.3624H43.137V38.3818V37.4019H42.1568V38.3818V39.3624H41.1765V40.3424H40.196V41.3224V42.3024V43.2826V44.2626V45.2429H39.2154H38.2351H37.2549V46.2229V47.2032H38.2351V46.2229H39.2154V47.2032H38.2351V48.1832V49.1634V50.1434H39.2154V49.1634V48.1832H40.196V47.2032V46.2229H41.1765V45.2429V44.2626Z" fill="#31617F"/>
<path d="M41.1759 36.4218V35.4419V34.4613H40.1956V35.4419H39.2153V36.4218H40.1956H41.1759Z" fill="#42748D"/>
<path d="M41.1766 26.6205H40.1963V27.6008H41.1766V26.6205Z" fill="#D4E3E8"/>
<path d="M40.1956 52.1037H39.2153V53.0837V54.0642H40.1956V53.0837V52.1037Z" fill="#31617F"/>
<path d="M40.1956 37.4019H39.2153V38.3818H40.1956V37.4019Z" fill="#224D68"/>
<path d="M40.1956 34.4613V33.4813H41.1759V32.5013H40.1956H39.2153V33.4813V34.4613V35.4419H40.1956V34.4613Z" fill="#31617F"/>
<path d="M40.1956 31.5213V30.5411H39.2153V31.5213V32.5013H40.1956V31.5213Z" fill="#42748D"/>
<path d="M39.2149 45.2429V44.2627V43.2827H40.1951V42.3024V41.3224V40.3424H39.2149V41.3224V42.3024H38.2349V43.2827V44.2627H37.2549V45.2429H38.2349H39.2149Z" fill="#42748D"/>
<path d="M39.2153 39.3624H38.2354V40.3424V41.3224H39.2153V40.3424V39.3624Z" fill="#224D68"/>
<path d="M39.2149 33.4813V32.5013H38.2349V33.4813H37.2549V34.4613V35.4419V36.4219V37.4019H38.2349V36.4219V35.4419H39.2149V34.4613V33.4813Z" fill="#42748D"/>
<path d="M37.2549 51.1237V52.1037H38.2349V51.1237V50.1434H37.2549V51.1237Z" fill="#31617F"/>
<path d="M38.2349 43.2826V42.3024H37.2549V43.2826V44.2626H38.2349V43.2826Z" fill="#224D68"/>
<path d="M38.2351 28.5808H39.2154V27.6008H40.196V26.6205H41.1765V27.6008H40.196V28.5808H41.1765V29.5608H42.1568V28.5808H43.137V27.6008V26.6205H44.1176V27.6008V28.5808V29.5608H45.0978V28.5808V27.6008V26.6205V25.6405H44.1176V24.6606H45.0978V25.6405H46.0784V24.6606V23.6803V22.7H45.0978H44.1176H43.137H42.1568H41.1765V23.6803H40.196V24.6606V25.6405H39.2154V26.6205H38.2351V27.6008H37.2549V28.5808V29.5608H38.2351V28.5808Z" fill="#FCFEFF"/>
<path d="M36.2749 48.1832H37.2549V47.2032H36.2749V48.1832Z" fill="#42748D"/>
<path d="M36.2749 38.3818H37.2549V37.4019H36.2749V38.3818Z" fill="#42748D"/>
<path d="M37.2549 35.4418H36.2749V36.4218V37.4018H37.2549V36.4218V35.4418Z" fill="#31617F"/>
<path d="M37.2552 31.5213V32.5013H36.2749V33.4813H37.2552H38.2354V32.5013H39.2157V31.5213V30.5411H40.1962V31.5213V32.5013H41.1768V31.5213H42.157V30.5411H43.1373V31.5213H44.1178V30.5411V29.5608V28.5808V27.6008V26.6205H43.1373V27.6008V28.5808H42.157V29.5608H41.1768V28.5808H40.1962V27.6008H39.2157V28.5808H38.2354V29.5608H37.2552V30.5411H36.2749V31.5213H37.2552Z" fill="#D4E3E8"/>
<path d="M35.2939 53.0837V54.0642H36.2745V53.0837H35.2939Z" fill="#31617F"/>
<path d="M35.2939 48.1832V49.1634V50.1434V51.1237H36.2745V50.1434V49.1634H37.2545V48.1832H36.2745H35.2939Z" fill="#31617F"/>
<path d="M35.2939 37.4018H36.2745V36.4218V35.4418H35.2939V36.4218V37.4018Z" fill="#224D68"/>
<path d="M36.2745 32.5014V31.5214H35.2939V32.5014H36.2745Z" fill="#D4E3E8"/>
<path d="M34.3135 37.4019V38.3818H33.3335V39.3624V40.3424H34.3135H35.2935V39.3624V38.3818V37.4019H34.3135Z" fill="#224D68"/>
<path d="M34.3135 37.4018H35.2935V36.4218V35.4418H34.3135V36.4218V37.4018Z" fill="#31617F"/>
<path d="M35.2935 34.4613V33.4813H34.3135V34.4613V35.4419H35.2935V34.4613Z" fill="#42748D"/>
<path d="M35.2935 33.4813V34.4613V35.4419H36.274V34.4613V33.4813V32.5013H35.2935H34.3135V33.4813H35.2935Z" fill="#31617F"/>
<path d="M34.3136 53.0837V52.1037V51.1237H35.2939V50.1434V49.1634V48.1832H36.2747V47.2032H37.255V46.2229V45.2429V44.2626H36.2747V45.2429V46.2229H35.2939V47.2032H34.3136V48.1832V49.1634V50.1434H33.3334V51.1237H32.3531V52.1037H31.3726V53.0837V54.0642H32.3531H33.3334V53.0837H34.3136Z" fill="#224D68"/>
<path d="M33.3335 42.3024H34.3135V41.3224H33.3335V42.3024Z" fill="#31617F"/>
<path d="M33.3335 38.3818H34.3135V37.4019H33.3335V38.3818Z" fill="#31617F"/>
<path d="M34.3135 37.4018V36.4218V35.4418H33.3335V36.4218V37.4018H34.3135Z" fill="#42748D"/>
<path d="M33.333 40.3424H32.353V41.3224V42.3024V43.2827H33.333V42.3024V41.3224V40.3424Z" fill="#224D68"/>
<path d="M32.353 40.3424H33.333V39.3624H32.353V40.3424Z" fill="#31617F"/>
<path d="M32.3533 41.3224H31.3727V42.3024H30.3922V43.2826H29.4119V44.2626H28.4316V45.2429V46.2229H29.4119V45.2429H30.3922V44.2626H31.3727V43.2826H32.3533V42.3024V41.3224Z" fill="#31617F"/>
<path d="M31.3726 37.4018H32.3528V36.4218H33.3328V35.4419V34.4613H32.3528V35.4419H31.3726V36.4218V37.4018Z" fill="#31617F"/>
<path d="M31.3727 52.1037H32.3533V51.1237H33.3335V50.1434H34.3138V49.1634V48.1831V47.2031H35.294V46.2229H36.2749V45.2429V44.2626H37.2551V43.2826V42.3023H38.2354H39.2157V41.3223H38.2354V40.3424V39.3624H39.2157V38.3818V37.4018V36.4218V35.4418H38.2354V36.4218V37.4018H37.2551V38.3818H36.2749V39.3624V40.3424V41.3223H35.294V42.3023V43.2826H34.3138V44.2626V45.2429H33.3335V46.2229H32.3533V47.2031H33.3335V48.1831H32.3533V49.1634H31.3727V50.1434V51.1237H30.3922H29.4119V52.1037H28.4316V53.0836V54.0642H29.4119H30.3922H31.3727V53.0836V52.1037Z" fill="#31617F"/>
<path d="M31.3724 48.1832V47.2032H30.3921V48.1832H31.3724Z" fill="#31617F"/>
<path d="M31.3724 37.4019H30.3921V38.3818H31.3724V37.4019Z" fill="#31617F"/>
<path d="M29.4121 43.2826H30.3924V42.3024H31.3729V41.3224H32.3535V40.3424V39.3624H33.3337V38.3818V37.4019H32.3535V38.3818H31.3729V39.3624H30.3924H29.4121V40.3424H30.3924V41.3224H29.4121V42.3024V43.2826Z" fill="#42748D"/>
<path d="M30.3916 38.3819V37.4019H31.3719V36.4219H30.3916H29.4116V37.4019H28.4316V38.3819H29.4116H30.3916Z" fill="#42748D"/>
<path d="M29.4116 41.3224H28.4316V42.3024H29.4116V41.3224Z" fill="#31617F"/>
<path d="M28.4315 52.1037H29.4117V51.1237H30.392H31.3725V50.1434V49.1634H32.3531V48.1832H33.3333V47.2032H32.3531V46.2229H33.3333V45.2429H34.3136V44.2626V43.2826H35.2939V42.3024V41.3224H36.2747V40.3424V39.3624V38.3818H35.2939V39.3624V40.3424H34.3136V41.3224V42.3024H33.3333V43.2826H32.3531V44.2626V45.2429H31.3725V46.2229H30.392V47.2032H31.3725V48.1832H30.392V47.2032H29.4117V48.1832H28.4315V49.1634H27.4509V50.1434H26.4706V51.1237H25.4901V52.1037H24.5098V53.0837H23.5293V54.0642H24.5098H25.4901H26.4706H27.4509H28.4315V53.0837V52.1037Z" fill="#42748D"/>
<path d="M28.4314 44.2626H29.4116V43.2827H28.4314H27.4508V44.2626H26.4706V45.2429H25.49V46.2229H24.5098V47.2032V48.1832H25.49V47.2032H26.4706V46.2229H27.4508H28.4314V45.2429V44.2626Z" fill="#42748D"/>
<path d="M28.431 43.2826V42.3024H27.4507H26.4707V43.2826H27.4507H28.431Z" fill="#31617F"/>
<path d="M28.4315 40.3424V39.3624H29.4118H30.392V38.3818H29.4118H28.4315H27.451V39.3624H26.4707V40.3424H27.451H28.4315Z" fill="#31617F"/>
<path d="M27.4507 41.3224V42.3024H28.431V41.3224H29.411V40.3424H28.431H27.4507H26.4707V41.3224H27.4507Z" fill="#42748D"/>
<path d="M26.47 43.2827H25.4897V44.2626H26.47V43.2827Z" fill="#31617F"/>
<path d="M26.47 42.3024V41.3224H25.4898H24.5098V42.3024H25.4898H26.47Z" fill="#31617F"/>
<path d="M25.4898 45.2429V44.2626H24.5098V45.2429H25.4898Z" fill="#31617F"/>
<path d="M24.5098 44.2626H25.4898V43.2826H26.47V42.3024H25.4898H24.5098V43.2826V44.2626Z" fill="#42748D"/>
<path d="M24.5096 43.2826V42.3024H23.5293V43.2826H24.5096Z" fill="#31617F"/>
<path d="M22.5493 53.0837V54.0642H23.5293V53.0837H22.5493Z" fill="#31617F"/>
<path d="M23.5297 53.0837H24.5103V52.1037H25.4905V51.1237H26.4711V50.1434H27.4513V49.1634H28.4319V48.1832H29.4121V47.2032H30.3924V46.2229H31.373V45.2429H32.3535V44.2626V43.2827H31.373V44.2626H30.3924V45.2429H29.4121V46.2229H28.4319V47.2032H27.4513V48.1832H26.4711V49.1634H25.4905V50.1434H24.5103V51.1237H23.5297V52.1037H22.5495H21.5689V53.0837H20.5884V54.0642H21.5689H22.5495V53.0837H23.5297Z" fill="#224D68"/>
<path d="M22.5495 48.1832V49.1634H21.5689V50.1434H20.5884V51.1237H21.5689H22.5495V50.1434H23.5297V49.1634H24.5103V48.1832H23.5297H22.5495Z" fill="#42748D"/>
<path d="M23.5286 44.2626V43.2827H22.5486H21.5684V44.2626H22.5486H23.5286Z" fill="#31617F"/>
<path d="M22.5486 47.2032H21.5684V48.1832H22.5486V47.2032Z" fill="#31617F"/>
<path d="M21.5688 53.0837V52.1037H22.5493H23.5296V51.1237H24.5101V50.1434H25.4904V49.1634H26.4709V48.1832H27.4512V47.2032H28.4318V46.2229H27.4512H26.4709V47.2032H25.4904V48.1832H24.5101V49.1634H23.5296V50.1434H22.5493V51.1237H21.5688H20.5882V52.1037H19.608H18.6277V53.0837H17.6475V54.0642H18.6277H19.608H20.5882V53.0837H21.5688Z" fill="#31617F"/>
<path d="M21.5687 45.2429H20.5884V46.2229H21.5687V45.2429Z" fill="#31617F"/>
<path d="M21.5687 45.2429V46.2229H20.5882V47.2032H19.6079V48.1832H20.5882H21.5687V47.2032H22.5493V46.2229H23.5295V45.2429H22.5493V44.2626H21.5687H20.5882V45.2429H21.5687Z" fill="#42748D"/>
<path d="M20.5879 49.1634V48.1832H19.6079V49.1634H20.5879Z" fill="#31617F"/>
<path d="M20.5879 46.2229V45.2429H19.6079H18.6279V46.2229H19.6079H20.5879Z" fill="#42748D"/>
<path d="M18.6279 50.1434H19.6079V49.1635H18.6279V50.1434Z" fill="#31617F"/>
<path d="M19.6079 47.2032V46.2229H18.6279V47.2032H19.6079Z" fill="#31617F"/>
<path d="M18.6272 53.0837V52.1037H19.6074H20.5877V51.1237H19.6074H18.6272H17.6469V52.1037H16.6661V53.0837H15.6858H14.7056V54.0643H15.6858H16.6661H17.6469V53.0837H18.6272Z" fill="#42748D"/>
<path d="M17.6475 50.1434V51.1237H18.6275V50.1434H17.6475Z" fill="#31617F"/>
<path d="M18.6266 50.1434V49.1634H19.6065V48.1832H18.6266H17.6466V49.1634H16.666V50.1434V51.1237H17.6466V50.1434H18.6266Z" fill="#42748D"/>
<path d="M18.6275 47.2032V46.2229H17.6475V47.2032H18.6275Z" fill="#42748D"/>
<path d="M16.6664 50.1434H15.6861V51.1237H14.7058H13.7256V52.1037H14.7058H15.6861H16.6664H17.6472V51.1237H16.6664V50.1434Z" fill="#31617F"/>
<path d="M15.686 49.1634H16.666V48.1832H17.6466V47.2032V46.2229H16.666V47.2032H15.686V48.1832V49.1634Z" fill="#31617F"/>
<path d="M14.7056 49.1635H13.7256V50.1434H14.7056V49.1635Z" fill="#31617F"/>
<path d="M14.7056 49.1634H15.6856V48.1832V47.2032H14.7056V48.1832H13.7256V49.1634H14.7056Z" fill="#42748D"/>
<path d="M12.7444 53.0837V52.1037H11.7642V53.0837H10.7842V54.0642H11.7642H12.7444H13.7247V53.0837H12.7444Z" fill="#31617F"/>
<path d="M12.7451 53.0837H13.7254V52.1037H12.7451V53.0837Z" fill="#42748D"/>
<path d="M13.7252 51.1237V50.1434H12.7449H11.7646V51.1237H12.7449H13.7252Z" fill="#31617F"/>
<path d="M10.7842 51.1237H9.8042V52.1037H10.7842H11.7642V51.1237H10.7842Z" fill="#31617F"/>
<path d="M8.82362 53.0837V52.1037H7.84336H6.86281V53.0837H5.88255H4.90201H3.92174H2.94148H1.96094V54.0642H2.94148H3.92174H4.90201H5.88255H6.86281H7.84336V53.0837H8.82362Z" fill="#31617F"/>
<path d="M4.90165 53.0837H5.88219H6.86246V52.1037H7.843H8.82326H9.80381V51.1237H10.7841H11.7643V50.1434H12.7449H13.7254V49.1635H12.7449H11.7643H10.7841V50.1434H9.80381H8.82326V51.1237H7.843H6.86246H5.88219V52.1037H4.90165H3.92139V53.0837H4.90165Z" fill="#42748D"/>
</g>
<defs>
<linearGradient id="paint0_linear_4199_681" x1="62.7885" y1="0.199872" x2="62.7885" y2="37.2665" gradientUnits="userSpaceOnUse">
<stop stop-color="#FFDB00"/>
<stop offset="1" stop-color="#FF663B"/>
</linearGradient>
<linearGradient id="paint1_linear_4199_681" x1="62.7888" y1="-0.155445" x2="62.7887" y2="37.2665" gradientUnits="userSpaceOnUse">
<stop stop-color="#FFDB00"/>
<stop offset="1" stop-color="#FF663B"/>
</linearGradient>
<linearGradient id="paint2_linear_4199_681" x1="62.8333" y1="37.1777" x2="62.8333" y2="0.0222144" gradientUnits="userSpaceOnUse">
<stop stop-color="#FF663B"/>
<stop offset="1" stop-color="#FFDB00"/>
</linearGradient>
<linearGradient id="paint3_linear_4199_681" x1="62.811" y1="-2.6231e-09" x2="62.811" y2="36.9778" gradientUnits="userSpaceOnUse">
<stop stop-color="#FFDB00"/>
<stop offset="1" stop-color="#FF663B"/>
</linearGradient>
<linearGradient id="paint4_linear_4199_681" x1="62.8331" y1="0.199875" x2="62.8331" y2="37.0888" gradientUnits="userSpaceOnUse">
<stop stop-color="#FFDB00"/>
<stop offset="1" stop-color="#FF663B"/>
</linearGradient>
<linearGradient id="paint5_linear_4199_681" x1="62.8331" y1="-0.155496" x2="62.8109" y2="37" gradientUnits="userSpaceOnUse">
<stop stop-color="#FFDB00"/>
<stop offset="1" stop-color="#FF663B"/>
</linearGradient>
<linearGradient id="paint6_linear_4199_681" x1="62.8333" y1="-0.155434" x2="62.8333" y2="37.2665" gradientUnits="userSpaceOnUse">
<stop stop-color="#FFDB00"/>
<stop offset="1" stop-color="#FF663B"/>
</linearGradient>
<clipPath id="clip0_4199_681">
<rect width="100" height="54" fill="white"/>
</clipPath>
</defs>
</svg>
