<svg width="100" height="32" viewBox="0 0 100 32" fill="none" xmlns="http://www.w3.org/2000/svg">
<g clip-path="url(#clip0_4197_23)">
<path d="M26.4708 17.6497H25.4902V18.6299H26.4708V17.6497Z" fill="#234E70"/>
<path d="M20.5882 21.571H19.6079V22.5516H20.5882V21.571Z" fill="#234E70"/>
<path d="M23.5296 19.6102H22.5493V20.5908H23.5296V19.6102Z" fill="#234E70"/>
<path d="M83.3336 29.4142H84.3138V28.434H83.3336H82.353V29.4142H83.3336Z" fill="#234E70"/>
<path d="M82.353 27.4534H83.3336V26.4731H82.353V27.4534Z" fill="#234E70"/>
<path d="M81.3726 28.434H82.3528V27.4535H81.3726V28.434Z" fill="#234E70"/>
<path d="M80.3924 29.4143H79.4121V30.3946H80.3924H81.3729H82.3532V29.4143H81.3729H80.3924Z" fill="#234E70"/>
<path d="M79.4121 29.4142V28.434H78.4319H77.451V27.4534H76.4708V26.4731H75.4905H74.5103V27.4534H75.4905V28.434H76.4708V29.4142H77.451V30.3945H78.4319V29.4142H79.4121Z" fill="#234E70"/>
<path d="M74.5101 23.5319H73.5293V24.5124H74.5101H75.4904V25.4927H76.4706V26.4732H77.4509H78.4317V27.4535H79.412H80.3923V26.4732V25.4927H79.412H78.4317V24.5124H77.4509H76.4706V23.5319H75.4904H74.5101Z" fill="#234E70"/>
<path d="M73.5293 25.4927V26.4732H74.5101V25.4927H73.5293Z" fill="#234E70"/>
<path d="M72.5488 23.5318H73.5291V22.5515H72.5488V23.5318Z" fill="#234E70"/>
<path d="M72.5491 25.4927H71.5688V26.4732H72.5491V25.4927Z" fill="#234E70"/>
<path d="M71.5686 24.5124V23.5319H70.5884V24.5124H71.5686Z" fill="#234E70"/>
<path d="M68.6274 20.5908V21.5711V22.5516H69.6077V23.5319H70.5882V22.5516H71.5685H72.5488V21.5711H71.5685H70.5882V20.5908H69.6077H68.6274Z" fill="#234E70"/>
<path d="M62.7451 16.6694V17.6497H63.7254V18.63H64.7059H65.6862V19.6102H66.6667V20.5908H67.647H68.6275V19.6102H67.647V18.63H66.6667V17.6497H65.6862H64.7059V16.6694H63.7254H62.7451Z" fill="#234E70"/>
<path d="M61.7646 15.6886V16.6694H62.7452V15.6886H61.7646Z" fill="#234E70"/>
<path d="M60.7847 14.7084V15.6886H61.7649V14.7084H60.7847Z" fill="#234E70"/>
<path d="M50.9805 15.6886H51.961V14.7084H50.9805V15.6886Z" fill="#234E70"/>
<path d="M50.0001 12.7478H49.0195V13.7281H50.0001V12.7478Z" fill="#234E70"/>
<path d="M48.0396 14.7084V15.6886H49.0198V14.7084H48.0396Z" fill="#234E70"/>
<path d="M46.0786 20.5908H47.0589V19.6102H46.0786V20.5908Z" fill="#234E70"/>
<path d="M46.0787 23.5318V22.5515H45.0981V23.5318H46.0787Z" fill="#234E70"/>
<path d="M46.0787 18.6299V17.6497H45.0981V18.6299H46.0787Z" fill="#234E70"/>
<path d="M45.0981 10.7867V11.767H46.0787V12.7478H47.059V11.767H48.0395H49.0198V10.7867H48.0395H47.059V9.80644H46.0787V8.82617H45.0981V9.80644V10.7867Z" fill="#234E70"/>
<path d="M45.0982 30.3945H46.0787H47.059H48.0395H49.0198H50.0003H50.9806H51.9611H52.9414H53.9217H54.9025H55.8827H56.863H57.8433V29.4142H58.8238H59.8044H60.7846H61.7649V28.434H62.7454H63.7257V29.4142H64.7062V28.434V27.4534V26.4731H65.6865V27.4534H66.667H67.6473V28.434H68.6278H69.6081V29.4142H70.5886H71.5689H72.5492H73.5294H74.5103V28.434H73.5294H72.5492V27.4534H71.5689H70.5886V26.4731H69.6081V25.4926H68.6278V24.5123H67.6473V23.5318H66.667V22.5515H65.6865V21.571V20.5907H64.7062V19.6102H63.7257H62.7454V18.6299H61.7649V17.6497H60.7846V16.6694H59.8044H58.8238V15.6886H57.8433V14.7083H56.863V13.728V12.7478V11.767H55.8827H54.9025H53.9217V10.7867H52.9414V9.80644H51.9611V8.82617H50.9806V9.80644V10.7867V11.767H51.9611V12.7478V13.728V14.7083H52.9414V15.6886V16.6694H53.9217V17.6497V18.6299H54.9025V19.6102V20.5907H55.8827V21.571V22.5515H56.863V23.5318H57.8433V24.5123V25.4926H56.863V24.5123H55.8827V23.5318V22.5515H54.9025V21.571V20.5907H53.9217V19.6102H52.9414V18.6299V17.6497H51.9611V18.6299V19.6102V20.5907V21.571V22.5515V23.5318V24.5123H50.9806V25.4926H50.0003V24.5123V23.5318V22.5515V21.571H50.9806V20.5907V19.6102V18.6299H50.0003V19.6102V20.5907H49.0198V21.571V22.5515H48.0395V23.5318H47.059V24.5123H46.0787V25.4926V26.4731H45.0982V25.4926H44.1179V26.4731V27.4534H43.1374V28.434V29.4142H42.1571H41.1768V30.3945H40.1963V31.3753H41.1768H42.1571H43.1374H44.1179V30.3945H45.0982ZM49.0198 27.4534H50.0003V28.434H49.0198V27.4534Z" fill="#234E70"/>
<path d="M45.0979 23.5319H44.1177V24.5124H45.0979V23.5319Z" fill="#234E70"/>
<path d="M44.1177 16.6694V17.6497H45.0979V16.6694V15.6886H44.1177V16.6694Z" fill="#234E70"/>
<path d="M44.1177 13.7281H45.0979V12.7478H44.1177V13.7281Z" fill="#234E70"/>
<path d="M43.1372 21.5711H44.1178V20.5908H43.1372V21.5711Z" fill="#234E70"/>
<path d="M44.1178 10.7868V9.80652H43.1372V10.7868V11.767H44.1178V10.7868Z" fill="#234E70"/>
<path d="M42.1567 26.4731V27.4534H43.137V26.4731H42.1567Z" fill="#234E70"/>
<path d="M43.137 22.5515H42.1567V23.5318H43.137V22.5515Z" fill="#234E70"/>
<path d="M42.1567 19.6102V20.5908H43.137V19.6102H42.1567Z" fill="#234E70"/>
<path d="M43.137 12.7478V11.767H42.1567V12.7478V13.7281V14.7083H43.137V13.7281V12.7478Z" fill="#234E70"/>
<path d="M41.1768 21.5711H42.157V20.5908H41.1768V21.5711Z" fill="#234E70"/>
<path d="M41.1768 18.63V19.6103H42.157V18.63H41.1768Z" fill="#234E70"/>
<path d="M40.1963 10.7867V11.767H41.1768V10.7867H40.1963Z" fill="#234E70"/>
<path d="M39.2153 21.5711V22.5516H40.1959V21.5711V20.5908H39.2153V21.5711Z" fill="#234E70"/>
<path d="M40.1959 17.6497H41.1764V16.6695H42.1567V15.6886V14.7084H41.1764V15.6886H40.1959H39.2153V16.6695V17.6497H40.1959Z" fill="#234E70"/>
<path d="M40.1959 13.728H39.2153V14.7083H40.1959V13.728Z" fill="#234E70"/>
<path d="M39.2156 29.4143H40.1962V28.434V27.4535H41.1767V26.4732H42.157V25.4927V24.5124V23.5319H41.1767V24.5124H40.1962V25.4927H39.2156V26.4732V27.4535H38.2354V28.434V29.4143H37.2551V28.434V27.4535H38.2354V26.4732V25.4927V24.5124H37.2551V25.4927V26.4732H36.2748V27.4535V28.434H35.294H34.3138V29.4143V30.3945H33.3335V31.3754H34.3138H35.294V30.3945H36.2748V31.3754H37.2551H38.2354H39.2156V30.3945V29.4143Z" fill="#234E70"/>
<path d="M39.2156 23.5319H38.2354V24.5124H39.2156V23.5319Z" fill="#234E70"/>
<path d="M37.2552 11.767V10.7867H36.2749V11.767V12.7478H37.2552V11.767Z" fill="#234E70"/>
<path d="M37.2552 8.82617H36.2749V9.80644H37.2552V8.82617Z" fill="#234E70"/>
<path d="M35.2939 14.7084V15.6886H36.2748V14.7084H35.2939Z" fill="#234E70"/>
<path d="M33.3335 18.6299H34.3138V17.6497H33.3335V18.6299Z" fill="#234E70"/>
<path d="M33.3333 12.7479H34.3136V11.767V10.7868V9.80652H33.3333V10.7868H32.353V11.767H33.3333V12.7479Z" fill="#234E70"/>
<path d="M33.3333 13.728H32.353V14.7083H33.3333V13.728Z" fill="#234E70"/>
<path d="M32.3531 15.6886V14.7084H31.3726V15.6886H32.3531Z" fill="#234E70"/>
<path d="M32.3531 11.767H31.3726V12.7478H32.3531V11.767Z" fill="#234E70"/>
<path d="M31.3726 15.6886H30.3921V16.6694H31.3726V15.6886Z" fill="#234E70"/>
<path d="M31.3726 12.7478H30.3921V13.7281H31.3726V12.7478Z" fill="#234E70"/>
<path d="M30.3919 17.6497H29.4116V18.6299H30.3919V17.6497Z" fill="#234E70"/>
<path d="M29.4119 20.5908V19.6102H28.4316V20.5908H29.4119Z" fill="#234E70"/>
<path d="M28.4316 16.6694V17.6497H29.4119V16.6694H28.4316Z" fill="#234E70"/>
<path d="M27.451 21.5711V20.5908H26.4707V21.5711H27.451Z" fill="#234E70"/>
<path d="M27.451 18.63H26.4707V19.6103H27.451V18.63Z" fill="#234E70"/>
<path d="M26.4708 22.5516V21.571H25.4902V22.5516H26.4708Z" fill="#234E70"/>
<path d="M24.5101 23.5319H25.4904V22.5516H24.5101V21.5711V20.5908H23.5296V21.5711H22.5493V22.5516H23.5296V23.5319H22.5493V24.5124V25.4927H23.5296H24.5101V24.5124V23.5319Z" fill="#234E70"/>
<path d="M21.5685 27.4535V26.4732H22.5491V25.4927H21.5685H20.588V26.4732H19.6077V27.4535H18.6274V28.434H19.6077H20.588V27.4535H21.5685Z" fill="#234E70"/>
<path d="M20.5882 23.5319H19.6079V24.5124H20.5882V23.5319Z" fill="#234E70"/>
<path d="M19.608 25.4926V24.5123H18.6277H17.6475V25.4926H18.6277H19.608Z" fill="#234E70"/>
<path d="M17.6473 25.4927H16.6665V26.4732H17.6473V25.4927Z" fill="#234E70"/>
<path d="M15.6861 30.3946H16.6664V29.4143H15.6861H14.7058H13.7256V30.3946V31.3754H14.7058V30.3946H15.6861Z" fill="#234E70"/>
<path d="M14.7058 28.434H15.6861V27.4534H16.6664V26.4731H15.6861H14.7058V27.4534H13.7256V28.434H14.7058Z" fill="#234E70"/>
<path d="M12.7452 28.434H11.7646V29.4142H12.7452H13.7257V28.434H12.7452Z" fill="#234E70"/>
<path d="M13.7257 25.4927H12.7451V26.4732H13.7257V25.4927Z" fill="#234E70"/>
<path d="M11.7646 30.3946V29.4143H10.7843H9.80407H8.82352V30.3946H7.84326V31.3754H8.82352H9.80407H10.7843V30.3946H11.7646Z" fill="#234E70"/>
<path d="M3.92167 29.4143H2.94141V30.3946H3.92167V29.4143Z" fill="#234E70"/>
<path d="M0.980263 30.3945H0V31.3754H0.980263H1.96081V30.3945H0.980263Z" fill="#234E70"/>
<path d="M50.9803 7.84566V6.86511H50V7.84566H50.9803Z" fill="#E9F3F8"/>
<path d="M46.0787 1.96325V2.94379H45.0981V3.92405V4.9046V5.88486H46.0787V6.86512V7.84567H47.059V8.82621H48.0395V7.84567H49.0198V6.86512V5.88486H50.0003V4.9046V3.92405H49.0198V2.94379V1.96325V0.982985H48.0395V0.00244141H47.059H46.0787V0.982985V1.96325Z" fill="#E9F3F8"/>
<path d="M37.2552 6.86511H36.2749V7.84566H37.2552V6.86511Z" fill="#E9F3F8"/>
<path d="M36.2748 7.8457H35.2939V8.82625H36.2748V7.8457Z" fill="#E9F3F8"/>
<path d="M35.2937 8.82617H34.3135V9.80644H35.2937V8.82617Z" fill="#E9F3F8"/>
<path d="M99.0196 30.3945H98.0393V29.4142H97.0591H96.0783H95.098H94.1177H93.1375V28.434H92.1566H91.1764H90.1961H89.2159V27.4534H88.2353H87.2548H86.2745H85.2942V26.4731H84.3137H83.3334V27.4534H82.3529V28.434H83.3334H84.3137V29.4142H83.3334H82.3529V30.3945H81.3726H80.3921V31.3753H81.3726H82.3529H83.3334H84.3137H85.2942H86.2745H87.2548H88.2353H89.2159H90.1961H91.1764H92.1566H93.1375H94.1177H95.098H96.0783H97.0591H98.0393H99.0196H99.9999V30.3945H99.0196Z" fill="#1F4B66"/>
<path d="M80.3923 27.4535H79.4121H78.4318V26.4732H77.451H76.4707V27.4535H77.451V28.434H78.4318H79.4121V29.4143H80.3923H81.3729H82.3531V28.434H81.3729V27.4535H82.3531V26.4732H83.3337V25.4927H82.3531H81.3729H80.3923V26.4732V27.4535Z" fill="#1F4B66"/>
<path d="M79.4119 30.3945H78.4316H77.4508H76.4706V29.4142H75.4903H74.51H73.5292H72.5489H71.5687H70.5884H69.6079V28.434H68.6276H67.6471V27.4534H66.6668H65.6863V26.4731H64.706V27.4534V28.434V29.4142H63.7255V28.434H62.7452H61.7646V29.4142H60.7844H59.8041H58.8236H57.843V30.3945H56.8628H55.8825H54.9022H53.9214H52.9412H51.9609H50.9804H50.0001H49.0195H48.0393H47.0587H46.0785H45.0979H44.1177V31.3753H45.0979H46.0785H47.0587H48.0393H49.0195H50.0001H50.9804H51.9609H52.9412H53.9214H54.9022H55.8825H56.8628H57.843H58.8236H59.8041H60.7844H61.7646H62.7452H63.7255H64.706H65.6863H66.6668H67.6471H68.6276H69.6079H70.5884H71.5687H72.5489H73.5292H74.51H75.4903H76.4706H77.4508H78.4316H79.4119H80.3922V30.3945H79.4119Z" fill="#224D68"/>
<path d="M78.4316 29.4143V30.3946H79.4119V29.4143H78.4316Z" fill="#1F4B66"/>
<path d="M79.4119 25.4926H80.3922V24.5123H79.4119H78.4316V25.4926H79.4119Z" fill="#1F4B66"/>
<path d="M76.4707 29.4143V30.3946H77.451V29.4143H76.4707Z" fill="#1F4B66"/>
<path d="M77.451 24.5124H78.4318V23.5319H77.451H76.4707V24.5124H77.451Z" fill="#1F4B66"/>
<path d="M74.5101 23.5318H75.4904H76.4706V22.5515H75.4904H74.5101H73.5293V23.5318H74.5101Z" fill="#1F4B66"/>
<path d="M73.5291 22.5516V21.571H72.5488V22.5516H73.5291Z" fill="#1F4B66"/>
<path d="M71.5686 21.5711H72.5489V20.5908H71.5686H70.5884V21.5711H71.5686Z" fill="#1F4B66"/>
<path d="M69.6077 20.5908H70.5882V19.6102H69.6077H68.6274V20.5908H69.6077Z" fill="#1F4B66"/>
<path d="M68.6275 19.6103V18.63H67.647V19.6103H68.6275Z" fill="#1F4B66"/>
<path d="M67.6472 18.6299V17.6497H66.667V18.6299H67.6472Z" fill="#1F4B66"/>
<path d="M65.6863 17.6497H66.6669V16.6694H65.6863H64.7061V17.6497H65.6863Z" fill="#1F4B66"/>
<path d="M55.8823 24.5123H56.8626V25.4926H57.8429V24.5123V23.5318H56.8626V22.5515H55.8823V23.5318V24.5123Z" fill="#31617F"/>
<path d="M55.8826 9.80644V8.82617H54.9023V9.80644V10.7867H55.8826V11.767H56.8629V12.7478V13.728V14.7083H57.8431V15.6886H58.8237V16.6694H59.8042H60.7845V17.6497H61.7647V18.6299H62.7453V19.6102H63.7256H64.7061V20.5907H65.6864V21.571V22.5515H66.6669V23.5318H67.6472V24.5123H68.6277V25.4926H69.608V26.4731H70.5885V27.4534H71.5688H72.549V28.434H73.5293H74.5101V29.4142H75.4904H76.4707V28.434H75.4904V27.4534H74.5101V26.4731H73.5293V25.4926H74.5101V26.4731H75.4904H76.4707V25.4926H75.4904V24.5123H74.5101H73.5293V23.5318H72.549V22.5515H71.5688H70.5885V23.5318H71.5688V24.5123H70.5885V23.5318H69.608V22.5515H68.6277V21.571V20.5907H67.6472H66.6669V19.6102H65.6864V18.6299H64.7061H63.7256V17.6497H62.7453V16.6694H61.7647V15.6886H60.7845V14.7083H61.7647V15.6886H62.7453V16.6694H63.7256H64.7061V15.6886H63.7256V14.7083H62.7453V13.728H61.7647V12.7478H60.7845H59.8042V11.767H58.8237V10.7867H57.8431V9.80644H56.8629H55.8826ZM71.5688 25.4926H72.549V26.4731H71.5688V25.4926Z" fill="#1F4B66"/>
<path d="M55.8823 9.80644H56.8626H57.8429V8.82617H56.8626H55.8823V9.80644Z" fill="#D4E3E8"/>
<path d="M56.8626 8.82625V7.8457H55.8823V8.82625H56.8626Z" fill="#DAE8EE"/>
<path d="M54.9023 22.5516H55.8826V21.5711V20.5908H54.9023V21.5711V22.5516Z" fill="#31617F"/>
<path d="M54.9025 10.7868V9.80652H53.9217H52.9414V10.7868H53.9217V11.767H54.9025H55.8828V10.7868H54.9025Z" fill="#D4E3E8"/>
<path d="M54.9023 8.82625H55.8826V7.8457H54.9023V8.82625Z" fill="#D4E3E8"/>
<path d="M55.8826 7.84566V6.86511H54.9023V7.84566H55.8826Z" fill="#DAE8EE"/>
<path d="M53.9214 7.8457V8.82625H54.9022V7.8457H53.9214Z" fill="#1F4B66"/>
<path d="M53.9214 7.84566H54.9022V6.86511H53.9214V7.84566Z" fill="#D4E3E8"/>
<path d="M54.9022 6.86515V5.88489H53.9214V6.86515H54.9022Z" fill="#DAE8EE"/>
<path d="M52.9414 6.86511V7.84566H53.9217V6.86511H52.9414Z" fill="#1F4B66"/>
<path d="M52.9414 6.86515H53.9217V5.88489H52.9414V6.86515Z" fill="#D4E3E8"/>
<path d="M51.9609 8.82617V9.80644H52.9412V8.82617H51.9609Z" fill="#D4E3E8"/>
<path d="M50.9803 21.5711H50V22.5516V23.5319V24.5124V25.4927H50.9803V24.5124H51.9608V23.5319V22.5516V21.5711V20.5908H50.9803V21.5711Z" fill="#31617F"/>
<path d="M50.9805 18.6299V19.6102V20.5907H51.961V19.6102V18.6299V17.6497H50.9805V18.6299Z" fill="#224D68"/>
<path d="M50.0003 7.84569V6.86515V5.88489H49.0198V6.86515V7.84569H48.0395V8.82624H47.059V7.84569H46.0787V6.86515V5.88489H45.0981V6.86515V7.84569V8.82624H46.0787V9.8065H47.059V10.7868H48.0395H49.0198H50.0003V9.8065H49.0198V8.82624H50.0003H50.9806V7.84569H50.0003Z" fill="#D4E3E8"/>
<path d="M50.0001 27.4535H49.0195V28.434H50.0001V27.4535Z" fill="#31617F"/>
<path d="M50.0001 16.6694V15.6886V14.7083V13.728H49.0195V14.7083V15.6886V16.6694V17.6496V18.6299V19.6102V20.5907H50.0001V19.6102V18.6299V17.6496V16.6694Z" fill="#224D68"/>
<path d="M49.0194 8.82617V9.80644H50V10.7867H49.0194V11.767H48.0392H47.0586V12.7478H46.0784V11.767H45.0978V12.7478V13.728V14.7083V15.6886V16.6694V17.6497H46.0784V18.6299H45.0978V17.6497H44.1175V18.6299V19.6102V20.5907V21.571H43.137V22.5515V23.5318H42.1567V24.5123V25.4926V26.4731H43.137V25.4926V24.5123H44.1175V23.5318V22.5515H45.0978V21.571H46.0784V22.5515V23.5318H45.0978V24.5123V25.4926V26.4731H46.0784V25.4926V24.5123H47.0586V23.5318V22.5515H48.0392V21.571H49.0194V20.5907V19.6102V18.6299V17.6497V16.6694V15.6886H48.0392V14.7083H49.0194V13.728V12.7478H50V13.728V14.7083V15.6886V16.6694V17.6497V18.6299H50.9802V17.6497H51.9608H52.941V18.6299V19.6102H53.9213V20.5907H54.9021V19.6102V18.6299H53.9213V17.6497V16.6694H52.941V15.6886V14.7083H51.9608V15.6886H50.9802V14.7083H51.9608V13.728V12.7478V11.767H50.9802V10.7867V9.80644V8.82617H50H49.0194ZM47.0586 20.5907H46.0784V19.6102H47.0586V20.5907Z" fill="#31617F"/>
<path d="M48.0396 22.5516H49.0198V21.571H48.0396V22.5516Z" fill="#224D68"/>
<path d="M49.0198 0.982985V1.96325V2.94379V3.92405H50.0004V4.9046V5.88486V6.86512H50.9806V7.84567V8.82621H51.9612H52.9414V9.80647H53.9217H54.9025V8.82621H53.9217V7.84567H52.9414V6.86512V5.88486H53.9217V4.9046H52.9414V3.92405H51.9612V2.94379H50.9806V1.96325V0.982985H50.0004V0.00244141H49.0198H48.0396V0.982985H49.0198Z" fill="#DAE8EE"/>
<path d="M47.0586 23.5318H48.0391V22.5515H47.0586V23.5318Z" fill="#224D68"/>
<path d="M46.0787 21.571H45.0981V22.5516H46.0787V21.571Z" fill="#224D68"/>
<path d="M44.1178 24.5123H43.1372V25.4926V26.4731V27.4534H44.1178V26.4731V25.4926H45.098V24.5123H44.1178Z" fill="#224D68"/>
<path d="M45.0979 22.5515H44.1177V23.5318H45.0979V22.5515Z" fill="#224D68"/>
<path d="M44.1177 14.7083V15.6886H45.0979V14.7083V13.728H44.1177V14.7083Z" fill="#224D68"/>
<path d="M44.1177 12.7478H45.0979V11.767H44.1177V12.7478Z" fill="#42748D"/>
<path d="M44.1177 1.96326V2.9438H45.0979V1.96326H44.1177Z" fill="#D4E3E8"/>
<path d="M43.1372 18.6299V19.6102V20.5907H44.1178V19.6102V18.6299V17.6497H43.1372V18.6299Z" fill="#224D68"/>
<path d="M44.1178 14.7083V13.7281V12.7478H43.1372V13.7281V14.7083V15.6886V16.6694H44.1178V15.6886V14.7083Z" fill="#42748D"/>
<path d="M44.1178 12.7478V11.767H43.1372V12.7478H44.1178Z" fill="#31617F"/>
<path d="M42.1567 28.434H43.137V27.4535H42.1567V28.434Z" fill="#224D68"/>
<path d="M43.1373 22.5516V21.5711V20.5908H42.157V21.5711H41.1768V22.5516V23.5319H42.157V22.5516H43.1373Z" fill="#224D68"/>
<path d="M42.1567 10.7867V11.767H43.137V10.7867V9.80646H44.1175V10.7867V11.767H45.0978V10.7867V9.80646V8.8262V7.84566V6.86511H44.1175V7.84566V8.8262H43.137V7.84566H42.1567V8.8262V9.80646V10.7867Z" fill="#31617F"/>
<path d="M42.1571 27.4534V26.4731H41.1768V27.4534H40.1963V28.434V29.4142H41.1768H42.1571H43.1374V28.434H42.1571V27.4534Z" fill="#31617F"/>
<path d="M42.1571 12.7478V11.767H41.1768V12.7478V13.7281H40.1963V14.7083V15.6886H41.1768V14.7083H42.1571V13.7281V12.7478Z" fill="#31617F"/>
<path d="M41.1768 11.767H42.157V10.7867V9.80644V8.82617H41.1768V9.80644V10.7867V11.767Z" fill="#42748D"/>
<path d="M40.1963 30.3946H41.1768V29.4143H40.1963V30.3946Z" fill="#224D68"/>
<path d="M40.1963 24.5124H41.1768V23.5319H40.1963V24.5124Z" fill="#224D68"/>
<path d="M41.1765 21.5711V20.5908H42.1568V19.6102H41.1765V18.63H42.1568V19.6102H43.137V18.63V17.6497H44.1176V16.6695H43.137V15.6886V14.7084H42.1568V15.6886V16.6695H41.1765V17.6497H40.196V18.63V19.6102V20.5908V21.5711V22.5516H39.2154H38.2351H37.2549V23.5319V24.5124H38.2351V23.5319H39.2154V24.5124H38.2351V25.4927V26.4732V27.4535H39.2154V26.4732V25.4927H40.196V24.5124V23.5319H41.1765V22.5516V21.5711Z" fill="#31617F"/>
<path d="M41.1764 13.7281V12.7478V11.767H40.1959V12.7478H39.2153V13.7281H40.1959H41.1764Z" fill="#42748D"/>
<path d="M41.1768 3.92407H40.1963V4.90462H41.1768V3.92407Z" fill="#D4E3E8"/>
<path d="M40.1959 29.4143H39.2153V30.3946V31.3754H40.1959V30.3946V29.4143Z" fill="#31617F"/>
<path d="M40.1959 14.7084H39.2153V15.6886H40.1959V14.7084Z" fill="#224D68"/>
<path d="M40.1959 11.767V10.7868H41.1764V9.80652H40.1959H39.2153V10.7868V11.767V12.7479H40.1959V11.767Z" fill="#31617F"/>
<path d="M40.1959 8.82625V7.8457H39.2153V8.82625V9.80651H40.1959V8.82625Z" fill="#42748D"/>
<path d="M39.2154 22.5515V21.571V20.5907H40.196V19.6102V18.6299V17.6497H39.2154V18.6299V19.6102H38.2351V20.5907V21.571H37.2549V22.5515H38.2351H39.2154Z" fill="#42748D"/>
<path d="M39.2156 16.6694H38.2354V17.6497V18.63H39.2156V17.6497V16.6694Z" fill="#224D68"/>
<path d="M39.2154 10.7868V9.80652H38.2351V10.7868H37.2549V11.767V12.7479V13.7281V14.7084H38.2351V13.7281V12.7479H39.2154V11.767V10.7868Z" fill="#42748D"/>
<path d="M37.2549 28.434V29.4143H38.2351V28.434V27.4535H37.2549V28.434Z" fill="#31617F"/>
<path d="M38.2351 20.5908V19.6102H37.2549V20.5908V21.571H38.2351V20.5908Z" fill="#224D68"/>
<path d="M38.2351 5.88486H39.2154V4.9046H40.196V3.92405H41.1765V4.9046H40.196V5.88486H41.1765V6.86512H42.1568V5.88486H43.137V4.9046V3.92405H44.1176V4.9046V5.88486V6.86512H45.0978V5.88486V4.9046V3.92405V2.94379H44.1176V1.96325H45.0978V2.94379H46.0784V1.96325V0.982985V0.00244141H45.0978H44.1176H43.137H42.1568H41.1765V0.982985H40.196V1.96325V2.94379H39.2154V3.92405H38.2351V4.9046H37.2549V5.88486V6.86512H38.2351V5.88486Z" fill="#FCFEFF"/>
<path d="M36.2749 25.4926H37.2552V24.5123H36.2749V25.4926Z" fill="#42748D"/>
<path d="M36.2749 15.6886H37.2552V14.7084H36.2749V15.6886Z" fill="#42748D"/>
<path d="M37.2552 12.7478H36.2749V13.7281V14.7083H37.2552V13.7281V12.7478Z" fill="#31617F"/>
<path d="M37.2552 8.82623V9.80649H36.2749V10.7868H37.2552H38.2354V9.80649H39.2157V8.82623V7.84568H40.1962V8.82623V9.80649H41.1768V8.82623H42.157V7.84568H43.1373V8.82623H44.1178V7.84568V6.86514V5.88488V4.90462V3.92407H43.1373V4.90462V5.88488H42.157V6.86514H41.1768V5.88488H40.1962V4.90462H39.2157V5.88488H38.2354V6.86514H37.2552V7.84568H36.2749V8.82623H37.2552Z" fill="#D4E3E8"/>
<path d="M35.2939 30.3945V31.3754H36.2748V30.3945H35.2939Z" fill="#31617F"/>
<path d="M35.2939 25.4927V26.4732V27.4535V28.434H36.2748V27.4535V26.4732H37.255V25.4927H36.2748H35.2939Z" fill="#31617F"/>
<path d="M35.2939 14.7083H36.2748V13.7281V12.7478H35.2939V13.7281V14.7083Z" fill="#224D68"/>
<path d="M36.2748 9.80644V8.82617H35.2939V9.80644H36.2748Z" fill="#D4E3E8"/>
<path d="M34.3138 14.7084V15.6886H33.3335V16.6695V17.6497H34.3138H35.294V16.6695V15.6886V14.7084H34.3138Z" fill="#224D68"/>
<path d="M34.3135 14.7083H35.2937V13.7281V12.7478H34.3135V13.7281V14.7083Z" fill="#31617F"/>
<path d="M35.2937 11.767V10.7867H34.3135V11.767V12.7478H35.2937V11.767Z" fill="#42748D"/>
<path d="M35.2937 10.7868V11.767V12.7479H36.2746V11.767V10.7868V9.80652H35.2937H34.3135V10.7868H35.2937Z" fill="#31617F"/>
<path d="M34.3136 30.3945V29.4143V28.434H35.2939V27.4535V26.4732V25.4927H36.2747V24.5124H37.255V23.5319V22.5516V21.571H36.2747V22.5516V23.5319H35.2939V24.5124H34.3136V25.4927V26.4732V27.4535H33.3334V28.434H32.3531V29.4143H31.3726V30.3945V31.3754H32.3531H33.3334V30.3945H34.3136Z" fill="#224D68"/>
<path d="M33.3335 19.6103H34.3138V18.63H33.3335V19.6103Z" fill="#31617F"/>
<path d="M33.3335 15.6886H34.3138V14.7084H33.3335V15.6886Z" fill="#31617F"/>
<path d="M34.3138 14.7083V13.7281V12.7478H33.3335V13.7281V14.7083H34.3138Z" fill="#42748D"/>
<path d="M33.3333 17.6497H32.353V18.6299V19.6102V20.5907H33.3333V19.6102V18.6299V17.6497Z" fill="#224D68"/>
<path d="M32.353 17.6497H33.3333V16.6694H32.353V17.6497Z" fill="#31617F"/>
<path d="M32.3533 18.63H31.3727V19.6103H30.3922V20.5908H29.4119V21.5711H28.4316V22.5516V23.5319H29.4119V22.5516H30.3922V21.5711H31.3727V20.5908H32.3533V19.6103V18.63Z" fill="#31617F"/>
<path d="M31.3726 14.7083H32.3531V13.7281H33.3334V12.7478V11.767H32.3531V12.7478H31.3726V13.7281V14.7083Z" fill="#31617F"/>
<path d="M31.3727 29.4142H32.3533V28.434H33.3335V27.4534H34.3138V26.4732V25.4926V24.5124H35.294V23.5318H36.2749V22.5516V21.571H37.2551V20.5907V19.6102H38.2354H39.2157V18.6299H38.2354V17.6497V16.6694H39.2157V15.6886V14.7083V13.7281V12.7478H38.2354V13.7281V14.7083H37.2551V15.6886H36.2749V16.6694V17.6497V18.6299H35.294V19.6102V20.5907H34.3138V21.571V22.5516H33.3335V23.5318H32.3533V24.5124H33.3335V25.4926H32.3533V26.4732H31.3727V27.4534V28.434H30.3922H29.4119V29.4142H28.4316V30.3945V31.3753H29.4119H30.3922H31.3727V30.3945V29.4142Z" fill="#31617F"/>
<path d="M31.3726 25.4926V24.5123H30.3921V25.4926H31.3726Z" fill="#31617F"/>
<path d="M31.3726 14.7084H30.3921V15.6886H31.3726V14.7084Z" fill="#31617F"/>
<path d="M29.4116 20.5908H30.3919V19.6102H31.3724V18.63H32.353V17.6497V16.6695H33.3332V15.6886V14.7084H32.353V15.6886H31.3724V16.6695H30.3919H29.4116V17.6497H30.3919V18.63H29.4116V19.6102V20.5908Z" fill="#42748D"/>
<path d="M30.3922 15.6886V14.7083H31.3727V13.728H30.3922H29.4119V14.7083H28.4316V15.6886H29.4119H30.3922Z" fill="#42748D"/>
<path d="M29.4119 18.63H28.4316V19.6103H29.4119V18.63Z" fill="#31617F"/>
<path d="M28.4315 29.4142H29.4117V28.434H30.392H31.3725V27.4534V26.4732H32.3531V25.4926H33.3333V24.5124H32.3531V23.5318H33.3333V22.5516H34.3136V21.571V20.5908H35.2939V19.6102V18.6299H36.2747V17.6497V16.6694V15.6886H35.2939V16.6694V17.6497H34.3136V18.6299V19.6102H33.3333V20.5908H32.3531V21.571V22.5516H31.3725V23.5318H30.392V24.5124H31.3725V25.4926H30.392V24.5124H29.4117V25.4926H28.4315V26.4732H27.4509V27.4534H26.4706V28.434H25.4901V29.4142H24.5098V30.3945H23.5293V31.3753H24.5098H25.4901H26.4706H27.4509H28.4315V30.3945V29.4142Z" fill="#42748D"/>
<path d="M28.4314 21.5711H29.4116V20.5908H28.4314H27.4508V21.5711H26.4706V22.5516H25.49V23.5319H24.5098V24.5124V25.4927H25.49V24.5124H26.4706V23.5319H27.4508H28.4314V22.5516V21.5711Z" fill="#42748D"/>
<path d="M28.4315 20.5908V19.6102H27.451H26.4707V20.5908H27.451H28.4315Z" fill="#31617F"/>
<path d="M28.4315 17.6497V16.6694H29.4118H30.392V15.6886H29.4118H28.4315H27.451V16.6694H26.4707V17.6497H27.451H28.4315Z" fill="#31617F"/>
<path d="M27.451 18.6299V19.6102H28.4315V18.6299H29.4118V17.6497H28.4315H27.451H26.4707V18.6299H27.451Z" fill="#42748D"/>
<path d="M26.4708 20.5908H25.4902V21.5711H26.4708V20.5908Z" fill="#31617F"/>
<path d="M26.4706 19.6103V18.63H25.49H24.5098V19.6103H25.49H26.4706Z" fill="#31617F"/>
<path d="M25.49 22.5516V21.571H24.5098V22.5516H25.49Z" fill="#31617F"/>
<path d="M24.5098 21.571H25.49V20.5908H26.4706V19.6102H25.49H24.5098V20.5908V21.571Z" fill="#42748D"/>
<path d="M24.5098 20.5908V19.6102H23.5293V20.5908H24.5098Z" fill="#31617F"/>
<path d="M22.5493 30.3945V31.3754H23.5296V30.3945H22.5493Z" fill="#31617F"/>
<path d="M23.5292 30.3946H24.5098V29.4143H25.49V28.434H26.4706V27.4535H27.4509V26.4732H28.4314V25.4927H29.4117V24.5124H30.3919V23.5319H31.3725V22.5516H32.353V21.5711V20.5908H31.3725V21.5711H30.3919V22.5516H29.4117V23.5319H28.4314V24.5124H27.4509V25.4927H26.4706V26.4732H25.49V27.4535H24.5098V28.434H23.5292V29.4143H22.549H21.5684V30.3946H20.5879V31.3754H21.5684H22.549V30.3946H23.5292Z" fill="#224D68"/>
<path d="M22.549 25.4927V26.4732H21.5684V27.4535H20.5879V28.434H21.5684H22.549V27.4535H23.5292V26.4732H24.5098V25.4927H23.5292H22.549Z" fill="#42748D"/>
<path d="M23.5292 21.5711V20.5908H22.5489H21.5684V21.5711H22.5489H23.5292Z" fill="#31617F"/>
<path d="M22.5489 24.5123H21.5684V25.4926H22.5489V24.5123Z" fill="#31617F"/>
<path d="M21.5688 30.3945V29.4143H22.5493H23.5296V28.434H24.5101V27.4535H25.4904V26.4732H26.4709V25.4927H27.4512V24.5124H28.4318V23.5319H27.4512H26.4709V24.5124H25.4904V25.4927H24.5101V26.4732H23.5296V27.4535H22.5493V28.434H21.5688H20.5882V29.4143H19.608H18.6277V30.3945H17.6475V31.3754H18.6277H19.608H20.5882V30.3945H21.5688Z" fill="#31617F"/>
<path d="M21.5684 22.5515H20.5879V23.5318H21.5684V22.5515Z" fill="#31617F"/>
<path d="M21.5687 22.5516V23.5319H20.5882V24.5124H19.6079V25.4927H20.5882H21.5687V24.5124H22.5493V23.5319H23.5295V22.5516H22.5493V21.571H21.5687H20.5882V22.5516H21.5687Z" fill="#42748D"/>
<path d="M20.5882 26.4732V25.4927H19.6079V26.4732H20.5882Z" fill="#31617F"/>
<path d="M20.588 23.5318V22.5515H19.6077H18.6274V23.5318H19.6077H20.588Z" fill="#42748D"/>
<path d="M18.6274 27.4534H19.6077V26.4731H18.6274V27.4534Z" fill="#31617F"/>
<path d="M19.6077 24.5124V23.5319H18.6274V24.5124H19.6077Z" fill="#31617F"/>
<path d="M18.6277 30.3945V29.4142H19.6079H20.5882V28.434H19.6079H18.6277H17.6474V29.4142H16.6666V30.3945H15.6863H14.7061V31.3753H15.6863H16.6666H17.6474V30.3945H18.6277Z" fill="#42748D"/>
<path d="M17.6475 27.4535V28.434H18.6277V27.4535H17.6475Z" fill="#31617F"/>
<path d="M18.6276 27.4535V26.4732H19.6079V25.4927H18.6276H17.6473V26.4732H16.6665V27.4535V28.434H17.6473V27.4535H18.6276Z" fill="#42748D"/>
<path d="M18.6277 24.5124V23.5319H17.6475V24.5124H18.6277Z" fill="#42748D"/>
<path d="M16.6664 27.4535H15.6861V28.434H14.7059H13.7256V29.4143H14.7059H15.6861H16.6664H17.6472V28.434H16.6664V27.4535Z" fill="#31617F"/>
<path d="M15.686 26.4732H16.6663V25.4927H17.6471V24.5124V23.5319H16.6663V24.5124H15.686V25.4927V26.4732Z" fill="#31617F"/>
<path d="M14.7059 26.4731H13.7256V27.4534H14.7059V26.4731Z" fill="#31617F"/>
<path d="M14.7058 26.4731H15.6861V25.4926V24.5123H14.7058V25.4926H13.7256V26.4731H14.7058Z" fill="#42748D"/>
<path d="M12.745 30.3946V29.4143H11.7644V30.3946H10.7842V31.3754H11.7644H12.745H13.7255V30.3946H12.745Z" fill="#31617F"/>
<path d="M12.7451 30.3946H13.7257V29.4143H12.7451V30.3946Z" fill="#42748D"/>
<path d="M13.7257 28.434V27.4535H12.7452H11.7646V28.434H12.7452H13.7257Z" fill="#31617F"/>
<path d="M10.7845 28.434H9.8042V29.4142H10.7845H11.7647V28.434H10.7845Z" fill="#31617F"/>
<path d="M8.82362 30.3946V29.4143H7.84336H6.86281V30.3946H5.88255H4.90201H3.92174H2.94148H1.96094V31.3754H2.94148H3.92174H4.90201H5.88255H6.86281H7.84336V30.3946H8.82362Z" fill="#31617F"/>
<path d="M4.90165 30.3945H5.88219H6.86246V29.4142H7.843H8.82326H9.80381V28.434H10.7841H11.7643V27.4534H12.7449H13.7254V26.4731H12.7449H11.7643H10.7841V27.4534H9.80381H8.82326V28.434H7.843H6.86246H5.88219V29.4142H4.90165H3.92139V30.3945H4.90165Z" fill="#42748D"/>
</g>
<defs>
<clipPath id="clip0_4197_23">
<rect width="100" height="31.3778" fill="white"/>
</clipPath>
</defs>
</svg>
