<svg width="100" height="62" viewBox="0 0 100 62" fill="none" xmlns="http://www.w3.org/2000/svg">
<g clip-path="url(#clip0_4254_3661)">
<path d="M20.9103 10.2045C20.9712 10.1623 21.0583 10.0886 21.0547 10.0343C21.0409 9.83215 20.8752 9.90458 20.753 9.89036C20.6845 9.88192 20.6192 9.84459 20.553 9.81659C20.5565 9.91658 20.5463 10.0219 20.5836 10.1063C20.6436 10.2432 20.7681 10.3036 20.9103 10.2045ZM84.713 52.2082C84.6988 52.1482 84.7606 52.07 84.7877 52.0011C84.9072 52.038 85.0121 52.0709 85.0459 52.1882C85.0668 52.2602 85.1014 52.3513 84.9961 52.3895C84.8295 52.45 84.7455 52.3415 84.713 52.2082ZM88.1984 28.7378C88.1984 28.3467 88.2535 28.0686 88.3637 27.9032C88.4735 27.7384 88.657 27.6562 88.9134 27.6562C89.1458 27.6562 89.3138 27.7384 89.4173 27.9032C89.5218 28.0686 89.5733 28.3467 89.5733 28.7378V50.8644C89.5733 51.2679 89.5218 51.555 89.4173 51.7261C89.3138 51.8972 89.1458 51.9829 88.9134 51.9829C88.657 51.9829 88.4735 51.8972 88.3637 51.7261C88.2535 51.555 88.1984 51.2679 88.1984 50.8644V28.7378ZM91.5411 32.2551C91.6526 32.2636 91.7304 32.3454 91.7508 32.4738C91.7397 32.5907 91.6606 32.6618 91.5437 32.6591C91.4278 32.6564 91.3416 32.5804 91.3438 32.456C91.3456 32.3374 91.4193 32.2454 91.5411 32.2551ZM89.0236 55.1723C89.6911 55.1723 90.2777 55.1345 90.7878 55.0599C90.8554 55.0092 90.9198 54.979 90.9709 54.9834C91.0131 54.9866 91.0474 54.9977 91.0776 55.0119C91.8904 54.8608 92.4778 54.6035 92.8365 54.2378C93.2755 53.7898 93.5559 52.8215 93.6799 51.3381C93.5573 51.3568 93.4657 51.2737 93.3808 51.1861C93.4124 51.0399 93.5071 50.9471 93.6319 50.8986C93.6599 50.8875 93.6861 50.8826 93.7119 50.8799C93.739 50.4169 93.7533 49.9125 93.7533 49.361V30.2407C93.7533 27.6135 93.4475 25.9879 92.8365 25.3644C92.2254 24.741 90.918 24.4294 88.9134 24.4294C86.8848 24.4294 85.5618 24.7472 84.945 25.3827C84.3273 26.0181 84.0189 27.6375 84.0189 30.2407V49.361C84.0189 52.0011 84.3273 53.6294 84.945 54.2466C85.5618 54.8639 86.9212 55.1723 89.0236 55.1723ZM79.1999 54.224C79.1826 54.2942 79.1106 54.3506 79.0711 54.4035C78.948 54.3875 78.8978 54.3222 78.9022 54.2315C78.9066 54.1409 78.9702 54.0707 79.0586 54.0644C79.1555 54.0582 79.2217 54.1338 79.1999 54.224ZM79.8136 24.5392H75.6524V55.0257H79.8136V24.5392ZM34.0335 27.5762C34.0113 27.5037 33.9993 27.4326 33.9913 27.362C33.9571 27.5828 33.9282 27.8193 33.9042 28.0717C34.2331 28.153 34.1122 27.8312 34.0335 27.5762ZM34.4468 25.8417C34.4593 25.8008 34.4686 25.7595 34.4766 25.7177C34.3526 25.9386 34.246 26.2155 34.1571 26.5505C34.6428 26.5087 34.373 26.0839 34.4468 25.8417ZM34.1646 30.3487C34.2739 30.4967 34.3939 30.4971 34.5157 30.3789C34.6543 30.2438 34.5855 30.1532 34.4526 30.0488C34.2544 29.8919 34.0389 29.8399 33.8176 29.8261C33.8171 29.8919 33.8167 29.9599 33.8162 30.0274C34.002 30.0079 34.0682 30.2172 34.1646 30.3487ZM24.1703 36.6439L24.1694 36.6435L24.1703 36.643L24.3578 32.5098C24.2796 32.5484 24.1983 32.576 24.1085 32.5773C24.0308 32.5782 23.9526 32.54 23.8779 32.5204C24.0094 32.2227 24.1459 31.9347 24.2641 31.6397C24.2992 31.5526 24.3481 31.5241 24.4027 31.5175L24.5129 29.0858H24.6231L24.6263 29.1533C24.6849 29.0342 24.768 28.9276 24.9267 28.9538C25.0102 28.9676 25.0742 29.0235 25.0458 29.1284C24.9964 29.3182 24.8658 29.4155 24.6791 29.3871C24.6614 29.3844 24.648 29.3746 24.6365 29.3635L24.7089 30.8922C24.7667 30.7811 24.8911 30.7971 25.0142 30.8242C25.1466 30.854 25.3093 30.8504 25.3435 31.0153C25.3791 31.1851 25.2604 31.2628 25.1066 31.2797C24.9658 31.2953 24.848 31.3566 24.7347 31.4273L24.744 31.6228C24.8791 31.7063 25.0151 31.7894 25.1293 31.8956C25.2346 31.9934 25.1755 32.268 25.1124 32.252C24.9849 32.2192 24.8756 32.236 24.7751 32.2756L24.9555 36.0631C25.0031 36.0471 25.0533 36.036 25.108 36.032C25.0538 36.136 25.008 36.2222 24.9667 36.2969L25.0067 37.1368C25.0804 37.1252 25.1569 37.1083 25.2355 37.0865C25.1569 37.1341 25.084 37.1865 25.0115 37.239L25.3746 44.8514H23.7979L24.0997 38.2011C23.8815 38.5108 23.6824 38.8428 23.4748 39.181C23.2149 38.9059 23.1544 38.6219 23.3442 38.469C23.7095 38.1753 23.6117 37.6549 23.9899 37.3625C24.1352 37.2496 24.1077 36.9141 24.1516 36.6715C24.1477 36.6599 24.1428 36.6497 24.1388 36.6377L24.1414 36.6399H24.1419L24.169 36.6435C24.1641 36.6462 24.1601 36.6497 24.1548 36.6515V36.6519L24.1521 36.6715C24.157 36.6848 24.1619 36.6986 24.1672 36.7115L24.1703 36.6439ZM24.1414 36.6399L24.1419 36.6404H24.1423L24.1428 36.6408L24.1432 36.6413L24.1436 36.6417L24.1441 36.6422L24.1445 36.6426L24.1454 36.643L24.1459 36.6439L24.1468 36.6444L24.1472 36.6448L24.1481 36.6457L24.1485 36.6462L24.1494 36.647L24.1499 36.6475L24.1508 36.6479L24.1512 36.6484L24.1516 36.6493L24.1525 36.6497L24.153 36.6502L24.1534 36.6506L24.1539 36.651H24.1543V36.6515H24.1548V36.6519L24.1414 36.6399ZM22.7349 39.2041C22.6949 39.1761 22.6585 39.1414 22.6154 39.1196C22.5381 39.0814 22.4576 39.0943 22.411 39.1667C22.3901 39.1996 22.4101 39.2587 22.4114 39.3058C22.4834 39.2943 22.5581 39.2907 22.6274 39.2689C22.6661 39.2569 22.7003 39.2294 22.7349 39.2041ZM15.4305 32.8928C15.3385 32.6844 15.2892 32.6018 15.3003 32.5929C15.5074 32.4222 15.1154 32.0743 15.4869 31.9663C15.5212 31.9561 15.5945 32.0023 15.6154 32.041C15.7709 32.3271 15.6211 32.5444 15.4305 32.8928ZM34.5326 53.0175C34.5446 52.8597 34.6703 52.797 34.8134 52.7766C34.9356 52.7588 35.0219 52.7993 35.0316 52.949C34.997 53.1121 34.9116 53.2477 34.7179 53.2383C34.6015 53.2325 34.5237 53.1312 34.5326 53.0175ZM35.0045 48.5522C35.0374 48.5291 35.0925 48.49 35.1476 48.4509C35.1774 48.5194 35.2161 48.586 35.2303 48.6576C35.2334 48.6744 35.1512 48.73 35.1103 48.7282C35.0307 48.7247 34.9534 48.6918 35.0045 48.5522ZM35.5067 42.6561C35.7791 42.6476 35.8791 42.8467 35.9209 43.0827C35.8969 43.332 35.7129 43.4151 35.5156 43.4169C35.2409 43.4195 35.2601 43.1836 35.2378 42.9938C35.2134 42.789 35.3183 42.6623 35.5067 42.6561ZM35.181 51.447C35.8804 51.4008 35.7627 51.8878 36.0311 52.2433C35.4991 52.1051 35.5058 51.7096 35.181 51.447ZM36.1942 46.7711C36.2444 46.7014 36.3288 46.692 36.4101 46.7271C36.4759 46.7551 36.4888 46.8013 36.4501 46.8613C36.4057 46.9351 36.3426 46.9893 36.2555 46.9564C36.1724 46.9253 36.1404 46.8453 36.1942 46.7711ZM36.1311 53.704C35.6431 53.0397 35.7382 52.7051 36.6265 52.2278C36.2804 52.7393 36.5066 53.261 36.1311 53.704ZM36.8439 53.8929C36.8843 54.0458 37.0003 54.232 36.9501 54.3435C36.8492 54.5666 36.6341 54.3911 36.4399 54.4595C36.5186 54.1635 36.6128 53.976 36.8439 53.8929ZM37.7775 51.3354C37.7775 51.3341 37.778 51.3332 37.778 51.3323L37.7824 51.3306C37.7922 51.3337 37.8006 51.3346 37.81 51.3368C37.7997 51.3354 37.7904 51.3337 37.7806 51.3323C37.7797 51.3332 37.7789 51.3341 37.7775 51.3354ZM37.7775 51.3354C37.7615 51.6661 37.7455 51.9971 37.7291 52.3278C37.5891 51.9358 37.214 51.8314 36.8661 51.6332C37.2109 51.4665 37.5607 51.5981 37.7775 51.3354ZM35.2076 50.6067C35.1112 50.4782 35.1925 50.4213 35.3356 50.3796C35.6191 50.4653 35.5511 50.7751 35.6533 50.9759C35.6947 51.0564 35.556 51.1955 35.4542 51.1861C35.0374 51.1492 35.3396 50.7826 35.2076 50.6067ZM38.4174 52.1416C38.7183 52.1816 38.9307 52.3562 38.9192 52.6979C38.9343 52.8601 38.8809 52.993 38.7187 53.0206C38.5561 53.0481 38.0637 52.5971 38.0859 52.4549C38.1153 52.27 38.2401 52.118 38.4174 52.1416ZM38.8934 39.2281C38.8161 39.2587 38.7321 39.2396 38.7432 39.1321C38.7472 39.0925 38.8072 39.0379 38.8498 39.0294C38.8827 39.0228 38.928 39.0774 38.968 39.1045C38.9436 39.1476 38.9289 39.2138 38.8934 39.2281ZM37.8051 30.0399C37.7064 30.0692 37.6153 29.9572 37.5842 29.8488C37.554 29.7417 37.5718 29.6377 37.6669 29.5599C37.7842 29.5719 37.8566 29.643 37.8753 29.7586C37.8917 29.8617 37.9148 30.0079 37.8051 30.0399ZM36.9394 31.445C36.8483 31.397 36.7856 31.2948 36.711 31.2171C36.7812 31.1748 36.8474 31.1077 36.9225 31.0962C37.0794 31.0722 37.0967 31.1913 37.0972 31.3077C37.0692 31.3886 37.0416 31.4984 36.9394 31.445ZM36.5728 37.7474C36.5363 37.8309 36.459 37.866 36.3777 37.8282C36.3457 37.8136 36.3173 37.738 36.3257 37.698C36.3421 37.618 36.4017 37.5643 36.4928 37.5625C36.5821 37.5967 36.6083 37.6643 36.5728 37.7474ZM34.9054 36.8528C34.8565 36.6377 34.8859 36.4875 35.0205 36.3751C35.0716 36.3324 35.1312 36.3578 35.1525 36.4186C35.2361 36.6568 35.0876 36.7448 34.9054 36.8528ZM34.6557 35.8525C34.1411 35.3445 34.1411 35.3445 34.8623 34.9153C34.629 35.2614 34.7037 35.5432 34.6557 35.8525ZM34.6037 33.2004C34.6184 33.1537 34.6539 33.1044 34.6943 33.0768C34.7468 33.0408 34.7952 33.067 34.8188 33.1257C34.8183 33.2168 34.7721 33.2795 34.6859 33.2964C34.6246 33.3084 34.5841 33.2612 34.6037 33.2004ZM38.3641 25.6057C38.4565 25.3893 38.5352 25.104 38.8072 25.0769C38.952 25.0623 39.1325 25.2782 39.1 25.4213C39.0436 25.6702 38.8169 25.7933 38.5663 25.8182C38.4392 25.7906 38.3174 25.716 38.3641 25.6057ZM41.5362 25.3236C41.6264 25.3204 41.6997 25.3787 41.6993 25.4684C41.6984 25.5582 41.6228 25.6044 41.5339 25.6155C41.4482 25.6 41.3651 25.5586 41.3668 25.4689C41.3691 25.3818 41.4504 25.3267 41.5362 25.3236ZM41.9681 30.8198C41.9708 30.81 42.1019 30.8082 42.1165 30.8344C42.2632 31.0975 41.9837 31.2157 41.9392 31.5228C41.8615 31.2042 41.9139 31.0109 41.9681 30.8198ZM40.4976 41.011C40.5509 41.0274 40.6061 41.1265 40.6118 41.1918C40.6194 41.2865 40.5318 41.3194 40.4261 41.3242C40.3563 41.3167 40.2821 41.2749 40.2883 41.1816C40.2968 41.0625 40.3723 40.9723 40.4976 41.011ZM40.6256 44.2697C40.6207 44.3408 40.6261 44.4434 40.5256 44.4172C40.471 44.403 40.4265 44.307 40.4021 44.239C40.3936 44.215 40.4519 44.1399 40.4896 44.1306C40.5941 44.1057 40.6087 44.1941 40.6256 44.2697ZM41.8459 53.4445C41.9392 53.4494 42.0992 53.4414 42.0512 53.6116C42.0037 53.7814 42.0285 54.0165 41.7624 54.0436C41.5944 53.9925 41.414 53.9174 41.4251 53.7303C41.4384 53.4978 41.641 53.4347 41.8459 53.4445ZM42.0841 49.8907C42.1743 49.8308 42.2761 49.781 42.3827 49.8334C42.4574 49.8699 42.5058 49.9392 42.44 50.0587C42.3441 50.1596 42.2121 50.0858 42.093 50.0498C41.9934 50.0196 42.0028 49.9445 42.0841 49.8907ZM42.0916 42.2304C42.1148 42.1944 42.177 42.1837 42.2219 42.1615C42.237 42.2099 42.2521 42.2579 42.2672 42.3063C42.2303 42.3388 42.1912 42.4006 42.1579 42.3979C42.0463 42.3881 42.0437 42.3037 42.0916 42.2304ZM42.5449 45.8979C42.628 45.8975 42.7102 45.9201 42.7067 46.0152C42.7031 46.1103 42.6156 46.1334 42.536 46.1205C42.4894 46.113 42.4183 46.0801 42.4103 46.0459C42.3867 45.9495 42.4609 45.913 42.5449 45.8979ZM42.8471 51.331C42.8964 51.4048 42.8707 51.4763 42.776 51.4812C42.74 51.4825 42.6858 51.4332 42.6694 51.3941C42.6587 51.3688 42.7 51.3212 42.7182 51.2835C42.7627 51.2981 42.8267 51.2999 42.8471 51.331ZM43.0164 41.1638C43.108 41.1736 43.1462 41.2474 43.1546 41.3358C43.1115 41.358 43.064 41.4038 43.0249 41.398C42.9382 41.3847 42.8791 41.3162 42.8907 41.2269C42.8942 41.1994 42.9751 41.1594 43.0164 41.1638ZM43.4693 50.5627C43.4835 50.6915 43.4644 50.776 43.3613 50.7657C43.1675 50.7466 42.976 50.6982 42.9275 50.4698C42.9093 50.3845 42.9693 50.3067 43.0591 50.2982C43.2817 50.2782 43.407 50.4053 43.4693 50.5627ZM37.3154 55.1208C37.4496 54.8315 37.726 54.7057 38.0095 54.5817C38.1206 54.5328 38.261 54.5644 38.3979 54.5315C38.8987 54.4128 38.6143 53.6045 39.2707 53.6227C39.7835 53.6369 40.0221 53.1503 40.3763 52.8721C40.5972 52.6979 40.69 52.4811 40.7616 52.2424C40.8651 51.8963 40.6612 51.7025 40.3114 51.8149C40.127 51.8745 39.9639 52.0034 39.7786 52.0531C39.5928 52.1029 39.4604 51.9607 39.3675 51.8181C39.232 51.6096 39.3435 51.4421 39.4977 51.3021C39.6004 51.2084 39.7039 51.1146 39.8506 51.271C40.0315 51.4634 40.2594 51.6163 40.507 51.3999C40.7634 51.1768 40.8278 50.88 40.678 50.56C40.6318 50.4613 40.5518 50.3729 40.7047 50.1618C41.1167 50.652 41.0953 51.3123 41.5242 51.7278C41.2784 52.0696 41.3815 52.5357 41.1073 52.8721C40.8736 53.1592 40.8256 53.5947 40.303 53.6281C39.9306 53.6521 39.7164 53.9165 39.8524 54.3444C39.8981 54.4884 39.9386 54.6164 40.1061 54.6319C40.2848 54.6484 40.3479 54.5253 40.3705 54.3746C40.4287 53.9853 40.6061 54.0569 40.7976 54.2724C40.9358 54.4275 40.9909 54.6981 40.9687 54.9746C41.7366 54.8195 42.2894 54.5746 42.6236 54.2378C42.6529 54.2075 42.6809 54.1733 42.7093 54.1391C42.5303 54.1871 42.4716 54.0596 42.3583 53.7347C42.3143 53.6076 42.2712 53.4805 42.2276 53.353C42.2183 53.3539 42.2103 53.353 42.201 53.3539L42.2107 53.349C42.2063 53.3512 42.2027 53.353 42.2041 53.3521C42.2094 53.3476 42.2125 53.3432 42.2174 53.3383C41.793 53.1139 41.8637 52.6571 41.6957 52.2864C42.1205 52.2269 41.9646 52.6415 42.1432 52.7579C42.4014 52.9273 42.456 53.1157 42.2174 53.3383C42.2196 53.3396 42.2214 53.341 42.2236 53.3423H42.2232V53.3428H42.2227H42.2223V53.3432H42.2214L42.221 53.3436L42.2201 53.3441L42.2192 53.3445L42.2183 53.345L42.2174 53.3454L42.2165 53.3459L42.2156 53.3463L42.2147 53.3468L42.2139 53.3472L42.2125 53.3481L42.2116 53.3485L42.2107 53.349L37.3154 55.1208ZM42.2236 53.3423C42.225 53.3459 42.2263 53.3494 42.2276 53.353C42.5449 53.3374 42.7258 53.565 42.9644 53.7227C43.3537 52.9001 43.5492 51.4479 43.5492 49.361V42.5232C43.5492 41.35 43.399 40.4701 43.1 39.8835C42.8004 39.2969 42.2961 38.7894 41.5877 38.3619L41.1966 38.1255C41.2411 38.4064 41.338 38.6739 41.5624 38.9219C41.6735 39.045 41.7735 39.1383 41.9121 39.2143C42.3916 39.4774 42.4516 39.7818 42.0557 40.1773C41.8503 40.3826 41.621 40.5279 41.7539 40.8732C41.8086 41.0145 41.6868 41.0598 41.5659 41.0638C41.4811 41.0665 41.3846 41.0594 41.3517 40.9687C41.3144 40.8647 41.2495 40.7234 41.2891 40.6466C41.6535 39.944 41.0629 39.4396 40.9074 38.8543C40.8238 38.5388 40.6692 38.2433 40.6376 37.8998C40.6336 37.8558 40.6265 37.8149 40.6176 37.7758L40.0097 37.4083C39.9737 37.4234 39.9377 37.4416 39.9008 37.4656C39.4213 37.7745 38.8756 37.7256 38.3837 37.9176C38.0726 38.0393 37.8406 37.85 37.8593 37.5443C37.8784 37.2341 38.5863 36.8399 38.7405 37.0714C39.0498 37.5363 39.3364 37.3296 39.5431 37.1265L39.0396 36.8221C38.5996 36.5408 38.3152 36.3026 38.1868 36.1071C38.0588 35.9116 37.9944 35.545 37.9944 35.0073V28.7374C37.9944 28.3219 38.0433 28.0379 38.141 27.885C38.2388 27.7322 38.4161 27.6562 38.673 27.6562C38.9169 27.6562 39.0942 27.7415 39.2045 27.9126C39.3142 28.0837 39.3693 28.3587 39.3693 28.7374V34.9339H43.5492V31.0464C43.5048 31.0717 43.4515 31.0842 43.3853 31.0748C43.2293 31.0517 43.152 30.9411 43.1733 30.7891C43.1946 30.6407 43.2982 30.5474 43.4506 30.5705C43.4893 30.5767 43.5217 30.5891 43.5492 30.606V30.2407C43.5492 27.6375 43.2404 26.0181 42.6236 25.3827C42.0059 24.7472 40.6892 24.4294 38.673 24.4294C37.4473 24.4294 36.483 24.545 35.7764 24.7756C35.8711 24.9338 35.8915 25.1191 35.7644 25.3733C35.6551 25.592 35.9493 25.8288 36.231 25.7177C36.551 25.5915 36.787 25.3969 37.0652 25.8222C37.2034 26.0333 37.3807 25.6942 37.554 25.64C37.6646 25.6057 37.7851 25.5729 37.8446 25.7044C37.9193 25.8688 37.8255 26.0137 37.674 26.0101C37.2554 26.0017 36.9692 26.3279 36.5857 26.4003C36.4586 26.4243 36.2546 26.419 36.2333 26.5816C36.1168 27.482 35.1809 27.0745 34.7903 27.6664C34.9574 27.9499 34.8885 28.4236 34.9552 28.8947C34.8512 29.0253 34.7072 28.8751 34.5806 28.9209C34.4002 28.9853 34.1406 28.9951 34.1922 29.2635C34.2513 29.5741 34.505 29.4084 34.6726 29.3804C35.1552 29.2995 35.6236 29.2404 35.9991 29.659C36.1679 29.8474 36.5648 29.4928 36.6252 29.8888C36.6768 30.2261 36.319 30.2385 36.1288 30.3785C35.8791 30.5616 35.8311 30.7122 36.1742 30.8322C36.2244 30.8495 36.2688 30.8838 36.3155 30.91C35.9542 31.5086 36.6772 31.653 36.799 32.0507C36.8279 32.1463 36.9612 32.2138 36.8492 32.3329C36.3599 32.8515 36.363 33.4781 36.4461 34.1269C36.4595 34.2309 36.4217 34.3411 36.4066 34.4544C36.0466 34.2847 35.7 34.1211 35.2596 33.9132C35.5791 33.8341 35.7978 33.7167 35.7951 33.3963C35.7929 33.1204 35.6258 33.0262 35.42 32.9053C35.157 32.7511 34.7517 32.6653 34.9748 32.168C35.0734 31.9494 34.7992 31.9525 34.6615 31.877C34.0744 31.5557 34.0766 31.5468 34.6059 30.8593C34.1646 31.074 34.0309 30.7558 33.8145 30.5722V35.3188C33.8145 36.5164 33.9611 37.3963 34.2544 37.9589C34.2722 37.9918 34.2926 38.0238 34.3108 38.0567C34.5539 38.0495 34.8054 38.054 35.0587 38.1389C34.8241 38.1877 34.6646 38.2864 34.5464 38.4095C34.8392 38.7894 35.2361 39.1343 35.7395 39.4436L38.261 40.9812C38.3379 40.9403 38.4308 40.9225 38.5303 40.9319C38.7952 40.9567 38.8903 41.1758 38.8689 41.4109C39.0174 41.5331 39.1236 41.6415 39.1862 41.7349C39.308 41.9184 39.3693 42.2668 39.3693 42.7801V50.8644C39.3693 51.2435 39.3111 51.5243 39.1951 51.7078C39.0791 51.8909 38.9049 51.9825 38.673 51.9825C38.4281 51.9825 38.2539 51.9003 38.1504 51.7354C38.0961 51.6492 38.0566 51.5283 38.0304 51.3746C37.9673 51.3661 37.9033 51.3523 37.8397 51.3417C37.9073 51.3461 37.9633 51.3155 38.0157 51.2732C38.0015 51.1541 37.9944 51.0182 37.9944 50.8644V50.1876C37.9211 50.2756 37.8562 50.3547 37.7931 50.432C37.7922 50.4471 37.7908 50.4627 37.79 50.4778C37.7868 50.4773 37.7828 50.476 37.7797 50.4751C37.8011 50.5982 37.8233 50.7244 37.8575 50.9213C37.5473 50.8684 37.3896 50.724 37.4229 50.488C37.4362 50.3938 37.6495 50.4409 37.7797 50.4751C37.7788 50.4693 37.7775 50.4631 37.7766 50.4573C37.7762 50.4565 37.7753 50.4547 37.7749 50.4547C37.7806 50.4471 37.7873 50.4396 37.7931 50.432C37.8037 50.2925 37.8326 50.1609 37.9944 50.0836V42.1566H33.8145V49.361C33.8145 51.9767 34.1233 53.5987 34.7406 54.2284C35.2143 54.7119 36.0737 55.0088 37.3154 55.1208L42.2236 53.3423ZM48.8846 44.2497C49.0672 44.2848 49.2432 44.3323 49.2334 44.5447C49.2254 44.7194 49.0699 44.742 48.9268 44.7385C48.7699 44.734 48.6602 44.6541 48.6442 44.495C48.6268 44.3212 48.7393 44.2572 48.8846 44.2497ZM49.4476 48.7353C49.4187 48.8411 49.4045 48.9677 49.2423 48.9211C49.1183 48.8855 49.057 48.7944 49.0774 48.6687C49.093 48.5705 49.181 48.5469 49.2676 48.5425C49.3996 48.5367 49.4841 48.5811 49.4476 48.7353ZM49.636 40.5475C49.6707 40.5377 49.7516 40.5852 49.7649 40.623C49.8156 40.763 49.7023 40.8145 49.6312 40.8585C49.5392 40.8954 49.4783 40.8763 49.4756 40.8083C49.4712 40.6923 49.5138 40.583 49.636 40.5475ZM49.984 43.3973C49.9707 43.4698 49.8716 43.5018 49.7823 43.4862C49.6734 43.4689 49.5574 43.4311 49.5663 43.3004C49.5756 43.1631 49.7 43.1507 49.8062 43.1707C49.9222 43.1925 50.004 43.2831 49.984 43.3973ZM50.0591 50.3996C50.108 50.2094 50.1822 50.0116 50.4151 49.9885C50.555 49.9743 50.5879 50.0969 50.591 50.22C50.4715 50.3818 50.5453 50.7004 50.2537 50.7129C50.1151 50.7186 50.0178 50.5582 50.0591 50.3996ZM50.4017 49.3779C50.4888 49.3455 50.5524 49.3864 50.5706 49.4966C50.5666 49.5672 50.5275 49.6343 50.4391 49.6379C50.3488 49.6414 50.2955 49.5766 50.308 49.4903C50.3142 49.4481 50.3608 49.393 50.4017 49.3779ZM51.4118 32.0525C51.1194 32.3805 50.8408 32.54 50.3555 32.4698C50.6595 32.0965 50.9226 31.8996 51.4118 32.0525ZM51.1861 30.7242C51.1683 30.7384 51.1492 30.7664 51.1328 30.7651C51.0688 30.7611 51.0417 30.7202 51.0616 30.6593C51.0679 30.6407 51.0972 30.6171 51.1154 30.618C51.179 30.6198 51.2021 30.6598 51.1861 30.7242ZM50.5733 26.8718C51.1376 27.2544 51.4292 26.8154 51.7847 26.5332C51.8193 26.5052 51.8958 26.5003 51.9375 26.519C51.9784 26.5372 52.0002 26.5994 52.0304 26.6425C52.0033 26.6883 51.9878 26.7518 51.9478 26.7776C51.7451 26.9087 51.6545 27.0385 51.9247 27.1904C52.0917 27.2851 52.1842 27.4117 52.0637 27.5939C51.9615 27.7473 51.8011 27.6819 51.6909 27.6206C51.4474 27.4855 51.1967 27.4615 50.9248 27.4571C50.699 27.454 50.4777 27.3584 50.4559 27.0798C50.4497 27.0051 50.4222 26.7692 50.5733 26.8718ZM52.553 22.5981C52.5899 22.6066 52.6175 22.6559 52.6441 22.683C52.6148 22.7146 52.585 22.747 52.5552 22.7794C52.5232 22.7443 52.4912 22.7088 52.4593 22.6737C52.4912 22.6466 52.529 22.5923 52.553 22.5981ZM52.9881 27.9037C53.0921 28.0686 53.1441 28.3463 53.1441 28.7374V50.8644C53.1441 51.1524 53.1169 51.3799 53.0641 51.5496C53.0943 51.5296 53.1325 51.5137 53.1841 51.507C53.2712 51.5101 53.3583 51.571 53.3565 51.6936C53.3551 51.7905 53.2623 51.8083 53.1805 51.7998C53.1054 51.7918 53.0263 51.7643 53.0072 51.6905C53.001 51.7021 52.9947 51.715 52.9881 51.7261C52.8841 51.8972 52.7161 51.9829 52.4841 51.9829C52.2273 51.9829 52.0442 51.8972 51.934 51.7261C51.8242 51.555 51.7691 51.2679 51.7691 50.8644V36.9559C51.7558 36.959 51.7429 36.963 51.7287 36.9639C51.686 36.9657 51.6127 36.9257 51.6025 36.8901C51.5718 36.7861 51.6496 36.7515 51.738 36.7381C51.7473 36.7426 51.758 36.747 51.7691 36.7515V28.7374C51.7691 28.3463 51.8242 28.0686 51.934 27.9037C52.0442 27.7384 52.2273 27.6562 52.4841 27.6562C52.7161 27.6562 52.8841 27.7384 52.9881 27.9037ZM53.4414 25.4893C53.4329 25.3951 53.5156 25.2613 53.6582 25.2893C53.844 25.3262 53.8364 25.4933 53.8111 25.6217C53.7582 25.8853 53.5525 26.0381 53.2894 26.1706C53.4031 25.9595 53.4631 25.7413 53.4414 25.4893ZM54.2724 29.4342C54.2804 29.4759 54.2444 29.5457 54.207 29.5733C53.9795 29.7408 53.9062 29.3942 53.7138 29.4168C53.6755 29.4213 53.6302 29.3631 53.544 29.3031C53.6733 29.2044 53.7591 29.2386 53.8115 29.288C53.9471 29.4142 54.2115 29.1182 54.2724 29.4342ZM54.3044 24.8601C54.3919 24.8552 54.4408 24.9249 54.4528 25.0129C54.4648 25.0965 54.4457 25.188 54.3599 25.1916C54.2995 25.1942 54.2084 25.1343 54.1799 25.0778C54.1235 24.9672 54.1684 24.8676 54.3044 24.8601ZM54.4621 47.7217C54.4892 47.5484 54.6083 47.4106 54.7936 47.455C54.9892 47.5017 54.9825 47.6977 54.9772 47.859C54.9714 48.0314 54.8483 48.0772 54.6976 48.0767C54.4826 48.0496 54.435 47.895 54.4621 47.7217ZM55.2451 48.7571C55.2389 48.9473 55.0776 49.018 54.8856 49.0295C54.7092 49.0215 54.5821 48.9402 54.5972 48.7344C54.611 48.5527 54.7239 48.4167 54.8994 48.4003C55.1349 48.378 55.2518 48.5487 55.2451 48.7571ZM55.3629 42.5343C55.4078 42.5121 55.4695 42.509 55.5207 42.517C55.5944 42.5285 55.6104 42.5796 55.5731 42.6436C55.5055 42.709 55.4273 42.7236 55.3531 42.6667C55.302 42.6276 55.3069 42.5623 55.3629 42.5343ZM55.7651 54.3537C55.7495 54.4391 55.6717 54.4515 55.598 54.4475C55.5309 54.444 55.4278 54.4475 55.4647 54.3315C55.4767 54.2946 55.5415 54.2613 55.5869 54.2524C55.6629 54.2373 55.7415 54.2458 55.7651 54.3537ZM55.8517 28.3152C55.8726 28.2779 55.9255 28.2588 55.9642 28.2316C56.0268 28.2472 56.0597 28.2916 56.029 28.3459C56.0077 28.3841 55.9539 28.4245 55.9126 28.4267C55.8526 28.4294 55.8206 28.3703 55.8517 28.3152ZM54.9163 50.5849C54.8283 50.5507 54.683 50.5755 54.6892 50.4276C54.6932 50.3431 54.7923 50.2956 54.8714 50.3142C54.9398 50.3311 55.0265 50.3818 55.0518 50.4405C55.0963 50.5427 55.0034 50.5707 54.9163 50.5849ZM54.5768 52.0905C54.4901 52.0758 54.431 52.0287 54.4381 51.9372C54.4466 51.8296 54.4763 51.7114 54.6185 51.7625C54.6705 51.7816 54.7092 51.8825 54.7225 51.9523C54.7412 52.0514 54.6612 52.0816 54.5768 52.0905ZM53.7595 31.3824C53.6196 31.4304 53.5916 31.2779 53.5493 31.1846C53.5036 31.0833 53.4845 30.9771 53.6036 30.9024C53.7422 30.8944 53.7915 30.9935 53.8231 31.0993C53.8537 31.2024 53.8813 31.3406 53.7595 31.3824ZM52.6628 53.4561C52.6406 53.469 52.5548 53.4214 52.5392 53.3845C52.4606 53.2006 52.5646 53.0863 52.7103 52.9899C52.7801 53.1583 52.8894 53.3285 52.6628 53.4561ZM51.2305 46.5076C51.2687 46.5414 51.3301 46.5707 51.3438 46.6147C51.3625 46.6729 51.3061 46.7209 51.2443 46.6982C51.2007 46.6827 51.1541 46.6316 51.1403 46.5863C51.1185 46.5147 51.1603 46.4845 51.2305 46.5076ZM50.8626 50.8799C50.8328 50.8924 50.7368 50.8377 50.7306 50.804C50.675 50.4876 51.0661 50.4822 51.135 50.2431C51.1456 50.2049 51.2203 50.1854 51.307 50.1312C51.3376 50.2156 51.3567 50.2414 51.3541 50.2645C51.3189 50.5715 51.1345 50.7649 50.8626 50.8799ZM52.5943 55.1728C54.5248 55.1728 55.7962 54.8608 56.4072 54.2373C57.0182 53.6143 57.324 51.9887 57.324 49.361V37.0288C57.2218 36.9435 57.2244 36.7693 57.1809 36.6364C57.1342 36.4928 57.1484 36.3658 57.2809 36.2969C57.296 36.2978 57.3093 36.3009 57.324 36.3022V30.2407C57.324 28.7978 57.2311 27.6588 57.0467 26.8207C56.5587 26.7794 56.0735 26.7083 55.5891 26.6194C55.4642 26.5967 55.2873 26.5327 55.3709 26.3385C55.3753 26.3265 55.382 26.3168 55.3882 26.3065C55.4336 26.2292 55.5073 26.1875 55.5855 26.1839C55.6326 26.1821 55.6811 26.1932 55.7251 26.2208C56.1179 26.4616 56.5441 26.5087 56.9751 26.5252C56.8303 25.991 56.6414 25.6035 56.4072 25.3644C56.2077 25.1609 55.933 24.9916 55.5855 24.8543V22.1453H49.3281V24.8698C48.9846 25.008 48.713 25.1787 48.5153 25.3827C48.3215 25.5822 48.158 25.879 48.0251 26.2723C48.2318 26.403 48.4064 26.5807 48.5575 26.7349C48.9797 27.1642 49.5076 27.2571 50.0098 27.4553C49.2503 27.7921 48.5029 27.5006 47.9425 26.5465C47.7074 27.4037 47.5896 28.6343 47.5896 30.2407V43.1005C47.6194 43.0836 47.6536 43.0685 47.6967 43.0569C47.7763 43.0351 47.9043 43.0396 47.9096 43.1187C47.9229 43.3293 47.7763 43.4582 47.5896 43.6351V46.0992C47.6221 46.0854 47.6621 46.0792 47.7114 46.0841C47.9091 46.1948 48.1202 46.3316 48.0825 46.5792C48.0549 46.76 47.8443 46.7969 47.6696 46.7707C47.6399 46.7662 47.6136 46.7596 47.5896 46.7516V49.361C47.5896 52.0011 47.898 53.6294 48.5153 54.2466C49.1321 54.8639 50.4919 55.1728 52.5943 55.1728ZM64.1391 40.3124C64.0578 40.3026 63.9725 40.2595 63.9721 40.1639C63.9716 40.0289 64.0649 39.9884 64.1858 39.9951C64.2725 40.0084 64.3538 40.048 64.3529 40.1404C64.3516 40.2688 64.26 40.327 64.1391 40.3124ZM65.7274 27.7295H66.0207C66.4606 27.7295 66.7539 27.8117 66.9006 27.9766C67.0472 28.1419 67.1205 28.5849 67.1205 29.3057V37.1888C67.1205 37.5798 67.0348 37.8731 66.8637 38.0687C66.6926 38.2642 66.4357 38.3619 66.094 38.3619C66.0082 38.3619 65.9411 38.3588 65.8923 38.3531C65.8434 38.3468 65.7883 38.3313 65.7274 38.3068V27.7295ZM70.7912 49.8654C70.7645 50.3609 70.7645 50.3609 69.6851 51.2319C69.79 50.5884 70.4846 50.4658 70.7912 49.8654ZM70.8276 51.7914C70.8379 51.7101 70.8663 51.6225 70.9707 51.6439C71.0027 51.6501 71.0196 51.7314 71.0432 51.7781C71.0436 51.8643 71.0223 51.9563 70.9299 51.9629C70.8214 51.9705 70.8183 51.8714 70.8276 51.7914ZM70.7721 54.1622C70.6908 54.1204 70.7165 54.0178 70.7734 53.9454C70.8183 53.888 70.8659 53.8329 70.9121 53.7769C70.9116 53.7743 70.9107 53.772 70.9099 53.7698L70.9085 53.7711C70.8992 53.7654 70.893 53.7569 70.885 53.7503C70.6472 53.7378 70.5366 53.5978 70.5388 53.2894C70.7814 53.373 70.7499 53.6361 70.885 53.7503C70.9005 53.7512 70.9152 53.7529 70.9316 53.7529C70.9254 53.7609 70.9187 53.7689 70.9121 53.7769C70.937 53.8525 70.9792 53.9285 70.9774 54.0036C70.9752 54.124 70.9139 54.2355 70.7721 54.1622ZM65.1483 54.8452C65.2666 54.8563 65.3328 54.9266 65.3563 55.0257H65.7274V41.9184H66.0207C66.4113 41.9184 66.6926 42.0037 66.8637 42.1748C67.0348 42.3459 67.1205 42.6272 67.1205 43.0183V55.0257H71.2818V48.0345C71.1965 47.9359 71.2076 47.8439 71.2818 47.7803V44.2834C71.2818 42.9023 71.1409 41.9122 70.8605 41.3136C70.5788 40.7145 70.0962 40.2319 69.4118 39.8653C70.0842 39.4618 70.5637 38.921 70.8512 38.2429C71.1383 37.5643 71.2818 36.5897 71.2818 35.3188V30.6625C71.2818 27.9495 71.0005 26.2506 70.4384 25.5662C69.8762 24.8818 68.7577 24.5392 67.0837 24.5392H63.5343C63.5783 24.5708 63.5979 24.6201 63.5899 24.6788C63.573 24.7983 63.5014 24.8867 63.369 24.8645C63.3326 24.8583 63.2899 24.7832 63.281 24.7339C63.2628 24.6348 63.3037 24.5748 63.3739 24.5392H61.5661V29.8417C61.6319 29.8155 61.6972 29.8008 61.7519 29.8039C61.9763 29.8172 61.9034 29.9892 61.9354 30.1816C61.999 30.4634 61.819 30.5762 61.5661 30.6153V34.6193C61.6248 34.6224 61.6652 34.6664 61.659 34.7411C61.6563 34.7695 61.6061 34.8086 61.5661 34.8211V55.0257H64.943C64.9595 54.9212 65.0355 54.8341 65.1483 54.8452ZM28.5027 52.3087C28.4964 52.4624 28.392 52.5371 28.2587 52.5722C28.1774 52.594 28.0907 52.5513 28.096 52.4629C28.1058 52.3042 28.1356 52.1349 28.3529 52.1389C28.4453 52.1407 28.476 52.2273 28.5027 52.3087ZM27.9338 33.0084C27.8934 32.9986 27.8396 32.936 27.8396 32.8968C27.8392 32.8595 27.9001 32.8217 27.9325 32.7853C27.9832 32.8182 28.0512 32.8373 28.0609 32.8728C28.0876 32.9693 28.0338 33.0315 27.9338 33.0084ZM27.9072 34.4402C27.5277 34.4851 27.5286 34.0025 27.2362 33.9105C27.5157 34.0056 27.9138 33.8985 27.9841 34.3216C27.9898 34.3576 27.9383 34.4367 27.9072 34.4402ZM27.0011 34.8388C26.7589 34.8455 26.6664 34.6948 26.6549 34.4838C26.6478 34.3513 26.7509 34.2793 26.8655 34.3087C27.03 34.3513 27.2788 34.286 27.3095 34.5531C27.3335 34.7637 27.1891 34.8339 27.0011 34.8388ZM27.217 44.9318C27.2042 44.9456 27.1584 44.9456 27.1371 44.9345C26.9033 44.8109 26.8358 44.6278 26.9904 44.2857C27.03 44.3741 27.0731 44.4239 27.0624 44.455C26.9909 44.6581 27.4352 44.6896 27.217 44.9318ZM25.931 36.4417C26.2776 35.9294 26.7464 35.6916 26.8584 35.193C27.0166 35.6201 26.7131 35.9871 26.9811 36.5297C26.6149 36.2689 26.3354 36.2715 25.931 36.4417ZM26.5642 31.2308C26.6362 31.1882 26.7478 31.2091 26.7642 31.2908C26.8118 31.5255 26.7242 31.7023 26.4776 31.793C26.3656 31.573 26.3212 31.3753 26.5642 31.2308ZM26.9931 28.5969C27.1162 28.596 27.1864 28.7009 27.1659 28.8214C27.1419 28.9631 27.062 29.0707 26.9046 29.0804C26.7802 29.0635 26.6793 29 26.6762 28.8827C26.6709 28.6831 26.8189 28.5983 26.9931 28.5969ZM27.3664 31.605C27.3628 31.7277 27.2584 31.7721 27.1571 31.8072C27.1162 31.7881 27.0402 31.7703 27.0397 31.7494C27.0353 31.6334 27.1153 31.5583 27.2082 31.5121C27.2881 31.4721 27.3686 31.5081 27.3664 31.605ZM27.5317 32.5307C27.5281 32.6738 27.4783 32.8049 27.3255 32.8591C27.197 32.9053 27.0517 32.9217 26.9393 32.9919C26.8095 33.0733 26.7211 33.203 26.9629 33.2688C27.0531 33.2937 27.2233 33.2186 27.1939 33.3852C27.1642 33.5554 26.9735 33.6154 26.8464 33.6994C26.6976 33.7323 26.6416 33.6488 26.5949 33.5385C26.4869 33.2826 26.6567 32.4685 26.8629 32.2871C26.9886 32.1774 27.1157 32.204 27.2397 32.2925C27.3428 32.3658 27.537 32.3365 27.5317 32.5307ZM25.6292 39.9955C25.5221 39.9666 25.451 39.8853 25.4639 39.7649C25.4733 39.6765 25.5364 39.6222 25.6235 39.6347C25.7501 39.6525 25.7866 39.7498 25.787 39.8644C25.7657 39.9466 25.7208 40.02 25.6292 39.9955ZM23.9419 46.1801C23.8535 46.1534 23.7646 46.0632 23.7193 45.9779C23.6735 45.8908 23.7579 45.8335 23.845 45.8335C23.969 45.833 24.0286 45.9072 24.0254 46.0392C24.0054 46.0881 24.0699 46.2192 23.9419 46.1801ZM23.1838 44.0532C23.0909 44.2568 22.9447 44.0715 22.8234 44.0781C22.6558 44.0866 22.6038 43.9515 22.5696 43.815C22.5616 43.8186 22.5532 43.8217 22.5447 43.8253H22.5452V43.8248H22.5456L22.5461 43.8239L22.5465 43.8235L22.547 43.823L22.5474 43.8226L22.5478 43.8217L22.5487 43.8213L22.5492 43.8204L22.5501 43.8195L22.5505 43.819L22.5514 43.8182L22.5523 43.8173L22.5527 43.8164L22.5536 43.8155L22.5545 43.8146L22.555 43.8137L22.5558 43.8128L22.5567 43.8119L22.5576 43.811L22.5581 43.8102L22.559 43.8097L22.5594 43.8088L22.5603 43.8079L22.5607 43.8071L22.5612 43.8066L22.5621 43.8057L22.5625 43.8053L22.563 43.8048L23.1838 44.0532ZM22.5447 43.8253V43.8257C22.5421 43.8195 22.539 43.8133 22.5363 43.8071C22.4656 43.8204 22.3945 43.8333 22.3239 43.8484C22.2279 43.8693 22.0892 43.9701 22.0564 43.8146C22.0164 43.6266 22.1906 43.6031 22.3265 43.6066C22.4461 43.6093 22.4963 43.7084 22.5363 43.8071C22.5465 43.8053 22.5563 43.8031 22.5661 43.8013C22.5674 43.8057 22.5687 43.8106 22.5696 43.815C22.6638 43.7751 22.7598 43.7386 22.85 43.6911C23.0087 43.6071 23.1193 43.6568 23.1762 43.8124C23.2024 43.8853 23.2144 43.987 23.1838 44.0532L22.5447 43.8253ZM22.8336 44.9256C22.8514 44.8589 22.9149 44.8269 22.958 44.8705C23.0327 44.946 23.1233 45.0331 23.07 45.1558C23.0558 45.1895 22.9838 45.198 22.938 45.218C22.846 45.1407 22.8025 45.0438 22.8336 44.9256ZM22.7034 53.5907C22.8243 53.3939 22.7505 53.0406 23.0998 53.0281C23.1207 53.0272 23.1602 53.057 23.1615 53.0748C23.1847 53.385 22.8954 53.4485 22.7034 53.5907ZM22.0559 54.1036C21.9559 54.128 21.8399 54.1458 21.7728 54.0244C21.7684 53.9196 21.8439 53.8845 21.9213 53.8911C22.0319 53.9005 22.1972 53.7649 22.2346 53.9813C22.2399 54.0129 22.1243 54.0871 22.0559 54.1036ZM22.1279 49.7921C22.2106 49.8325 22.263 49.9063 22.2163 49.9841C22.1586 50.0805 22.0524 50.136 21.935 50.1209C21.9137 50.1183 21.8826 50.0196 21.8928 49.9734C21.9186 49.8552 21.9928 49.7788 22.1279 49.7921ZM21.5795 40.599C21.3502 40.6012 21.3582 40.399 21.3276 40.2342C21.504 40.1924 21.6702 40.3639 21.8453 40.2742C21.8484 40.2617 21.851 40.2488 21.8542 40.2364C21.8586 40.2359 21.8622 40.235 21.8662 40.2342C21.6337 39.632 22.0346 39.1179 22.1381 38.5664C22.1763 38.3602 22.5047 38.2064 22.7669 38.3091C22.9869 38.3957 22.9705 38.6228 22.9029 38.8219C22.8603 38.9477 22.8029 39.069 22.7496 39.1934C22.7532 39.1912 22.7563 39.1885 22.7598 39.1863C22.8167 39.8413 22.4714 40.1497 21.8662 40.2342C21.8697 40.2426 21.8715 40.251 21.875 40.2595C21.8653 40.2666 21.855 40.2693 21.8453 40.2742C21.8097 40.4266 21.7826 40.5972 21.5795 40.599ZM21.8737 40.2582L21.8733 40.2577L21.8728 40.2568L21.8702 40.2542L21.8693 40.2533L21.8684 40.2524L21.8675 40.251L21.8666 40.2502L21.8657 40.2493L21.8648 40.2479L21.8635 40.247L21.8626 40.2457L21.8617 40.2448L21.8608 40.2439L21.8599 40.243L21.859 40.2417L21.8582 40.2408L21.8573 40.2399L21.8568 40.2395L21.8559 40.2386L21.8555 40.2382L21.855 40.2377L21.8546 40.2373L21.8542 40.2368V40.2364L21.8737 40.2582ZM21.1694 38.549C21.1622 38.5277 21.2236 38.4833 21.2529 38.4499C21.3729 38.4499 21.4626 38.5024 21.5018 38.6157C21.5222 38.6757 21.4818 38.7255 21.4195 38.7183C21.3102 38.705 21.2067 38.6637 21.1694 38.549ZM21.0916 35.4023C21.1685 35.1335 21.476 35.0539 21.839 35.2046C21.8368 35.1992 21.8333 35.1948 21.8315 35.1894L21.8408 35.1979C21.8359 35.1934 21.8319 35.1894 21.8319 35.1894C21.8462 35.1815 21.8586 35.1743 21.8724 35.1668C21.9186 35.0552 21.9653 34.9437 22.0124 34.8322C21.9999 34.8406 21.9901 34.8504 21.9773 34.8579C21.9777 34.8442 21.9781 34.8317 21.9781 34.8188C21.7546 34.7628 21.5129 34.7379 21.396 34.4833C21.9795 34.2936 21.9937 34.2909 21.9781 34.8188C21.9901 34.8215 22.0026 34.8242 22.0141 34.8273C22.0137 34.8291 22.0128 34.8308 22.0124 34.8322C22.3381 34.6086 22.4376 34.2327 22.5914 33.8176C22.7265 34.6748 22.7265 34.6895 21.8724 35.1668C21.8662 35.181 21.8604 35.1957 21.8542 35.2099L21.8537 35.2094L21.8533 35.209L21.8528 35.2086L21.8524 35.2081L21.8515 35.2077L21.851 35.2068L21.8502 35.2059L21.8493 35.205L21.8484 35.2041L21.8475 35.2032L21.8462 35.2023L21.8453 35.2014L21.8444 35.2006L21.843 35.1997L21.8422 35.1988L21.8408 35.1979L21.0916 35.4023ZM21.8542 35.2099C21.8493 35.2077 21.8439 35.2068 21.839 35.2046C21.8866 35.3134 22.0639 35.3819 21.9461 35.5414C21.8093 35.7267 22.0412 36.184 21.5591 36.1058C21.3071 36.0649 21.0338 35.6032 21.0916 35.4023L21.8542 35.2099ZM22.3799 33.1915C22.5203 33.7621 21.9617 33.7101 21.8182 33.9749C21.8195 33.6016 22.0479 33.4017 22.3799 33.1915ZM22.2048 30.5358C22.3314 30.5127 22.3936 30.5927 22.4225 30.7056C22.4243 30.79 22.3972 30.8753 22.3065 30.8704C22.1834 30.8633 22.1528 30.7482 22.1395 30.6473C22.1346 30.6122 22.1754 30.5411 22.2048 30.5358ZM22.1035 29.0133C21.7959 28.8556 22.1035 28.5121 22.1012 28.2512C22.099 27.9859 22.283 27.921 22.495 28.0854C22.6207 28.1837 22.7269 28.1903 22.846 28.1059C22.8429 28.0948 22.8434 28.0854 22.8394 28.0743L22.8403 28.0752L22.8407 28.0757L22.8411 28.0761L22.842 28.077L22.8425 28.0774L22.8434 28.0783L22.8438 28.0788L22.8447 28.0797L22.8456 28.0806L22.8465 28.0814L22.8478 28.0823L22.8487 28.0837L22.8496 28.0846L22.8509 28.0854L22.8518 28.0863L22.8527 28.0877L22.8536 28.0886L22.8549 28.0894L22.8558 28.0903L22.8567 28.0912L22.8576 28.0921L22.8585 28.093L22.8589 28.0934L22.8598 28.0943L22.8603 28.0948L22.8607 28.0952L22.8611 28.0957L22.8616 28.0961C22.8563 28.1006 22.8514 28.1019 22.846 28.1059C22.8909 28.2685 22.8434 28.4023 22.7127 28.5192C22.5127 28.6983 22.5261 29.2293 22.1035 29.0133ZM22.8403 28.0752C22.8523 28.0757 22.8625 28.0748 22.874 28.0752C22.9705 27.9135 23.0025 27.6877 23.318 27.6526C23.2726 27.9552 23.1349 28.081 22.874 28.0752C22.8696 28.0819 22.866 28.0894 22.8616 28.0961L22.8403 28.0752ZM21.8213 26.7625C21.8435 26.5336 22.0528 26.5781 22.1994 26.5416C22.3221 26.5114 22.4421 26.5634 22.4296 26.6905C22.4079 26.9087 22.195 26.8651 22.051 26.91C21.9475 26.8989 21.8057 26.9247 21.8213 26.7625ZM22.6016 27.2944C22.6305 27.3869 22.5594 27.4491 22.4847 27.4802C22.451 27.4944 22.3634 27.4651 22.355 27.4384C22.3261 27.3491 22.3799 27.2864 22.463 27.25C22.5114 27.2638 22.5936 27.2678 22.6016 27.2944ZM22.7163 29.4351C22.7967 29.2129 22.9802 29.4399 23.1016 29.5226C23.1398 29.5488 23.1478 29.619 23.2038 29.7479C22.9136 29.7199 22.6461 29.6279 22.7163 29.4351ZM22.6696 38.082C22.4154 38.0726 22.1492 37.6456 22.2648 37.4118C22.3257 37.2896 22.4505 37.2879 22.5465 37.3381C22.7874 37.4638 22.6763 37.7825 22.8585 37.9567C22.8887 37.9855 22.7585 38.0633 22.6696 38.082ZM22.9998 40.9105C22.9549 40.9083 22.8927 40.9221 22.87 40.8985C22.8443 40.871 22.8536 40.8101 22.8474 40.7639C22.8936 40.7652 22.9585 40.7488 22.9798 40.7719C23.006 40.8008 22.9949 40.863 22.9998 40.9105ZM22.9936 31.7125C22.8331 31.8419 22.6594 31.8072 22.3888 31.693C22.6292 31.5064 22.7803 31.381 22.9767 31.5019C23.0469 31.5455 23.0558 31.6619 22.9936 31.7125ZM23.6077 36.3986C23.5566 36.4795 23.4793 36.5088 23.4002 36.4617C23.3673 36.4422 23.3397 36.3582 23.3553 36.3235C23.3931 36.2382 23.4757 36.2213 23.5615 36.2595C23.6224 36.2871 23.6357 36.3378 23.6077 36.3986ZM23.6433 35.4885C23.6713 35.5059 23.6833 35.5996 23.6633 35.6361C23.5099 35.9147 23.2478 35.7872 23.01 35.8578C23.0273 35.7707 23.0269 35.7245 23.0385 35.7209C23.2482 35.6601 23.3464 35.3023 23.6433 35.4885ZM23.7024 28.3858C23.7886 28.4081 23.8801 28.4609 23.8632 28.5925C23.8512 28.6827 23.7766 28.7342 23.6962 28.6925C23.6317 28.6596 23.5659 28.5889 23.5446 28.5214C23.5175 28.4338 23.5717 28.3694 23.7024 28.3858ZM23.9046 27.6348C24.0099 27.6291 24.1165 27.6339 24.1468 27.7695C24.1396 27.8624 24.0779 27.9157 23.9974 27.9272C23.8846 27.9437 23.7828 27.9015 23.7601 27.7788C23.7433 27.6833 23.8192 27.6397 23.9046 27.6348ZM23.8166 33.7901C23.7579 33.8136 23.6926 33.8594 23.6255 33.8616C23.5686 33.8634 23.5491 33.795 23.5926 33.7527C23.6264 33.7194 23.6779 33.6976 23.7255 33.687C23.7864 33.6727 23.8188 33.7083 23.8166 33.7901ZM23.7179 30.3758C23.7428 30.2518 23.8495 30.2016 23.969 30.231C24.0819 30.259 24.1503 30.3429 24.1659 30.4678C24.1365 30.6447 24.0046 30.542 23.9166 30.5487C23.7975 30.5585 23.6882 30.5242 23.7179 30.3758ZM25.188 30.187C25.2382 30.147 25.2795 30.1581 25.3057 30.2141C25.2853 30.2536 25.2644 30.2932 25.2435 30.3327C25.2124 30.3047 25.1777 30.2794 25.1529 30.2465C25.1475 30.2394 25.1702 30.2012 25.188 30.187ZM28.0689 31.0966C28.0663 31.006 28.0929 30.9242 28.1409 30.8522L28.0818 30.0727C28.0121 30.1372 27.9267 30.1892 27.8196 30.2261C27.9023 30.0541 27.8632 29.7857 28.0512 29.6639L27.6663 24.5397H21.4698L21.3804 25.7271C21.4738 25.8724 21.5315 26.0368 21.504 26.219C21.4822 26.363 21.4147 26.4381 21.3244 26.4741L21.1258 29.1182C21.2489 29.0475 21.3622 29.0662 21.4875 29.2817C21.6742 29.6026 22.1919 29.4786 22.3723 29.9279C21.9417 29.9808 21.5373 29.8981 21.0734 29.8128L21.0236 30.4785C21.0543 30.4691 21.0854 30.4611 21.1071 30.4523C21.216 30.4767 21.3169 30.5074 21.2596 30.61C21.2285 30.6651 21.1191 30.6985 21.044 30.7002C21.0316 30.7007 21.0196 30.6989 21.0071 30.6962L20.9094 31.9961C20.9249 31.9978 20.9396 32.0014 20.9552 32.0023C21.3653 32.0254 21.3302 32.2316 21.1391 32.4809C21.076 32.5631 20.9916 32.6555 20.8645 32.6222C20.8636 32.6218 20.8632 32.6218 20.8623 32.6213L20.6885 34.9321C20.7458 34.9281 20.8027 34.9268 20.8605 34.9259C20.8636 34.9184 20.8672 34.9104 20.8707 34.9037C20.8703 34.9033 20.8694 34.9019 20.8694 34.9015C20.8761 34.8873 20.8863 34.8748 20.8956 34.8624C20.9049 34.7051 20.8321 34.5269 21.0089 34.4144C21.0343 34.3984 21.1267 34.4282 21.1351 34.454C21.2093 34.6784 20.9925 34.7344 20.8956 34.8624C20.8943 34.8837 20.8916 34.905 20.8867 34.925C20.8778 34.9255 20.8689 34.9255 20.8605 34.9259C20.8294 34.9904 20.8058 35.0619 20.7578 35.1095C20.7307 35.1357 20.701 35.1552 20.6712 35.1668L19.1785 55.0257H21.8684C21.9035 54.9439 21.9537 54.8599 21.9653 54.7706C22.0226 54.8826 22.1799 54.935 22.2514 55.0257H23.3766L23.633 48.0781H25.4844L25.6141 51.1412C25.615 51.1412 25.6164 51.1408 25.6177 51.1408C25.7177 51.143 25.7701 51.2172 25.7461 51.3101C25.7381 51.3403 25.6719 51.355 25.6239 51.3741L25.6852 52.8255C25.751 52.7926 25.815 52.7482 25.8843 52.7384C25.9701 52.7264 26.0461 52.7673 26.0465 52.8881C26.0199 52.9726 25.9421 52.9979 25.8599 52.965C25.7959 52.9397 25.7426 52.8873 25.6857 52.8437L25.7777 55.0257H26.1763C25.7901 54.4137 25.7999 54.3853 25.9825 53.8871C26.1341 54.2542 26.2749 54.6075 26.2558 55.0257H29.9576L28.2018 31.6686C28.0378 31.5539 28.0752 31.301 28.0689 31.0966ZM14.7355 26.7647C14.5431 26.7385 14.4355 26.6225 14.4551 26.4225C14.464 26.3345 14.5288 26.2808 14.6355 26.2799C14.7875 26.3497 14.911 26.4639 14.9186 26.6461C14.9226 26.7314 14.8181 26.7763 14.7355 26.7647ZM14.5053 29.3053C14.3058 29.3302 14.2102 29.188 14.1591 29.0302C14.1333 28.952 14.2084 28.8653 14.2933 28.8613C14.4782 28.8525 14.5951 28.9542 14.6457 29.1209C14.6377 29.2217 14.5888 29.2951 14.5053 29.3053ZM9.95652 40.9758C9.77565 40.9945 9.7361 40.8439 9.7201 40.7052C9.71121 40.623 9.75388 40.5306 9.84942 40.5292C10.0183 40.5275 10.0872 40.6412 10.1112 40.8136C10.0623 40.8679 10.0143 40.9701 9.95652 40.9758ZM9.25972 30.1167C9.15839 29.9723 9.2135 29.859 9.31926 29.755C9.37215 29.7035 9.44769 29.7132 9.4468 29.779C9.44458 29.9145 9.38592 30.0372 9.25972 30.1167ZM7.33107 28.9102C7.2373 28.9129 7.19242 28.8493 7.1782 28.7667C7.15731 28.6489 7.19908 28.5538 7.32262 28.5263C7.43061 28.5023 7.45105 28.5907 7.46083 28.6689C7.4746 28.7756 7.48394 28.8858 7.33107 28.9102ZM12.6766 52.0514C12.8415 52.018 12.8233 52.1682 12.8028 52.2718C12.7859 52.3598 12.873 52.5229 12.6855 52.5095C12.578 52.5015 12.4771 52.4358 12.4793 52.258C12.5318 52.1998 12.5926 52.0683 12.6766 52.0514ZM15.6505 29.7915C15.4785 29.6475 15.3536 29.4111 15.1368 29.1924C15.5572 28.9893 15.7056 29.4279 15.9722 29.5355C15.9642 29.1751 15.9496 28.8351 15.9278 28.5183C15.9109 28.5178 15.8922 28.5134 15.8736 28.5001C15.8336 28.4712 15.7869 28.4245 15.7834 28.3823C15.7802 28.349 15.8385 28.3103 15.8691 28.2743C15.8851 28.2792 15.8976 28.2872 15.9104 28.2952C15.7882 26.7945 15.5069 25.8155 15.0648 25.3644C14.4533 24.741 13.1455 24.4294 11.1417 24.4294C9.11262 24.4294 7.78968 24.7472 7.17286 25.3827C6.55516 26.0181 6.24676 27.6375 6.24676 30.2407V49.361C6.24676 52.0011 6.55516 53.6294 7.17286 54.2466C7.78968 54.8639 9.14906 55.1723 11.2515 55.1723C13.1823 55.1723 14.4533 54.8608 15.0648 54.2378C15.6754 53.6143 15.9811 51.9887 15.9811 49.361V42.1566H11.8016V50.8644C11.8016 51.2679 11.7496 51.555 11.6456 51.7261C11.5417 51.8972 11.3737 51.9829 11.1417 51.9829C10.8848 51.9829 10.7013 51.8972 10.5916 51.7261C10.4813 51.555 10.4267 51.2679 10.4267 50.8644V28.7378C10.4267 28.3467 10.4813 28.0686 10.5916 27.9037C10.7013 27.7384 10.8848 27.6557 11.1417 27.6557C11.3737 27.6557 11.5417 27.7384 11.6456 27.9037C11.7496 28.0686 11.8016 28.3467 11.8016 28.7378V34.9339H15.9811V30.2407C15.9811 30.0812 15.9802 29.9261 15.9775 29.7741C15.8758 29.8559 15.7727 29.8941 15.6505 29.7915ZM19.0287 8.27634C19.0083 8.22612 18.9834 8.17724 18.9696 8.12525C18.9652 8.10836 18.9741 8.08747 18.9821 8.06614H18.2666C18.1191 8.18835 17.964 8.19635 17.7973 8.06614H16.7757C16.7566 8.08214 16.7388 8.09858 16.7192 8.11547C16.709 8.09769 16.6997 8.08259 16.6899 8.06614H16.2122C16.2775 8.12436 16.3304 8.20346 16.3695 8.29189C16.4419 8.45543 16.4126 8.6634 16.4277 8.83938C16.7121 8.94959 16.8454 8.65763 17.0694 8.65807C17.2218 8.65851 17.3049 8.65096 17.2667 8.88249C17.2232 9.14868 17.4271 9.25888 17.6098 9.10379C17.7542 8.9807 17.8418 8.78917 17.9889 8.67051C18.2657 8.44699 18.4848 8.55453 18.4399 8.94426C18.4088 9.21178 18.5457 9.18067 18.651 9.15268C19.0509 9.04647 19.1972 8.68473 19.0287 8.27634ZM20.2468 11.0262C20.3126 11.0738 20.3441 11.132 20.3597 11.1946H22.4012C21.6315 10.6649 20.7427 10.5289 19.8242 10.5241C19.4687 10.5218 19.6029 10.888 19.4487 11.1227C19.7544 11.1795 19.9851 10.8365 20.2468 11.0262ZM29.1435 15.8878H28.5947C28.6093 15.9061 28.624 15.9243 28.6386 15.9421C28.8177 16.1638 28.9759 15.9994 29.1435 15.8878ZM18.9518 9.37398C18.8621 9.36421 18.7848 9.40109 18.7928 9.50685C18.799 9.59351 18.8501 9.66728 18.9434 9.67306C19.0318 9.67839 19.1016 9.63662 19.1109 9.53485C19.0985 9.44064 19.0403 9.38376 18.9518 9.37398ZM14.4444 15.9612C14.4742 15.9372 14.5035 15.9127 14.5333 15.8878H14.4617C14.4608 15.8998 14.4591 15.9118 14.4564 15.9234C14.4604 15.9292 14.4648 15.9332 14.4688 15.9389L14.4444 15.9612ZM17.8689 10.0459C17.6693 9.84148 18.271 9.68905 17.8729 9.51574C17.6849 9.43353 17.5769 9.56196 17.5622 9.68683C17.5089 10.1401 17.1698 10.4041 16.9259 10.732C16.8406 10.8462 16.7446 10.9667 16.9205 11.08C17.0623 11.1711 17.2072 11.1493 17.2645 10.9889C17.42 10.5561 17.6267 10.676 17.8831 10.8942C18.0097 11.0018 18.2435 10.8671 18.1977 10.8031C18.0306 10.5707 18.1555 10.4476 18.3039 10.2876C18.3035 9.9788 17.9969 10.1779 17.8689 10.0459ZM14.7306 10.8338C15.1585 11.0356 15.4323 10.8467 15.7091 10.7614C15.4318 10.8387 15.123 10.5912 14.7306 10.8338ZM13.6254 11.1946C13.6223 11.0422 14.46 10.8062 13.6378 10.7334C13.6378 10.7391 13.6361 10.7431 13.6365 10.7494L13.6352 10.748C13.6227 10.7489 13.6103 10.7494 13.5978 10.7498C13.6054 10.7431 13.613 10.7383 13.6201 10.7316C13.6267 10.732 13.6316 10.7325 13.6378 10.7329C13.6325 10.5752 13.7134 10.4694 13.8685 10.4676C14.0911 10.465 14.3155 10.4885 14.5368 10.5196C14.8999 10.5703 15.1403 10.4658 15.1776 10.065L15.1532 8.71717C15.0879 8.28212 15.4318 8.19902 15.6998 8.06614H14.703C14.7182 8.11769 14.7275 8.1728 14.7248 8.23501C14.7155 8.44476 14.6146 8.52431 14.432 8.56564C14.1404 8.63185 13.9103 8.51453 13.8369 8.25545C13.82 8.19635 13.808 8.13191 13.8014 8.06614H13.3783C13.385 8.08214 13.3899 8.09814 13.3881 8.11014C13.3748 8.19591 13.3054 8.23768 13.2157 8.23457C13.1908 8.19368 13.1419 8.15013 13.1459 8.11192C13.1477 8.09458 13.1539 8.07992 13.1601 8.06614H4.36965C3.7604 8.06614 3.25335 7.63064 3.14181 7.05471C3.13647 7.05694 3.13159 7.06138 3.12625 7.06271C2.97427 7.10937 2.94139 6.98939 2.94139 6.87562C2.94183 6.78808 2.9916 6.70631 3.09426 6.74097C3.1027 6.74364 3.11025 6.74853 3.11825 6.75208V4.62479C3.11825 3.93332 3.67863 3.37295 4.36965 3.37295H5.87169C5.87214 3.36761 5.87125 3.36273 5.87258 3.35739C5.88991 3.26807 5.96279 3.20319 6.05033 3.22852C6.11699 3.24763 6.13699 3.30807 6.14055 3.37295H95.6304C96.3214 3.37295 96.8817 3.93332 96.8817 4.62479V6.81474C96.8817 7.50577 96.3214 8.06614 95.6304 8.06614H49.6894C49.6858 8.07103 49.6849 8.07592 49.6805 8.08125C49.6525 8.11769 49.5756 8.15013 49.5356 8.13769C49.4801 8.12036 49.4347 8.09547 49.3956 8.06614H38.577C38.5596 8.22879 38.4157 8.37677 38.1193 8.65851C38.4125 8.74295 38.6503 8.60608 38.8969 8.48831C39.1316 8.37633 39.3129 8.41099 39.4435 8.6754C39.6288 9.05091 39.3542 8.99314 39.1471 9.05713C39.0587 9.08468 38.872 9.24555 39.0974 9.36421C39.6008 9.63039 39.2871 9.98502 39.1805 10.2792C39.1089 10.4778 38.8769 10.501 38.6756 10.3783C38.4916 10.2663 38.4712 10.1543 38.6263 9.98235C38.7681 9.82593 38.8236 9.61528 38.6072 9.47664C38.4183 9.35532 38.2317 9.40775 38.1161 9.61795C38.0615 9.71749 38.0846 9.9548 37.8766 9.79215C37.7562 9.69794 37.6015 9.4953 37.8051 9.37665C38.1584 9.17045 38.0019 9.00069 37.846 8.7785C37.698 8.56875 37.7002 8.39544 37.9775 8.24079C38.057 8.19591 38.109 8.13547 38.1459 8.06614H37.0927C36.9665 8.32967 36.7532 8.56564 36.6452 8.83005C36.5803 8.98825 36.4128 9.20378 36.2266 9.3331C36.1204 9.40687 36.0084 9.54063 35.956 9.27444C35.8733 8.85316 35.4209 8.89271 35.2272 8.92915C34.9285 8.98514 34.8903 9.35043 35.025 9.67172C34.6135 9.71172 34.5197 8.94603 34.0455 9.32421C34.0464 9.33176 34.0473 9.33976 34.0482 9.34732C34.162 9.37265 34.3171 9.3251 34.3375 9.50996C34.3411 9.54063 34.2753 9.60862 34.2424 9.60818C34.0629 9.60595 34.062 9.47086 34.0482 9.34732C34.0398 9.34554 34.0309 9.34421 34.0224 9.3411L34.0451 9.31799C33.1892 9.69972 33.0768 9.8837 33.159 10.8369C33.171 10.972 33.1345 11.0529 33.0283 11.1058C32.9243 11.1578 32.811 11.1635 32.7137 11.0884C32.6204 11.016 32.5475 10.8978 32.6297 10.8045C33.083 10.2908 32.6719 10.3081 32.3155 10.2552C32.0396 10.2143 31.7689 10.1548 31.4872 10.1934C31.4019 10.2054 31.3219 10.1619 31.3165 10.0668C31.3134 10.0201 31.3601 9.92902 31.3841 9.92902C31.9542 9.93258 31.4885 9.52107 31.6183 9.35132C31.6067 9.36198 31.5947 9.37043 31.5814 9.37754C31.4134 9.50774 31.2765 9.70727 30.9868 9.64639C31.061 9.25311 31.3979 9.47619 31.5814 9.37754C31.5943 9.36776 31.6067 9.35709 31.6201 9.34821C31.6201 9.34821 31.6192 9.34954 31.6192 9.35043C31.8756 9.53085 32.0529 9.32821 32.1875 9.18378C32.4995 8.8496 32.9692 8.74606 33.2674 8.4021C33.2847 8.3821 33.3163 8.37455 33.3354 8.355C33.6189 8.06525 34.0895 8.52209 34.2557 8.22168C34.2895 8.15991 34.3277 8.11058 34.3673 8.06614H19.4247C19.4767 8.10036 19.5282 8.13725 19.5829 8.16658C19.7775 8.27012 20.0206 8.11014 20.2188 8.2359C20.2321 8.35944 20.1544 8.38744 20.0695 8.39988C19.9859 8.41277 19.9046 8.42254 19.8393 8.55764C20.0437 8.8976 20.5299 8.80916 20.7796 9.09135C20.7796 9.08957 20.7805 9.08868 20.7805 9.08691L20.7823 9.08913C20.7885 9.09313 20.7947 9.09713 20.801 9.10113C20.8414 9.06957 20.8872 9.04202 20.9192 9.00292C21.0276 8.87093 21.1414 8.74117 21.3164 8.88915C21.3684 8.93315 21.4102 9.04691 21.3907 9.1069C21.3204 9.32154 21.1538 9.28422 20.9947 9.21578C20.9272 9.18645 20.8658 9.14245 20.801 9.10113C20.7992 9.1029 20.797 9.10424 20.7947 9.10557V9.10513H20.7943C20.7898 9.09979 20.7841 9.09624 20.7796 9.09135C20.7392 9.35443 20.5788 9.45842 20.3868 9.26466C20.1268 9.00203 19.9006 9.04824 19.6424 9.22556C19.4802 9.3371 19.4433 9.49174 19.5011 9.66772C19.5611 9.85126 19.6864 9.9348 19.8882 9.89525C20.1086 9.8517 20.3312 9.82104 20.5521 9.78637C20.5525 9.78993 20.5521 9.79393 20.5525 9.79748C20.7921 9.62106 21.0747 9.7446 21.3333 9.69527C21.5533 9.6535 21.6004 9.74416 21.6053 9.9668C21.6115 10.2517 22.0004 10.481 22.0883 10.437C22.7518 10.1054 22.4834 10.7525 22.6238 10.9347C22.6643 10.9876 22.6389 11.0911 22.6136 11.1946H22.8194C22.8994 11.1484 22.9851 11.0982 23.082 11.0418C23.0629 11.112 23.0367 11.16 23.0056 11.1946H33.922C34.0549 10.9476 34.1451 10.6956 34.0424 10.3783C34.3308 10.6507 34.5455 10.9325 34.9383 10.9982C34.8432 11.1302 34.7152 11.1644 34.5935 11.1946H57.7079C57.6533 11.1573 57.6453 11.0795 57.6635 10.9982C57.6924 10.8702 57.7159 10.708 57.8741 10.6929C57.9648 10.684 57.9946 10.732 58.003 10.7507L58.0026 10.7267C58.0048 10.7627 58.0083 10.7627 58.003 10.7507C58.0106 11.0129 57.9879 11.1462 57.8932 11.1946H59.1811C59.1958 11.1769 59.2118 11.16 59.2277 11.1467C59.2797 11.1044 59.3224 11.128 59.3393 11.1946H95.6304C96.3214 11.1946 96.8817 11.755 96.8817 12.446V14.6364C96.8817 15.3275 96.3214 15.8878 95.6304 15.8878H31.5103C31.4014 15.9945 31.2921 16.0954 31.1246 16.0514C31.0632 16.0354 31.0575 15.9718 31.1055 15.9247C31.1192 15.9114 31.133 15.899 31.1472 15.8878H30.246C30.2758 15.9056 30.3002 15.9581 30.3269 15.9923C30.3202 16.0652 30.2842 16.0905 30.2251 16.0572C30.2047 16.046 30.1936 16.0154 30.1816 15.9918C30.1585 15.9447 30.1633 15.9043 30.19 15.8878H29.3999C29.4381 16.03 29.3248 16.1309 29.2688 16.2545C29.1852 16.4376 28.9662 16.5247 29.1488 16.8744C29.291 17.1477 28.8093 16.8828 28.6302 16.989C28.6302 16.9899 28.6302 16.9913 28.6298 16.9921H28.6293H28.6289H28.628H28.6275H28.6271H28.6266H28.6262H28.6258H28.6253H28.6249H28.6244H28.624H28.6235C28.6258 16.9908 28.6284 16.9904 28.6302 16.989C28.6324 16.9362 28.6466 16.8459 28.6329 16.8411C28.1169 16.67 27.9454 16.3176 27.9138 15.8878H27.5788C27.5908 15.9007 27.6023 15.9154 27.6117 15.9336C27.5952 15.9781 27.5908 16.0456 27.5597 16.0625C27.4823 16.1034 27.4006 16.074 27.369 15.9927C27.3597 15.9683 27.3744 15.9189 27.3961 15.8878H16.1944C16.254 16.0843 16.3846 16.0909 16.8072 16.1163C16.9152 16.1225 17.0214 16.1634 17.173 16.198C16.9161 16.6611 16.5073 16.3287 16.2117 16.4402C16.1429 16.2309 15.954 16.0798 15.85 15.8878H14.9448C14.6977 16.2425 14.4409 16.5464 14.064 16.8095C13.9822 16.3651 14.1729 16.1389 14.4466 15.9541C14.4506 15.9443 14.4542 15.9341 14.4564 15.9234C14.4471 15.9105 14.4369 15.9003 14.4271 15.8878H13.6667C13.7436 15.8892 13.7934 15.9287 13.7783 16.0403C13.768 16.1158 13.6921 16.2042 13.6174 16.17C13.4552 16.0967 13.5156 15.9936 13.5867 15.8976C13.585 15.8981 13.5832 15.8981 13.581 15.899C13.5663 15.895 13.5516 15.8914 13.5374 15.8878H13.4512C13.369 15.8963 13.2881 15.9069 13.2134 15.9354C13.061 15.9945 12.993 15.9643 12.9633 15.8878H8.07675C7.99054 15.9998 7.867 16.1007 7.73413 16.2167C7.69369 16.0807 7.69502 15.9749 7.71946 15.8878H4.36965C3.67863 15.8878 3.11825 15.3275 3.11825 14.6364V12.446C3.11825 11.755 3.67863 11.1946 4.36965 11.1946H11.9141C12.1029 11.0724 12.2522 10.7929 12.5286 11.012C12.5291 11.0107 12.53 11.0093 12.5304 11.008L12.5358 11.0133L12.5313 11.0084C12.5438 11.008 12.5558 11.008 12.5682 11.0071C12.5629 11.0151 12.5575 11.0218 12.5522 11.0298C12.5442 11.0227 12.5366 11.0182 12.5286 11.012C12.4989 11.0729 12.4687 11.1333 12.4384 11.1946H13.6254ZM13.6352 10.748L13.6201 10.7316L13.6356 10.748H13.6352ZM20.7823 9.08913L20.7827 9.08957V9.09002L20.7832 9.09046L20.7836 9.09091L20.7841 9.09135L20.7845 9.09179L20.785 9.09268L20.7854 9.09357L20.7863 9.09402L20.7867 9.09491L20.7872 9.09579L20.7881 9.09668L20.7885 9.09757L20.7894 9.09846L20.7898 9.0989L20.7903 9.09979L20.7912 9.10068L20.7916 9.10157L20.7921 9.10202L20.7925 9.1029L20.793 9.10335L20.7934 9.10424L20.7938 9.10468L20.7943 9.10513L20.7823 9.08913ZM28.6298 16.9921H28.6315C28.6324 16.9961 28.632 16.9988 28.6329 17.0028C28.6831 17.0628 28.7333 17.1241 28.7862 17.1832C29.3012 17.7632 29.3021 17.7654 28.6284 18.1587C28.3356 18.3298 28.3907 18.4737 28.6369 18.6408C28.9111 18.8266 28.7715 18.9657 28.5844 19.0163H47.1204C47.1319 18.9995 47.1448 18.9821 47.1546 18.9652C47.1755 18.9821 47.2066 18.9995 47.227 19.0163H60.4765C60.4925 18.9221 60.5285 18.8315 60.6431 18.811C60.652 18.8097 60.6778 18.9039 60.6965 18.9568C60.6951 18.9759 60.6947 18.9963 60.6938 19.0163H95.6304C96.3214 19.0163 96.8817 19.5767 96.8817 20.2682V56.9032C96.8817 57.5942 96.3214 58.1546 95.6304 58.1546H71.8817C71.6271 58.2844 71.3582 58.3986 71.0352 58.4328C71.1041 58.315 71.1818 58.2257 71.2636 58.1546H54.0075C54.0084 58.1555 54.0097 58.1555 54.0111 58.1564C54.1115 58.235 54.2924 58.2159 54.3092 58.4039C54.1733 58.5461 54.0773 58.3377 53.9471 58.3564C53.8453 58.3715 53.7187 58.3239 53.8026 58.1737C53.8075 58.1648 53.8146 58.1613 53.8204 58.1546H52.8965C52.8628 58.1702 52.8219 58.1702 52.7779 58.1546H48.1193C48.1562 58.247 48.1549 58.3595 48.0891 58.4537C47.9047 58.7181 47.7194 58.4688 47.4883 58.4546C47.5603 58.3577 47.6065 58.2462 47.6567 58.1546H45.5597C45.5552 58.1613 45.5517 58.1679 45.5472 58.175C45.5406 58.1684 45.5379 58.1613 45.5321 58.1546H38.6925C38.577 58.2973 38.3739 58.3884 38.2743 58.3213C37.8304 58.0204 37.5033 58.3088 37.0123 58.5581C37.0407 58.4052 37.0532 58.2675 37.0749 58.1546H34.525C34.4899 58.3866 34.3526 58.5497 34.1051 58.575C33.9753 58.5559 33.8478 58.5021 33.8642 58.379C33.8758 58.2937 33.9029 58.2182 33.9433 58.1546H28.5533C28.5529 58.1577 28.5547 58.1604 28.5542 58.1639C28.5475 58.2519 28.4862 58.3173 28.3987 58.319C28.3071 58.3212 28.2609 58.2515 28.2507 58.1626C28.2507 58.1595 28.2525 58.1573 28.2529 58.1546H26.6731C26.4909 58.3341 26.2727 58.5008 26.0372 58.3168C25.9901 58.2799 25.9154 58.2235 25.8554 58.1546H24.2201C24.261 58.1848 24.301 58.2173 24.3432 58.2506C24.2881 58.2941 24.2521 58.3448 24.209 58.3519C24.1117 58.3684 24.057 58.3026 24.0632 58.2124C24.0641 58.1959 24.0801 58.1742 24.0974 58.1546H4.36965C3.67863 58.1546 3.11825 57.5942 3.11825 56.9032V24.5837C3.1147 24.5814 3.10937 24.5805 3.10626 24.5788C2.75252 24.3379 2.59476 23.93 2.30369 23.6327C2.11927 23.4447 2.2668 23.2403 2.32502 23.0438C2.31835 23.0318 2.31124 23.0203 2.30369 23.0083C2.30991 23.0056 2.31658 23.0025 2.3228 22.9998C2.17748 22.9301 2.00995 22.859 2.19703 22.6683C2.29702 22.5666 2.46278 22.5217 2.54144 22.6794C2.64409 22.8861 2.46189 22.9367 2.3228 22.9998C2.32724 23.0021 2.33168 23.0043 2.33613 23.0065C2.33346 23.019 2.32902 23.0314 2.32502 23.0438C2.41834 23.1972 2.50677 23.354 2.60987 23.5002C2.82051 23.7989 2.94272 23.9233 3.11825 23.882V23.1825C3.08448 23.0927 3.08981 22.9741 3.11825 22.7879V20.9885C3.06937 21.085 3.03026 21.2205 2.97072 21.4169C2.87251 21.7418 2.68942 21.4849 2.54144 21.4303C2.54188 21.4343 2.54144 21.4383 2.54233 21.4423C2.54321 21.4436 2.54455 21.4458 2.54499 21.4463C2.54321 21.4503 2.54144 21.4547 2.53966 21.4587C2.55566 21.5289 2.5761 21.5987 2.57699 21.6689C2.57832 21.7431 2.55166 21.8178 2.5321 21.8907C2.53122 21.8947 2.47833 21.896 2.46189 21.8827C2.38368 21.82 2.39345 21.7484 2.44145 21.6685C2.481 21.6027 2.50944 21.5307 2.53966 21.4587C2.53699 21.448 2.53433 21.4374 2.53255 21.4267C2.53522 21.4276 2.53833 21.4294 2.54144 21.4303C2.48189 21.0468 2.75697 20.7206 2.61209 20.2695C2.43701 19.7243 2.75208 19.5029 3.25513 19.7007C3.46221 19.295 3.88305 19.0163 4.36965 19.0163H17.8173C17.8231 18.9763 17.8289 18.9355 17.8338 18.8932C17.8635 18.9364 17.8898 18.9768 17.9138 19.0163H27.0193C26.9366 18.8057 26.6976 18.7315 26.3927 18.6968C26.2421 18.6799 26.1141 18.6066 26.1141 18.4444C26.1145 18.2724 26.2718 18.2227 26.4065 18.1969C26.618 18.1564 26.7731 18.1436 26.9806 18.3591C27.3739 18.7675 27.6019 18.6511 27.7037 18.0756C27.7605 17.7547 28.0325 17.4841 27.9156 17.121C27.8894 17.0388 27.9472 16.941 28.0436 16.9437C28.12 16.9464 28.2178 16.9873 28.2654 17.0446C28.396 17.2023 28.2831 17.293 28.1512 17.3672C28.1512 17.3677 28.1516 17.3677 28.1516 17.3677C28.4609 17.4454 28.7004 17.429 28.6329 17.0028C28.6298 16.9993 28.6266 16.9957 28.6235 16.9921H28.6298ZM12.5358 11.0133L12.5366 11.0142L12.5375 11.0151L12.5384 11.016L12.5393 11.0169L12.5406 11.0182L12.5415 11.0191L12.5424 11.02L12.5433 11.0213L12.5446 11.0222L12.5455 11.0231L12.5464 11.024L12.5473 11.0249L12.5482 11.0258L12.5491 11.0267L12.5495 11.0271L12.5504 11.028L12.5509 11.0284L12.5513 11.0289L12.5518 11.0293L12.5522 11.0298L12.5358 11.0133ZM13.5978 10.7498C13.3028 11.0227 12.9299 10.9907 12.5682 11.0071C12.8304 10.6129 13.2361 10.7667 13.5978 10.7498ZM28.6964 17.7987C28.5164 17.6592 28.3351 17.5192 28.1538 17.3788C28.2685 17.9218 28.2716 17.9218 28.6964 17.7987ZM16.2135 10.1672C16.1109 10.1188 16.1673 10.0446 16.1989 9.96502C16.3646 9.54596 16.1122 9.22067 16.0069 8.82249C15.7802 9.00381 15.8522 9.18245 15.8242 9.34065C15.742 9.80859 15.9407 10.2903 15.7442 10.7503C15.7456 10.7503 15.7469 10.7494 15.7487 10.7494C15.7936 11.0147 15.9096 11.1684 16.2051 11.0391C16.0407 10.748 16.8526 10.4667 16.2135 10.1672ZM99.0077 53.3259C98.9597 53.3205 98.9091 53.2841 98.8722 53.2481C98.8264 53.2037 98.8531 53.1623 98.9326 53.1681C98.9806 53.1717 99.0273 53.2014 99.0744 53.2197C99.0948 53.2832 99.0713 53.333 99.0077 53.3259ZM14.3026 9.68683C14.308 9.46997 14.4795 9.43486 14.6519 9.42286C14.9168 9.46819 14.8266 9.65706 14.8172 9.81437C14.8066 9.98457 14.8084 10.1681 14.5573 10.1348C14.2849 10.0983 14.2982 9.87659 14.3026 9.68683ZM13.3099 9.75749C13.4836 9.67172 13.5876 9.47664 13.9231 9.44197C13.936 9.84637 13.9356 10.1779 13.445 10.1539C13.3077 10.1472 13.1068 10.3663 13.0228 10.0957C12.9513 9.86592 13.1708 9.82548 13.3099 9.75749ZM12.9761 8.72917C12.9428 8.74206 12.8904 8.70518 12.8459 8.69007C12.8748 8.6514 12.9037 8.61274 12.9326 8.57364C12.9784 8.58786 13.0241 8.60208 13.0699 8.61674C13.0392 8.65585 13.0157 8.71406 12.9761 8.72917ZM10.6813 10.8738C10.6893 10.8445 10.764 10.8342 10.808 10.8156C10.8991 10.8876 10.9506 10.9809 10.9128 11.0933C10.9022 11.1258 10.8075 11.1675 10.7871 11.1533C10.6929 11.0884 10.6493 10.9858 10.6813 10.8738ZM23.4344 17.7432C23.5602 17.697 23.6397 17.7561 23.669 17.884C23.677 18.0222 23.5962 18.0805 23.4748 18.0685C23.4042 18.0613 23.2949 18.0294 23.2775 17.9814C23.2327 17.8587 23.3304 17.7823 23.4344 17.7432ZM22.1586 18.4475C22.151 18.3609 22.2079 18.3035 22.291 18.3089C22.4016 18.316 22.487 18.3906 22.5176 18.496C22.547 18.5959 22.4661 18.6284 22.3861 18.6297C22.2701 18.6311 22.1906 18.5728 22.1586 18.4475ZM19.2038 16.3402C19.2527 16.3531 19.2834 16.3527 19.3016 16.3673C19.5158 16.5411 19.5607 16.7535 19.4251 16.9935C19.4096 17.0215 19.306 17.0388 19.2816 17.017C19.0492 16.8144 19.0118 16.5886 19.2038 16.3402ZM17.4054 17.4699C17.6973 17.8476 17.824 18.012 17.9657 18.1964C17.5436 18.3675 17.3503 19.1319 16.6832 18.5813C16.8094 18.1431 17.5427 18.2502 17.4054 17.4699ZM15.4909 18.2311C15.4878 18.2333 15.4847 18.2351 15.4869 18.2333C15.4896 18.2293 15.4923 18.2253 15.4949 18.2213C15.4687 17.9103 15.4425 17.5996 15.4163 17.2859C15.6283 17.2139 15.8038 17.2663 16.0242 17.4165C15.8487 17.6841 15.6736 17.9516 15.4949 18.2213C15.4954 18.2236 15.4954 18.2258 15.4954 18.2284H15.4949L15.4945 18.2289L15.4936 18.2293L15.4927 18.2302L15.4918 18.2307L15.4909 18.2311ZM15.4954 18.2284C15.4954 18.2289 15.4954 18.2289 15.4954 18.2298C15.566 18.1924 15.6345 18.1467 15.7091 18.1249C16.3682 17.9334 16.3686 17.9351 16.761 17.4214C16.8752 17.6903 16.8041 17.9063 16.6424 18.0356C16.4526 18.1871 16.4006 18.4035 16.2735 18.5808C15.85 18.1093 15.6278 18.7986 15.2252 18.7573C15.1719 18.5049 15.534 18.4497 15.4954 18.2298C15.4914 18.2316 15.4874 18.2342 15.4834 18.2364L15.4954 18.2284ZM14.8204 18.3813C14.8252 18.4173 14.779 18.46 14.755 18.4995C14.7155 18.4746 14.6546 18.4573 14.6422 18.4226C14.6159 18.3502 14.6284 18.2667 14.7319 18.2742C14.7661 18.2773 14.815 18.3409 14.8204 18.3813ZM14.4555 17.9351C14.2351 17.9734 14.0742 17.8174 14.0973 17.5987C14.1187 17.3943 14.2982 17.4432 14.4062 17.5325C14.5528 17.6543 14.7146 17.3725 14.8448 17.5681C14.8244 17.8076 14.635 17.904 14.4555 17.9351ZM7.92521 18.5595C7.87944 18.6119 7.83634 18.7079 7.77945 18.7173C7.68569 18.7324 7.66169 18.6302 7.67325 18.5546C7.68613 18.4702 7.74924 18.4062 7.83989 18.4231C7.87189 18.4289 7.891 18.5013 7.92521 18.5595ZM7.823 16.7335C7.75501 16.7202 7.67991 16.6855 7.63369 16.6357C7.59681 16.5962 7.64036 16.5295 7.69769 16.5406C7.76879 16.5544 7.83411 16.5984 7.88877 16.6233C7.91366 16.6984 7.88611 16.7464 7.823 16.7335ZM6.89334 16.0603C6.89601 16.0163 6.93556 15.9745 6.95867 15.9318C6.98933 15.9665 7.03555 15.9972 7.04577 16.0367C7.05688 16.0794 7.04799 16.1629 7.02444 16.1731C6.92534 16.2145 6.88845 16.1429 6.89334 16.0603ZM6.93423 17.2277C6.9089 17.2646 6.84313 17.2886 6.79291 17.2921C6.72492 17.2966 6.69426 17.2463 6.71647 17.1797C6.73736 17.1184 6.78669 17.101 6.85024 17.1237C6.92001 17.1366 6.96489 17.1828 6.93423 17.2277ZM5.57839 16.2207C5.62461 16.1211 5.70593 16.1456 5.77437 16.15C5.84903 16.1545 5.94368 16.1678 5.93435 16.2673C5.92591 16.3629 5.83658 16.3891 5.75882 16.3562C5.69082 16.3273 5.63661 16.266 5.57839 16.2207ZM3.97593 18.44C3.99859 18.3449 4.09769 18.348 4.1719 18.3786C4.27767 18.4222 4.34432 18.4973 4.30211 18.6084C4.24656 18.6964 4.18301 18.751 4.09902 18.7062C3.99903 18.6519 3.95015 18.5466 3.97593 18.44ZM3.64885 18.783C3.6693 18.9426 3.5382 18.9617 3.42622 18.9444C3.352 18.9328 3.2338 18.8804 3.22535 18.8306C3.19513 18.6586 3.35689 18.7035 3.42311 18.6715C3.53465 18.6777 3.63686 18.6919 3.64885 18.783ZM3.31379 18.0889C3.26846 18.0653 3.18891 18.0476 3.18313 18.0165C3.16536 17.9209 3.23157 17.8574 3.32223 17.8489C3.36667 17.8449 3.45466 17.8854 3.45599 17.9098C3.46177 18 3.40489 18.0631 3.31379 18.0889ZM29.8074 18.7493C29.7696 18.8377 29.7883 18.9555 29.6759 19.0075C29.6563 18.9621 29.6314 18.9181 29.6176 18.871C29.5861 18.7622 29.5932 18.6622 29.7274 18.6359C29.7461 18.6324 29.7798 18.7084 29.8074 18.7493ZM31.7774 17.1663C31.7738 17.3281 31.692 17.4192 31.5285 17.4117C31.4094 17.4059 31.3219 17.3423 31.3383 17.209C31.3534 17.0912 31.4312 17.0117 31.549 16.9935C31.676 16.9735 31.7503 17.0428 31.7774 17.1663ZM52.533 17.7338C52.533 17.8192 52.5024 17.9067 52.4068 17.8943C52.2868 17.8792 52.2517 17.7609 52.2188 17.6623C52.182 17.5521 52.2571 17.5307 52.3442 17.5294C52.4677 17.5423 52.5326 17.6103 52.533 17.7338ZM57.3075 16.1429C57.3031 16.1456 57.2982 16.1474 57.2938 16.1496C57.136 16.2425 56.9974 16.3891 56.7227 16.3389C56.8712 16.0678 57.1302 16.2322 57.2938 16.1496C57.2991 16.1465 57.3049 16.1425 57.3107 16.1394C57.3111 16.1407 57.3111 16.142 57.3115 16.1434C57.5195 16.3447 57.6999 16.0109 57.9417 16.126C57.9155 16.3673 57.7675 16.5007 57.5364 16.5029C57.308 16.5051 57.3471 16.29 57.3115 16.1434C57.3107 16.1425 57.3098 16.1425 57.3093 16.1416L57.3102 16.1398L57.3075 16.1429ZM64.1782 17.3108C64.1711 17.4317 64.0903 17.5125 63.9649 17.4881C63.8485 17.4654 63.7739 17.3757 63.7867 17.2512C63.7992 17.1277 63.8881 17.0721 64.0089 17.0681C64.1387 17.0975 64.1849 17.197 64.1782 17.3108ZM65.2861 18.3902C65.1572 18.6039 65.107 18.8906 64.8639 18.891C64.6257 18.8915 64.6226 18.6404 64.6293 18.4457C64.6377 18.1969 64.7755 18.1053 65.0115 18.1578C65.1506 18.1889 65.2523 18.2644 65.2861 18.3902ZM73.1167 17.6205C73.0869 17.7921 73.0558 17.9654 72.8163 17.9289C72.6821 17.9089 72.6199 17.8143 72.6505 17.6907C72.6905 17.5312 72.735 17.3454 72.9594 17.3694C73.0918 17.3837 73.1282 17.4965 73.1167 17.6205ZM84.657 17.7143C84.6615 17.8014 84.6299 17.8769 84.5495 17.908C84.4575 17.9431 84.3909 17.8867 84.3735 17.8014C84.3522 17.6947 84.3602 17.5743 84.4993 17.5596C84.585 17.5499 84.6397 17.6263 84.657 17.7143ZM23.1198 9.37843C22.8003 9.43442 22.5598 9.77171 22.1874 9.63884C22.4683 9.44642 22.7043 9.09402 23.1198 9.37843ZM25.3337 10.3165C25.3106 10.3872 25.2368 10.3983 25.1622 10.3707C25.1191 10.3547 25.0604 10.309 25.0569 10.2721C25.0484 10.1792 25.1191 10.133 25.2049 10.1432C25.284 10.1526 25.3475 10.1974 25.3337 10.3165ZM37.1292 9.59084C37.0852 9.77171 37.1012 9.99213 36.8647 10.0575C36.8345 10.0659 36.7616 10.005 36.7452 9.96191C36.6248 9.64773 36.8945 9.62417 37.0465 9.50285C37.094 9.55174 37.1327 9.57662 37.1292 9.59084ZM48.9326 8.85182C48.9446 8.97092 48.8428 9.05358 48.7259 9.06469C48.5251 9.0838 48.2678 8.8185 48.3189 8.65274C48.3447 8.56875 48.4198 8.53409 48.5113 8.52875C48.6668 8.61363 48.9077 8.60741 48.9326 8.85182ZM56.269 10.3272C56.2401 10.4694 56.1779 10.5885 55.9966 10.5583C55.8779 10.5161 55.8144 10.429 55.8446 10.309C55.8815 10.1601 56.0068 10.077 56.1477 10.0814C56.2917 10.0859 56.2899 10.2214 56.269 10.3272ZM60.4818 10.5183C60.4689 10.5698 60.3387 10.6432 60.2925 10.6258C60.0081 10.5196 59.9832 10.2788 59.9797 9.94502C60.3303 10.0854 60.5636 10.1925 60.4818 10.5183ZM62.606 10.8267C62.5509 10.9213 62.5029 11.0284 62.3754 11.0382C62.3669 11.0391 62.3305 10.94 62.3429 10.8982C62.3762 10.792 62.434 10.6974 62.5669 10.6916C62.6242 10.7209 62.6407 10.768 62.606 10.8267ZM91.2233 60.5036C91.1091 60.5041 91.0345 60.4174 91.0078 60.3019C91.042 60.1895 91.1229 60.1037 91.2305 60.0979C91.3455 60.0917 91.4402 60.1855 91.4358 60.3001C91.4318 60.4112 91.338 60.5028 91.2233 60.5036ZM57.6062 60.0504C57.4457 59.7797 57.3164 59.5802 57.2089 59.37C57.172 59.298 57.2124 59.1931 57.3053 59.1789C57.372 59.1691 57.4755 59.1945 57.5146 59.2429C57.6813 59.4491 57.6791 59.6922 57.6062 60.0504ZM54.7039 59.1309C54.6879 59.2456 54.6034 59.3202 54.487 59.3331C54.327 59.3505 54.227 59.2554 54.2075 59.1118C54.1813 58.9238 54.3408 58.9194 54.467 58.8958C54.6314 58.8905 54.7265 58.9629 54.7039 59.1309ZM52.2775 60.9125C52.2082 61.0325 52.0726 61.0311 51.9958 60.9431C51.77 60.6845 51.5643 60.4081 51.2758 60.0442C51.8127 60.1161 51.9518 60.5668 52.2997 60.6921C52.3184 60.6992 52.313 60.8516 52.2775 60.9125ZM45.4361 60.8632C45.3241 60.952 45.205 60.9978 45.0793 60.8978C45.0091 60.8418 45.0033 60.7592 45.0651 60.6992C45.1562 60.6112 45.2628 60.6667 45.357 60.7041C45.4206 60.7294 45.5254 60.7543 45.4361 60.8632ZM43.903 59.8033C43.3022 60.2352 43.383 59.694 43.2937 59.3593C43.6977 59.5926 44.2025 59.318 44.6736 59.6886C44.3416 59.8553 44.099 59.6624 43.903 59.8033ZM39.1871 60.5836C39.0658 60.5623 38.9978 60.4752 39.0169 60.3534C39.0316 60.257 39.1356 60.2419 39.2076 60.2779C39.2733 60.3103 39.3547 60.3779 39.3649 60.4405C39.3804 60.5361 39.2818 60.5685 39.1871 60.5836ZM37.8833 58.9918C37.7109 58.9807 37.6633 58.8447 37.6895 58.6994C37.7131 58.5683 37.8251 58.5421 37.9411 58.5714C38.0548 58.6003 38.129 58.6714 38.1219 58.8008C38.0788 58.9105 38.0006 58.9994 37.8833 58.9918ZM37.997 59.6246C37.8286 59.6766 37.7882 59.526 37.726 59.4193C37.7175 59.4256 37.7091 59.4313 37.7006 59.4371C37.6975 59.4304 37.6944 59.4238 37.6913 59.4167C37.646 59.4225 37.6006 59.4264 37.5589 59.4407C37.4411 59.4811 37.3393 59.4687 37.2594 59.3682C37.2158 59.314 37.222 59.2571 37.2816 59.222C37.4144 59.1429 37.5424 59.1149 37.63 59.2874C37.6513 59.33 37.6709 59.3736 37.6913 59.4167C37.7006 59.4153 37.7104 59.4144 37.7197 59.4127C37.7197 59.4127 37.7211 59.4113 37.7211 59.4109C37.7229 59.4136 37.7242 59.4167 37.726 59.4193C37.8273 59.346 37.9335 59.2762 38.0362 59.4193C38.0815 59.482 38.0833 59.5984 37.997 59.6246ZM36.2893 60.2997C36.155 60.3081 36.0168 60.2615 35.8826 60.2397C35.8004 60.2815 35.7235 60.3121 35.6551 60.357C35.4974 60.4588 35.3898 60.4192 35.3511 60.2415C35.3232 60.1117 35.3978 60.0264 35.5289 60.0179C35.7804 60.0019 36.0155 59.9433 36.2497 59.8428C36.3915 59.7815 36.523 59.8833 36.5452 60.0424C36.5701 60.2206 36.4283 60.2912 36.2893 60.2997ZM34.1322 59.5029C34.1415 59.45 34.2344 59.39 34.2993 59.3736C34.373 59.3553 34.4455 59.4002 34.4686 59.4882C34.4619 59.5775 34.4113 59.6415 34.3291 59.6589C34.21 59.6842 34.1086 59.6398 34.1322 59.5029ZM34.5268 60.7867C34.3766 60.7272 34.2117 60.8752 34.0682 60.7378C34.1473 60.5205 34.2646 60.3392 34.5277 60.3841C34.6597 60.4068 34.7828 60.5121 34.7703 60.6663C34.7597 60.8014 34.6299 60.8281 34.5268 60.7867ZM32.3457 60.5668C32.2209 60.6294 32.12 60.5588 32.1178 60.433C32.1151 60.2992 32.1547 60.1601 32.2955 60.0881C32.3924 60.0779 32.4533 60.1272 32.4733 60.2148C32.5062 60.3566 32.4871 60.4952 32.3457 60.5668ZM31.5067 60.6467C31.3254 60.5974 31.4001 60.4561 31.5525 60.3819C31.6223 60.3477 31.6814 60.2903 31.8289 60.1828C31.7525 60.4459 31.7805 60.7214 31.5067 60.6467ZM29.5408 58.8585C29.5292 58.8301 29.5928 58.7381 29.5994 58.7403C29.7438 58.7883 29.9069 58.8101 30.0238 59.0403C29.7856 59.0229 29.6154 59.0416 29.5408 58.8585ZM28.8515 60.1232C28.8115 60.2703 28.6995 60.3512 28.5409 60.3534C28.4182 60.3552 28.328 60.2961 28.2649 60.1957C28.1725 60.0468 28.2107 59.8904 28.364 59.8593C28.7129 59.7895 28.4249 59.3647 28.7493 59.2589C28.9493 59.5322 28.9328 59.8255 28.8515 60.1232ZM28.0796 61.2267C28.0338 61.1853 27.9983 61.1631 28.001 61.1538C28.0645 60.9671 27.9232 60.6987 28.2111 60.6045C28.2494 60.5916 28.3409 60.6263 28.3494 60.6556C28.4271 60.9294 28.2689 61.0836 28.0796 61.2267ZM27.5921 58.6652C27.533 58.6381 27.4997 58.5448 27.4703 58.475C27.4646 58.4617 27.5295 58.4177 27.5619 58.3884C27.6499 58.4017 27.6983 58.4572 27.7005 58.5408C27.7023 58.6092 27.7005 58.7159 27.5921 58.6652ZM25.9985 59.1571C26.0399 59.4744 26.1901 59.7171 26.4842 59.9099C25.8163 60.0237 25.7555 59.9264 25.9985 59.1571ZM17.4507 60.9956C17.4174 60.9583 17.3818 60.8987 17.3885 60.8556C17.3983 60.7889 17.4663 60.7729 17.5165 60.8249C17.5502 60.86 17.5591 60.92 17.5791 60.9689C17.552 61.0378 17.5027 61.0529 17.4507 60.9956ZM14.6617 59.7144C14.6386 59.7171 14.5786 59.5855 14.5737 59.5135C14.5662 59.4042 14.6048 59.2927 14.7399 59.2851C14.8248 59.2802 14.8879 59.3331 14.8892 59.4562C14.8599 59.5607 14.819 59.6962 14.6617 59.7144ZM2.65698 25.2298C2.56988 25.1871 2.52099 25.0645 2.45567 24.9774C2.49833 24.9498 2.53877 24.9045 2.58499 24.8974C2.71919 24.8765 2.7974 24.9298 2.77296 25.084C2.74363 25.1414 2.7503 25.2751 2.65698 25.2298ZM1.7722 21.8213C1.76598 21.8218 1.76109 21.8218 1.75531 21.8227C1.68776 21.9298 1.62777 22.0435 1.54467 22.1368C1.47401 22.2159 1.35892 22.287 1.27093 22.1653C1.23626 22.1173 1.24826 22.0058 1.28026 21.9449C1.35625 21.8013 1.43891 21.632 1.60955 21.6009C1.75131 21.5751 1.7522 21.7178 1.75398 21.8236L1.75487 21.8227C1.75487 21.8227 1.75487 21.8227 1.75442 21.8227L1.77087 21.7969C1.77087 21.8049 1.77175 21.8129 1.7722 21.8213ZM1.7722 21.8213C2.21881 21.7782 2.22725 22.012 2.08994 22.4395C1.85752 22.2395 1.77753 22.0497 1.7722 21.8213ZM0.391925 25.2982C0.281717 25.3342 0.243055 25.2498 0.232389 25.1689C0.206615 24.9756 0.465694 24.7365 0.655892 24.777C0.742993 24.7956 0.786543 24.8667 0.800319 24.9601C0.769656 25.1938 0.572792 25.2387 0.391925 25.2982ZM2.74941 19.0457C2.78674 19.047 2.82274 19.1003 2.85873 19.1314C2.83207 19.1683 2.81118 19.2296 2.77785 19.2376C2.69608 19.2563 2.6192 19.2256 2.63742 19.1234C2.64365 19.0897 2.71119 19.0443 2.74941 19.0457ZM5.59261 1.07856C5.46685 1.44296 5.54062 1.78648 5.50507 2.13088C5.48507 2.32419 5.53351 2.57438 5.35931 2.66815C5.20644 2.7508 5.07446 3.04188 4.89003 2.89078C4.73139 2.76102 4.78427 2.5375 5.0118 2.42062C5.194 2.3273 5.24199 2.24331 5.0589 2.05444C4.46031 1.4363 4.5003 1.36475 5.59261 1.07856ZM11.9341 2.88634C11.8825 2.89745 11.8314 2.91523 11.779 2.91878C11.5114 2.93745 11.5839 2.73525 11.5528 2.4775C11.7403 2.63748 11.8905 2.71392 11.9341 2.88634ZM16.5024 1.38564C16.4908 1.42074 16.4308 1.43941 16.3922 1.46563C16.33 1.44474 16.3144 1.40297 16.3526 1.3452C16.3651 1.32565 16.3899 1.30565 16.4117 1.30209C16.4757 1.29187 16.5215 1.32831 16.5024 1.38564ZM16.2304 0.482639C16.3962 0.48886 16.545 0.540409 16.633 0.695501C16.6072 0.744384 16.5904 0.821708 16.5588 0.828373C16.3744 0.865702 16.2486 0.767937 16.1726 0.611067C16.1584 0.582626 16.2113 0.482194 16.2304 0.482639ZM17.672 0.440422C17.8507 0.394649 18.0417 0.294217 18.2373 0.585292C18.0377 0.645285 17.9098 0.68528 17.7813 0.721276C17.6898 0.74705 17.616 0.711055 17.5809 0.627509C17.5436 0.540409 17.5814 0.463974 17.672 0.440422ZM19.498 0.356432C20.0428 1.15233 20.0335 1.47096 19.3536 2.3113C19.3376 1.54517 19.2154 0.962579 19.498 0.356432ZM20.3197 1.82469C20.381 1.85847 20.4143 1.94379 20.4503 1.99223C20.4188 2.1091 20.3566 2.18598 20.2686 2.1451C20.213 2.11932 20.1677 2.01712 20.1646 1.9469C20.1615 1.87002 20.2086 1.76426 20.3197 1.82469ZM21.1969 1.53184C21.2373 1.55806 21.2773 1.58428 21.3178 1.61094C21.3013 1.6576 21.2844 1.70427 21.268 1.75093C21.2258 1.72248 21.1631 1.7016 21.1476 1.66249C21.1351 1.63005 21.1782 1.57628 21.1969 1.53184ZM33.918 0.635064C34.0629 0.608845 34.1402 0.762604 34.1629 0.902587C34.1891 1.06123 34.0904 1.15233 33.97 1.21988C33.8376 1.21855 33.7593 1.14789 33.7438 1.03102C33.7211 0.866591 33.7189 0.67106 33.918 0.635064ZM50.4937 3.03166C50.5342 3.05921 50.5964 3.07876 50.611 3.11653C50.6586 3.23519 50.5857 3.31162 50.4915 3.37161C50.4493 3.34939 50.3693 3.31251 50.3715 3.30629C50.4057 3.21252 50.4511 3.12231 50.4937 3.03166ZM63.5956 1.62561C63.6876 1.63938 63.729 1.70693 63.6779 1.78959C63.6316 1.86425 63.5468 1.89269 63.4672 1.84691C63.4317 1.82647 63.4206 1.76381 63.3983 1.72071C63.4397 1.63761 63.5157 1.61317 63.5956 1.62561ZM72.1848 0.701278C72.2772 0.7075 72.3568 0.747495 72.3497 0.845705C72.3377 1.00657 72.2364 1.09412 72.0728 1.08345C71.9866 1.07768 71.8968 1.02968 71.9 0.937249C71.9057 0.765715 72.0355 0.71461 72.1848 0.701278ZM77.9508 2.51972C77.965 2.44195 78.005 2.36552 78.1139 2.40596C78.2694 2.47395 78.2663 2.60815 78.2454 2.74191C78.2321 2.82457 78.1778 2.90723 78.0859 2.86057C77.9534 2.79302 77.9263 2.65659 77.9508 2.51972ZM98.7424 0.244446H1.2576C0.56657 0.244446 0.00619507 0.804821 0.00619507 1.49585V21.7253C0.0470789 21.7467 0.0719647 21.7889 0.0759642 21.8507C0.0661876 21.9031 0.0417462 21.9431 0.00619507 21.9706V22.2208C0.0310809 22.2093 0.0572998 22.2008 0.0844076 22.1968C0.22128 22.1768 0.359929 22.1835 0.39948 22.359C0.403479 22.5261 0.307935 22.6226 0.16262 22.631C0.107071 22.6341 0.052856 22.6226 0.00619507 22.5986V26.2563C0.016416 26.2914 0.0155272 26.3185 0.00619507 26.339V60.0148C0.00619507 60.7063 0.56657 61.2667 1.2576 61.2667H25.2697C25.2915 61.2324 25.3106 61.1982 25.3355 61.1649C25.3666 60.856 25.2222 60.5779 25.0986 60.1997C25.4022 60.5045 25.4022 60.5045 25.3373 61.1693C25.3373 61.1698 25.3368 61.1689 25.3364 61.1676L25.3373 61.1702C25.4435 61.2089 25.527 61.2391 25.5919 61.2667H30.7215C30.7482 61.1925 30.7037 61.1436 30.5877 61.1062C30.4655 61.0671 30.1736 61.2396 30.3504 60.9005C30.4375 60.7338 30.6131 60.5339 30.8153 60.7436C30.9761 60.9103 31.149 61.0596 31.2872 61.2667H33.0163C33.0279 61.0494 33.2185 61.0254 33.2954 61.0116C33.5714 60.9903 33.6754 61.0702 33.6558 61.2342C33.6545 61.2449 33.6527 61.256 33.6514 61.2667H35.3774C35.4454 61.0751 35.5965 60.924 35.7533 60.8001C35.904 60.6805 36.1306 60.7485 36.2817 60.8983C36.3364 60.952 36.3581 61.0391 36.3959 61.1129C36.3826 61.1667 36.3652 61.2173 36.3452 61.2667H56.2046C56.1877 61.2387 56.169 61.2142 56.1459 61.1942C55.8975 60.9818 56.2228 60.8934 56.3174 60.7627C56.3614 60.7023 56.445 60.6703 56.4943 60.6361C56.6441 60.6379 56.7383 60.7076 56.7423 60.8223C56.7458 60.9236 56.6663 61.0258 56.6614 61.1302C56.6592 61.1733 56.6774 61.2196 56.7014 61.2667H98.7424C99.4334 61.2667 99.9938 60.7063 99.9938 60.0148V1.49585C99.9938 0.804821 99.4334 0.244446 98.7424 0.244446ZM25.3364 61.1676L25.3359 61.1658L25.3355 61.1649L25.3364 61.1676ZM13.5943 15.8878C13.5916 15.891 13.5894 15.8945 13.5867 15.8976C13.613 15.8918 13.6378 15.8883 13.6605 15.8878H13.5943ZM13.6605 15.8878H13.6618H13.6627H13.6641H13.6605Z" fill="#8C0000"/>
</g>
<defs>
<clipPath id="clip0_4254_3661">
<rect width="100" height="61.0222" fill="white" transform="translate(0 0.244446)"/>
</clipPath>
</defs>
</svg>
