<svg width="100" height="18" viewBox="0 0 100 18" fill="none" xmlns="http://www.w3.org/2000/svg">
<g clip-path="url(#clip0_4233_996)">
<path d="M70.5645 10.3475C70.2748 10.3475 70.0402 10.1129 70.0402 9.82356V1.17642C70.0402 0.887093 70.2748 0.652496 70.5645 0.652496C70.8538 0.652496 71.0884 0.887093 71.0884 1.17642V9.82356C71.0884 10.1129 70.8538 10.3475 70.5645 10.3475Z" fill="#0D2E48"/>
<path d="M68.0149 1.70072H59.0888C58.7995 1.70072 58.5649 1.46574 58.5649 1.17642C58.5649 0.887093 58.7995 0.652496 59.0888 0.652496H68.0149C68.3043 0.652496 68.5392 0.887093 68.5392 1.17642C68.5392 1.46574 68.3043 1.70072 68.0149 1.70072Z" fill="#0D2E48"/>
<path d="M63.5519 10.3475C63.2625 10.3475 63.0279 10.1129 63.0279 9.82356V1.17642C63.0279 0.887093 63.2625 0.652496 63.5519 0.652496C63.8412 0.652496 64.0762 0.887093 64.0762 1.17642V9.82356C64.0762 10.1129 63.8412 10.3475 63.5519 10.3475Z" fill="#0D2E48"/>
<path d="M91.2572 1.70072H82.331C82.0417 1.70072 81.8071 1.46574 81.8071 1.17642C81.8071 0.887093 82.0417 0.652496 82.331 0.652496H91.2572C91.5465 0.652496 91.7811 0.887093 91.7811 1.17642C91.7811 1.46574 91.5465 1.70072 91.2572 1.70072Z" fill="#0D2E48"/>
<path d="M86.7941 10.3475C86.5048 10.3475 86.2702 10.1129 86.2702 9.82356V1.17642C86.2702 0.887093 86.5048 0.652496 86.7941 0.652496C87.0834 0.652496 87.318 0.887093 87.318 1.17642V9.82356C87.318 10.1129 87.0834 10.3475 86.7941 10.3475Z" fill="#0D2E48"/>
<path d="M34.8354 1.70072H29.9717C29.682 1.70072 29.4474 1.46574 29.4474 1.17642C29.4474 0.887093 29.682 0.652496 29.9717 0.652496H34.8354C35.1248 0.652496 35.3594 0.887093 35.3594 1.17642C35.3594 1.46574 35.1248 1.70072 34.8354 1.70072Z" fill="#0D2E48"/>
<path d="M33.2143 10.3475H28.3502C28.0608 10.3475 27.8263 10.1129 27.8263 9.82356C27.8263 9.53385 28.0608 9.29926 28.3502 9.29926H33.2143C33.5036 9.29926 33.7382 9.53385 33.7382 9.82356C33.7382 10.1129 33.5036 10.3475 33.2143 10.3475Z" fill="#0D2E48"/>
<path d="M33.2143 6.02411H29.9717C29.682 6.02411 29.4474 5.78952 29.4474 5.50019C29.4474 5.21049 29.682 4.97589 29.9717 4.97589H33.2143C33.5036 4.97589 33.7382 5.21049 33.7382 5.50019C33.7382 5.78952 33.5036 6.02411 33.2143 6.02411Z" fill="#0D2E48"/>
<path d="M29.9717 6.0241C28.4906 6.0241 27.2855 4.81935 27.2855 3.3383C27.2855 1.85724 28.4906 0.652496 29.9717 0.652496C30.261 0.652496 30.4956 0.887093 30.4956 1.17642C30.4956 1.46574 30.261 1.70072 29.9717 1.70072C29.0685 1.70072 28.3337 2.43512 28.3337 3.3383C28.3337 4.24109 29.0685 4.97588 29.9717 4.97588C30.261 4.97588 30.4956 5.21048 30.4956 5.50018C30.4956 5.7895 30.261 6.0241 29.9717 6.0241Z" fill="#0D2E48"/>
<path d="M33.2143 10.3475C32.9246 10.3475 32.69 10.1129 32.69 9.82358C32.69 9.53387 32.9246 9.29927 33.2143 9.29927C34.1171 9.29927 34.8519 8.56487 34.8519 7.66169C34.8519 6.7589 34.1171 6.02411 33.2143 6.02411C32.9246 6.02411 32.69 5.78952 32.69 5.50019C32.69 5.21049 32.9246 4.97589 33.2143 4.97589C34.695 4.97589 35.9001 6.18064 35.9001 7.66169C35.9001 9.14275 34.695 10.3475 33.2143 10.3475Z" fill="#0D2E48"/>
<path d="M79.902 1.70072H75.0379C74.7486 1.70072 74.514 1.46574 74.514 1.17642C74.514 0.887093 74.7486 0.652496 75.0379 0.652496H79.902C80.1914 0.652496 80.4259 0.887093 80.4259 1.17642C80.4259 1.46574 80.1914 1.70072 79.902 1.70072Z" fill="#0D2E48"/>
<path d="M78.2805 10.3475H73.4164C73.1271 10.3475 72.8925 10.1129 72.8925 9.82356C72.8925 9.53385 73.1271 9.29926 73.4164 9.29926H78.2805C78.5698 9.29926 78.8048 9.53385 78.8048 9.82356C78.8048 10.1129 78.5698 10.3475 78.2805 10.3475Z" fill="#0D2E48"/>
<path d="M78.2805 6.02411H75.0379C74.7486 6.02411 74.514 5.78952 74.514 5.50019C74.514 5.21049 74.7486 4.97589 75.0379 4.97589H78.2805C78.5698 4.97589 78.8048 5.21049 78.8048 5.50019C78.8048 5.78952 78.5698 6.02411 78.2805 6.02411Z" fill="#0D2E48"/>
<path d="M75.0379 6.0241C73.5568 6.0241 72.3521 4.81935 72.3521 3.3383C72.3521 1.85724 73.5568 0.652496 75.0379 0.652496C75.3272 0.652496 75.5618 0.887093 75.5618 1.17642C75.5618 1.46574 75.3272 1.70072 75.0379 1.70072C74.1347 1.70072 73.4003 2.43512 73.4003 3.3383C73.4003 4.24109 74.1347 4.97588 75.0379 4.97588C75.3272 4.97588 75.5618 5.21048 75.5618 5.50018C75.5618 5.7895 75.3272 6.0241 75.0379 6.0241Z" fill="#0D2E48"/>
<path d="M78.2805 10.3475C77.9912 10.3475 77.7566 10.1129 77.7566 9.82358C77.7566 9.53387 77.9912 9.29927 78.2805 9.29927C79.1837 9.29927 79.9185 8.56487 79.9185 7.66169C79.9185 6.7589 79.1837 6.02411 78.2805 6.02411C77.9912 6.02411 77.7566 5.78952 77.7566 5.50019C77.7566 5.21049 77.9912 4.97589 78.2805 4.97589C79.7616 4.97589 80.9663 6.18064 80.9663 7.66169C80.9663 9.14275 79.7616 10.3475 78.2805 10.3475Z" fill="#0D2E48"/>
<path d="M37.1768 10.3479C37.1102 10.3479 37.0425 10.3349 36.977 10.3077C36.7095 10.1975 36.5821 9.89092 36.6927 9.62341L39.9506 1.73669C40.1267 1.32911 40.6556 0.652496 41.5427 0.652496C42.4302 0.652496 42.9591 1.32911 43.1317 1.72904L46.3927 9.62341C46.5033 9.89092 46.3758 10.1975 46.1083 10.3077C45.8408 10.4183 45.5343 10.2908 45.424 10.0237L42.1699 2.14618C42.1477 2.09987 41.9449 1.70072 41.5427 1.70072C41.1194 1.70072 40.9181 2.14006 40.9162 2.14465L37.6613 10.0237C37.5783 10.2258 37.3827 10.3479 37.1768 10.3479Z" fill="#0D2E48"/>
<path d="M99.4761 10.3479C99.2702 10.3479 99.0746 10.2258 98.9912 10.0237L95.7375 2.14618C95.7153 2.09987 95.5121 1.70072 95.1102 1.70072C94.6869 1.70072 94.4853 2.14006 94.4834 2.14427L91.2289 10.0237C91.1183 10.2908 90.8125 10.4183 90.5446 10.3077C90.2771 10.1975 90.1496 9.89092 90.2602 9.62341L93.5178 1.73669C93.6938 1.32911 94.2227 0.652496 95.1102 0.652496C95.9973 0.652496 96.5262 1.32911 96.6988 1.72904L99.9602 9.62341C100.07 9.89092 99.9434 10.1975 99.6759 10.3077C99.6104 10.3349 99.5427 10.3479 99.4761 10.3479Z" fill="#0D2E48"/>
<path d="M55.7172 10.3479C54.938 10.3479 54.367 9.74588 54.1462 9.36279L50.1431 2.15307C50.1125 2.10255 49.7788 1.57175 49.3008 1.73286C49.1339 1.78912 48.9445 1.85303 48.9445 2.58055V9.82356C48.9445 10.1129 48.7099 10.3475 48.4206 10.3475C48.1309 10.3475 47.8963 10.1129 47.8963 9.82356V2.58055C47.8963 2.17565 47.8963 1.10026 48.9663 0.739752C50.008 0.389197 50.788 1.17335 51.0555 1.63719L55.0586 8.84691C55.0892 8.89704 55.4233 9.42823 55.9005 9.26712C56.0677 9.21086 56.2572 9.14695 56.2572 8.41943V1.17641C56.2572 0.887092 56.4918 0.652496 56.7811 0.652496C57.0704 0.652496 57.305 0.887092 57.305 1.17641V8.41943C57.305 8.82433 57.305 9.89972 56.2354 10.2602C56.0543 10.3211 55.881 10.3479 55.7172 10.3479Z" fill="#0D2E48"/>
<path d="M15.5117 17.6693C15.5109 17.6693 15.5105 17.6693 15.5101 17.6693L0.445848 17.6529C0.282817 17.6529 0.13318 17.5641 0.0547262 17.4209C-0.023345 17.2782 -0.0176045 17.1041 0.070417 16.9667L1.76158 14.3191C1.77995 14.2881 2.37428 13.3287 3.75545 13.3287C3.7566 13.3287 3.75775 13.3287 3.7589 13.3287L15.2599 13.3406L5.70455 8.37923C5.1416 8.09565 4.17987 7.21199 4.54879 5.8844C4.77459 5.07269 5.31458 4.60005 5.8473 4.34517C5.53272 3.80556 5.43245 3.14999 5.57635 2.442C5.86452 1.026 7.22273 0.6521 7.90203 0.6521C7.90241 0.6521 7.90318 0.6521 7.90356 0.6521L22.039 0.668556C22.2021 0.668556 22.3517 0.757343 22.4298 0.900473C22.5082 1.04322 22.5025 1.21735 22.4145 1.35474L20.7233 4.00227C20.7046 4.03327 20.1106 4.9927 18.7294 4.9927C18.7283 4.9927 18.7271 4.9927 18.726 4.9927L8.15385 4.98084L17.7118 9.94334C18.2687 10.2223 19.2342 11.1071 18.8649 12.437C18.6391 13.2483 18.0991 13.7214 17.5664 13.9762C17.881 14.5162 17.9816 15.1714 17.8374 15.8794C17.5492 17.2954 16.191 17.6693 15.5117 17.6693ZM1.26024 16.7616L15.5109 16.7769C15.5591 16.7765 16.7489 16.7531 16.9629 15.7015C17.1014 15.021 16.9097 14.5476 16.6506 14.23C16.6269 14.2319 16.6039 14.233 16.5817 14.2338C16.5763 14.2342 16.5763 14.2334 16.5653 14.2342L3.75775 14.2208C3.75698 14.2208 3.75622 14.2208 3.75545 14.2208C2.88672 14.2208 2.52315 14.7841 2.51971 14.7895L1.26024 16.7616ZM6.47072 5.05585C6.10754 5.16836 5.59701 5.44544 5.40873 6.12359C5.14925 7.057 6.01071 7.53308 6.10983 7.58436L6.1129 7.58589L16.4455 12.9506C16.6269 13.0425 16.793 13.1481 16.9426 13.2656C17.3062 13.1531 17.8163 12.876 18.005 12.1978C18.2725 11.2353 17.346 10.7581 17.3065 10.7382L6.96824 5.37081C6.78645 5.27897 6.62036 5.17334 6.47072 5.05585ZM6.84768 4.08723C6.84807 4.08723 6.84807 4.08723 6.84845 4.08723L18.7271 4.10063C18.7275 4.10063 18.7287 4.10063 18.7294 4.10063C19.5917 4.10063 19.9529 3.5503 19.9679 3.52696L21.2246 1.55987L7.90279 1.54456C7.85457 1.54494 6.66475 1.56829 6.45082 2.61995C6.31228 3.3004 6.50402 3.7738 6.76311 4.09144C6.78683 4.08953 6.8098 4.08838 6.83199 4.08761C6.83735 4.08723 6.84271 4.08723 6.84768 4.08723Z" fill="#B41427"/>
<path d="M29.1799 15.8366C29.1799 16.4565 29.0555 16.9173 28.8064 17.2181C28.5572 17.5189 28.2051 17.6693 27.7497 17.6693C27.6617 17.6693 27.5786 17.664 27.5006 17.6536C27.4229 17.6433 27.3509 17.6265 27.2855 17.6035V17.1485C27.4263 17.2181 27.5836 17.2526 27.7574 17.2526C28.0769 17.2526 28.31 17.137 28.4573 16.9055C28.6043 16.6739 28.6781 16.3176 28.6781 15.8366V12.6081H29.1799V15.8366Z" fill="#B41427"/>
<path d="M30.4994 17.5859V12.6081H33.137V13.0314H31.0011V14.8572H32.9786V15.274H31.0011V17.1657H33.2576V17.5859H30.4994Z" fill="#B41427"/>
<path d="M37.8825 17.5859L37.2863 16.114H34.9659L34.3846 17.5859H33.8263L35.8867 12.6081H36.3923L38.4409 17.5859H37.8825ZM36.2338 13.4791C36.2162 13.4355 36.1979 13.3842 36.1791 13.3264C36.16 13.2686 36.1443 13.2028 36.132 13.1286H36.1167C36.1018 13.2028 36.0846 13.2686 36.0658 13.3264C36.0467 13.3842 36.0287 13.4355 36.0111 13.4791L35.1355 15.6942H37.1167L36.2338 13.4791Z" fill="#B41427"/>
<path d="M42.9529 17.5859L39.9491 13.5905C39.9116 13.5396 39.8745 13.4875 39.8377 13.434C39.8014 13.3808 39.7719 13.3287 39.7493 13.2778H39.7306C39.7356 13.3195 39.7398 13.3773 39.7436 13.4516C39.7474 13.5254 39.7493 13.618 39.7493 13.729V17.5859H39.2476V12.6081H39.8021L42.7566 16.5549C42.8018 16.6177 42.8427 16.6758 42.8791 16.7302C42.9154 16.7845 42.9491 16.835 42.9793 16.8813H42.9981C42.9881 16.8048 42.9805 16.7195 42.9755 16.6242C42.9705 16.5296 42.9679 16.424 42.9679 16.3084V12.6081H43.4734V17.5859H42.9529Z" fill="#B41427"/>
<path d="M44.6196 16.8568C44.7099 16.9196 44.8098 16.9755 44.9196 17.0252C45.0287 17.075 45.1408 17.1167 45.2553 17.1504C45.3697 17.1837 45.4849 17.2093 45.6005 17.2265C45.7164 17.2441 45.827 17.2526 45.9326 17.2526C46.3425 17.2526 46.6494 17.1798 46.8534 17.034C47.057 16.8882 47.1588 16.6789 47.1588 16.4056C47.1588 16.2736 47.1351 16.1584 47.0873 16.0604C47.0394 15.9621 46.9652 15.8699 46.8645 15.7841C46.7639 15.6988 46.6368 15.6134 46.4834 15.5292C46.3299 15.4447 46.1489 15.3494 45.9403 15.2426C45.7088 15.127 45.5105 15.018 45.3456 14.9146C45.181 14.8117 45.0463 14.7064 44.9422 14.5989C44.8377 14.491 44.7612 14.375 44.7118 14.2499C44.6628 14.1251 44.6384 13.9828 44.6384 13.8228C44.6384 13.6219 44.685 13.4412 44.778 13.2813C44.871 13.1217 44.9969 12.9858 45.1554 12.8733C45.3138 12.7616 45.499 12.6751 45.7118 12.615C45.9242 12.5549 46.1516 12.5247 46.393 12.5247C46.8182 12.5247 47.1741 12.579 47.4608 12.6877V13.1982C47.1412 13.0291 46.7666 12.9445 46.3364 12.9445C46.1753 12.9445 46.0237 12.9625 45.8814 12.9984C45.7394 13.0344 45.615 13.0868 45.5082 13.1565C45.4011 13.2258 45.3169 13.3119 45.2553 13.4152C45.1937 13.5182 45.163 13.6379 45.163 13.7746C45.163 13.9039 45.1837 14.0157 45.225 14.1094C45.2667 14.2032 45.3333 14.2916 45.4252 14.375C45.5166 14.4584 45.6376 14.5407 45.7872 14.623C45.9369 14.7053 46.1202 14.7998 46.3364 14.9058C46.5626 15.0172 46.76 15.1251 46.9288 15.2304C47.0972 15.336 47.2373 15.4458 47.3494 15.5602C47.4612 15.6751 47.545 15.7964 47.6005 15.925C47.6556 16.0532 47.6835 16.1963 47.6835 16.3536C47.6835 16.571 47.6395 16.7627 47.5515 16.928C47.4631 17.0937 47.3402 17.2307 47.1814 17.3394C47.023 17.4481 46.8343 17.5304 46.6154 17.5859C46.3969 17.6414 46.1565 17.6693 45.8948 17.6693C45.8094 17.6693 45.7076 17.6628 45.5894 17.6502C45.4711 17.6372 45.3513 17.6192 45.2308 17.5947C45.1102 17.5702 44.995 17.5415 44.8856 17.5078C44.7761 17.4745 44.6873 17.4378 44.6196 17.3984V16.8568Z" fill="#B41427"/>
<path d="M53.4214 17.5859H52.8971L51.7386 13.8959C51.7107 13.8079 51.6889 13.7233 51.6724 13.6425C51.6559 13.5614 51.6468 13.4829 51.6441 13.4064H51.6292C51.6192 13.5407 51.5825 13.7015 51.5197 13.889L50.3199 17.5859H49.7953L48.1994 12.6081H48.7578L49.9499 16.5132C49.9778 16.5989 49.9996 16.6804 50.0161 16.7581C50.0321 16.8354 50.0455 16.91 50.0559 16.982H50.0708C50.0857 16.8779 50.1274 16.7214 50.1952 16.5132L51.4631 12.6081H51.8592L53.0478 16.527C53.0704 16.6058 53.0907 16.6827 53.1083 16.7581C53.1259 16.8331 53.1397 16.9066 53.1496 16.9785H53.1649C53.1699 16.9322 53.1799 16.8802 53.1952 16.8224C53.2101 16.7646 53.2277 16.6996 53.248 16.628L54.4328 12.6081H54.9797L53.4214 17.5859Z" fill="#B41427"/>
<path d="M55.7788 17.5859V12.6081H58.416V13.0314H56.2805V14.8572H58.2576V15.274H56.2805V17.1657H58.5369V17.5859H55.7788Z" fill="#B41427"/>
<path d="M63.1619 17.5859L62.5656 16.114H60.2453L59.664 17.5859H59.1056L61.1657 12.6081H61.6713L63.7202 17.5859H63.1619ZM61.5128 13.4791C61.4952 13.4355 61.4768 13.3842 61.4585 13.3264C61.4393 13.2686 61.4237 13.2028 61.411 13.1286H61.3961C61.3808 13.2028 61.3639 13.2686 61.3452 13.3264C61.3261 13.3842 61.3081 13.4355 61.2905 13.4791L60.4149 15.6942H62.3957L61.5128 13.4791Z" fill="#B41427"/>
<path d="M67.4738 17.5859L66.6586 16.1592C66.5783 16.018 66.5002 15.9001 66.4248 15.8052C66.349 15.7103 66.2713 15.6345 66.1906 15.5779C66.1102 15.5212 66.0241 15.4807 65.9323 15.4562C65.8404 15.432 65.7379 15.4198 65.6246 15.4198H65.0287V17.5859H64.5266V12.6081H66.085C66.2889 12.6081 66.4856 12.6356 66.6755 12.6911C66.8653 12.7466 67.0348 12.8289 67.1829 12.938C67.3314 13.0467 67.4501 13.1829 67.5396 13.3475C67.6288 13.5117 67.6736 13.7026 67.6736 13.92C67.6736 14.096 67.6445 14.2579 67.5867 14.406C67.5289 14.5541 67.4466 14.6854 67.3398 14.8002C67.2327 14.9146 67.1029 15.0118 66.951 15.0918C66.7987 15.1714 66.6272 15.2311 66.4359 15.2706V15.2843C66.509 15.3123 66.5756 15.3482 66.636 15.3919C66.6965 15.4359 66.7547 15.4895 66.8113 15.5515C66.868 15.6142 66.9238 15.6862 66.9793 15.7669C67.0348 15.848 67.0926 15.9403 67.1531 16.0448L68.0624 17.5859H67.4738ZM65.0287 13.0314V15H65.9265C66.1075 15 66.2736 14.9755 66.4248 14.9269C66.5756 14.8783 66.7046 14.8086 66.8113 14.7187C66.9181 14.6284 67.0011 14.5197 67.0605 14.3922C67.1194 14.2648 67.1493 14.1217 67.1493 13.9617C67.1493 13.6724 67.0478 13.4451 66.8454 13.2797C66.6429 13.1144 66.3506 13.0314 65.9682 13.0314H65.0287Z" fill="#B41427"/>
</g>
<defs>
<clipPath id="clip0_4233_996">
<rect width="100" height="17.0302" fill="white" transform="translate(0 0.645599)"/>
</clipPath>
</defs>
</svg>
