<svg width="100" height="56" viewBox="0 0 100 56" fill="none" xmlns="http://www.w3.org/2000/svg">
<g clip-path="url(#clip0_4322_43)">
<path d="M81.5891 14.2157L69.0882 1.69083L68.3483 0.949129L55.3101 26.0456L41.4822 0.094996L41.4613 0.0545558L41.416 0.0550002C41.3129 0.0536671 41.2102 0.0532227 41.1076 0.0532227C37.628 0.0532227 34.1248 0.726041 30.9562 2.00502C27.649 3.33599 24.5573 5.35978 22.0154 7.85774C19.461 10.3699 17.3745 13.4358 15.9818 16.723C14.5886 19.9907 13.8385 23.6339 13.8127 27.2588C13.7905 30.8727 14.4935 34.5354 15.8458 37.8501C17.1972 41.1716 19.2592 44.2886 21.8101 46.8648C24.3573 49.4356 27.4606 51.5309 30.7842 52.925C34.0874 54.3186 37.7639 55.0621 41.4156 55.0741L41.8297 55.0754L48.8437 41.6857L55.6483 28.6587L55.7354 28.4907L61.361 39.5166L68.3923 53.2454L81.5247 40.2383L94.5793 27.2619L81.5891 14.2157ZM68.6882 51.3252L62.1649 38.9749L56.1669 27.6619L68.7434 3.51508L80.5283 15.277L92.5649 27.2619L80.5923 39.3064L68.6882 51.3252ZM41.3707 0.204762L54.6933 26.4482L54.8955 26.8442L54.3133 27.9641L47.5531 41.0147L41 53.7018C37.6879 53.6574 34.3363 52.9779 31.2806 51.7287C28.0947 50.4284 25.1119 48.4544 22.654 46.0204C20.2004 43.5918 18.1935 40.6227 16.8501 37.4333C15.5072 34.2616 14.7841 30.7433 14.7597 27.2588C14.7366 23.7854 15.413 20.2475 16.7155 17.0279C18.0171 13.806 20 10.7854 22.4504 8.2928C24.9133 5.7864 27.9081 3.74084 31.1109 2.37787C34.3216 1.00468 37.8684 0.253646 41.3707 0.204762Z" fill="#B40000"/>
<path d="M90.9757 18.2989C95.9489 18.2989 99.9947 22.3447 99.9947 27.3179C99.9947 32.2912 95.9489 36.3374 90.9757 36.3374C86.0024 36.3374 81.9562 32.2912 81.9562 27.3179C81.9562 22.3447 86.0024 18.2989 90.9757 18.2989ZM90.9757 33.6315C94.4566 33.6315 97.2892 30.7994 97.2892 27.3179C97.2892 23.837 94.4566 21.0048 90.9757 21.0048C87.4943 21.0048 84.6621 23.837 84.6621 27.3179C84.6621 30.7994 87.4943 33.6315 90.9757 33.6315Z" fill="black"/>
<path d="M68.9602 31.3539H58.5453L68.9598 13.3154V19.3685L63.7874 28.3271H68.9602V31.3539Z" fill="black"/>
<path d="M68.9602 23.2823H79.4645L69.05 41.3209V35.2678L74.2224 26.3091H68.9602V23.2823Z" fill="#B40000"/>
<path d="M47.0345 36.3374C42.0613 36.3374 38.015 32.2912 38.015 27.3179C38.015 22.3451 42.0613 18.2989 47.0345 18.2989C52.0078 18.2989 56.0536 22.3451 56.0536 27.3179C56.0536 32.2912 52.0078 36.3374 47.0345 36.3374ZM47.0345 21.0048C43.5531 21.0048 40.721 23.837 40.721 27.3179C40.721 30.7994 43.5531 33.6315 47.0345 33.6315C50.5155 33.6315 53.3477 30.7994 53.3477 27.3179C53.3477 23.837 50.5155 21.0048 47.0345 21.0048Z" fill="black"/>
<path d="M14.1202 18.3087H17.4852C17.4852 18.3087 10.1984 27.1699 10.0224 27.389V36.3272H7.46758V27.397L0.00524902 18.3087H3.37867L8.74255 24.9129L14.1202 18.3087Z" fill="black"/>
<path d="M26.5043 36.3374C21.531 36.3374 17.4852 32.2912 17.4852 27.3179C17.4852 22.3451 21.531 18.2989 26.5043 18.2989C31.4775 18.2989 35.5233 22.3451 35.5233 27.3179C35.5233 32.2912 31.4775 36.3374 26.5043 36.3374ZM26.5043 21.0048C23.0228 21.0048 20.1907 23.837 20.1907 27.3179C20.1907 30.7994 23.0228 33.6315 26.5043 33.6315C29.9857 33.6315 32.8178 30.7994 32.8178 27.3179C32.8178 23.837 29.9857 21.0048 26.5043 21.0048Z" fill="black"/>
<path d="M35.5233 32.6338C35.5233 34.6794 33.8653 36.3374 31.8201 36.3374C29.775 36.3374 28.117 34.6794 28.117 32.6338C28.117 30.5887 29.775 28.9307 31.8201 28.9307C33.8653 28.9307 35.5233 30.5887 35.5233 32.6338Z" fill="black"/>
</g>
<defs>
<clipPath id="clip0_4322_43">
<rect width="100" height="55.0222" fill="white" transform="translate(0 0.0532227)"/>
</clipPath>
</defs>
</svg>
