<svg width="100" height="73" viewBox="0 0 100 73" fill="none" xmlns="http://www.w3.org/2000/svg">
<g clip-path="url(#clip0_4322_54)">
<path d="M71.3508 39.1732L16.7889 72.0461L44.2739 49.5975L28.6687 41.4197L0.00701904 53.9755L28.9497 35.4198L51.543 43.5638L71.3508 30.7911L99.993 51.4186L71.3508 39.1732Z" fill="#4F4F4F"/>
<path d="M42.6671 4.28004C44.9107 2.03072 47.9085 0.526966 51.2499 0.105195C52.9178 -0.092544 54.6708 -0.020508 56.4123 0.398021C58.1545 0.804665 59.8863 1.56645 61.4311 2.68156C62.9683 3.79704 64.3579 5.26081 65.3869 7.00841C65.6365 7.44711 65.8577 7.90454 66.0893 8.36449C66.2975 8.83092 66.4675 9.31608 66.6443 9.80413C66.7916 10.2972 66.9181 10.8011 67.0474 11.309C67.1475 11.8197 67.2109 12.3402 67.2804 12.8628C67.4879 14.9576 67.222 17.1352 66.4833 19.1706C65.7511 21.2078 64.543 23.0933 63.0119 24.6248C61.479 26.1549 59.5887 27.3553 57.5526 28.0836C57.0437 28.2641 56.52 28.4024 56.0032 28.545C55.4795 28.6646 54.9482 28.7482 54.4223 28.831C53.8918 28.8883 53.3587 28.9164 52.8307 28.9365C52.3001 28.9257 51.7721 28.8994 51.2499 28.871C49.1565 28.6704 47.1481 28.0001 45.4059 26.9757C43.6634 25.9442 42.1996 24.5625 41.0856 23.0274C39.9701 21.4866 39.2105 19.757 38.7999 18.0191C38.3803 16.2805 38.3053 14.53 38.4998 12.8628C38.9173 9.52354 40.4174 6.52324 42.6671 4.28004ZM43.0414 4.65427C41.9727 5.73589 41.1165 7.02354 40.5431 8.42788C39.9679 9.83114 39.674 11.3479 39.6794 12.8628C39.6874 14.3784 40.0112 15.8865 40.6018 17.2735C41.1933 18.6617 42.0617 19.9245 43.1343 20.9784C44.2112 22.0279 45.4884 22.8643 46.8769 23.4204C48.2643 23.9801 49.7598 24.2535 51.2499 24.2459C52.7406 24.2383 54.2275 23.9365 55.5987 23.3609C56.9706 22.7872 58.2233 21.9382 59.2718 20.8847C60.3242 19.8348 61.1739 18.5835 61.7473 17.2112C62.3229 15.8404 62.6251 14.3532 62.6323 12.8628C62.6377 11.3731 62.3661 9.8776 61.806 8.49019C61.2503 7.10169 60.4143 5.82486 59.3647 4.74792C58.3112 3.6753 57.0484 2.80691 55.6603 2.21549C54.2736 1.62443 52.7655 1.30135 51.2499 1.29235C49.7349 1.28695 48.2186 1.58085 46.815 2.15606C45.4106 2.72947 44.123 3.58526 43.0414 4.65427Z" fill="#FF8B00"/>
</g>
<defs>
<clipPath id="clip0_4322_54">
<rect width="100" height="72.0461" fill="white"/>
</clipPath>
</defs>
</svg>
