<svg width="100" height="40" viewBox="0 0 100 40" fill="none" xmlns="http://www.w3.org/2000/svg">
<g clip-path="url(#clip0_4361_40)">
<path d="M85.3472 13.4545C85.3472 10.537 85.0391 8.54028 84.4257 7.4647C83.8111 6.3899 82.8703 5.85211 81.6031 5.85211H66.5124V32.3458H85.3472V13.4545ZM69.738 31.7127V9.0769H84.3105C84.6142 10.497 84.7134 12.0054 84.7134 13.4545V31.7127H69.738Z" fill="#FF245C"/>
<path d="M85.3472 12.1578C85.3472 9.24035 85.0391 7.24362 84.4257 6.16804C83.8111 5.09324 82.8703 4.55505 81.6031 4.55505H66.5124V31.0491H85.3472V12.1578ZM69.738 30.4157V7.78023H84.3105C84.6142 9.20036 84.7134 10.7087 84.7134 12.1578V30.4157H69.738Z" fill="#00D4FF"/>
<path d="M99.977 16.0466C99.977 12.1437 98.8112 8.34037 95.4269 6.0822C93.0884 2.66769 89.3333 1.47452 85.3473 1.47452H54.532V36.7238H57.1238C57.1238 37.5877 57.1238 38.4516 57.1238 39.3151H99.977V16.0466ZM55.1655 36.0899C55.1655 24.7626 55.1655 13.4353 55.1655 2.10834H85.3473C89.6468 2.10834 93.4576 3.43675 95.4716 7.41335C96.3187 9.08591 96.7514 11.0944 96.7514 13.4545V36.0899H55.1655Z" fill="#FF245C"/>
<path d="M99.977 14.75C99.977 10.8471 98.8112 7.04371 95.4269 4.78554C93.0884 1.37064 89.3333 0.177856 85.3473 0.177856H54.532V35.4271H57.1238C57.1238 36.291 57.1238 37.1545 57.1238 38.0185H99.977V14.75ZM55.1655 34.7929C55.1655 23.4659 55.1655 12.1386 55.1655 0.81129H85.3473C89.6468 0.81129 93.4576 2.14009 95.4716 6.11669C96.3187 7.78925 96.7514 9.79774 96.7514 12.1578V34.7929H55.1655Z" fill="#00D4FF"/>
<path d="M51.2147 16.0462C51.2147 11.5091 49.6958 8.20436 46.6662 6.12806C46.6404 6.11042 46.6047 6.08298 46.5867 6.05672C44.2964 2.73472 40.5828 1.47452 36.6422 1.47452H1.96841V36.7234C2.83233 36.7234 3.69625 36.7234 4.56016 36.7234C4.56016 37.5873 4.56016 38.4512 4.56016 39.3151H6.50515H17.1743V9.13491H35.5478C35.9057 10.4778 36.0088 12.0755 36.0088 13.4545V36.7234H38.6005C38.6005 37.5873 38.6005 38.4512 38.6005 39.3151H51.2147V16.0462ZM36.6422 36.0899V13.4545C36.6422 11.6541 36.509 9.05769 35.6631 7.4647C35.0794 6.41459 33.9494 5.90973 32.7832 5.90973H13.9484V36.0899C10.1662 36.0899 6.38403 36.0899 2.60185 36.0899V2.10795H36.6422C43.788 2.10795 47.9892 6.24722 47.9892 13.4545V36.0899C44.207 36.0899 40.4248 36.0899 36.6422 36.0899Z" fill="#FF245C"/>
<path d="M49.2694 14.7496C49.2694 10.2121 47.7505 6.9077 44.7209 4.8314C44.695 4.81376 44.6593 4.78593 44.6417 4.76006C42.3514 1.43806 38.6374 0.177856 34.6973 0.177856H0.0230408V35.4267C0.886956 35.4267 1.75087 35.4267 2.61479 35.4267C2.61479 36.2906 2.61479 37.1545 2.61479 38.0185H4.56017H15.229V7.83825H33.6029C33.9607 9.18116 34.0634 10.7789 34.0634 12.1578V35.4267H36.6556C36.6556 36.2906 36.6556 37.1545 36.6556 38.0185H49.2694V14.7496ZM34.6973 34.7933V12.1578C34.6973 10.3575 34.5636 7.76103 33.7181 6.16764C33.1341 5.11793 32.0044 4.61268 30.8383 4.61268H12.0034V34.7933C8.22122 34.7933 4.43865 34.7933 0.656474 34.7933V0.81129H34.6973C41.8426 0.81129 46.0442 4.95056 46.0442 12.1578V34.7933C42.2616 34.7933 38.4794 34.7933 34.6973 34.7933Z" fill="#00D4FF"/>
</g>
<defs>
<clipPath id="clip0_4361_40">
<rect width="100" height="39.1373" fill="white" transform="translate(0 0.177856)"/>
</clipPath>
</defs>
</svg>
