<svg width="100" height="42" viewBox="0 0 100 42" fill="none" xmlns="http://www.w3.org/2000/svg">
<g clip-path="url(#clip0_4322_59)">
<path d="M8.07483 23.2791H11.6344V5.41342H8.07483V23.2791ZM64.0146 5.41342H60.4856L60.4859 23.2791H64.0146V5.41342ZM74.5346 11.428H77.8192V0.0461121H60.4856V3.3307H74.5346V11.428ZM43.7266 5.41342H40.1979V23.2791H43.7266V5.41342ZM37.425 23.2791V19.9658H24.8834V13.3049H26.7736V10.0203H24.8834V3.3307H54.2466V11.428H57.5312V0.0461121H0.00421143V3.3307H21.3547V23.2791H37.425ZM47.9506 13.4205L54.2575 23.2791H58.3776L51.8815 13.4205H47.9506ZM90.2773 0.0461121H87.5841L78.2649 22.811L72.1727 13.4205H68.2429L76.676 26.6916L70.4876 41.8094H74.2874L88.9465 5.16967L96.1556 23.2791H99.9958L90.2773 0.0461121Z" fill="#FF3C00"/>
<path d="M8.33859 38.9856H9.25773C9.49199 38.9856 9.67638 39.0502 9.79369 39.1672C9.8843 39.2581 9.93136 39.3691 9.93136 39.5068V39.5128C9.93136 39.7586 9.79088 39.8903 9.63845 39.9694C9.87868 40.0515 10.0455 40.1889 10.0455 40.467V40.473C10.0455 40.839 9.74381 41.0353 9.28723 41.0353H8.33859V38.9856ZM63.2549 40.7364L63.4716 40.479C63.6676 40.6486 63.864 40.7452 64.1186 40.7452C64.3413 40.7452 64.4817 40.643 64.4817 40.4877V40.4818C64.4817 40.3353 64.3996 40.2563 64.0192 40.1685C63.583 40.0631 63.3368 39.9342 63.3368 39.5567V39.5507C63.3368 39.1995 63.6297 38.9564 64.0368 38.9564C64.3353 38.9564 64.5724 39.0471 64.7803 39.2142L64.5871 39.4864C64.4027 39.3488 64.218 39.2757 64.0308 39.2757C63.8201 39.2757 63.6971 39.3839 63.6971 39.5184V39.5244C63.6971 39.6824 63.7906 39.7527 64.1829 39.8464C64.6163 39.9518 64.8417 40.107 64.8417 40.4467V40.4526C64.8417 40.8362 64.5401 41.0644 64.1098 41.0644C63.7965 41.0644 63.5008 40.9563 63.2549 40.7364ZM60.061 38.9856H60.9745C61.2319 38.9856 61.4339 39.0618 61.5659 39.1907C61.6741 39.302 61.7356 39.4541 61.7356 39.6329V39.6385C61.7356 39.9753 61.5336 40.1773 61.2467 40.2595L61.7999 41.0353H61.3752L60.8719 40.3209H60.421V41.0353H60.061V38.9856ZM60.9478 40.0017C61.2056 40.0017 61.3696 39.8671 61.3696 39.6589V39.6533C61.3696 39.4337 61.2116 39.3136 60.945 39.3136H60.421V40.0017H60.9478ZM56.8509 38.9856H58.3702V39.3077H57.2108V39.8405H58.2385V40.1629H57.2108V40.7132H58.385V41.0353H56.8509V38.9856ZM53.3278 38.9856H54.0917C54.7358 38.9856 55.1808 39.4278 55.1808 40.0045V40.0104C55.1808 40.5871 54.7358 41.0353 54.0917 41.0353H53.3278V38.9856ZM54.0917 40.7073C54.5219 40.7073 54.8033 40.4175 54.8033 40.0161V40.0104C54.8033 39.6094 54.5219 39.3136 54.0917 39.3136H53.6878V40.7073H54.0917ZM49.9691 38.9856H50.8826C51.1404 38.9856 51.3424 39.0618 51.4741 39.1907C51.5826 39.302 51.6441 39.4541 51.6441 39.6329V39.6385C51.6441 39.9753 51.4417 40.1773 51.1552 40.2595L51.7083 41.0353H51.2837L50.7804 40.3209H50.3291V41.0353H49.9691V38.9856ZM50.8563 40.0017C51.1141 40.0017 51.2777 39.8671 51.2777 39.6589V39.6533C51.2777 39.4337 51.1197 39.3136 50.8535 39.3136H50.3291V40.0017H50.8563ZM46.1503 40.0161V40.0104C46.1503 39.4337 46.5953 38.9505 47.2247 38.9505C47.8544 38.9505 48.2934 39.4278 48.2934 40.0045V40.0104C48.2934 40.5871 47.8484 41.0704 47.2191 41.0704C46.5893 41.0704 46.1503 40.5931 46.1503 40.0161ZM47.9159 40.0161V40.0104C47.9159 39.6122 47.6258 39.2813 47.2191 39.2813C46.812 39.2813 46.5279 39.6065 46.5279 40.0045V40.0104C46.5279 40.4087 46.818 40.7396 47.2247 40.7396C47.6317 40.7396 47.9159 40.4143 47.9159 40.0161ZM42.9023 38.9856H43.8217C44.056 38.9856 44.2404 39.0502 44.3573 39.1672C44.4483 39.2581 44.495 39.3691 44.495 39.5068V39.5128C44.495 39.7586 44.3545 39.8903 44.2021 39.9694C44.4423 40.0515 44.6092 40.1889 44.6092 40.467V40.473C44.6092 40.839 44.3078 41.0353 43.8509 41.0353H42.9023V38.9856ZM43.7483 39.8496C43.9798 39.8496 44.135 39.7586 44.135 39.5714V39.5655C44.135 39.4042 44.0061 39.3049 43.7747 39.3049H43.2566V39.8496H43.7483ZM43.8537 40.716C44.0999 40.716 44.2492 40.6195 44.2492 40.4351V40.4291C44.2492 40.2563 44.1115 40.1537 43.8274 40.1537H43.2566V40.716H43.8537ZM37.6041 38.9856H39.1235V39.3077H37.9641V39.8405H38.9918V40.1629H37.9641V40.7132H39.1383V41.0353H37.6041V38.9856ZM34.1274 38.9856H34.4874V39.8376H35.4652V38.9856H35.8256V41.0353H35.4652V40.1713H34.4874V41.0353H34.1274V38.9856ZM31.5326 39.3192H30.8829V38.9856H32.5459V39.3192H31.8958V41.0353H31.5326V39.3192ZM25.4032 38.9856H26.1671C26.8112 38.9856 27.2562 39.4278 27.2562 40.0045V40.0104C27.2562 40.5871 26.8112 41.0353 26.1671 41.0353H25.4032V38.9856ZM26.1671 40.7073C26.5977 40.7073 26.8787 40.4175 26.8787 40.0161V40.0104C26.8787 39.6094 26.5977 39.3136 26.1671 39.3136H25.7632V40.7073H26.1671ZM21.8387 38.9856H22.1723L23.2703 40.4028V38.9856H23.6246V41.0353H23.3229L22.1927 39.577V41.0353H21.8387V38.9856ZM18.0196 40.0161V40.0104C18.0196 39.4337 18.4649 38.9505 19.0943 38.9505C19.7237 38.9505 20.163 39.4278 20.163 40.0045V40.0104C20.163 40.5871 19.718 41.0704 19.0883 41.0704C18.4589 41.0704 18.0196 40.5931 18.0196 40.0161ZM19.7851 40.0161V40.0104C19.7851 39.6122 19.4954 39.2813 19.0883 39.2813C18.6812 39.2813 18.3975 39.6065 18.3975 40.0045V40.0104C18.3975 40.4087 18.6872 40.7396 19.0943 40.7396C19.5013 40.7396 19.7851 40.4143 19.7851 40.0161ZM15.5526 40.2271L14.7388 38.9856H15.1634L15.7373 39.8931L16.3168 38.9856H16.7299L15.9158 40.2184V41.0353H15.5526V40.2271ZM11.7113 38.9856H13.2307V39.3077H12.0713V39.8405H13.099V40.1629H12.0713V40.7132H13.2455V41.0353H11.7113V38.9856ZM9.18468 39.8496C9.41613 39.8496 9.57101 39.7586 9.57101 39.5714V39.5655C9.57101 39.4042 9.44247 39.3049 9.21102 39.3049H8.69262V39.8496H9.18468ZM9.29004 40.716C9.53589 40.716 9.68551 40.6195 9.68551 40.4351V40.4291C9.68551 40.2563 9.54783 40.1537 9.2637 40.1537H8.69262V40.716H9.29004Z" fill="#FF3C00"/>
<path d="M12.6294 31.9707L11.6263 32.9738V34.0763L14.3149 35.9753L14.795 35.6086V32.4199L14.3469 31.9707H12.6294ZM15.7366 31.4298H17.3853L18.3399 30.4752V29.449L15.7366 27.6097L15.337 27.9149V31.0291L15.7366 31.4298ZM17.4541 31.5946H15.6689L15.1712 31.0976V27.8337L15.7324 27.4052L18.5056 29.3636V30.543L17.4541 31.5946ZM11.6267 29.4065V30.509L12.6294 31.512H14.3458L14.795 31.0628V27.8741L14.3149 27.5078L11.6267 29.4065ZM15.7029 31.9707L15.2537 32.4199V35.6086L15.7345 35.9753L18.4224 34.0763V32.9738L17.4204 31.9707H15.7029Z" fill="#A10A00"/>
<path d="M15.7911 31.2988L15.4676 30.9754V27.9798L15.7395 27.7716L18.2096 29.5171V30.4208L17.3312 31.2988H15.7911Z" fill="#DB0000"/>
<path d="M5.80247 29.1803L6.99661 34.5655L7.09776 34.399V27.3062L6.31209 26.8809L5.80247 29.1803ZM4.33508 35.7575L4.9174 36.5984H5.80212L4.58936 34.6105L4.33508 35.7575Z" fill="#00CCFF"/>
<path d="M4.5732 34.3808V27.3459L5.24789 26.9806L7.17573 35.6799L6.63907 36.4568H5.83899L4.5732 34.3808ZM4.68278 27.4073V34.352L5.90397 36.3532H6.58954L7.06966 35.6592L5.18186 27.1387L4.68278 27.4073ZM5.33816 26.7822L4.4408 27.2672V34.4173L5.76559 36.5885H6.70755L7.31692 35.7087L5.33816 26.7822Z" fill="#00E3FF"/>
<path d="M24.9649 29.227H22.8639L30.8724 32.6981L30.4144 33.8873H29.0186L29.3435 34.1535H32.0064L32.6214 32.5562L24.9649 29.227Z" fill="#0A7000"/>
<path d="M27.782 33.4332L24.1564 30.4528L29.8812 32.9411L29.6923 33.4332H27.782ZM27.7409 33.5484H29.7713L30.0291 32.8793L23.4476 30.0187L27.7409 33.5484ZM29.871 33.6938H27.6882L27.6682 33.6769L22.8151 29.6868H23.0497L23.0641 29.6931L30.2149 32.8021L29.871 33.6938Z" fill="#0AC100"/>
<path d="M53.6252 29.3183C54.4822 29.7633 55.0691 30.6596 55.0691 31.6901C55.0691 32.7209 54.4822 33.6172 53.6252 34.0622C54.7741 33.8845 55.6567 32.8885 55.6567 31.6901C55.6567 30.4921 54.7741 29.496 53.6252 29.3183Z" fill="#A00A00"/>
<path d="M53.0226 35.1299C51.126 35.1299 49.5834 33.587 49.5834 31.6901C49.5834 29.7935 51.126 28.2506 53.0226 28.2506C54.9195 28.2506 56.4624 29.7935 56.4624 31.6901C56.4624 33.587 54.9195 35.1299 53.0226 35.1299ZM53.0226 28.5699C51.2995 28.5699 49.9023 29.967 49.9023 31.6904C49.9023 33.4135 51.2995 34.8107 53.0226 34.8107C54.746 34.8107 56.1431 33.4135 56.1431 31.6904C56.1431 29.967 54.746 28.5699 53.0226 28.5699ZM53.2568 34.4205C52.6671 34.4205 52.1213 34.2336 51.6749 33.9158C50.7368 33.6109 50.0586 32.7301 50.0586 31.6904C50.0586 30.6505 50.7368 29.7696 51.6749 29.4648C52.1213 29.1469 52.6671 28.9601 53.2568 28.9601C54.7646 28.9601 55.9868 30.1823 55.9868 31.6904C55.9868 33.1982 54.7646 34.4205 53.2568 34.4205ZM53.0226 28.4213C51.2201 28.4213 49.7538 29.8876 49.7538 31.6901C49.7538 33.4929 51.2201 34.9592 53.0226 34.9592C54.8254 34.9592 56.2917 33.4929 56.2917 31.6901C56.2917 29.8876 54.8254 28.4213 53.0226 28.4213Z" fill="#FF7800"/>
<path d="M63.6596 33.3454L60.9833 34.444L64.8994 35.1299L68.8144 34.444L66.1399 33.3454H63.6596ZM64.8994 28.5102L68.6022 33.7289L66.1904 32.7374L64.8994 30.725L63.6086 32.7374L61.1958 33.7289L64.8994 28.5102ZM60.7719 34.0654L63.7101 32.8586L64.8994 31.0035L66.0886 32.8586L69.0272 34.0654L64.8994 28.2506L60.7719 34.0654Z" fill="#3C1414"/>
<path d="M66.2698 32.6412L68.2675 33.4613L64.8994 28.7167L61.5312 33.4613L63.5289 32.6412L64.8994 30.5044L66.2698 32.6412Z" fill="#B5783D"/>
<path d="M42.23 31.237L42.4607 30.9508L41.8419 30.3316L41.5556 30.5627H40.6488L40.3629 30.3316L39.7437 30.9508L39.9748 31.237V32.1435L39.7437 32.4298L40.3629 33.049L40.6488 32.8179H41.5556L41.8419 33.049L42.4607 32.4298L42.23 32.1435V31.237Z" fill="#450060"/>
<path d="M40.8719 27.7147L40.0145 29.6502L40.7591 30.2512H41.4454L42.19 29.6502L41.333 27.7147H40.8719ZM42.4541 32.0645V31.3161L43.1214 30.4893L45.1655 31.4095V31.9711L43.1214 32.8913L42.4541 32.0645ZM42.3459 31.2778V32.1028L43.0954 33.0314L45.2737 32.0336V31.347L43.0954 30.3492L42.3459 31.2778ZM39.9014 33.7092L40.7282 33.0419H41.4763L42.3031 33.7092L41.3832 35.7533H40.8213L39.9014 33.7092ZM41.4763 32.9338H40.6899L39.7613 33.6833L40.7591 35.8615H41.4454L42.4436 33.6833L41.5146 32.9338H41.4763ZM39.9014 29.6713L40.8216 27.6272H41.3832L42.3034 29.6713L41.4763 30.3386H40.7282L39.9014 29.6713ZM40.7591 27.519L39.7613 29.6973L40.6899 30.4468H41.5146L42.4436 29.6973L41.4454 27.519H40.7591ZM37.0394 31.9711V31.4095L39.0835 30.4893L39.7504 31.3161V32.0645L39.0835 32.8913L37.0394 31.9711ZM36.9308 31.347V32.0336L39.1094 33.0314L39.8589 32.1024V31.2778L39.1094 30.3492L36.9308 31.347ZM37.1268 31.4597L39.0624 30.6027L39.663 31.347V32.0336L39.0624 32.7778L37.1268 31.9209V31.4597ZM45.078 31.4597L43.1421 30.6027L42.5415 31.347V32.0336L43.1421 32.7778L45.078 31.9209V31.4597ZM40.8719 35.6659L40.0145 33.7303L40.7591 33.1294H41.4454L42.19 33.7303L41.333 35.6659H40.8719Z" fill="#7863C7"/>
</g>
<defs>
<clipPath id="clip0_4322_59">
<rect width="100" height="41.7633" fill="white" transform="translate(0 0.0461121)"/>
</clipPath>
</defs>
</svg>
