<svg width="100" height="81" viewBox="0 0 100 81" fill="none" xmlns="http://www.w3.org/2000/svg">
<g clip-path="url(#clip0_4322_32)">
<path d="M100 80.1721H0.012L8.676 40.1396L0 0.450317H100V50.9108L94.3364 54.6063L100 58.3948V80.1721Z" fill="#FFA400"/>
<path d="M55.1871 2.94766H33.3587L29.7569 21.5445L26.4053 2.94766H3.53201L11.6569 40.1179L3.5289 77.6748H26.4053L29.7569 59.0765L33.3587 77.6748H55.1898L47.0618 40.1179L55.1871 2.94766Z" fill="#883F1D"/>
<path d="M56.9316 2.94766V77.6748H76.6534V63.6797L97.2569 50.2343V2.94766H56.9316ZM80.4258 38.2232L76.0845 41.6739V21.5508H80.4258V38.2232Z" fill="#3C4131"/>
<path d="M80.936 68.3405H86.3365C87.5636 68.3405 88.1503 68.9272 88.1503 70.1539V71.1939C88.1503 72.1677 87.9636 72.7277 87.0703 72.901C88.0298 72.9943 88.2569 73.7677 88.2569 74.6077V75.861C88.2569 77.0881 87.6703 77.6748 86.4431 77.6748H80.936V68.3405ZM85.4031 71.9939C85.5898 71.9939 85.6431 71.9405 85.6431 71.7539V70.5272C85.6431 70.3405 85.5898 70.2872 85.4031 70.2872H83.4431V71.9939H85.4031ZM85.5098 75.7277C85.6965 75.7277 85.7498 75.6743 85.7498 75.4877V74.0477C85.7498 73.861 85.6965 73.8077 85.5098 73.8077H83.4431V75.7277H85.5098Z" fill="#883F1D"/>
<path d="M97.2569 77.6748H94.7231L93.1364 74.5543H92.1098V77.6748H89.6027V68.3405H95.0698C96.2964 68.3405 96.8835 68.9272 96.8835 70.1539V72.5805C96.8835 73.6077 96.4702 74.181 95.6164 74.3543L97.2569 77.6748ZM94.1364 72.5805C94.3231 72.5805 94.3764 72.5277 94.3764 72.3405V70.6072C94.3764 70.4205 94.3231 70.3672 94.1364 70.3672H92.1098V72.5805H94.1364Z" fill="#883F1D"/>
</g>
<defs>
<clipPath id="clip0_4322_32">
<rect width="100" height="79.7333" fill="white" transform="translate(0 0.444519)"/>
</clipPath>
</defs>
</svg>
