<?xml version="1.0" encoding="utf-8"?>
<!-- Generator: Adobe Illustrator 27.5.0, SVG Export Plug-In . SVG Version: 6.00 Build 0)  -->
<svg version="1.1" id="Camada_1" xmlns="http://www.w3.org/2000/svg" xmlns:xlink="http://www.w3.org/1999/xlink" x="0px" y="0px"
	 viewBox="0 0 540 211.45" style="enable-background:new 0 0 540 211.45;" xml:space="preserve">
<style type="text/css">
	.st0{fill:#FF245C;}
	.st1{fill:#00D4FF;}
</style>
<g>
	<polygon class="st0" points="197.84,194.02 197.84,190.44 194.41,190.44 194.41,197.44 197.91,197.44 197.91,194.02 	"/>
	<path class="st0" d="M251.67,31.9c-5.01-7.31-11.64-13.04-19.77-17.32c3.47,2.98,6.53,6.37,9.15,10.18
		c0.14,0.13,0.29,0.26,0.43,0.39c16.37,11.22,24.57,29.07,24.57,53.58v125.71h-57.64v7.01h68.15V85.73
		C276.56,61.05,268.26,43.1,251.67,31.9z"/>
	<path class="st0" d="M197.84,10.43c12.44,0,23.06,2.22,31.91,6.61c-3.63-3.13-7.69-5.74-12.21-7.79
		c-6.02-1.44-12.55-2.25-19.7-2.25H10.51v180.01h3.42V10.43H197.84z"/>
	<path class="st0" d="M192.55,39.37c-2.44-4.4-6.21-7-11.21-7.95c0.22,0.34,0.5,0.58,0.7,0.94c2.07,3.9,3.52,9.27,4.37,16.03h4.58
		h0.93c1.66,6.22,2.49,14,2.49,23.34v115.29h3.42V71.73C197.84,56.79,196.07,46.01,192.55,39.37z"/>
	<path class="st0" d="M180.48,41.39H82.15v163.06H24.51v7.01h68.15V48.39h90.13c-0.37-2.5-0.81-4.88-1.38-7.01H180.48z"/>
	<path class="st1" d="M266.05,78.73c0-24.51-8.21-42.37-24.57-53.58c-0.11-0.08-0.21-0.17-0.32-0.25c-0.03-0.05-0.07-0.09-0.11-0.14
		c-2.62-3.81-5.68-7.2-9.15-10.18c-3.66-3.14-7.77-5.83-12.37-8.05C210.51,2.18,199.77,0,187.33,0H0v190.44h10.51h3.42H14v3.58v3.42
		v7h10.51h57.64V41.39h98.33h0.93c0.57,2.13,1,4.51,1.38,7.01c0.72,4.79,1.11,10.19,1.11,16.33v125.71h10.51h3.42h0.07v3.58v3.42v7
		h10.51h57.64V78.73z M248.63,187.02h-50.79h-3.42h-7.09V64.72c0-6.16-0.32-11.58-0.92-16.33c-0.86-6.76-2.3-12.13-4.37-16.03
		c-0.2-0.36-0.48-0.61-0.7-0.94c-3.16-4.9-8.07-7.46-14.86-7.46H64.72v163.06H13.93h-3.42H3.42V3.42h183.9
		c11.66,0,21.7,1.97,30.21,5.83c4.52,2.05,8.58,4.65,12.21,7.79c0.97,0.84,1.95,1.65,2.85,2.57c10.68,10.79,16.03,25.83,16.03,45.12
		V187.02z"/>
	<path class="st0" d="M454.74,41.07h-78.1v7.01h78.1h0.62c0.62,2.91,1.14,6.33,1.56,10.27c0.41,3.94,0.62,8.4,0.62,13.38v-7
		c0-4.98-0.21-9.44-0.62-13.38c-0.42-3.94-0.93-7.36-1.56-10.27H454.74z"/>
	<rect x="308.49" y="204.44" class="st0" width="231.51" height="7.01"/>
	<polygon class="st0" points="297.91,194.02 297.91,190.44 294.48,190.44 294.48,197.45 308.49,197.45 308.49,194.02 	"/>
	<polygon class="st0" points="457.54,170.37 376.63,170.37 376.63,166.79 359.21,166.79 359.21,173.79 460.96,173.79 460.96,166.79 
		457.54,166.79 	"/>
	<path class="st0" d="M515.42,31.9c-5.4-7.88-12.6-14-21.63-18.36c-9.02-4.36-19.97-6.54-32.83-6.54H297.91v3.42h163.06
		c20.12,0,35.42,5.4,45.9,16.18c10.47,10.79,15.71,25.83,15.71,45.12v-7c0-12.75-2.34-23.6-6.92-32.64
		C515.57,32.03,515.5,31.96,515.42,31.9z"/>
	<path class="st1" d="M440.74,23.65h-81.53v7.01v136.13h17.43h80.9h3.42V71.73v-7c0-15.76-1.66-26.55-4.98-32.36
		C452.66,26.56,447.58,23.65,440.74,23.65z M457.54,64.72v7v91.64h-80.9V48.08v-7.01h78.1h0.62c0.62,2.91,1.14,6.33,1.56,10.27
		C457.33,55.29,457.54,59.74,457.54,64.72z"/>
	<path class="st1" d="M533.78,46.68c-4.15-9.13-10.27-16.38-18.36-21.78c-5.4-7.88-12.6-14-21.63-18.36
		C484.77,2.18,473.82,0,460.96,0H294.48v7.01v183.43h3.42h10.58v3.58v3.42v7H540V85.73v-7.01C540,66.49,537.92,55.81,533.78,46.68z
		 M522.57,71.73v115.29H297.91V10.43V7.01V3.42h163.06c20.12,0,35.42,5.4,45.9,16.18c3.55,3.66,6.45,7.85,8.8,12.48
		c4.58,9.04,6.92,19.89,6.92,32.64V71.73z"/>
</g>
</svg>
