<svg width="70" height="101" viewBox="0 0 70 101" fill="none" xmlns="http://www.w3.org/2000/svg">
<g clip-path="url(#clip0_4322_24)">
<path d="M35.0002 77.3923C28.8469 77.3923 23.0164 76.4373 17.6705 74.5542C17.3944 74.4564 17.1187 74.3564 16.8444 74.2541L35.0002 100.474L53.1556 74.2541C52.8812 74.3564 52.606 74.4564 52.329 74.5542C46.9836 76.4373 41.1531 77.3923 35.0002 77.3923Z" fill="#956300"/>
<path d="M0.422211 50.4416C0.750352 50.9516 1.29636 51.8409 2.09449 52.9631C2.16696 53.0654 2.24166 53.1694 2.31814 53.2753C2.42796 53.4264 2.54357 53.5825 2.6614 53.7408C2.79168 53.9147 2.92551 54.0916 3.06646 54.2735C3.15583 54.3895 3.24787 54.5069 3.34169 54.6252C3.52977 54.8626 3.72674 55.1054 3.93261 55.3531C4.24163 55.7239 4.57066 56.1054 4.92104 56.4949C5.098 56.6914 5.28208 56.8906 5.47016 57.0907C5.77785 57.4188 6.09843 57.7501 6.43591 58.0849C6.57197 58.2196 6.71025 58.3548 6.8512 58.4904C7.13266 58.7607 7.42389 59.0329 7.7258 59.305C8.78092 60.2578 9.95965 61.2147 11.2709 62.1373C16.7017 65.9598 24.4032 69.2021 35.0002 69.2021C45.5972 69.2021 53.2979 65.9598 58.7291 62.1373C60.0403 61.2147 61.2191 60.2578 62.2746 59.305C62.5756 59.0329 62.8673 58.7607 63.1492 58.4904C63.2897 58.3548 63.428 58.2196 63.5641 58.0849C63.9015 57.7501 64.2221 57.4188 64.5298 57.0907C64.7175 56.8906 64.902 56.6914 65.0789 56.4949C65.4293 56.1054 65.7583 55.7239 66.0674 55.3531C66.2732 55.1054 66.4702 54.8626 66.6583 54.6252C66.7521 54.5069 66.8437 54.3895 66.9335 54.2735C67.0745 54.0916 67.2083 53.9147 67.3381 53.7408C67.4569 53.5825 67.572 53.4264 67.6818 53.2753C67.7588 53.1694 67.833 53.0654 67.9055 52.9631C68.7036 51.8409 69.2496 50.9516 69.5778 50.4416L35.0002 0.505432L0.422211 50.4416Z" fill="#956300"/>
</g>
<defs>
<clipPath id="clip0_4322_24">
<rect width="69.1556" height="100" fill="white" transform="translate(0.422211 0.489624)"/>
</clipPath>
</defs>
</svg>
