<?xml version="1.0" encoding="UTF-8"?>
<!DOCTYPE svg PUBLIC "-//W3C//DTD SVG 1.1//EN" "http://www.w3.org/Graphics/SVG/1.1/DTD/svg11.dtd">
<!-- Creator: CorelDRAW -->
<svg xmlns="http://www.w3.org/2000/svg" xml:space="preserve" width="100px" height="39px" version="1.1" style="shape-rendering:geometricPrecision; text-rendering:geometricPrecision; image-rendering:optimizeQuality; fill-rule:evenodd; clip-rule:evenodd"
viewBox="0 0 87.41 23.31"
 xmlns:xlink="http://www.w3.org/1999/xlink"
 xmlns:xodm="http://www.corel.com/coreldraw/odm/2003">
 <defs>
  <style type="text/css">
   <![CDATA[
    .fil4 {fill:none}
    .fil1 {fill:#00D4FF}
    .fil0 {fill:#FF245C}
    .fil3 {fill:#00D4FF;fill-rule:nonzero}
    .fil2 {fill:#FF245C;fill-rule:nonzero}
   ]]>
  </style>
  <style>
  #glitch-1, #glitch-3, #glitch-5 {animation: glitch-nd-impar 5s infinite alternate;}#glitch-2, #glitch-4, #glitch-6 {animation: glitch-nd-par 5s infinite alternate;}#logo-ND {animation: glitch-nd-impar 6s infinite alternate, glitch-nd-par 6s infinite alternate, glitch-nd-null 5s infinite alternate;z-index: 0;}@keyframes glitch-nd-null {48% {visibility: visible;}49% {visibility: hidden;}50% {visibility: visible;}}@keyframes glitch-nd-impar {47% {transform: translate(0);}50% {transform: translate(-2%);}51% {#logo-ND {visibility: hidden;}visibility: collapse;transform: translate(10%);}54% {transform: translate(1%);}58% {transform: translate(0);}}@keyframes glitch-nd-par {47% {transform: translate(0);}50% {transform: translate(2%);}52% {transform: translate(22%);visibility: collapse;}53% {transform: translate(-3%);}56% {transform: translate(1.5%);}65% {transform: translate(0);}}
  </style>
 </defs>
 <g id="Camada_x0020_1">
  <metadata id="CorelCorpID_0Corel-Layer"/>
  <g id="logo-nd-full-glitch3">
   <g id="n-magent-glitch">
    <path id="glitch-6" class="fil0" d="M42.53 18.89l1.88 -0.04 0 4.21 -7.35 0c0,-0.5 0,-1 0,-1.51l-1.51 0 0 -2.49 0.37 -0.01 0 2.13c2.2,0 4.41,0 6.61,0l0 -2.29zm-26.46 0.63l-0.37 0.01 0 2.02c0.51,0 1.01,0 1.51,0 0,0.51 0,1.01 0,1.51l1.14 0 6.22 0 0 -3.74 -1.88 0.04 0 1.82c-2.21,0 -4.41,0 -6.62,0l0 -1.66z"/>
    <path id="glitch-5" class="fil0" d="M35.92 14.52l-0.37 -0.02 0 4.56 0.37 -0.01 0 -4.53zm8.49 0.31l-1.88 -0.07 0 4.13 1.88 -0.04 0 -4.02zm-28.34 4.69l-0.37 0.01 0 -5.75 0.37 0.01 0 5.73zm8.5 -0.2l-1.88 0.04 0 -5.32 1.88 0.06 0 5.22z"/>
    <path id="glitch-4" class="fil0" d="M16.07 13.79l-0.37 -0.01 0 -0.95 0.37 -0.02 0 0.98zm6.62 -1.41l1.88 -0.12 0 1.84 -1.88 -0.06 0 -1.66zm13.23 2.14l-0.37 -0.02 0 -2.95 0.37 -0.03 0 3zm6.61 -3.43l1.88 -0.12 0 3.86 -1.88 -0.07 0 -3.67z"/>
    <path id="glitch-3" class="fil0" d="M16.07 12.81l-0.37 0.02 0 -4.43 0.37 0 0 4.41zm8.5 -0.55l-1.88 0.12 0 -4.05 1.88 -0.02 0 3.95zm11.35 -0.74l-0.37 0.03 0 -3.34 0.37 -0.01 0 3.32zm6.61 -3.38l1.79 -0.02c0.06,0.44 0.09,0.89 0.09,1.38l0 1.47 -1.88 0.12 0 -2.95z"/>
    <path id="glitch-2" class="fil0" d="M42.53 8.14l1.79 -0.02c-0.06,-0.48 -0.16,-0.93 -0.3,-1.35l-1.58 -0.12c0.06,0.42 0.09,0.87 0.09,1.34l0 0.15zm-6.61 0.06l-0.37 0.01 0 -0.22c0,-0.67 -0.05,-1.25 -0.12,-1.77 -0.01,-0.04 -0.02,-0.09 -0.02,-0.13l0.39 0.03c0.01,0.03 0.01,0.07 0.02,0.1 0.06,0.52 0.1,1.1 0.1,1.77l0 0.21zm-19.85 0.2l-0.37 0 0 -3.87 0.37 0.03 0 3.84zm8.5 -0.09l-1.88 0.02 0 -3.25 4.87 0.37 -2.99 0.02 0 2.84z"/>
    <path id="glitch-1" class="fil0" d="M22.69 5.08l4.87 0.37 7.72 0.02c0.05,0.19 0.09,0.4 0.13,0.62l0.39 0.03c-0.09,-0.68 -0.24,-1.22 -0.45,-1.63 -0.03,-0.03 -0.06,-0.06 -0.08,-0.1 -0.34,-0.53 -0.87,-0.8 -1.6,-0.8l-10.98 0 0 1.49zm19.75 1.57l1.58 0.12c-0.42,-1.29 -1.17,-2.31 -2.26,-3.05 -0.01,-0.01 -0.02,-0.02 -0.03,-0.03 -0.01,-0.01 -0.01,-0.01 -0.02,-0.02 -1.33,-1.93 -3.5,-2.67 -5.79,-2.67l-20.22 0 0 3.53 0.37 0.03 0 -3.19 19.85 0c1.25,0 2.34,0.21 3.26,0.63 0.48,0.22 0.92,0.5 1.31,0.84 0.11,0.09 0.21,0.18 0.31,0.28 0.89,0.9 1.44,2.07 1.64,3.53z"/>
   </g>
   <g id="n-cian-glitch">
    <path id="n-glitch-6" class="fil1" d="M41.4 18.14l1.88 -0.05 0 4.22 -7.36 0c0,-0.51 0,-1.01 0,-1.51l-1.51 0 0 -2.5 0.37 -0.01 0 2.14c2.21,0 4.41,0 6.62,0l0 -2.29zm-26.46 0.62l-0.37 0.01 0 2.03c0.5,0 1,0 1.51,0 0,0.5 0,1 0,1.51l1.13 0 6.22 0 0 -3.75 -1.88 0.05 0 1.82c-2.2,0 -4.41,0 -6.61,0l0 -1.67z"/>
    <path id="n-glitch-5" class="fil1" d="M34.78 13.76l-0.37 -0.01 0 4.55 0.37 -0.01 0 -4.53zm8.5 0.31l-1.88 -0.07 0 4.14 1.88 -0.05 0 -4.02zm-28.34 4.69l-0.37 0.01 0 -5.75 0.37 0.02 0 5.72zm8.49 -0.2l-1.88 0.05 0 -5.33 1.88 0.07 0 5.21z"/>
    <path id="n-glitch-4" class="fil1" d="M14.94 13.04l-0.37 -0.02 0 -0.94 0.37 -0.03 0 0.99zm6.61 -1.42l1.88 -0.12 0 1.85 -1.88 -0.07 0 -1.66zm13.23 2.14l-0.37 -0.01 0 -2.96 0.37 -0.02 0 2.99zm6.62 -3.42l1.88 -0.13 0 3.86 -1.88 -0.07 0 -3.66z"/>
    <path id="n-glitch-3" class="fil1" d="M14.94 12.05l-0.37 0.03 0 -4.44 0.37 0 0 4.41zm8.49 -0.55l-1.88 0.12 0 -4.04 1.88 -0.02 0 3.94zm11.35 -0.73l-0.37 0.02 0 -3.34 0.37 0 0 3.32zm6.62 -3.39l1.79 -0.02c0.06,0.44 0.09,0.9 0.09,1.38l0 1.47 -1.88 0.13 0 -2.96z"/>
    <path id="n-glitch-2" class="fil1" d="M41.4 7.38l1.79 -0.02c-0.07,-0.47 -0.17,-0.92 -0.3,-1.35l-1.58 -0.12c0.06,0.42 0.09,0.87 0.09,1.34l0 0.15zm-6.62 0.07l-0.37 0 0 -0.22c0,-0.66 -0.04,-1.24 -0.12,-1.76 0,-0.05 -0.01,-0.09 -0.02,-0.14l0.4 0.03c0,0.04 0.01,0.07 0.01,0.11 0.07,0.51 0.1,1.1 0.1,1.76l0 0.22zm-19.84 0.19l-0.37 0 0 -3.87 0.37 0.03 0 3.84zm8.49 -0.08l-1.88 0.02 0 -3.25 4.87 0.36 -2.99 0.02 0 2.85z"/>
    <path id="n-glitch-1" class="fil1" d="M21.55 4.33l4.87 0.36 7.72 0.02c0.06,0.19 0.1,0.4 0.13,0.62l0.4 0.03c-0.09,-0.68 -0.25,-1.22 -0.46,-1.62 -0.02,-0.04 -0.05,-0.07 -0.07,-0.1 -0.35,-0.53 -0.87,-0.81 -1.61,-0.81l-10.98 0 0 1.5zm19.76 1.56l1.58 0.12c-0.42,-1.29 -1.18,-2.3 -2.26,-3.05 -0.02,-0.01 -0.03,-0.02 -0.04,-0.03 0,0 -0.01,-0.01 -0.01,-0.01 -1.34,-1.94 -3.5,-2.67 -5.8,-2.67l-20.21 0 0 3.52 0.37 0.03 0 -3.18 19.84 0c1.26,0 2.34,0.21 3.26,0.63 0.49,0.22 0.93,0.5 1.32,0.83 0.1,0.09 0.21,0.18 0.31,0.28 0.89,0.9 1.44,2.08 1.64,3.53z"/>
   </g>
   <g id="d-cian-glitch">
    <g id="d-inner-cian-glitch">
     <polygon id="d-inner-cian-glitch-6" class="fil0" points="53.33,17.36 55.21,17.52 55.21,18.63 63.94,18.63 63.94,18.21 64.31,18.24 64.31,19 53.33,19 "/>
     <path id="glitch-5" class="fil0" d="M53.33 17.36l1.88 0.16 0 -1.75 -1.88 0.1 0 1.49zm10.61 0.85l0.37 0.03 0 -2.96 -0.37 0.02 0 2.91z"/>
     <path id="glitch-4" class="fil0" d="M64.31 15.28l-0.37 0.02 0 -2.17 0.37 0.04 0 2.11zm-9.1 0.49l-1.88 0.1 0 -3.92 1.88 0.21 0 3.61z"/>
     <path id="glitch-3" class="fil0" d="M53.33 11.95l1.88 0.21 0 -2.43 -1.88 0.21 0 2.01zm10.61 1.18l0.37 0.04 0 -4.47 -0.37 0.04 0 4.39z"/>
     <path id="glitch-2" class="fil0" d="M64.31 8.7l-0.37 0.04 0 -0.75c0,-0.48 -0.02,-0.97 -0.07,-1.45l0.39 0.06c0.03,0.42 0.05,0.88 0.05,1.39l0 0.71zm-9.1 1.03l-1.88 0.21 0 -5.15 3.89 0.64 -2.01 0 0 4.3z"/>
     <path id="glitch-1" class="fil0" d="M53.33 4.79l3.89 0.64 6.49 0c0.07,0.37 0.13,0.74 0.16,1.11l0.39 0.06c-0.07,-0.96 -0.24,-1.67 -0.49,-2.11 -0.36,-0.62 -0.9,-0.94 -1.64,-0.94l-8.8 0 0 1.24z"/>
    </g>
    <g id="d-cian-glitch_0">
     <path id="glitch-5" class="fil0" d="M46.35 20.85l0.36 -0.02c0,0.12 0,0.23 0,0.35l24.25 0 0 -1.47 1.88 -0.09 0 3.44 -24.98 0c0,-0.5 0,-1 0,-1.51l-1.51 0 0 -0.7z"/>
     <path id="glitch-4" class="fil0" d="M72.84 18.06l-1.88 -0.22 0 1.87 1.88 -0.09 0 -1.56zm-26.13 -3.06l-0.36 -0.04 0 5.89 0.36 -0.02c0,-1.94 0,-3.88 0,-5.83z"/>
     <path id="glitch-3" class="fil0" d="M46.35 13.34l0.36 -0.05c0,0.57 0,1.14 0,1.71l-0.36 -0.04 0 -1.62zm24.61 -3.39l1.88 -0.26 0 8.37 -1.88 -0.22 0 -7.89z"/>
     <path id="glitch-2" class="fil0" d="M72.03 5.76l-1.35 -0.07c0.18,0.69 0.28,1.45 0.28,2.3l0 1.96 1.88 -0.26 0 -0.19c0,-1.32 -0.23,-2.62 -0.81,-3.74zm-25.32 -1.37l-0.36 -0.02 0 8.97 0.36 -0.05c0,-2.96 0,-5.93 0,-8.9z"/>
     <path id="glitch-1" class="fil0" d="M72.03 5.76l-1.35 -0.07c-0.12,-0.44 -0.28,-0.85 -0.47,-1.23 -1.17,-2.31 -3.39,-3.09 -5.9,-3.09l-17.6 0c0,1.01 0,2.01 0,3.02l-0.36 -0.02 0 -3.37 17.96 0c2.32,0 4.51,0.7 5.88,2.69 0.82,0.55 1.43,1.26 1.84,2.07z"/>
    </g>
   </g>
   <g id="d-cian-glitch_1">
    <g id="d-inner-cian-glitch_2">
     <polygon id="d-inner-cian-glitch-6_3" class="fil1" points="53.33,16.61 55.21,16.76 55.21,17.87 63.94,17.87 63.94,17.46 64.31,17.49 64.31,18.24 53.33,18.24 "/>
     <path id="glitch-5" class="fil1" d="M53.33 16.61l1.88 0.15 0 -1.74 -1.88 0.1 0 1.49zm10.61 0.85l0.37 0.03 0 -2.97 -0.37 0.02 0 2.92z"/>
     <path id="glitch-4" class="fil1" d="M64.31 14.52l-0.37 0.02 0 -2.16 0.37 0.04 0 2.1zm-9.1 0.5l-1.88 0.1 0 -3.92 1.88 0.21 0 3.61z"/>
     <path id="glitch-3" class="fil1" d="M53.33 11.2l1.88 0.21 0 -2.44 -1.88 0.21 0 2.02zm10.61 1.18l0.37 0.04 0 -4.48 -0.37 0.04 0 4.4z"/>
     <path id="glitch-2" class="fil1" d="M64.31 7.94l-0.37 0.04 0 -0.75c0,-0.48 -0.02,-0.96 -0.07,-1.45l0.39 0.07c0.03,0.41 0.05,0.87 0.05,1.38l0 0.71zm-9.1 1.03l-1.88 0.21 0 -5.15 3.89 0.65 -2.01 0 0 4.29z"/>
     <path id="glitch-1" class="fil1" d="M53.33 4.03l3.89 0.65 6.49 0c0.07,0.36 0.13,0.73 0.16,1.1l0.39 0.07c-0.07,-0.97 -0.24,-1.67 -0.49,-2.11 -0.36,-0.63 -0.9,-0.94 -1.64,-0.94l-8.8 0 0 1.23z"/>
    </g>
    <g id="d-cian-glitch_9">
     <path id="glitch-5" class="fil1" d="M46.35 20.09l0.36 -0.02c0,0.12 0,0.24 0,0.36l24.25 0 0 -1.48 1.88 -0.08 0 3.44 -24.98 0c0,-0.51 0,-1.01 0,-1.51l-1.51 0 0 -0.71z"/>
     <path id="glitch-4" class="fil1" d="M72.84 17.3l-1.88 -0.22 0 1.87 1.88 -0.08 0 -1.57zm-26.13 -3.05l-0.36 -0.05 0 5.89 0.36 -0.02c0,-1.94 0,-3.88 0,-5.82z"/>
     <path id="glitch-3" class="fil1" d="M46.35 12.59l0.36 -0.05c0,0.57 0,1.14 0,1.71l-0.36 -0.05 0 -1.61zm24.61 -3.4l1.88 -0.26 0 8.37 -1.88 -0.22 0 -7.89z"/>
     <path id="glitch-2" class="fil1" d="M72.03 5.01l-1.35 -0.08c0.18,0.69 0.28,1.46 0.28,2.3l0 1.96 1.88 -0.26 0 -0.19c0,-1.32 -0.23,-2.62 -0.81,-3.73zm-25.32 -1.37l-0.36 -0.02 0 8.97 0.36 -0.05c0,-2.97 0,-5.94 0,-8.9z"/>
     <path id="glitch-1" class="fil1" d="M72.03 5.01l-1.35 -0.08c-0.12,-0.44 -0.28,-0.84 -0.47,-1.22 -1.17,-2.32 -3.39,-3.09 -5.9,-3.09l-17.6 0c0,1 0,2.01 0,3.02l-0.36 -0.02 0 -3.37 17.96 0c2.32,0 4.51,0.69 5.88,2.68 0.82,0.56 1.43,1.27 1.84,2.08z"/>
    </g>
   </g>
   <g id="logo-ND">
    <path id="d-inner-magent" class="fil2" d="M64.31 7.99c0,-1.7 -0.18,-2.87 -0.54,-3.5 -0.36,-0.62 -0.9,-0.94 -1.64,-0.94l-8.8 0 0 15.45 10.98 0 0 -11.01zm-9.1 10.64l0 -13.2 8.5 0c0.17,0.83 0.23,1.71 0.23,2.56l0 10.64 -8.73 0z"/>
    <path id="d-inner-cian" class="fil3" d="M64.31 7.23c0,-1.7 -0.18,-2.86 -0.54,-3.49 -0.36,-0.63 -0.9,-0.94 -1.64,-0.94l-8.8 0 0 15.44 10.98 0 0 -11.01zm-9.1 10.64l0 -13.19 8.5 0c0.17,0.83 0.23,1.71 0.23,2.55l0 10.64 -8.73 0z"/>
    <path id="d-magent" class="fil2" d="M72.84 9.5c0,-2.28 -0.68,-4.5 -2.65,-5.81 -1.37,-1.99 -3.56,-2.69 -5.88,-2.69l-17.96 0 0 20.55 1.51 0c0,0.51 0,1.01 0,1.51l24.98 0 0 -13.56zm-26.13 11.68c0,-6.6 0,-13.2 0,-19.81l17.6 0c2.51,0 4.73,0.78 5.9,3.09 0.5,0.98 0.75,2.15 0.75,3.53l0 13.19 -24.25 0z"/>
    <path id="d-cian" class="fil3" d="M72.84 8.74c0,-2.27 -0.68,-4.49 -2.65,-5.81 -1.37,-1.99 -3.56,-2.68 -5.88,-2.68l-17.96 0 0 20.55 1.51 0c0,0.5 0,1 0,1.51l24.98 0 0 -13.57zm-26.13 11.69c0,-6.61 0,-13.21 0,-19.81l17.6 0c2.51,0 4.73,0.77 5.9,3.09 0.5,0.97 0.75,2.14 0.75,3.52l0 13.2 -24.25 0z"/>
    <path id="n-magent" class="fil2" d="M44.41 9.5c0,-2.65 -0.88,-4.57 -2.65,-5.78 -0.02,-0.02 -0.04,-0.03 -0.05,-0.05 -1.33,-1.93 -3.5,-2.67 -5.79,-2.67l-20.22 0 0 20.55c0.51,0 1.01,0 1.51,0 0,0.51 0,1.01 0,1.51l1.14 0 6.22 0 0 -17.59 10.71 0c0.21,0.78 0.27,1.71 0.27,2.52l0 13.56 1.51 0c0,0.51 0,1.01 0,1.51l7.35 0 0 -13.56zm-8.49 11.68l0 -13.19c0,-1.05 -0.08,-2.57 -0.57,-3.5 -0.35,-0.61 -1,-0.9 -1.68,-0.9l-10.98 0 0 17.59c-2.21,0 -4.41,0 -6.62,0l0 -19.81 19.85 0c4.16,0 6.61,2.41 6.61,6.62l0 13.19c-2.2,0 -4.41,0 -6.61,0z"/>
    <path id="n-cian" class="fil3" d="M43.28 8.74c0,-2.64 -0.89,-4.57 -2.65,-5.78 -0.02,-0.01 -0.04,-0.03 -0.05,-0.04 -1.34,-1.94 -3.5,-2.67 -5.8,-2.67l-20.21 0 0 20.55c0.5,0 1,0 1.51,0 0,0.5 0,1 0,1.51l1.13 0 6.22 0 0 -17.6 10.71 0c0.21,0.78 0.27,1.72 0.27,2.52l0 13.57 1.51 0c0,0.5 0,1 0,1.51l7.36 0 0 -13.57zm-8.5 11.69l0 -13.2c0,-1.05 -0.08,-2.56 -0.57,-3.49 -0.34,-0.61 -1,-0.91 -1.68,-0.91l-10.98 0 0 17.6c-2.2,0 -4.41,0 -6.61,0l0 -19.81 19.84 0c4.17,0 6.62,2.41 6.62,6.61l0 13.2c-2.21,0 -4.41,0 -6.62,0z"/>
   </g>
   <rect id="viewbox" class="fil4" width="87.41" height="23.31"/>
  </g>
 </g>
</svg>
