<svg width="100" height="82" viewBox="0 0 100 82" fill="none" xmlns="http://www.w3.org/2000/svg">
<g clip-path="url(#clip0_4322_94)">
<path d="M72.9513 73.9188C72.5742 73.1093 72.1963 72.1775 71.7958 71.0695C71.4472 70.0986 71.13 69.1075 70.8537 68.1245C70.2822 66.1041 69.8766 64.0653 69.6478 62.0657C69.5371 61.0951 69.4728 60.0584 69.4567 58.984C69.441 58.058 69.4903 57.0506 69.6065 55.9046C69.7034 54.9691 69.8832 53.978 70.1565 52.8748C70.3904 51.9682 70.7105 51.0403 71.1355 50.0405L71.1475 50.0343L71.141 50.0277C71.1494 50.0073 71.1585 49.9865 71.1673 49.9656L71.441 49.3269L70.8413 49.6543C70.8234 49.6638 70.8059 49.6736 70.788 49.6835L70.7759 49.6715L70.7646 49.6967C69.9091 50.1714 69.0821 50.759 68.1693 51.5399C67.3131 52.2781 66.5468 53.059 65.8923 53.8607C65.1209 54.8039 64.5136 55.674 64.0374 56.5181C63.8061 56.8898 63.6084 57.2863 63.4176 57.6696C63.3712 57.7631 63.3244 57.8567 63.2788 57.9481C63.1841 58.1231 63.1074 58.308 63.0336 58.4867C63.0054 58.555 62.9773 58.623 62.9477 58.6913L62.636 59.435L62.7723 59.4942L63.1034 58.76C63.1344 58.6928 63.1648 58.6252 63.1951 58.5572C63.2722 58.3844 63.3519 58.2053 63.4483 58.0376C63.4984 57.9451 63.5477 57.8523 63.5971 57.7595C63.7955 57.3864 64.0005 57.0009 64.2388 56.6405C64.731 55.8205 65.3522 54.9797 66.1383 54.0694C66.7851 53.3181 67.5346 52.5923 68.4302 51.8512C69.1271 51.2797 69.7918 50.8076 70.4456 50.4202C70.1083 51.2198 69.8389 51.981 69.627 52.7319C69.3215 53.856 69.1143 54.8697 68.9926 55.8304C68.7364 57.7847 68.7105 59.9078 68.9155 62.141C69.111 64.1856 69.4867 66.2736 70.0315 68.3478C70.4372 69.887 70.8848 71.2986 71.3869 72.6197L68.5512 70.3803L64.4394 66.847L60.4763 63.1492L56.659 59.3012C51.7623 54.1673 47.1743 48.5123 43.0227 42.493C38.9266 36.5522 35.2858 30.2511 32.2012 23.7647C29.0684 17.1983 26.4761 10.4028 24.4962 3.56674L23.6162 0.528931L22.8996 3.61205C22.0471 7.27913 21.0279 10.9879 19.8702 14.6352C18.7458 18.1982 17.4478 21.8199 16.0124 25.4004C14.6479 28.8044 13.0959 32.3289 11.3988 35.8754C9.92432 38.9607 8.22179 42.3008 6.19366 46.0862L4.36943 49.4909L7.38386 47.0838C8.99613 45.7964 10.7842 44.8215 12.6979 44.1856C14.6058 43.548 16.6256 43.249 18.7001 43.2962C22.6993 43.3835 26.7615 44.7784 30.138 47.2245C31.8311 48.4502 33.2946 49.898 34.4881 51.5278C35.724 53.2132 36.6364 55.0513 37.2003 56.991C37.7726 58.9464 37.9809 60.9888 37.8197 63.0611C37.7441 64.0525 37.58 65.075 37.3326 66.0993C37.3088 66.1888 37.2865 66.2791 37.2639 66.3694C37.2248 66.5269 37.1842 66.6895 37.1378 66.847L36.9149 67.5873L36.8926 67.652C36.7347 68.1117 36.5714 68.5868 36.381 69.0439C35.618 70.9683 34.5181 72.711 33.1119 74.2235C31.7342 75.7105 30.0821 76.961 28.2016 77.9399C24.5488 79.8314 20.2543 80.6043 16.1099 80.1164C13.9941 79.8676 11.978 79.2993 10.1184 78.4271C8.18963 77.5233 6.48527 76.3057 5.05279 74.8078C3.62579 73.3213 2.47797 71.5585 1.64151 69.5687C0.88178 67.7733 0.379315 65.7134 0.147999 63.4463L0 63.4595C0.172117 65.7525 0.624518 67.8486 1.34551 69.6886C2.13593 71.7313 3.2673 73.5625 4.70782 75.1309C6.1498 76.7073 7.88047 78.0024 9.85123 78.98C11.7423 79.9162 13.8169 80.5436 16.0171 80.8444C16.9932 80.9778 17.9769 81.0443 18.9636 81.0443C20.1322 81.0443 21.3045 80.9507 22.4706 80.764C24.6537 80.415 26.7282 79.751 28.6365 78.791C30.6324 77.7886 32.3949 76.4932 33.8749 74.942C35.3732 73.3776 36.6043 71.4879 37.4349 69.4777C38.3079 67.4331 38.8462 65.3078 39.0355 63.1605C39.2317 60.9413 39.0304 58.7465 38.4373 56.638C37.8526 54.5452 36.8926 52.5591 35.5836 50.7345C34.3236 48.9757 32.7731 47.4098 30.9756 46.0797C27.401 43.4405 23.0549 41.9174 18.7388 41.7913C16.4882 41.7259 14.2934 42.0376 12.2141 42.7177C11.1291 43.0707 10.0811 43.5231 9.07725 44.0705C10.4063 41.5582 11.6747 39.0481 12.8635 36.5781C14.5832 33.0031 16.1571 29.4493 17.5417 26.0154C19.0001 22.3988 20.32 18.7397 21.4646 15.1399C22.3156 12.4503 23.0966 9.69974 23.7964 6.92978C25.6966 12.914 28.0335 18.7971 30.76 24.4561C33.9213 30.9966 37.6436 37.3455 41.8226 43.3258C45.9472 49.2307 50.636 54.8971 55.759 60.1677C60.7756 65.3345 66.3188 70.1585 72.2347 74.5067L73.7425 75.6147L72.9513 73.9188Z" fill="#B40000"/>
<path d="M38.5283 37.7892C38.5513 37.7756 38.5447 37.7797 38.5283 37.7892Z" fill="#805700"/>
<path d="M19.2826 46.3658C19.288 46.3632 19.2891 46.3621 19.2917 46.3603C19.2902 46.3599 19.2884 46.3592 19.2869 46.3588C19.2848 46.3607 19.2829 46.3625 19.2826 46.3658Z" fill="#805700"/>
<path d="M60.7847 32.7893C60.9554 32.7981 61.1432 32.8109 61.2996 32.8208C61.1267 32.7893 60.9232 32.755 60.7847 32.7893Z" fill="#805700"/>
<path d="M18.4867 35.3868C18.4867 35.3883 18.4874 35.3901 18.4892 35.3916C18.49 35.389 18.4896 35.3879 18.49 35.3868C18.49 35.3821 18.4867 35.3835 18.4867 35.3868Z" fill="#805700"/>
<path d="M16.0065 42.1684C16.0072 42.1677 16.0065 42.1674 16.0069 42.1666C16.0061 42.1666 16.005 42.1659 16.0036 42.1648C16.0047 42.1659 16.0043 42.1666 16.0065 42.1684Z" fill="#805700"/>
<path d="M61.1501 32.4426C60.792 32.417 60.3594 32.5635 60.3232 32.8003C60.3239 32.7974 60.3301 32.7952 60.3349 32.793C60.4624 32.6147 60.8359 32.455 61.1501 32.4426Z" fill="#805700"/>
<path d="M56.9623 35.833C56.9598 35.8341 56.9579 35.8348 56.955 35.8363C56.955 35.8367 56.9583 35.8356 56.962 35.8341C56.962 35.8337 56.9623 35.8334 56.9623 35.833Z" fill="#805700"/>
<path d="M52.1821 31.4471C51.8858 31.3905 51.5799 31.3203 51.3431 31.2783C51.2437 31.5158 51.8485 31.4296 52.1821 31.4471Z" fill="#805700"/>
<path d="M38.5111 37.7994C38.5096 37.8001 38.5089 37.8008 38.5071 37.8016C38.4219 37.852 38.472 37.8224 38.5111 37.7994Z" fill="#805700"/>
<path d="M76.6166 62.4753C76.6436 62.5495 76.6275 62.6763 76.5175 62.8674C76.6231 62.684 76.6692 62.551 76.6166 62.4753Z" fill="#805700"/>
<path d="M92.4623 41.1401C92.47 41.1339 92.4751 41.1226 92.4754 41.1021C92.3753 41.0612 92.3735 41.0923 92.3972 41.1189C92.3885 41.1007 92.4159 41.0934 92.4623 41.1401Z" fill="#805700"/>
<path d="M76.4554 62.4059C76.428 62.4034 76.3988 62.4019 76.3648 62.403C76.3695 62.4246 76.3728 62.4443 76.3746 62.4626C76.3984 62.4355 76.4262 62.4165 76.4554 62.4059Z" fill="#805700"/>
<path d="M97.5293 44.6954C97.5242 44.6914 97.5209 44.6874 97.5169 44.683C97.5151 44.7166 97.5238 44.7199 97.5293 44.6954Z" fill="#805700"/>
<path d="M24.7333 32.4601C24.7231 32.451 24.7205 32.4458 24.7205 32.4426C24.7132 32.4378 24.7095 32.4393 24.7333 32.4601Z" fill="#805700"/>
<path d="M20.7549 46.7104C20.752 46.7159 20.7476 46.7243 20.7421 46.7385C20.7476 46.7338 20.7512 46.7283 20.7545 46.7228C20.7629 46.7082 20.7633 46.6965 20.7549 46.7104Z" fill="#805700"/>
<path d="M97.5308 44.6052C97.5275 44.6183 97.5253 44.6289 97.5231 44.6395C97.5264 44.6435 97.5297 44.6483 97.5333 44.6541C97.5333 44.6402 97.533 44.6242 97.5308 44.6052Z" fill="#805700"/>
<path d="M19.2917 46.3603C19.3016 46.3537 19.2932 46.353 19.287 46.3585C19.2888 46.3592 19.291 46.3599 19.2917 46.3603Z" fill="#805700"/>
<path d="M82.7488 48.8474C82.7495 48.8448 82.7503 48.8423 82.7506 48.8397C82.7499 48.8394 82.7492 48.839 82.7484 48.8386C82.7488 48.8415 82.7488 48.8437 82.7488 48.8474Z" fill="#805700"/>
<path d="M84.0972 48.3873C84.0969 48.3895 84.0969 48.3906 84.0969 48.3917C84.0965 48.3954 84.0972 48.3972 84.1031 48.395C84.1031 48.3917 84.1013 48.3892 84.0972 48.3873Z" fill="#805700"/>
<path d="M85.0203 37.1701C85.0185 37.1734 85.0185 37.1763 85.0189 37.1789C85.0222 37.1752 85.0284 37.1723 85.0379 37.1705C85.0317 37.1705 85.0269 37.1705 85.0203 37.1701Z" fill="#805700"/>
<path d="M74.8285 63.329C74.8921 63.2424 74.8906 63.1207 74.7598 62.9647C74.876 63.1032 74.8804 63.2281 74.8285 63.329Z" fill="#805700"/>
<path d="M85.0843 37.1935C85.1256 37.1906 85.1563 37.1774 85.0788 37.1723C85.0909 37.1749 85.104 37.1785 85.1194 37.1847C85.1058 37.1895 85.0952 37.1913 85.0843 37.1935Z" fill="#805700"/>
<path d="M85.9222 34.6983C85.9226 34.6973 85.9229 34.6951 85.9229 34.6907C85.9215 34.691 85.9211 34.6925 85.9207 34.694C85.9204 34.6973 85.9215 34.7009 85.9222 34.6983Z" fill="#805700"/>
<path d="M82.7481 48.8171C82.7488 48.8171 82.7499 48.8167 82.751 48.8171C82.7499 48.8101 82.7484 48.808 82.7481 48.8171Z" fill="#805700"/>
<path d="M84.4564 56.7684C84.4517 56.7706 84.4473 56.7816 84.4564 56.7684Z" fill="#805700"/>
<path d="M82.379 47.8429C82.3775 47.8432 82.3772 47.844 82.375 47.844C82.3753 47.8421 82.3764 47.8418 82.3772 47.8407C82.3746 47.837 82.3735 47.8341 82.3684 47.8286C82.3721 47.8593 82.3911 47.8622 82.379 47.8429Z" fill="#805700"/>
<path d="M61.354 41.7248C61.3745 41.7146 61.3719 41.7157 61.354 41.7248Z" fill="#805700"/>
<path d="M66.7825 37.1617C66.7723 37.1643 66.7664 37.1669 66.7591 37.1694C66.7671 37.1731 66.7748 37.1771 66.7803 37.1815C66.7832 37.1764 66.7847 37.1701 66.7825 37.1617Z" fill="#805700"/>
<path d="M66.7763 37.1855C66.7664 37.1807 66.7558 37.176 66.7492 37.1723C66.6955 37.1942 66.7558 37.2077 66.7763 37.1855Z" fill="#805700"/>
<path d="M62.0217 40.5113C62.0195 40.505 62.018 40.4985 62.0169 40.4919C61.9665 40.5277 61.9987 40.5273 62.0217 40.5113Z" fill="#805700"/>
<path d="M62.0356 40.4791C62.0352 40.4791 62.0352 40.4794 62.0349 40.4794C62.0352 40.4802 62.0356 40.4809 62.0356 40.4813C62.0356 40.4805 62.0359 40.4798 62.0356 40.4791Z" fill="#805700"/>
<path d="M60.3499 44.2079C60.3637 44.1674 60.3634 44.1681 60.3597 44.1787C60.3575 44.1849 60.355 44.1933 60.3499 44.2079Z" fill="#805700"/>
<path d="M70.3122 48.3837C70.3118 48.3844 70.3118 48.3851 70.3114 48.3859C70.3129 48.3855 70.3133 48.3859 70.3155 48.3848C70.3144 48.3837 70.3133 48.384 70.3122 48.3837Z" fill="#805700"/>
<path d="M70.3104 48.383C70.3041 48.3826 70.3005 48.3881 70.3082 48.387C70.3089 48.3855 70.3096 48.3837 70.3104 48.383Z" fill="#805700"/>
<path d="M16.3255 49.2296C16.3244 49.2081 16.3427 49.1916 16.3471 49.1942C16.3493 49.1774 16.3233 49.1894 16.3255 49.2296Z" fill="#805700"/>
<path d="M39.1893 62.7169C39.5343 62.9888 39.8957 63.3535 40.081 63.4872C39.9406 63.3769 39.5588 62.9998 39.1893 62.7169Z" fill="#805700"/>
<path d="M38.3872 62.5678C38.4365 62.3913 38.5633 62.3671 38.7285 62.4285C38.5125 62.339 38.3583 62.3756 38.355 62.6642C38.3521 62.9328 38.6609 63.1481 38.9218 63.3549C38.6401 63.1232 38.3039 62.8671 38.3872 62.5678Z" fill="#805700"/>
<path d="M43.3084 65.9283C43.6669 66.1384 44.0097 66.4081 44.1427 66.4381C44.0517 66.3149 43.687 66.092 43.3084 65.9283Z" fill="#805700"/>
<path d="M42.8615 65.4667C43.0972 65.7189 43.5218 65.9403 43.789 65.9897C43.4805 65.8358 43.0863 65.667 42.8615 65.4667Z" fill="#805700"/>
<path d="M40.1095 63.5084C40.6711 63.8771 42.2794 64.2144 41.9647 64.8751C42.2878 64.1969 40.6803 63.8826 40.1095 63.5084Z" fill="#805700"/>
<path d="M41.4327 64.8893C41.0706 64.624 39.5668 63.4437 39.2171 63.6414C39.4956 63.4839 40.7848 64.3836 41.5569 65.0143C41.4963 64.95 41.4499 64.9018 41.4327 64.8893Z" fill="#805700"/>
<path d="M32.5206 54.6438C32.506 54.6241 32.4892 54.6007 32.4691 54.5718C32.4859 54.6051 32.5031 54.627 32.5206 54.6438Z" fill="#805700"/>
<path d="M33.0914 55.6703C33.1258 55.7156 33.1587 55.7781 33.1893 55.8607C33.2504 55.7748 33.1565 55.6158 33.0414 55.4744C33.0556 55.5365 33.0728 55.6063 33.0914 55.6703Z" fill="#805700"/>
<path d="M32.8553 42.9559C32.8553 42.9556 32.8557 42.9556 32.8557 42.9556C32.855 42.9559 32.8553 42.9559 32.8546 42.9567C32.8546 42.9567 32.855 42.9559 32.8553 42.9559Z" fill="#805700"/>
<path d="M31.4338 52.2514C31.8449 52.3336 32.0426 52.8953 32.1833 53.3623C32.0602 52.8584 31.842 52.3289 31.4338 52.2514Z" fill="#805700"/>
<path d="M73.3211 63.887C73.3101 63.9188 73.2966 63.9554 73.282 63.9919C73.4011 63.9477 73.3858 63.9126 73.3211 63.887Z" fill="#805700"/>
<path d="M88.2884 62.0858C88.296 62.0814 88.2905 62.0807 88.2887 62.0825C88.2876 62.0833 88.2873 62.0844 88.2884 62.0858Z" fill="#805700"/>
<path d="M84.045 60.0555C84.0618 60.0412 84.0771 60.027 84.0943 60.0127C84.0994 59.9956 84.0965 59.9846 84.0899 59.9762C84.0764 60.0032 84.0614 60.0295 84.045 60.0555Z" fill="#805700"/>
<path d="M44.1763 66.4399C44.1829 66.4384 44.1884 66.4359 44.1924 66.4311C44.2406 66.3818 44.2439 66.3321 44.2154 66.282C44.2125 66.3182 44.1968 66.3646 44.1763 66.4399Z" fill="#805700"/>
<path d="M98.8193 47.1496C98.8255 47.1438 98.8291 47.1434 98.8302 47.146C98.831 47.1401 98.8207 47.1438 98.8193 47.1496Z" fill="#805700"/>
<path d="M98.8237 47.1565C98.8259 47.1544 98.8251 47.154 98.8262 47.1525C98.8248 47.1529 98.8229 47.1522 98.8207 47.1518C98.8211 47.1536 98.8207 47.1551 98.8237 47.1565Z" fill="#805700"/>
<path d="M52.0897 69.5584C52.0897 69.5431 52.0645 69.5394 52.0897 69.5584Z" fill="#805700"/>
<path d="M74.6977 67.2727H74.698C74.694 67.2698 74.6929 67.269 74.6977 67.2727Z" fill="#805700"/>
<path d="M83.738 60.0847C83.5348 60.1947 83.2922 60.3632 83.134 60.5265C83.3306 60.3756 83.6394 60.3171 83.738 60.0847Z" fill="#805700"/>
<path d="M74.7145 67.2847C74.7152 67.2855 74.7156 67.2855 74.7167 67.2862C74.7167 67.2862 74.7159 67.2855 74.7148 67.2847C74.7145 67.2847 74.7145 67.2847 74.7145 67.2847Z" fill="#805700"/>
<path d="M73.164 64.0273C73.1644 64.0269 73.1647 64.0269 73.1647 64.0269C73.1658 64.0244 73.1658 64.0226 73.1662 64.0204C73.1333 63.9286 73.1172 63.8753 73.1125 63.8446C73.0876 63.842 73.0646 63.8406 73.0463 63.8398C73.0401 63.9265 73.1735 63.9718 73.164 64.0273Z" fill="#805700"/>
<path d="M70.705 64.8437C70.6582 64.806 70.6136 64.7983 70.5698 64.8071C70.6136 64.7987 70.6586 64.806 70.705 64.8437Z" fill="#805700"/>
<path d="M70.3951 65.1156C70.2939 65.1408 70.1931 65.1119 70.196 64.9774C70.1912 65.2033 70.2844 65.1934 70.3951 65.1156Z" fill="#805700"/>
<path d="M72.8154 64.229C72.8114 64.2228 72.8062 64.2159 72.7989 64.2086C72.7986 64.214 72.7993 64.2177 72.7993 64.2221C72.8033 64.2224 72.8088 64.2246 72.8154 64.229Z" fill="#805700"/>
<path d="M29.9151 44.2163C29.9129 44.2269 29.91 44.2335 29.91 44.2302C29.9092 44.2317 29.9092 44.2324 29.9085 44.2339C29.9202 44.2266 29.9242 44.1937 29.9151 44.2163Z" fill="#805700"/>
<path d="M32.0653 54.8594C31.9951 54.5766 31.8913 54.2912 31.743 54.0354C31.8617 54.3186 32.0456 54.7794 32.0653 54.8594Z" fill="#805700"/>
<path d="M60.576 67.1733C60.5753 67.1733 60.5596 67.1744 60.576 67.1733Z" fill="#805700"/>
<path d="M31.6534 53.8308C31.6575 53.8319 31.6622 53.8348 31.6666 53.8366C31.6582 53.8278 31.6494 53.8187 31.6418 53.8114C31.6429 53.8107 31.6472 53.8187 31.6534 53.8308Z" fill="#805700"/>
<path d="M72.8245 64.2535C72.8168 64.2557 72.8095 64.2561 72.8044 64.2535C72.8124 64.2718 72.8252 64.2689 72.8245 64.2535Z" fill="#805700"/>
<path d="M32.0653 54.8595C32.2253 54.7352 32.1055 54.4421 31.9418 54.1885C32.0748 54.4538 32.1654 54.7816 32.0653 54.8595Z" fill="#805700"/>
<path d="M58.4204 67.861C58.5132 67.7627 58.4204 67.8607 58.4204 67.861Z" fill="#805700"/>
<path d="M56.2673 37.4705C57.0029 37.8973 56.8852 36.8332 57.0719 36.395C57.27 35.9306 57.5419 35.7376 57.7937 35.2856C58.0498 34.8259 58.0323 34.5372 58.4266 34.1414C58.7262 33.8407 59.9976 33.5235 60.0093 33.1208C60.8702 33.1825 61.5612 33.0024 61.9321 33.9474C62.1006 34.3764 61.968 34.8767 61.8777 35.4409C61.5894 37.2461 61.3336 39.0875 60.7101 40.8142C60.3648 41.7705 57.0171 49.724 58.4171 50.0668C58.743 49.651 58.7595 49.5848 59.2185 49.1858C59.4914 48.9486 59.3526 49.162 59.6416 48.7787C60.1119 48.1538 60.1923 47.378 61.1403 47.424C61.6489 47.4485 61.4359 47.6173 61.764 47.727C62.1887 47.8688 62.5709 47.8808 62.9868 47.9798C63.616 48.13 63.9478 48.4644 64.6294 48.2667C65.7724 47.8311 66.322 46.627 66.5592 45.5322C66.7584 44.6139 66.9451 43.7825 67.0036 42.8262C67.0156 42.6281 67.2371 41.3912 67.0467 41.1675C67.5064 41.2095 66.9568 39.4526 66.9531 39.4233C66.8939 38.9355 67.0149 38.4586 67.0354 37.9843C67.1055 36.3694 66.8574 34.452 65.8517 33.1464C64.7255 31.685 62.7653 30.9315 61.0109 30.6823C60.1697 30.5628 58.318 32.1962 57.8609 31.8747C58.2106 31.4464 58.2377 29.9046 58.3107 29.3883C58.4145 28.6512 58.4847 27.8959 58.6097 27.1847C58.716 26.5781 58.7796 25.9463 58.8724 25.3061C58.9254 24.9421 59.2989 24.4364 58.944 24.1038C58.5201 23.7066 58.6378 24.3384 58.5527 24.4616C57.6219 25.8067 57.5305 27.8352 57.2254 29.5016C57.0394 30.5182 56.94 31.5648 56.7281 32.5745C56.4851 33.7354 55.797 34.7981 56.0487 36.0647C56.1774 36.239 56.1613 37.4091 56.2673 37.4705ZM60.3498 44.2079C60.3549 44.1933 60.3575 44.1849 60.3597 44.1787C60.3634 44.1681 60.3637 44.1673 60.3498 44.2079ZM61.354 41.7248C61.3745 41.7146 61.3719 41.7157 61.354 41.7248ZM66.7825 37.1617C66.7847 37.1701 66.7832 37.1763 66.7803 37.1814C66.7748 37.177 66.7671 37.173 66.7591 37.1694C66.7664 37.1668 66.7722 37.1642 66.7825 37.1617ZM66.7492 37.1723C66.7558 37.1759 66.7664 37.1807 66.7763 37.1854C66.7558 37.2077 66.6955 37.1942 66.7492 37.1723ZM62.0356 40.4791C62.0359 40.4798 62.0356 40.4805 62.0356 40.4812C62.0356 40.4809 62.0352 40.4802 62.0348 40.4794C62.0352 40.4794 62.0352 40.4791 62.0356 40.4791ZM62.0217 40.5112C61.9986 40.5273 61.9665 40.5277 62.0169 40.4918C62.018 40.4984 62.0195 40.505 62.0217 40.5112ZM60.7847 32.7893C60.9232 32.755 61.1267 32.7893 61.2996 32.8208C61.1432 32.8109 60.9553 32.7981 60.7847 32.7893ZM61.1501 32.4425C60.8359 32.455 60.4624 32.6147 60.3348 32.793C60.3301 32.7952 60.3239 32.7974 60.3232 32.8003C60.3593 32.5635 60.792 32.417 61.1501 32.4425ZM56.9623 35.833C56.9623 35.8334 56.9619 35.8337 56.9619 35.8341C56.9583 35.8355 56.955 35.8366 56.955 35.8363C56.9579 35.8348 56.9598 35.8341 56.9623 35.833Z" fill="#805700"/>
<path d="M45.1846 35.0346C44.4303 35.222 44.0225 36.5047 43.7897 37.1266C43.5975 37.6408 43.592 38.1184 43.4765 38.6012C43.2682 39.4731 42.8221 40.3194 42.6178 41.2008C42.237 42.8423 41.6845 45.841 43.2671 47.0385C43.334 46.744 42.8897 46.1509 43.2591 46.0391C43.524 45.9587 44.0488 46.8894 44.271 47.0744C45.0811 47.7489 46.4625 48.224 47.4897 48.3252C48.696 48.444 49.8697 47.9949 51.0296 47.7193C51.7473 47.5487 51.9947 47.1986 52.6503 46.9041C54.0367 46.2814 54.81 45.9258 55.6768 44.4677C55.9121 44.0716 56.1061 43.6488 56.3364 43.249C56.5728 42.8394 56.6287 42.5456 56.8114 42.1407C56.9437 41.848 57.2364 41.4537 57.2989 41.146C57.3405 40.9414 57.1714 40.6052 57.2112 40.3442C57.239 40.1604 57.5551 39.8034 57.5057 39.624C57.3515 39.066 56.1091 40.0899 55.7042 40.3099C54.8695 40.7634 54.2677 41.3437 53.3851 41.6481C51.8025 42.1937 49.8588 43.0192 48.013 42.5207C44.3978 41.5447 47.6296 36.5544 48.9225 34.7046C49.474 33.9156 49.8946 32.6461 51.1147 32.4718C51.858 32.3658 53.2689 33.8425 53.0003 32.352C52.9623 32.1396 52.5067 31.5663 52.3576 31.4815C52.3546 31.4797 52.3495 31.4786 52.3462 31.4771C52.4924 31.5023 52.6331 31.5228 52.757 31.5316C52.9316 31.0042 52.0722 30.7258 51.7356 30.6856C51.0625 30.6048 50.3828 31.0042 49.7546 31.3255C49.102 31.6591 48.4749 32.0965 47.8697 32.5624C47.1334 33.1296 45.4601 34.1086 45.1846 35.0346ZM51.3431 31.2783C51.5799 31.3203 51.8858 31.3905 52.1822 31.4471C51.8485 31.4296 51.2437 31.5159 51.3431 31.2783Z" fill="#805700"/>
<path d="M26.9961 30.2927C27.1327 30.0201 27.2617 29.8151 27.2489 29.4921C26.6664 30.0534 26.2064 30.6936 25.6717 31.2937C25.1532 31.8754 25.3439 31.909 25.1079 31.5761C25.193 31.696 24.9091 30.6794 24.9394 30.8361C24.8996 30.6308 24.8283 30.5109 24.8375 30.2895C24.8572 29.802 25.4876 29.3499 25.7909 28.8815C26.8711 27.2118 28.0203 25.6065 28.5389 23.8528C28.4355 23.8674 28.1797 24.1291 28.1004 24.0249C28.0894 23.9646 28.0883 23.9047 28.0975 23.8451C28.0854 23.8356 28.6902 23.263 27.959 23.6255C27.4751 23.8659 26.9412 24.5928 26.5817 24.9864C25.542 26.125 24.434 27.1797 23.4127 28.3468C21.3089 30.751 19.4185 33.59 17.6857 36.0771C15.948 38.5719 14.7041 40.9183 13.7778 43.8626C12.782 47.0279 12.6774 50.4469 12.5035 53.7537C12.456 54.6504 12.5784 54.8097 12.9603 55.6601C13.0897 55.9477 13.5833 56.9808 13.9955 56.8985C14.5554 56.7871 14.1315 55.6572 14.8572 55.5168C15.6835 55.3572 14.3935 56.3785 14.9307 56.688C14.7421 56.5792 16.3222 54.4761 16.551 54.2287C16.8181 53.94 17.4277 53.3696 17.568 53.1383C17.7145 52.8975 17.6232 52.6004 17.8099 52.3457C18.0927 51.9605 18.5218 52.0318 18.8057 51.4836C18.8806 51.3385 18.8766 51.1343 18.9277 50.9687C19.0173 50.6811 19.0918 50.0234 19.3823 49.8414C19.3304 50.0551 19.3747 50.2466 19.5157 50.4155C20.244 50.1969 20.5788 48.2346 20.779 47.5483C21.0227 46.714 21.2621 45.9912 21.6776 45.2439C22.1779 44.3442 22.4636 43.4106 22.8539 42.4071C23.0187 41.9828 23.2606 41.6225 23.2493 41.1559C23.2424 40.8635 23.0845 40.9183 23.0085 40.6355C22.4786 38.6728 23.7916 36.6158 24.8254 35.0075C25.3648 34.1681 25.8259 33.3368 26.3697 32.474C26.7344 31.8952 27.5475 30.9597 27.641 30.2891C27.4086 30.2968 27.2277 30.4667 26.9961 30.2927ZM16.0065 42.1685C16.0043 42.1666 16.0047 42.1659 16.0036 42.1648C16.005 42.1659 16.0061 42.1666 16.0069 42.1666C16.0065 42.1674 16.0072 42.1677 16.0065 42.1685ZM16.3255 49.2296C16.3233 49.1894 16.3493 49.1774 16.3471 49.1942C16.3427 49.1916 16.3244 49.2081 16.3255 49.2296ZM18.4892 35.3916C18.4874 35.3901 18.4867 35.3883 18.4867 35.3868C18.4867 35.3835 18.49 35.3821 18.49 35.3868C18.4896 35.3879 18.49 35.389 18.4892 35.3916ZM19.2826 46.3658C19.2829 46.3625 19.2848 46.3607 19.287 46.3588C19.2884 46.3592 19.2902 46.3599 19.2917 46.3603C19.2892 46.3621 19.2881 46.3632 19.2826 46.3658ZM19.2917 46.3603C19.291 46.3599 19.2888 46.3592 19.287 46.3585C19.2932 46.353 19.3016 46.3537 19.2917 46.3603ZM20.7545 46.7228C20.7512 46.7283 20.7476 46.7338 20.7421 46.7385C20.7476 46.7243 20.752 46.7159 20.7549 46.7104C20.7633 46.6965 20.7629 46.7082 20.7545 46.7228ZM24.7205 32.4426C24.7205 32.4459 24.7231 32.451 24.7333 32.4601C24.7096 32.4393 24.7132 32.4378 24.7205 32.4426Z" fill="#805700"/>
<path d="M27.6447 30.2752C27.6703 30.2924 27.6432 30.2887 27.6447 30.2752Z" fill="#805700"/>
<path d="M37.7101 44.9611C37.679 44.9578 37.6914 47.1387 37.8361 47.2779C37.9348 47.3729 38.8407 47.6375 39.0132 47.4504C39.0373 47.4244 38.8765 46.8789 38.9039 46.7773C38.9752 46.5149 39.11 46.7462 39.2942 46.5876C39.2814 46.5986 39.0019 46.2722 39.3059 46.2463C39.425 46.2361 39.9713 46.7868 40.0294 46.5259C40.1351 46.0534 39.7181 45.2447 39.6903 44.7638C39.6527 44.1133 39.8438 43.5414 39.9702 42.9034C40.3017 41.2293 40.5082 39.3843 41.0738 37.6821C41.3983 36.706 42.0145 35.8403 42.5856 34.9933C42.6514 34.8537 42.7073 34.7104 42.7534 34.5635C42.7694 34.3761 42.8886 34.3055 43.1111 34.3516C43.2865 34.3483 43.395 34.273 43.4374 34.1258C43.4246 33.9938 43.3662 33.9237 43.262 33.9149C43.4678 33.6485 43.4042 33.5999 43.7342 33.2856C44.1486 32.891 44.525 32.9871 44.9631 32.8376C45.3479 33.043 45.5175 32.9611 45.4721 32.592C45.5036 32.3936 45.527 32.1948 45.5427 31.9946C45.6666 31.7541 46.4453 31.4457 46.453 31.1446C46.4493 31.2889 45.539 30.6396 45.554 30.6513C45.1816 30.3688 45.1064 30.1031 44.6233 29.9493C43.774 29.6792 42.9306 30.1462 42.2355 30.5146C41.2306 31.047 39.7791 32.132 39.4681 33.3112C38.9178 32.7123 40.1409 30.7236 39.4199 30.2719C39.208 30.4704 39.2047 32.1685 39.178 32.5814C39.1458 33.0792 38.8371 31.9306 38.8506 31.6112C38.8685 31.1873 38.8491 30.8497 38.6214 30.8424C37.8248 30.8168 37.9454 33.7114 37.8014 34.3607C37.3633 36.3384 37.7261 38.6735 37.6947 40.6936C37.6867 41.222 37.4316 44.7754 37.7101 44.9611ZM38.5283 37.7892C38.5513 37.7757 38.5447 37.7797 38.5283 37.7892ZM38.5071 37.8016C38.5089 37.8009 38.5096 37.8001 38.5111 37.7994C38.472 37.8224 38.4219 37.852 38.5071 37.8016Z" fill="#805700"/>
<path d="M67.7491 50.7484C68.2683 51.0996 68.4682 50.8445 68.8581 50.4582C68.8844 50.5635 68.951 50.6271 69.0573 50.6486C69.0178 50.3935 69.4563 49.5655 69.3105 49.4361C69.5908 49.5922 70.1032 48.8639 70.3641 48.7374C70.8453 48.5043 71.4914 48.7802 71.9339 48.5565C72.2796 48.3819 72.6242 47.8513 72.7346 47.5114C72.9721 46.7813 73.0328 46.0409 73.3127 45.279C73.8802 43.7365 73.343 42.9841 73.0032 41.4318C72.6659 39.8929 72.1057 38.3446 71.8433 36.7671C71.631 35.4914 71.2524 34.2131 70.933 32.9575C70.8892 32.7857 70.5731 31.4643 70.4112 31.3229C69.7173 30.7156 69.7026 31.9127 69.6252 32.3063C69.4238 33.328 69.7322 34.1429 69.7034 35.1628C69.6898 35.6467 69.5375 36.0103 69.4516 36.5427C69.2305 37.9101 69.2364 39.385 68.913 40.7013C68.6243 41.8776 68.6513 43.1398 68.4485 44.357C68.3001 45.2476 68.3217 46.0526 68.2468 46.9158C68.1945 47.5224 68.048 48.1915 67.8156 48.7535C67.7443 48.9256 67.4658 50.5569 67.7491 50.7484ZM70.3122 48.3837C70.3133 48.3841 70.3144 48.3837 70.3155 48.3848C70.3133 48.3859 70.3129 48.3855 70.3114 48.3859C70.3118 48.3851 70.3118 48.3844 70.3122 48.3837ZM70.3104 48.383C70.3096 48.3837 70.3089 48.3855 70.3082 48.387C70.3005 48.3881 70.3041 48.3826 70.3104 48.383Z" fill="#805700"/>
<path d="M69.4848 29.1526C70.0578 29.6127 69.6763 29.7018 70.6659 29.7303C71.3295 29.7493 72.9984 29.2049 73.2429 28.3739C72.3717 27.4731 67.787 27.7884 69.4848 29.1526Z" fill="#805700"/>
<path d="M45.6084 48.847C45.8361 49.0641 46.1102 49.1072 46.4084 49.0612C46.2311 48.6566 45.8898 48.8631 45.6084 48.847Z" fill="#805700"/>
<path d="M41.2522 65.8245C41.3622 66.122 41.5862 66.2528 41.8931 66.2619C41.8453 65.8728 41.524 65.8848 41.2522 65.8245Z" fill="#805700"/>
<path d="M42.2542 66.3832C42.3317 66.7392 42.6112 66.7965 42.9094 66.8261C42.821 66.4867 42.5001 66.4903 42.2542 66.3832Z" fill="#805700"/>
<path d="M50.5249 48.2726C50.814 48.2477 51.0512 48.107 51.2744 47.9349C50.9529 47.8881 50.6908 47.9736 50.5249 48.2726Z" fill="#805700"/>
<path d="M27.6608 30.273C27.9652 30.2445 28.0014 29.9931 28.1599 29.7267C27.823 29.8509 27.6513 29.9924 27.6608 30.273Z" fill="#805700"/>
<path d="M39.5262 64.6822C39.5098 65.0041 39.835 64.9928 39.9852 65.1529C40.0711 64.7626 39.7886 64.7323 39.5262 64.6822Z" fill="#805700"/>
<path d="M87.1541 53.1829C87.3573 53.1259 87.5305 53.0436 87.4958 52.7831C87.3649 52.9018 87.0211 52.8386 87.1541 53.1829Z" fill="#805700"/>
<path d="M42.3587 61.17C42.4186 60.8949 42.2754 60.7447 42.0397 60.6515C42.074 60.8686 42.0433 61.1258 42.3587 61.17Z" fill="#805700"/>
<path d="M43.3753 38.0095C43.1696 38.1188 42.4968 39.1285 42.6931 39.4511C42.7369 39.4961 42.7804 39.541 42.8242 39.5863C42.9448 38.9403 43.2032 38.5968 43.3753 38.0095Z" fill="#805700"/>
<path d="M28.4022 29.3397C28.1906 29.3024 28.0975 29.4208 28.0032 29.5922C28.2783 29.6602 28.3913 29.5805 28.4022 29.3397Z" fill="#805700"/>
<path d="M45.0263 48.6205C45.1615 48.7637 45.3377 48.8167 45.5251 48.8449C45.4688 48.5248 45.3139 48.425 45.0263 48.6205Z" fill="#805700"/>
<path d="M43.9341 47.9364C43.9936 47.6649 43.9026 47.4832 43.6231 47.4138C43.7057 47.6006 43.6797 47.8516 43.9341 47.9364Z" fill="#805700"/>
<path d="M97.7954 43.6714C97.9514 43.5253 97.9788 43.3623 97.8776 43.1829C97.7515 43.3071 97.5432 43.4317 97.5721 43.6323C97.6463 43.6455 97.7208 43.6583 97.7954 43.6714Z" fill="#805700"/>
<path d="M27.333 29.3912C27.3849 29.6353 27.5683 29.1826 27.5402 29.0518C27.375 29.1066 27.3059 29.2195 27.333 29.3912Z" fill="#805700"/>
<path d="M50.4022 48.2784C50.0996 48.3172 49.2766 48.3632 49.174 48.7217C49.5189 48.6519 50.1683 48.5244 50.4022 48.2784Z" fill="#805700"/>
<path d="M41.4458 59.7953C41.4733 59.5121 40.9167 58.9259 40.7735 58.7048C40.5465 58.9285 41.2401 59.8369 41.4458 59.7953Z" fill="#805700"/>
<path d="M99.7402 45.454C99.6828 45.2235 99.8527 44.9552 99.5096 44.9154C99.2553 44.8858 99.4946 45.3835 99.4157 45.4617C98.9008 45.9737 98.5927 46.042 98.0742 45.4646C97.989 45.6514 97.7683 46.216 97.5754 46.2697C97.4109 46.1677 97.3349 46.023 97.347 45.8355C97.6459 45.9697 97.8944 44.4027 97.7095 44.2313C97.3875 44.5017 97.3923 44.1158 97.146 44.3866C96.9125 44.6432 97.0923 45.0261 96.7261 45.1456C96.4126 45.2479 96.224 44.9165 95.9452 44.9852C95.7482 45.0342 95.8615 45.2381 95.9054 45.3353C95.9072 45.3481 95.9108 45.3638 95.9189 45.3853C95.9291 45.4135 95.1672 45.4657 95.1778 45.4522C94.9648 45.7226 95.5984 46.5207 95.6649 46.7846C95.7815 47.2476 95.7084 47.5965 95.624 48.019C95.5158 48.5613 95.3565 49.1869 94.9183 49.5644C94.228 50.1589 94.6435 49.4314 94.4283 48.7751C93.8754 49.6349 94.8913 51.2673 93.7402 51.8812C93.7482 51.7774 93.9196 51.5476 93.696 51.53C93.7322 51.5326 93.0243 53.7694 92.5398 53.4577C92.3388 53.3279 92.804 52.5825 92.558 52.4776C92.2653 52.3533 91.8232 54.9552 91.4797 55.2179C91.2699 55.3784 90.9184 55.3144 90.7272 55.3901C90.5211 55.4719 90.6048 55.2439 90.3501 55.3988C90.246 55.4693 90.2039 55.5658 90.2237 55.689C90.2507 55.906 90.1246 56.0153 89.8458 56.0171C89.3759 56.5203 88.5723 57.7292 87.9511 58.0003C87.7753 58.077 87.2509 57.8925 87.1658 57.9323C86.9615 58.0281 86.9988 58.5832 86.667 58.5612C86.5482 58.0142 87.0211 57.9455 87.1764 57.5994C87.1683 57.6173 87.5301 56.4966 87.2874 56.8419C87.4672 56.5609 87.6861 56.289 87.8477 55.9883C88.0969 55.5735 89.0923 54.6285 89.5465 53.9415C90.1488 53.0312 90.3465 52.0932 90.7777 51.1109C91.2352 50.069 91.7479 49.1734 92.1762 48.1458C92.436 47.5224 92.201 46.8288 92.2774 46.2028C92.2887 46.1111 92.0044 45.556 92.3125 45.5911C92.6625 45.6309 92.3388 46.027 92.6187 46.2112C92.7755 45.9543 92.63 45.7329 92.7272 45.4705C92.8606 45.5713 92.9607 45.6981 93.028 45.8516C93.0919 45.5198 92.7309 44.9998 92.6311 44.6706C92.4152 43.9587 92.6103 43.1654 92.6534 42.5021C92.732 41.2849 92.956 39.7943 92.8168 38.6655C92.603 38.6103 92.6055 39.1584 92.4926 39.2969C92.3538 38.5737 92.4597 37.0879 92.0731 36.4754C91.8356 36.8909 92.1137 37.2355 91.8129 37.6434C91.761 36.9019 91.4281 37.2951 91.4753 37.7731C91.2703 37.9467 91.2991 38.2872 91.3134 38.524C91.0748 38.5672 91.2209 37.4913 91.2213 37.4248C90.8201 37.4943 91.1124 38.668 91.1394 38.9585C91.2392 38.8482 91.3265 38.8537 91.4025 38.975C91.2176 39.2286 91.3846 39.5787 91.3843 39.8604C91.3832 40.2949 91.4742 40.9063 91.3667 41.3791C91.1902 42.1571 91.225 42.0592 91.4749 42.8847C91.6456 43.4475 91.559 43.6704 91.4786 44.2105C91.6298 44.4414 91.6298 44.6501 91.4782 44.8376C91.4252 44.9351 91.3474 44.994 91.245 45.0133C91.1986 45.548 91.4939 45.909 91.188 46.3512C91.1932 46.1502 91.0031 45.837 90.8939 45.662C90.7806 45.7672 90.6487 46.5799 90.6348 46.7524C90.6088 47.0787 90.7433 47.5162 90.6724 47.8282C89.7852 47.9225 89.6781 50.019 89.1939 50.756C89.2695 50.6424 89.2703 50.528 89.1965 50.4129C89.0949 50.5627 88.6648 51.3557 88.6739 51.3638C88.7079 51.3952 89.176 51.1299 89.2034 51.1061C89.0485 51.6714 89.32 52.334 88.8347 52.6274C88.8405 52.6238 88.6183 53.2684 88.535 53.3769C88.0545 54.0047 87.3905 54.0946 86.975 54.8306C86.8712 55.014 87.0876 55.2307 86.9889 55.4204C86.8537 55.4624 86.7156 55.4905 86.5741 55.5052C86.409 55.6144 86.3465 55.7661 86.3874 55.9598C86.2007 56.171 85.3989 57.0813 85.4629 57.3762C85.3013 57.1511 83.9873 58.9753 83.8462 59.1543C83.4903 59.6071 82.9045 60.0807 82.5076 60.3888C81.9065 60.8554 80.804 61.086 80.5917 61.7255C79.366 62.1815 77.7837 63.2954 76.519 64.0401C74.602 65.1686 72.382 65.8779 70.3038 66.6135C68.4909 67.2552 66.4156 67.5029 64.5432 67.8808C63.6453 68.062 62.7288 68.0682 61.8182 68.0869C61.3424 68.0964 58.6196 67.6495 58.4204 67.861C58.2304 67.4536 61.8214 67.5234 62.2822 67.4079C62.2801 67.4075 62.2775 67.4064 62.2753 67.4054C63.1213 67.4667 63.9873 67.375 64.7935 67.2716C65.0036 67.2449 67.6716 66.7136 67.7019 66.5638C67.6749 66.4728 70.3403 65.7953 70.7017 65.6984C71.8013 65.4043 72.686 64.8389 73.6021 64.4819C74.5939 64.096 75.5725 63.6984 76.527 63.2124C76.8651 63.0407 77.9961 62.3858 77.9687 62.232C77.8985 61.8432 77.2455 62.1739 77.0777 62.1213C77.6832 61.8285 78.0487 61.2607 78.7379 61.022C79.1691 60.8729 79.6116 60.9332 79.9606 60.8108C80.595 60.5879 81.1647 59.9517 81.9485 59.6904C82.4291 59.5307 82.5124 59.6842 82.8599 59.4821C83.0832 59.3524 83.5323 58.8971 83.544 58.57C83.544 58.6884 81.5911 59.5607 81.6387 59.6126C81.6281 59.61 81.6218 59.6097 81.6164 59.61C81.6365 59.5918 81.6255 59.6009 81.6153 59.61C81.6083 59.6108 81.6043 59.6133 81.6058 59.6195C81.5981 59.6119 81.6021 59.602 81.6175 59.5899C81.2564 59.819 80.4627 60.4911 80.0494 60.4582C79.517 60.4154 79.8495 59.8636 79.0174 60.2568C78.5939 60.4571 75.9427 62.016 76.0363 62.2093C74.9805 62.1275 73.8587 63.1565 72.9005 63.5395C71.5517 64.0789 69.9778 64.5777 68.5468 64.9226C65.5459 65.6462 62.7829 66.0339 59.7038 66.043C58.0093 66.0485 56.2446 65.9093 54.5501 65.7284C53.9559 65.6652 53.1893 65.6484 52.5439 65.5161C51.9951 65.4035 50.6309 65.2683 50.1504 64.9581C50.032 64.9354 49.9136 64.9128 49.7955 64.8901C49.8423 64.7523 49.8398 64.6153 49.7882 64.479C49.4897 64.3051 48.97 64.3412 48.6408 64.2656C47.5408 64.0127 46.4603 63.5018 45.4027 63.1233C44.9912 62.9756 42.867 62.1892 42.9189 61.5358C42.5191 61.549 42.6788 61.4649 42.3466 61.4178C41.2624 61.0432 40.4216 59.3407 39.8456 58.4808C39.0545 57.2998 38.2023 55.5899 37.63 54.1808C37.0198 52.6782 36.5772 51.203 36.2085 49.678C36.0978 49.2191 35.7218 48.7345 35.6852 48.1677C35.6399 47.4566 35.7086 46.9249 35.4736 46.1772C35.1521 45.154 34.806 44.1962 34.2805 43.2626C34.1289 42.9936 33.899 42.2679 33.7444 42.0914C33.5058 41.8184 33.4554 42.2236 33.2471 41.9752C33.121 41.8246 33.1846 41.594 33.0746 41.4562C32.6862 40.9688 32.1917 40.5935 32.1267 39.9196C32.0876 39.5151 32.2984 39.3974 32.0722 39.0042C31.9363 38.7681 31.4854 38.6647 31.3816 38.493C31.2639 38.2986 31.4404 38.0084 31.3198 37.8341C31.0034 37.377 30.7907 37.404 30.5908 36.7546C30.4746 36.3771 30.4165 36.0961 30.3679 35.7139C30.217 34.5208 30.0894 33.3477 30.0127 32.0636C29.9831 31.5721 29.8756 27.6383 29.971 27.6598C29.7777 27.6156 28.7077 36.1283 28.6076 37.1171C28.2608 40.5401 28.0525 43.8695 28.84 47.2746C29.6352 50.7104 30.9529 54.1026 32.7063 57.2029C33.7068 58.9724 35.075 60.6204 36.4482 62.1099C36.9639 62.6694 37.5434 63.1806 38.1164 63.6732C38.2206 63.7628 39.584 64.756 39.3037 64.2261C40.0528 64.301 40.9518 65.0597 41.5873 65.4503C42.0865 65.7569 43.0333 66.5791 43.6044 66.3851C43.5664 66.3679 44.1709 66.7633 44.1676 66.5455C44.2644 66.8846 45.1316 66.4351 45.2087 67.1795C45.1966 67.1499 45.1783 67.1455 45.1539 67.166C46.628 67.7346 48.2673 68.1782 49.6552 69.0337C49.5368 69.0666 49.4334 69.1254 49.3442 69.2098C49.4462 69.4138 49.7645 69.3173 49.9307 69.3739C50.0484 69.4141 50.3638 69.4382 50.5779 69.4916C50.8937 69.5705 51.2445 69.6337 51.5456 69.72C53.2291 70.2031 54.9744 70.5784 56.6261 71.0414C56.571 71.026 57.0928 71.1115 56.9912 71.0973C57.4546 71.1616 57.8891 71.2584 58.3363 71.3078C59.3296 71.417 60.2907 71.4254 61.2324 71.58C62.5516 71.7963 64.336 71.8018 65.8843 71.8873C66.4222 71.9173 66.9466 71.8336 67.5028 71.8037C68.7602 71.7364 70.1203 71.99 71.304 71.6842C71.6537 71.4671 75.3354 71.2062 75.0712 70.8038C75.919 70.9387 76.7379 70.4962 77.5283 70.16C77.7947 70.0467 80.5727 69.1521 80.4459 68.976C80.7463 69.0143 81.6131 68.4823 81.9401 68.3343C82.6443 68.0164 83.5023 67.777 84.1813 67.3092C85.1676 66.6295 86.1364 65.9451 87.0382 65.0951C87.8977 64.2853 88.9589 63.6129 89.9927 63.003C90.6161 62.6354 91.279 62.1786 91.8798 61.8333C92.3344 61.572 93.0071 61.12 93.3368 60.7297C93.6072 60.4096 93.5991 60.2492 93.9379 59.9294C94.1038 59.7726 94.2412 59.8362 94.4579 59.6429C94.5193 59.4781 94.5803 59.3133 94.6417 59.1485C94.9045 59.0253 95.1234 58.8485 95.298 58.6172C96.0592 57.7723 96.778 56.5006 97.2417 55.6564C97.5801 55.0414 98.0603 54.5291 98.4217 53.9291C98.751 53.382 98.8752 52.6702 99.135 52.0924C99.5238 51.2293 99.7873 49.7836 99.9061 48.6249C100.091 47.6243 99.9861 46.4407 99.7402 45.454ZM97.5308 44.6051C97.533 44.6241 97.5334 44.6402 97.5334 44.6541C97.5297 44.6483 97.5264 44.6435 97.5231 44.6395C97.5253 44.6289 97.5275 44.6183 97.5308 44.6051ZM97.5293 44.6954C97.5238 44.7199 97.5151 44.7166 97.5169 44.683C97.5209 44.6874 97.5242 44.6914 97.5293 44.6954ZM92.4755 41.1021C92.4751 41.1226 92.47 41.1339 92.4623 41.1401C92.4159 41.0934 92.3885 41.1007 92.3972 41.119C92.3735 41.0923 92.3753 41.0612 92.4755 41.1021ZM76.6166 62.4754C76.6692 62.551 76.6231 62.684 76.5175 62.8675C76.6275 62.6763 76.6436 62.5495 76.6166 62.4754ZM76.4554 62.4059C76.4262 62.4165 76.3984 62.4355 76.3746 62.4626C76.3728 62.4443 76.3695 62.4246 76.3648 62.403C76.3988 62.4019 76.428 62.4034 76.4554 62.4059ZM74.8285 63.329C74.8804 63.2281 74.876 63.1032 74.7598 62.9647C74.8906 63.1207 74.8921 63.2424 74.8285 63.329ZM73.3211 63.887C73.3858 63.9126 73.4012 63.9477 73.282 63.9919C73.2966 63.9553 73.3102 63.9188 73.3211 63.887ZM73.1125 63.8446C73.1172 63.8753 73.1333 63.9287 73.1662 64.0204C73.1658 64.0226 73.1658 64.0244 73.1655 64.027C73.1655 64.027 73.1644 64.027 73.164 64.0273C73.1735 63.9718 73.0401 63.9265 73.0463 63.8399C73.0646 63.8406 73.0876 63.8421 73.1125 63.8446ZM72.8044 64.2535C72.8095 64.2561 72.8168 64.2557 72.8245 64.2535C72.8252 64.2689 72.8124 64.2718 72.8044 64.2535ZM72.8154 64.229C72.8088 64.2247 72.8033 64.2225 72.7993 64.2221C72.7993 64.2177 72.7986 64.2141 72.7989 64.2086C72.8062 64.2159 72.8114 64.2228 72.8154 64.229ZM70.705 64.8437C70.6586 64.8061 70.6137 64.7987 70.5698 64.8072C70.6137 64.7984 70.6582 64.8061 70.705 64.8437ZM70.3951 65.1156C70.2844 65.1934 70.1912 65.2033 70.196 64.9774C70.1931 65.1119 70.2939 65.1408 70.3951 65.1156ZM60.5761 67.1733C60.5753 67.1733 60.5596 67.1744 60.5761 67.1733ZM29.9085 44.2339C29.9093 44.2324 29.9093 44.2317 29.91 44.2302C29.91 44.2335 29.9129 44.2269 29.9151 44.2163C29.9242 44.1937 29.9202 44.2266 29.9085 44.2339ZM31.6535 53.8308C31.6472 53.8187 31.6429 53.8107 31.6418 53.8114C31.6494 53.8187 31.6582 53.8278 31.6666 53.8366C31.6622 53.8348 31.6575 53.8319 31.6535 53.8308ZM32.0653 54.8594C32.0456 54.7794 31.8617 54.3186 31.743 54.0354C31.8913 54.2912 31.9951 54.5766 32.0653 54.8594C32.1654 54.7816 32.0748 54.4538 31.9418 54.1885C32.1055 54.4421 32.2253 54.7352 32.0653 54.8594ZM31.4338 52.2514C31.842 52.3289 32.0602 52.8584 32.1833 53.3623C32.0426 52.8953 31.8449 52.3336 31.4338 52.2514ZM32.4691 54.5719C32.4892 54.6007 32.506 54.6241 32.5206 54.6438C32.5031 54.627 32.4859 54.6051 32.4691 54.5719ZM32.8553 42.956C32.855 42.956 32.8546 42.9567 32.8546 42.9567C32.8553 42.956 32.855 42.956 32.8557 42.9556C32.8557 42.9556 32.8553 42.9556 32.8553 42.956ZM33.1893 55.8607C33.1587 55.7781 33.1258 55.7156 33.0914 55.6703C33.0728 55.6064 33.0556 55.5366 33.0414 55.4745C33.1565 55.6159 33.2504 55.7748 33.1893 55.8607ZM38.3551 62.6643C38.3583 62.3756 38.5126 62.339 38.7285 62.4286C38.5634 62.3672 38.4365 62.3913 38.3872 62.5678C38.3039 62.8671 38.6401 63.1233 38.9218 63.3549C38.6609 63.1481 38.3521 62.9329 38.3551 62.6643ZM40.081 63.4872C39.8957 63.3535 39.5343 62.9888 39.1893 62.7169C39.5588 62.9997 39.9406 63.3769 40.081 63.4872ZM39.2171 63.6414C39.5668 63.4437 41.0706 64.6241 41.4327 64.8894C41.4499 64.9018 41.4963 64.95 41.5569 65.0144C40.7848 64.3836 39.4956 63.4839 39.2171 63.6414ZM41.9648 64.8751C42.2794 64.2144 40.6711 63.8771 40.1095 63.5084C40.6803 63.8826 42.2878 64.1969 41.9648 64.8751ZM43.789 65.9897C43.5219 65.9403 43.0972 65.7189 42.8615 65.4668C43.0863 65.667 43.4806 65.8358 43.789 65.9897ZM43.3084 65.9283C43.687 66.092 44.0517 66.3149 44.1427 66.4381C44.0097 66.4081 43.6669 66.1384 43.3084 65.9283ZM44.1924 66.4311C44.1884 66.4359 44.1829 66.4384 44.1763 66.4399C44.1968 66.3646 44.2125 66.3182 44.2154 66.282C44.2439 66.3321 44.2407 66.3818 44.1924 66.4311ZM52.0897 69.5585C52.0897 69.5431 52.0645 69.5395 52.0897 69.5585ZM74.6977 67.2727C74.6929 67.269 74.694 67.2698 74.6981 67.2727H74.6977ZM74.7145 67.2848C74.7145 67.2848 74.7145 67.2848 74.7149 67.2848C74.716 67.2855 74.7167 67.2862 74.7167 67.2862C74.7156 67.2855 74.7152 67.2855 74.7145 67.2848ZM83.134 60.5265C83.2922 60.3632 83.5349 60.1947 83.738 60.0847C83.6394 60.3171 83.3306 60.3756 83.134 60.5265ZM84.0943 60.0127C84.0772 60.027 84.0618 60.0412 84.045 60.0555C84.0614 60.0295 84.0764 60.0032 84.0899 59.9762C84.0965 59.9846 84.0995 59.9956 84.0943 60.0127ZM88.2884 62.0858C88.2873 62.0843 88.2876 62.0832 88.2887 62.0825C88.2906 62.0807 88.296 62.0814 88.2884 62.0858ZM98.8237 47.1566C98.8208 47.1551 98.8211 47.1536 98.8208 47.1518C98.8229 47.1522 98.8248 47.1529 98.8262 47.1526C98.8251 47.154 98.8259 47.1544 98.8237 47.1566ZM98.8193 47.1496C98.8208 47.1438 98.831 47.1401 98.8303 47.146C98.8292 47.1434 98.8255 47.1438 98.8193 47.1496Z" fill="#805700"/>
<path d="M94.1429 44.0483C94.3731 44.1601 94.2587 43.0203 93.8831 43.2655C93.7066 43.3806 94.0062 43.9817 94.1429 44.0483Z" fill="#805700"/>
<path d="M92.8069 43.0813C92.8237 43.1664 92.8215 43.4182 92.9907 43.53C93.1095 43.2892 93.1526 42.4246 93.0199 42.1907C92.675 42.4089 92.8778 42.771 92.8069 43.0813Z" fill="#805700"/>
<path d="M93.3879 48.5967C93.2352 48.8898 93.23 49.1182 93.3777 49.3503C93.4968 49.1204 93.5666 48.8924 93.3879 48.5967Z" fill="#805700"/>
<path d="M95.932 43.6539C95.9517 43.5626 96.1257 43.0455 95.875 42.9735C95.8512 43.2275 95.6649 43.4431 95.932 43.6539Z" fill="#805700"/>
<path d="M92.8873 44.3665C93.2439 44.3289 93.2439 44.3289 93.0703 43.9203C92.96 44.0501 92.8639 44.1827 92.8873 44.3665Z" fill="#805700"/>
<path d="M95.3126 42.6424C95.313 42.7802 95.3134 42.9179 95.3141 43.0557C95.6722 42.9168 95.5425 42.7794 95.3126 42.6424Z" fill="#805700"/>
<path d="M97.8607 42.9567C97.9141 42.9154 97.9616 42.8686 98.004 42.816C98.0482 42.702 98.0193 42.6154 97.9181 42.5569C97.7628 42.5529 97.6981 42.9655 97.8607 42.9567Z" fill="#805700"/>
<path d="M93.1548 41.2625C93.2534 41.063 93.3477 38.9724 93.0536 39.1226C93.0075 39.4752 93.1431 39.6631 93.0762 40.0219C93.0671 40.2222 92.9384 41.0568 93.1548 41.2625Z" fill="#805700"/>
<path d="M90.7817 54.6617C90.7791 54.8211 90.8401 54.8572 90.9647 54.7703C90.9954 54.6354 90.9443 54.5331 90.8109 54.463C90.801 54.5291 90.7915 54.5956 90.7817 54.6617Z" fill="#805700"/>
<path d="M94.5693 48.3204C94.4835 48.4695 94.2989 48.5602 94.4802 48.7644C94.6629 48.6596 94.6468 48.5141 94.5693 48.3204Z" fill="#805700"/>
<path d="M91.0188 53.4102C91.0378 53.556 91.1018 53.6064 91.2103 53.5614C91.3342 53.34 90.9852 53.1938 91.0188 53.4102Z" fill="#805700"/>
<path d="M46.5125 49.0729C46.7281 49.3575 48.7983 49.0462 49.0307 48.7345C48.3996 48.6409 47.778 48.972 47.1195 48.9819C46.9255 48.9493 46.6689 48.8996 46.5125 49.0729Z" fill="#805700"/>
<path d="M73.1344 38.3198C73.1183 38.14 73.5426 39.8027 73.1874 38.8811C73.1015 39.1756 73.1804 39.3879 73.4249 39.518C73.5148 39.5337 73.6051 39.5494 73.6953 39.5648C73.7951 39.639 73.9902 39.9766 73.9741 40.1009C74.0195 40.1604 73.9709 40.7433 74.2245 40.7075C74.3827 40.6848 74.9104 39.7168 74.9721 39.6434C75.1541 39.4278 75.1209 38.6932 75.1245 38.4236C75.1424 37.1128 75.5945 35.9226 76.7795 35.1098C77.7242 34.4616 78.7989 34.1638 79.8137 34.5895C81.2674 35.1994 81.2597 36.6925 81.1099 38.0453C80.849 40.3991 79.9474 42.5083 78.7309 44.4623C78.1309 45.4259 77.4636 46.4984 76.9151 47.5681C76.5899 48.2021 76.3162 48.6267 76.0903 49.2954C75.9394 49.7413 75.7615 50.0716 75.8992 50.4502C75.9142 50.4918 75.9745 51.0404 76.1093 50.8752C76.6399 50.2255 76.405 51.3236 76.8508 51.0802C76.9323 50.8218 77.0913 50.6888 77.297 50.5335C77.4117 50.4469 77.6083 50.6168 77.7662 50.5284C78.2044 50.2843 78.4788 49.6674 78.8409 49.3448C79.411 48.8368 80.9959 48.8047 81.8184 48.9073C82.3333 48.972 82.4777 49.1551 83.0108 48.9965C83.3039 48.9092 83.6112 48.7466 83.8827 48.6486C84.3615 48.4765 84.5314 48.5898 85.0145 48.0062C85.7077 47.1697 85.6255 46.2587 85.757 45.4434C85.8367 44.9508 86.0026 44.1462 86.2442 43.5385C86.7174 42.3468 86.8292 41.2564 87.0459 40.1352C87.3817 38.3954 86.9977 36.3428 86.1491 34.8029C85.8181 34.2021 85.7106 33.4194 85.1596 32.9443C84.5679 32.4342 83.7234 32.4462 82.9984 32.3596C82.0589 32.2474 81.3302 32.2142 80.4726 31.9211C79.7461 31.6726 78.9162 31.6686 78.1459 31.7757C77.2762 31.8966 74.838 32.6823 75.0496 33.8948C74.3948 33.4376 73.8806 31.1026 73.8488 31.134C73.4059 31.5685 73.7834 32.2697 73.7209 32.8321C73.6873 32.7035 73.604 32.6381 73.4709 32.6355C73.3072 33.0152 73.5977 33.8696 73.5952 34.3655C73.6208 35.7479 73.0185 37.0284 73.1344 38.3198ZM85.9229 34.6907C85.9229 34.6951 85.9226 34.6973 85.9222 34.6984C85.9215 34.7009 85.9204 34.6973 85.9207 34.694C85.9211 34.6925 85.9215 34.6911 85.9229 34.6907ZM85.0843 37.1935C85.0952 37.1913 85.1058 37.1895 85.1194 37.1848C85.104 37.1785 85.0909 37.1749 85.0788 37.1723C85.1563 37.1774 85.1256 37.1906 85.0843 37.1935ZM85.0203 37.1701C85.0269 37.1705 85.0317 37.1705 85.0379 37.1705C85.0284 37.1723 85.0222 37.1753 85.0189 37.1789C85.0185 37.1763 85.0185 37.1734 85.0203 37.1701ZM84.0973 48.3873C84.1013 48.3892 84.1031 48.3917 84.1031 48.395C84.0973 48.3972 84.0965 48.3954 84.0969 48.3917C84.0969 48.3906 84.0969 48.3895 84.0973 48.3873ZM82.7488 48.8474C82.7488 48.8438 82.7488 48.8416 82.7485 48.8386C82.7492 48.839 82.7499 48.8394 82.7506 48.8397C82.7503 48.8423 82.7496 48.8449 82.7488 48.8474ZM82.751 48.8171C82.7499 48.8167 82.7488 48.8171 82.7481 48.8171C82.7485 48.808 82.7499 48.8101 82.751 48.8171ZM82.3772 47.8407C82.3765 47.8418 82.3754 47.8421 82.375 47.844C82.3772 47.844 82.3775 47.8432 82.379 47.8429C82.3911 47.8622 82.3721 47.8593 82.3684 47.8286C82.3735 47.8341 82.3746 47.837 82.3772 47.8407Z" fill="#805700"/>
<path d="M86.4828 54.6077C86.6066 53.9751 86.9264 53.5194 86.2441 54.3917C86.1784 54.4758 86.1177 54.672 86.015 54.8094C85.8582 55.0188 85.6379 55.1829 85.4793 55.393C85.3335 55.5867 85.1453 55.9455 85.0455 56.0508C84.4627 56.6636 83.6185 57.1617 82.9724 57.7244C82.5613 58.0825 82.0706 58.4535 81.6489 58.7367C81.3949 58.9069 81.0861 58.7151 81.0295 59.1006C80.4539 58.7407 80.3637 59.7153 80.3527 59.94C80.8241 60.1063 80.7422 59.6152 80.5343 59.4127C81.0697 59.9035 81.5104 59.3078 81.9588 59.029C82.2489 58.8485 84.0618 58.2064 83.6602 57.5819C83.7146 57.5783 83.757 57.5549 83.7877 57.5121C83.9284 57.9225 84.3867 57.5687 84.5785 57.3798C84.5306 57.6053 84.4082 57.7781 84.2109 57.8976C84.6717 58.4209 84.8475 57.2227 84.9352 57.1072C85.1895 56.7739 85.6613 56.57 85.9266 56.2174C86.0537 56.0486 86.1393 55.7719 86.2584 55.5881C86.4744 55.2541 86.9147 54.7992 87.112 54.4988C87.3514 54.1348 88.2127 53.1332 88.2419 52.6683C88.2536 52.4827 87.3514 53.5874 87.1687 53.621C87.1515 53.9188 86.8603 54.6175 86.4828 54.6077ZM84.4565 56.7685C84.4517 56.7707 84.4473 56.7816 84.4565 56.7685Z" fill="#805700"/>
<path d="M79.9463 60.1512C80.2825 60.1381 80.2069 59.7069 79.9332 59.72C79.9376 59.8636 79.9419 60.0076 79.9463 60.1512Z" fill="#805700"/>
<path d="M78.7916 61.5088C78.9904 61.4894 79.1742 61.4547 79.1263 61.1821C78.8413 61.1134 78.8796 61.3761 78.7916 61.5088Z" fill="#805700"/>
<path d="M78.3381 61.9626C78.5 61.9115 78.6809 61.8786 78.6469 61.6396C78.4316 61.64 78.3096 61.7295 78.3381 61.9626Z" fill="#805700"/>
<path d="M83.7852 58.0398C83.7468 58.2349 83.6671 58.4118 83.5465 58.57C83.859 58.543 84.3552 57.9831 83.7852 58.0398Z" fill="#805700"/>
</g>
<defs>
<clipPath id="clip0_4322_94">
<rect width="100" height="80.5333" fill="white" transform="translate(0 0.519897)"/>
</clipPath>
</defs>
</svg>
