<svg width="74" height="101" viewBox="0 0 74 101" fill="none" xmlns="http://www.w3.org/2000/svg">
<g clip-path="url(#clip0_4325_216)">
<path d="M73.0283 99.7923C73.0057 99.7665 72.9826 99.7403 72.9599 99.7145L72.9626 99.7097L72.9541 99.7083C71.8853 98.4879 70.82 97.12 69.7009 95.5298C68.6876 94.0828 67.7179 92.5384 66.8201 90.9398C65.9766 89.4265 65.2002 87.7772 64.5136 86.0386C63.8771 84.3689 63.3914 82.6126 63.0705 80.8184L62.8887 80.8486C63.1701 82.6646 63.618 84.4472 64.2207 86.1475C64.8722 87.9181 65.6162 89.6012 66.4326 91.1496C67.2655 92.7246 68.2112 94.3041 69.2445 95.8436C70.1636 97.2058 71.0489 98.4106 71.9324 99.5034C71.0737 99.3159 70.2693 99.0972 69.4938 98.8412C68.4121 98.4701 67.3459 98.0186 66.3259 97.4991C65.3246 96.972 64.3434 96.3604 63.4087 95.6823C62.5528 95.0578 61.6986 94.3268 60.7982 93.449C59.2267 91.8962 57.8054 90.074 56.573 88.0323C55.9321 86.9951 55.3904 85.9133 54.9455 84.9934C54.5064 84.0694 54.0829 83.0574 53.6136 81.8086C52.8154 79.6073 52.1856 77.3692 51.7412 75.1551C51.5639 74.3236 51.4199 73.4711 51.2959 72.6734C53.1074 72.2267 54.9393 71.6574 56.7619 70.9748C58.9725 70.1126 61.2155 68.9944 63.4296 67.6505L64.2487 67.1527L63.7958 66.2879C62.4457 63.7075 61.1399 61.1263 59.9297 58.7211C58.6627 56.2025 57.3939 53.6377 56.1592 51.0987C53.4976 45.622 51.1443 40.5836 48.9653 35.6949C47.64 32.7199 46.569 30.2427 45.5934 27.8992C44.3122 24.8255 43.3118 22.3225 42.4456 20.0213C41.2905 16.9699 40.3963 14.4344 39.6306 12.0412C38.6315 8.88618 37.9546 6.30672 37.5009 3.92326L36.8476 0.489624L35.6596 3.76238C34.905 5.84141 34.1681 8.0271 33.4064 10.4452C32.6415 12.8878 32.0029 15.1046 31.4536 17.2214C30.766 19.8835 30.2896 22.0852 29.9536 24.1491C29.7372 25.4686 29.6016 26.6352 29.5394 27.717C29.4812 28.8098 29.455 30.1058 29.7078 31.4333C29.9558 32.595 30.2954 33.7683 30.718 34.9229C31.2078 36.2078 31.6602 37.2539 32.1411 38.2143C33.2357 40.4689 34.5192 42.599 35.6307 44.3852C36.7951 46.2473 38.0195 48.1015 39.2035 49.8948C40.5492 51.9325 41.9407 54.0399 43.2362 56.1483C44.5979 58.3562 45.7077 60.3348 46.6298 62.1978C47.0823 63.0991 47.5329 64.0986 48.0471 65.3404C48.4409 66.3621 48.8511 67.4545 49.1626 68.5896C49.4022 69.3846 49.5808 70.1882 49.7239 70.9366C49.5551 70.9739 49.3862 71.0104 49.2177 71.0455C46.8854 71.509 44.5117 71.8268 42.1625 71.9903C39.8314 72.1312 37.4271 72.1499 35.0156 72.0468C32.7557 71.9383 30.3554 71.7085 27.8804 71.3646C25.7018 71.061 23.5148 70.6717 21.3713 70.2055C23.3712 65.3817 24.8378 60.5192 25.7369 55.7239L25.9431 54.6643L26.1022 53.5999C26.1382 53.3542 26.1747 53.1084 26.2115 52.8626C26.2813 52.3987 26.3511 51.9347 26.4138 51.4667L26.6297 49.3246C26.6413 49.1979 26.6546 49.0717 26.668 48.9455C26.692 48.7179 26.7169 48.4828 26.7297 48.249L26.7857 47.1735C26.7973 46.9215 26.8111 46.6691 26.8249 46.4171C26.8502 45.9598 26.8755 45.4869 26.8884 45.0185L26.8929 42.8639C26.892 42.7355 26.8924 42.6075 26.8933 42.4791C26.8946 42.2515 26.8955 42.0164 26.888 41.7831L26.5831 35.6322L25.1729 38.2334C23.9432 40.5014 22.5481 42.8973 20.9078 45.5585C19.538 47.7873 18.0252 50.1161 16.2835 52.6786C15.656 53.6142 14.9942 54.5497 14.3542 55.4541L13.8578 56.1576L11.9783 58.7237L10.0464 61.2481L8.05805 63.7258L5.17283 67.1452L6.35412 67.642C7.55229 68.146 8.72202 68.5731 9.8082 68.9593C11.0717 69.4073 12.3343 69.8091 13.2934 70.1091C15.2555 70.7139 17.2728 71.2663 19.3038 71.7548C18.299 74.1071 17.1021 76.5315 15.648 79.1594C14.2747 81.6299 12.781 84.0547 11.2073 86.3675C9.63265 88.6808 7.9225 90.962 6.12479 93.1477C5.24838 94.2179 4.31553 95.2961 3.35291 96.3533C2.24851 97.5622 1.33076 98.5088 0.470798 99.3252L0.457466 99.3297L0.460577 99.335C0.443244 99.3514 0.425911 99.3679 0.408579 99.3843L0.357025 99.4332L0.709011 100.074L0.842783 100.03L0.84945 100.043L0.875227 100.02L3.32268 99.2279C3.50668 99.1643 3.68934 99.091 3.86622 99.0203C3.96221 98.9821 4.05865 98.9439 4.15598 98.9061L5.81236 98.2533C6.16479 98.1008 6.51811 97.9359 6.85988 97.7768C7.04965 97.6884 7.23897 97.6 7.42963 97.5133L8.2376 97.1395C8.4087 97.0551 8.5767 96.9658 8.74558 96.876C8.83891 96.8262 8.93224 96.7764 9.0269 96.7271L10.5984 95.8929C10.8526 95.7409 11.1077 95.5907 11.3628 95.4405C12.1148 94.9974 12.8925 94.5396 13.6258 94.0392C15.6173 92.7397 17.527 91.3091 19.3012 89.7874C21.2713 88.1021 22.9272 86.4826 24.3654 84.836L24.2281 84.7129C22.7606 86.316 21.0758 87.8883 19.0772 89.5189C17.3443 90.9389 15.4178 92.3157 13.3494 93.6112C12.6174 94.0903 11.8415 94.5272 11.0913 94.9498C10.8326 95.0956 10.5735 95.2414 10.3197 95.3867L8.74958 96.1809C8.65714 96.2271 8.5647 96.2742 8.4727 96.3209C8.30426 96.4067 8.13538 96.492 7.96605 96.5716L7.16164 96.9249C6.96965 97.008 6.7781 97.0929 6.587 97.1773C6.24834 97.3275 5.89814 97.4822 5.55326 97.6235L3.90711 98.2359C3.808 98.2715 3.70889 98.3093 3.61023 98.3462C3.43868 98.411 3.26135 98.4781 3.08669 98.5346L2.1374 98.8217C2.83204 98.1377 3.4609 97.4809 3.97821 96.9324C4.96795 95.8805 5.92791 94.8058 6.83099 93.7388C8.68203 91.5606 10.4468 89.2834 12.0766 86.9697C13.7316 84.6218 15.2795 82.189 16.6777 79.7389C18.223 77.027 19.494 74.5244 20.562 72.089C20.5673 72.0774 20.5727 72.065 20.578 72.053C25.348 73.1414 30.1718 73.8187 34.9196 74.0662C37.4093 74.1773 39.8901 74.1618 42.2949 74.0205C44.7379 73.8556 47.2054 73.5294 49.6306 73.0512C49.7768 73.0209 49.9235 72.9898 50.0701 72.9578C50.2035 73.7454 50.3577 74.584 50.5443 75.4088C51.0292 77.6772 51.7047 79.9642 52.5514 82.2086C53.0545 83.4827 53.5065 84.5165 53.9749 85.4627C54.4469 86.4 55.0211 87.5017 55.7033 88.5683C57.0108 90.6576 58.5116 92.5184 60.1653 94.1005C61.1106 94.9938 62.0088 95.7369 62.9105 96.3738C63.8909 97.0613 64.9184 97.6786 65.9655 98.2084C67.0095 98.719 68.1201 99.1648 69.2689 99.5346C70.316 99.8576 71.4093 100.114 72.6079 100.318L72.6199 100.332L72.6266 100.321C72.6599 100.327 72.6937 100.332 72.7279 100.338L73.643 100.49L73.0283 99.7923ZM50.4266 68.2367C50.1133 67.0376 49.6862 65.8577 49.3097 64.8435C48.7964 63.5578 48.3453 62.5222 47.8898 61.585C46.9609 59.6477 45.8548 57.6158 44.5081 55.3745C43.2122 53.2226 41.83 51.0876 40.4936 49.0228C39.3337 47.2309 38.1342 45.3776 37.0058 43.5355C35.9325 41.7751 34.6952 39.6796 33.6544 37.4833C33.2073 36.5708 32.7851 35.5704 32.3269 34.3376C31.9451 33.2634 31.6393 32.1719 31.4189 31.096C31.2585 30.2138 31.2247 29.1756 31.3122 27.8285C31.3816 26.8028 31.5184 25.6948 31.7309 24.442C32.0678 22.4376 32.5455 20.2915 33.233 17.688C33.785 15.6077 34.4272 13.4242 35.197 11.0123C35.5801 9.81858 35.9574 8.6813 36.3338 7.5849C36.7111 9.11506 37.176 10.7585 37.7577 12.6318C38.5479 15.145 39.4666 17.7938 40.567 20.7301C41.4385 23.0572 42.4425 25.5824 43.726 28.6769C44.7033 31.0373 45.7761 33.5305 47.1023 36.5233C49.2808 41.4342 51.6341 46.4976 54.2971 52.0022C56.8592 57.2922 59.2222 62.0076 61.5044 66.3821C59.6733 67.4447 57.8312 68.3411 56.0175 69.0527C54.3331 69.686 52.6425 70.2179 50.9723 70.6401C50.8359 69.8855 50.6608 69.0513 50.4266 68.2367ZM13.8587 68.2602C12.9174 67.9709 11.6779 67.5838 10.4397 67.1527C9.8162 66.935 9.06601 66.6687 8.29226 66.3737L9.51088 64.9137L11.5126 62.3903L13.4556 59.8233L15.3422 57.2171L15.8231 56.5283C16.4706 55.6021 17.1404 54.6443 17.775 53.687C19.3518 51.3458 20.9029 48.9144 22.3846 46.4598C23.433 44.7234 24.3805 43.0981 25.248 41.5471L25.2649 41.8346C25.2747 42.0595 25.2756 42.2897 25.276 42.5119C25.2765 42.6364 25.2769 42.7608 25.2787 42.8839L25.2938 44.9887C25.2858 45.4385 25.2649 45.8958 25.2445 46.3385C25.2329 46.59 25.2214 46.8411 25.212 47.0918L25.1676 48.1446C25.1574 48.3682 25.1351 48.5966 25.1138 48.817C25.1014 48.9415 25.0894 49.0663 25.0796 49.1903L24.8876 51.2867C24.8316 51.7311 24.7694 52.1747 24.7067 52.6182C24.6712 52.8706 24.6356 53.1226 24.6014 53.3746L24.4561 54.415L24.2636 55.4528C23.4165 60.2566 22.0086 65.1133 20.0722 69.914C17.9723 69.4278 15.8857 68.8727 13.8587 68.2602Z" fill="#B50000"/>
</g>
<defs>
<clipPath id="clip0_4325_216">
<rect width="73.2889" height="100" fill="white" transform="translate(0.35556 0.489624)"/>
</clipPath>
</defs>
</svg>
