<?xml version="1.0" standalone="no"?>
<!DOCTYPE svg PUBLIC "-//W3C//DTD SVG 20010904//EN"
 "http://www.w3.org/TR/2001/REC-SVG-20010904/DTD/svg10.dtd">
<svg version="1.0" xmlns="http://www.w3.org/2000/svg"
 width="2160.000000pt" height="2160.000000pt" viewBox="0 0 2160.000000 2160.000000"
 preserveAspectRatio="xMidYMid meet">
<metadata>
Created by potrace 1.14, written by Peter Selinger 2001-2017
</metadata>
<g transform="translate(0.000000,2160.000000) scale(0.100000,-0.100000)"
fill="#000000" stroke="none">
<path d="M0 11220 l0 -3810 280 0 279 0 1 -87 c0 -49 0 -106 0 -128 0 -105 1
-212 2 -235 0 -14 0 -29 -2 -35 -1 -5 -2 -25 -1 -42 l1 -33 210 0 210 0 0
-140 0 -140 1363 0 1363 0 0 3238 c-1 1780 0 3248 2 3262 l4 25 1791 -1 c986
-1 1797 -2 1803 -3 5 0 10 -11 11 -23 0 -13 3 -41 6 -63 6 -38 10 -74 23 -225
4 -36 7 -1257 8 -2715 l1 -2650 210 -2 210 -2 0 -141 0 -141 70 3 70 3 0 -140
0 -140 211 -3 210 -2 -1 -128 c-1 -70 1 -133 3 -139 3 -10 285 -13 1366 -13
l1361 0 -1 2572 c-1 1415 -5 2618 -8 2673 -10 166 -14 209 -20 240 -3 17 -8
54 -11 83 -3 29 -10 76 -16 105 -6 28 -13 66 -15 82 -3 17 -8 37 -11 45 -3 8
-7 24 -9 35 -11 80 -89 312 -150 450 -10 22 -18 42 -19 45 0 3 -5 12 -10 20
-5 8 -21 38 -35 65 -67 131 -189 308 -286 414 -66 72 -162 168 -197 194 -16
12 -41 33 -57 47 -15 14 -38 32 -51 40 -12 8 -30 22 -40 32 -9 9 -25 19 -36
22 -10 4 -38 36 -63 71 -25 36 -48 65 -52 65 -5 0 -8 4 -8 9 0 22 -199 224
-305 310 -82 67 -235 175 -235 166 0 -3 -9 3 -20 13 -11 11 -44 31 -73 46 -52
26 -80 46 -136 94 -60 53 -259 178 -388 244 -76 39 -138 70 -138 69 0 -3 -34
9 -70 24 -69 29 -257 85 -365 109 -66 15 -119 25 -165 31 -27 4 -61 9 -75 11
-24 4 -92 12 -157 17 -18 2 -35 6 -39 10 -4 3 -1761 7 -3905 7 l-3899 0 0
-3810z m7720 3666 c131 -9 214 -17 240 -22 14 -3 41 -7 60 -9 75 -8 215 -37
295 -61 28 -8 59 -16 70 -18 60 -12 279 -95 271 -103 -2 -2 -21 0 -42 6 -42
11 -86 19 -149 27 -46 6 -80 12 -80 14 0 1 -18 3 -40 5 -22 2 -69 7 -105 12
-36 4 -1810 8 -3942 10 l-3878 3 0 -3600 c0 -3422 -1 -3600 -17 -3601 -68 -4
-255 0 -260 5 -9 9 -10 7307 -2 7326 6 13 432 15 3756 13 2061 0 3782 -4 3823
-7z m415 -280 c61 -4 124 -9 140 -11 17 -2 52 -6 79 -9 86 -10 159 -21 206
-31 14 -3 36 -8 50 -10 14 -2 70 -16 125 -30 55 -15 105 -28 110 -29 6 -2 19
-6 30 -10 71 -27 96 -36 103 -37 4 -1 21 -8 39 -16 18 -7 35 -13 39 -13 22 0
138 -66 179 -102 50 -43 136 -132 174 -178 11 -14 24 -30 29 -35 130 -157 261
-391 332 -590 12 -33 24 -67 27 -75 11 -27 12 -33 48 -169 42 -159 44 -170 65
-311 13 -90 18 -139 26 -245 4 -44 7 -1222 8 -2617 l1 -2538 -40 -1 c-22 0
-479 -1 -1015 -1 l-975 -1 -1 2399 c-1 1319 -4 2458 -8 2529 -8 163 -17 254
-32 357 -3 20 -8 54 -10 75 -11 91 -29 169 -68 308 -31 112 -83 231 -122 282
-13 17 -24 35 -24 39 0 13 -125 129 -156 144 -16 8 -31 17 -34 21 -8 8 -106
49 -127 52 -10 1 -24 6 -30 10 -7 5 -17 6 -22 2 -10 -6 -18 1 -76 72 -46 57
-123 121 -180 150 -63 33 -146 63 -171 63 -12 0 -26 4 -29 10 -4 6 -767 10
-2120 10 -2015 0 -2115 -1 -2115 -17 -1 -10 -1 -1475 -1 -3255 -1 -2280 -4
-3240 -11 -3244 -8 -5 -1947 -9 -2013 -5 -7 1 -10 28 -8 74 4 86 4 69 0 190
-1 53 1 97 6 97 4 0 5 5 1 11 -11 18 -12 169 -1 162 6 -4 7 -1 1 8 -11 18 -12
139 -1 139 5 0 5 5 1 12 -11 17 -11 148 -1 148 5 0 5 5 1 12 -11 17 -11 148
-1 148 5 0 5 5 1 12 -11 17 -11 148 0 148 5 0 4 6 -1 13 -7 10 -8 69 -3 182 0
6 -1 40 -3 77 -2 42 0 65 6 61 6 -4 7 -1 1 8 -12 19 -12 51 -1 67 5 6 6 12 1
12 -5 0 -9 50 -9 110 0 61 3 110 8 110 4 0 5 5 1 11 -11 18 -12 169 -1 162 6
-4 7 -1 1 8 -12 19 -12 51 -1 67 5 6 6 12 1 12 -5 0 -9 50 -9 110 0 61 3 110
8 110 4 0 5 5 1 11 -11 18 -12 169 -1 162 6 -4 7 -1 1 8 -11 18 -12 139 -1
139 5 0 5 5 1 12 -11 17 -11 148 -1 148 5 0 5 5 1 12 -11 17 -11 148 -1 148 5
0 5 5 1 12 -11 17 -11 148 0 148 5 0 4 6 -1 13 -7 10 -8 69 -3 182 0 6 -1 40
-3 77 -2 46 0 65 7 61 8 -5 8 -3 0 8 -12 16 -12 48 -1 67 5 6 5 12 0 12 -4 0
-8 50 -8 110 0 61 3 110 8 110 4 0 5 5 1 11 -11 18 -12 169 -1 162 6 -4 7 -1
1 8 -12 19 -12 51 -1 67 5 6 6 12 1 12 -5 0 -9 50 -9 110 0 61 3 110 8 110 4
0 5 5 1 11 -11 18 -12 169 -1 162 6 -4 7 -1 1 8 -11 18 -12 139 -1 139 5 0 5
5 1 12 -11 17 -11 148 -1 148 5 0 5 5 1 12 -11 17 -11 148 -1 148 5 0 5 5 1
12 -11 17 -11 148 0 148 5 0 4 6 -1 13 -7 10 -8 69 -3 182 0 6 -1 40 -3 77 -2
46 0 65 7 61 8 -5 8 -3 0 8 -12 16 -12 48 -1 67 5 6 5 12 0 12 -4 0 -8 50 -8
110 0 61 3 110 8 110 4 0 5 5 1 11 -11 18 -12 169 -1 162 6 -4 7 -1 1 8 -12
19 -12 51 -1 67 5 6 6 12 1 12 -5 0 -9 50 -9 110 0 61 3 110 8 110 4 0 5 5 1
11 -11 18 -12 169 -1 162 6 -4 7 -1 1 8 -11 18 -12 139 -1 139 5 0 5 5 1 12
-11 17 -11 148 -1 148 5 0 5 5 1 12 -11 17 -11 148 -1 148 5 0 5 5 1 12 -11
17 -11 148 0 148 5 0 4 6 -1 13 -5 6 -8 37 -8 67 l0 55 35 5 c54 8 7421 4
7545 -4z m-460 -1518 c3 -3 8 -15 10 -27 2 -13 7 -31 10 -41 3 -10 10 -42 15
-72 5 -29 12 -64 14 -78 8 -37 25 -168 32 -250 3 -25 7 -72 10 -105 11 -118
10 -4965 -1 -4966 -12 -1 -258 -1 -266 0 -3 1 -6 1138 -6 2529 0 1390 -4 2583
-7 2652 -9 171 -24 348 -31 360 -4 7 213 5 220 -2z"/>
<path d="M11780 14418 c-1 -1265 -1 -5610 0 -6295 0 -391 0 -715 -1 -720 -1
-4 -1 -68 0 -140 l1 -133 280 0 280 0 -1 -97 c0 -54 0 -180 0 -280 l1 -183
4630 0 4630 0 -3 2803 c-2 1541 -6 2827 -10 2857 -4 30 -9 71 -12 90 -2 19 -6
55 -9 80 -3 25 -13 81 -21 125 -8 44 -17 91 -19 105 -3 14 -5 25 -6 25 -2 0
-3 5 -13 55 -17 79 -87 296 -107 332 -6 10 -10 22 -10 28 0 16 -121 265 -131
268 -5 2 -9 8 -9 13 0 16 -80 140 -149 229 -69 89 -137 165 -210 234 -24 22
-53 50 -65 61 -12 11 -39 34 -61 50 -40 31 -68 52 -89 70 -7 6 -21 15 -31 21
-11 6 -44 42 -73 80 -29 38 -67 87 -85 109 -34 43 -244 255 -253 255 -2 0 -30
21 -62 47 -124 101 -335 224 -547 319 -40 17 -200 72 -244 84 -20 5 -54 14
-76 20 -62 17 -78 20 -105 25 -14 2 -59 11 -100 19 -41 8 -97 17 -125 20 -27
3 -63 8 -80 11 -16 3 -52 8 -80 12 -27 3 -1622 8 -3542 10 l-3493 3 0 -612z
m6900 468 c162 -13 179 -14 237 -20 32 -4 65 -9 73 -11 8 -3 31 -7 50 -9 64
-9 145 -23 145 -26 0 -1 11 -4 24 -6 14 -2 52 -12 85 -20 34 -9 66 -17 71 -19
6 -1 17 -5 25 -8 8 -3 58 -20 110 -37 101 -35 278 -112 322 -142 14 -10 29
-18 33 -18 3 0 33 -18 66 -40 33 -22 64 -40 69 -40 5 0 10 -3 12 -7 2 -5 38
-34 80 -66 95 -72 236 -210 303 -297 28 -36 53 -67 56 -70 16 -14 192 -300
184 -300 -2 0 -30 35 -62 78 -32 42 -69 90 -83 107 -46 54 -216 221 -256 251
-21 16 -43 34 -49 41 -16 18 -232 163 -243 163 -6 0 -12 3 -14 8 -8 17 -323
166 -398 187 -12 3 -156 48 -170 53 -28 9 -52 15 -125 31 -130 29 -199 40
-325 56 -25 3 -67 8 -95 12 -27 3 -1584 8 -3460 10 -1876 2 -3415 5 -3421 7
-13 5 -10 126 4 135 13 8 6644 5 6752 -3z m-5 -279 c102 -6 270 -23 270 -27 0
-1 18 -3 40 -5 21 -3 55 -7 75 -11 19 -3 44 -8 55 -9 11 -2 20 -4 20 -5 0 -1
14 -4 30 -6 79 -12 340 -89 363 -107 6 -5 12 -7 12 -4 0 9 146 -55 244 -105
90 -47 219 -127 224 -140 2 -4 8 -8 13 -8 29 0 240 -193 339 -310 30 -36 58
-66 63 -68 4 -2 7 -10 7 -17 0 -7 3 -15 8 -17 22 -10 130 -182 194 -311 49
-98 137 -315 143 -352 2 -11 8 -36 15 -55 9 -29 37 -141 55 -225 7 -30 17
-105 18 -137 1 -16 5 -28 8 -28 3 0 5 -12 4 -27 -1 -16 0 -32 3 -37 6 -10 13
-68 13 -101 0 -10 5 -26 12 -34 10 -12 9 -13 -1 -7 -10 6 -12 -1 -8 -33 2 -22
7 -44 10 -50 4 -5 2 -12 -4 -16 -6 -4 -7 -11 -4 -17 11 -17 11 -262 1 -275 -6
-8 -6 -13 0 -13 11 0 11 -130 0 -147 -5 -7 -5 -13 0 -13 10 0 10 -451 -1 -468
-4 -6 -3 -12 1 -12 11 0 10 -130 0 -147 -5 -7 -5 -13 0 -13 10 0 10 -451 -1
-468 -4 -6 -3 -12 1 -12 11 0 10 -130 0 -147 -5 -7 -5 -13 0 -13 10 0 10 -451
-1 -468 -4 -6 -3 -12 1 -12 11 0 10 -130 0 -147 -5 -7 -5 -13 0 -13 10 0 10
-451 -1 -468 -4 -6 -3 -12 1 -12 11 0 10 -130 0 -147 -5 -7 -5 -13 0 -13 10 0
10 -451 -1 -468 -4 -6 -3 -12 1 -12 11 0 10 -130 0 -147 -5 -7 -5 -13 0 -13
10 0 10 -451 -1 -468 -4 -6 -3 -12 1 -12 11 0 10 -130 0 -147 -5 -7 -5 -13 0
-13 10 0 10 -451 -1 -468 -4 -6 -3 -12 3 -12 6 0 8 -6 6 -12 -4 -10 -909 -13
-4483 -11 -2462 1 -4484 2 -4492 2 -13 1 -15 400 -15 3527 1 2563 4 3527 12
3532 13 8 6615 7 6748 -1z m-6335 -7267 c0 -66 -1 -70 -22 -71 -13 0 -107 -2
-210 -2 -161 -2 -188 0 -189 13 -7 97 -4 122 12 129 10 3 106 5 213 3 l196 -3
0 -69z"/>
<path d="M14373 14077 c-7 -11 -7 -5983 0 -5994 3 -4 918 -8 2034 -8 l2028 1
0 51 c1 29 4 55 7 59 4 3 3 16 -1 28 -4 11 -6 39 -4 61 3 53 3 88 0 163 -1 35
1 66 5 68 4 3 4 15 0 27 -7 19 -8 114 -2 135 1 4 1 12 0 17 -6 26 -4 137 2
141 4 3 4 15 0 27 -7 19 -8 114 -2 135 1 4 1 12 0 17 -6 26 -4 137 2 141 4 3
4 15 0 27 -7 19 -8 114 -2 135 1 4 1 12 0 17 -2 12 -2 1418 1 1425 1 3 0 10
-1 15 -6 26 -4 137 2 141 4 3 4 15 0 27 -7 19 -8 114 -2 135 1 4 1 12 0 17 -6
26 -4 137 2 141 4 3 4 15 0 27 -7 19 -8 114 -2 135 1 4 1 12 0 17 -6 26 -4
137 2 141 4 3 4 15 0 27 -7 19 -8 114 -2 135 1 4 1 12 0 17 -6 28 -4 137 3
142 4 2 5 9 2 14 -4 5 -8 226 -10 492 -2 265 -6 498 -8 517 -3 19 -8 71 -12
115 -9 115 -19 192 -37 285 -5 30 -11 66 -13 80 -1 14 -5 32 -8 40 -3 8 -17
56 -31 106 -74 269 -233 455 -450 529 -53 18 -58 19 -131 30 -68 11 -3366 12
-3372 2z m3848 -998 c3 -15 10 -48 14 -75 3 -27 8 -58 10 -69 2 -11 6 -38 9
-60 3 -22 8 -56 11 -75 5 -35 14 -130 15 -163 0 -10 4 -15 10 -12 6 4 7 -1 3
-11 -6 -16 -8 -70 -3 -76 1 -2 4 -55 6 -118 2 -63 5 -134 7 -157 2 -24 -1 -43
-5 -43 -5 0 -6 -5 -3 -11 9 -14 12 -349 3 -349 -4 0 -5 -7 -2 -15 9 -22 10
-625 2 -625 -4 0 -5 -7 -2 -15 9 -22 10 -1105 2 -1105 -4 0 -5 -7 -2 -15 9
-22 10 -225 2 -225 -4 0 -5 -6 -2 -14 8 -22 10 -546 2 -546 -4 0 -5 -7 -2 -15
9 -24 10 -625 1 -625 -5 0 -5 -5 -2 -10 6 -9 9 -83 6 -140 -1 -14 -173 -16
-1618 -15 l-1618 0 0 2295 c-1 1262 1 2300 2 2305 2 7 510 10 1575 10 l1572 0
7 -26z m82 -4759 c-1 -19 -2 -51 -2 -70 l-1 -36 -1617 1 -1618 0 0 70 0 71
1620 -1 1620 0 -2 -35z"/>
</g>
</svg>
